<?xml version="1.0" encoding="utf-8" standalone="no"?>
<!DOCTYPE svg PUBLIC "-//W3C//DTD SVG 1.1//EN"
  "http://www.w3.org/Graphics/SVG/1.1/DTD/svg11.dtd">
<svg xmlns:xlink="http://www.w3.org/1999/xlink" width="912.464472pt" height="569.503125pt" viewBox="0 0 912.464472 569.503125" xmlns="http://www.w3.org/2000/svg" version="1.1">
 <metadata>
  <rdf:RDF xmlns:dc="http://purl.org/dc/elements/1.1/" xmlns:cc="http://creativecommons.org/ns#" xmlns:rdf="http://www.w3.org/1999/02/22-rdf-syntax-ns#">
   <cc:Work>
    <dc:type rdf:resource="http://purl.org/dc/dcmitype/StillImage"/>
    <dc:date>2025-08-26T12:25:22.363480</dc:date>
    <dc:format>image/svg+xml</dc:format>
    <dc:creator>
     <cc:Agent>
      <dc:title>Matplotlib v3.9.1, https://matplotlib.org/</dc:title>
     </cc:Agent>
    </dc:creator>
   </cc:Work>
  </rdf:RDF>
 </metadata>
 <defs>
  <style type="text/css">*{stroke-linejoin: round; stroke-linecap: butt}</style>
 </defs>
 <g id="figure_1">
  <g id="patch_1">
   <path d="M 0 569.503125 
L 912.464472 569.503125 
L 912.464472 0 
L 0 0 
z
" style="fill: #ffffff"/>
  </g>
  <g id="axes_1">
   <g id="patch_2">
    <path d="M 129.635938 493.234375 
L 890.247489 493.234375 
L 890.247489 36.234375 
L 129.635938 36.234375 
z
" style="fill: #ffffff"/>
   </g>
   <g id="PathCollection_1">
    <defs>
     <path id="m1534a8061f" d="M 0 3 
C 0.795609 3 1.55874 2.683901 2.12132 2.12132 
C 2.683901 1.55874 3 0.795609 3 0 
C 3 -0.795609 2.683901 -1.55874 2.12132 -2.12132 
C 1.55874 -2.683901 0.795609 -3 0 -3 
C -0.795609 -3 -1.55874 -2.683901 -2.12132 -2.12132 
C -2.683901 -1.55874 -3 -0.795609 -3 0 
C -3 0.795609 -2.683901 1.55874 -2.12132 2.12132 
C -1.55874 2.683901 -0.795609 3 0 3 
z
" style="stroke: #009e73; stroke-opacity: 0.7"/>
    </defs>
    <g clip-path="url(#p6a9d3a791d)">
     <use xlink:href="#m1534a8061f" x="547.888961" y="251.280005" style="fill: #009e73; fill-opacity: 0.7; stroke: #009e73; stroke-opacity: 0.7"/>
     <use xlink:href="#m1534a8061f" x="564.983471" y="258.455369" style="fill: #009e73; fill-opacity: 0.7; stroke: #009e73; stroke-opacity: 0.7"/>
     <use xlink:href="#m1534a8061f" x="570.894533" y="257.180229" style="fill: #009e73; fill-opacity: 0.7; stroke: #009e73; stroke-opacity: 0.7"/>
     <use xlink:href="#m1534a8061f" x="572.264524" y="259.319904" style="fill: #009e73; fill-opacity: 0.7; stroke: #009e73; stroke-opacity: 0.7"/>
     <use xlink:href="#m1534a8061f" x="537.531501" y="246.852198" style="fill: #009e73; fill-opacity: 0.7; stroke: #009e73; stroke-opacity: 0.7"/>
     <use xlink:href="#m1534a8061f" x="588.955653" y="266.068549" style="fill: #009e73; fill-opacity: 0.7; stroke: #009e73; stroke-opacity: 0.7"/>
     <use xlink:href="#m1534a8061f" x="540.568891" y="246.803484" style="fill: #009e73; fill-opacity: 0.7; stroke: #009e73; stroke-opacity: 0.7"/>
     <use xlink:href="#m1534a8061f" x="573.615292" y="260.431582" style="fill: #009e73; fill-opacity: 0.7; stroke: #009e73; stroke-opacity: 0.7"/>
     <use xlink:href="#m1534a8061f" x="566.00992" y="257.921323" style="fill: #009e73; fill-opacity: 0.7; stroke: #009e73; stroke-opacity: 0.7"/>
     <use xlink:href="#m1534a8061f" x="569.729017" y="256.908661" style="fill: #009e73; fill-opacity: 0.7; stroke: #009e73; stroke-opacity: 0.7"/>
     <use xlink:href="#m1534a8061f" x="602.328963" y="264.71639" style="fill: #009e73; fill-opacity: 0.7; stroke: #009e73; stroke-opacity: 0.7"/>
     <use xlink:href="#m1534a8061f" x="636.988094" y="293.8861" style="fill: #009e73; fill-opacity: 0.7; stroke: #009e73; stroke-opacity: 0.7"/>
     <use xlink:href="#m1534a8061f" x="595.531897" y="271.263976" style="fill: #009e73; fill-opacity: 0.7; stroke: #009e73; stroke-opacity: 0.7"/>
     <use xlink:href="#m1534a8061f" x="594.334223" y="266.235877" style="fill: #009e73; fill-opacity: 0.7; stroke: #009e73; stroke-opacity: 0.7"/>
     <use xlink:href="#m1534a8061f" x="591.419027" y="258.679589" style="fill: #009e73; fill-opacity: 0.7; stroke: #009e73; stroke-opacity: 0.7"/>
     <use xlink:href="#m1534a8061f" x="559.654441" y="258.167349" style="fill: #009e73; fill-opacity: 0.7; stroke: #009e73; stroke-opacity: 0.7"/>
     <use xlink:href="#m1534a8061f" x="544.37817" y="251.684879" style="fill: #009e73; fill-opacity: 0.7; stroke: #009e73; stroke-opacity: 0.7"/>
     <use xlink:href="#m1534a8061f" x="538.0433" y="248.410231" style="fill: #009e73; fill-opacity: 0.7; stroke: #009e73; stroke-opacity: 0.7"/>
    </g>
   </g>
   <g id="PathCollection_2">
    <defs>
     <path id="mfdaf90a7c5" d="M 0 3 
C 0.795609 3 1.55874 2.683901 2.12132 2.12132 
C 2.683901 1.55874 3 0.795609 3 0 
C 3 -0.795609 2.683901 -1.55874 2.12132 -2.12132 
C 1.55874 -2.683901 0.795609 -3 0 -3 
C -0.795609 -3 -1.55874 -2.683901 -2.12132 -2.12132 
C -2.683901 -1.55874 -3 -0.795609 -3 0 
C -3 0.795609 -2.683901 1.55874 -2.12132 2.12132 
C -1.55874 2.683901 -0.795609 3 0 3 
z
" style="stroke: #e69f00; stroke-opacity: 0.7"/>
    </defs>
    <g clip-path="url(#p6a9d3a791d)">
     <use xlink:href="#mfdaf90a7c5" x="554.17697" y="226.343199" style="fill: #e69f00; fill-opacity: 0.7; stroke: #e69f00; stroke-opacity: 0.7"/>
     <use xlink:href="#mfdaf90a7c5" x="739.5085" y="165.407927" style="fill: #e69f00; fill-opacity: 0.7; stroke: #e69f00; stroke-opacity: 0.7"/>
     <use xlink:href="#mfdaf90a7c5" x="764.133582" y="158.957335" style="fill: #e69f00; fill-opacity: 0.7; stroke: #e69f00; stroke-opacity: 0.7"/>
     <use xlink:href="#mfdaf90a7c5" x="855.674237" y="120.290951" style="fill: #e69f00; fill-opacity: 0.7; stroke: #e69f00; stroke-opacity: 0.7"/>
     <use xlink:href="#mfdaf90a7c5" x="766.447685" y="156.804059" style="fill: #e69f00; fill-opacity: 0.7; stroke: #e69f00; stroke-opacity: 0.7"/>
     <use xlink:href="#mfdaf90a7c5" x="749.258391" y="163.739472" style="fill: #e69f00; fill-opacity: 0.7; stroke: #e69f00; stroke-opacity: 0.7"/>
     <use xlink:href="#mfdaf90a7c5" x="717.909475" y="170.449546" style="fill: #e69f00; fill-opacity: 0.7; stroke: #e69f00; stroke-opacity: 0.7"/>
     <use xlink:href="#mfdaf90a7c5" x="684.184881" y="190.018216" style="fill: #e69f00; fill-opacity: 0.7; stroke: #e69f00; stroke-opacity: 0.7"/>
     <use xlink:href="#mfdaf90a7c5" x="833.572789" y="134.811263" style="fill: #e69f00; fill-opacity: 0.7; stroke: #e69f00; stroke-opacity: 0.7"/>
     <use xlink:href="#mfdaf90a7c5" x="675.659816" y="184.59493" style="fill: #e69f00; fill-opacity: 0.7; stroke: #e69f00; stroke-opacity: 0.7"/>
     <use xlink:href="#mfdaf90a7c5" x="699.209568" y="179.744143" style="fill: #e69f00; fill-opacity: 0.7; stroke: #e69f00; stroke-opacity: 0.7"/>
     <use xlink:href="#mfdaf90a7c5" x="543.363961" y="233.793421" style="fill: #e69f00; fill-opacity: 0.7; stroke: #e69f00; stroke-opacity: 0.7"/>
     <use xlink:href="#mfdaf90a7c5" x="592.594301" y="220.441677" style="fill: #e69f00; fill-opacity: 0.7; stroke: #e69f00; stroke-opacity: 0.7"/>
     <use xlink:href="#mfdaf90a7c5" x="688.100341" y="184.531992" style="fill: #e69f00; fill-opacity: 0.7; stroke: #e69f00; stroke-opacity: 0.7"/>
     <use xlink:href="#mfdaf90a7c5" x="651.433351" y="198.36031" style="fill: #e69f00; fill-opacity: 0.7; stroke: #e69f00; stroke-opacity: 0.7"/>
     <use xlink:href="#mfdaf90a7c5" x="782.268324" y="150.5343" style="fill: #e69f00; fill-opacity: 0.7; stroke: #e69f00; stroke-opacity: 0.7"/>
     <use xlink:href="#mfdaf90a7c5" x="658.054243" y="206.862457" style="fill: #e69f00; fill-opacity: 0.7; stroke: #e69f00; stroke-opacity: 0.7"/>
     <use xlink:href="#mfdaf90a7c5" x="534.819629" y="235.935633" style="fill: #e69f00; fill-opacity: 0.7; stroke: #e69f00; stroke-opacity: 0.7"/>
     <use xlink:href="#mfdaf90a7c5" x="684.123765" y="180.313729" style="fill: #e69f00; fill-opacity: 0.7; stroke: #e69f00; stroke-opacity: 0.7"/>
     <use xlink:href="#mfdaf90a7c5" x="569.755317" y="227.586691" style="fill: #e69f00; fill-opacity: 0.7; stroke: #e69f00; stroke-opacity: 0.7"/>
     <use xlink:href="#mfdaf90a7c5" x="568.011688" y="228.961454" style="fill: #e69f00; fill-opacity: 0.7; stroke: #e69f00; stroke-opacity: 0.7"/>
     <use xlink:href="#mfdaf90a7c5" x="783.54599" y="148.253821" style="fill: #e69f00; fill-opacity: 0.7; stroke: #e69f00; stroke-opacity: 0.7"/>
     <use xlink:href="#mfdaf90a7c5" x="815.122807" y="139.332629" style="fill: #e69f00; fill-opacity: 0.7; stroke: #e69f00; stroke-opacity: 0.7"/>
     <use xlink:href="#mfdaf90a7c5" x="784.988158" y="152.265586" style="fill: #e69f00; fill-opacity: 0.7; stroke: #e69f00; stroke-opacity: 0.7"/>
    </g>
   </g>
   <g id="PathCollection_3">
    <defs>
     <path id="mfa2c4a008f" d="M 0 3 
C 0.795609 3 1.55874 2.683901 2.12132 2.12132 
C 2.683901 1.55874 3 0.795609 3 0 
C 3 -0.795609 2.683901 -1.55874 2.12132 -2.12132 
C 1.55874 -2.683901 0.795609 -3 0 -3 
C -0.795609 -3 -1.55874 -2.683901 -2.12132 -2.12132 
C -2.683901 -1.55874 -3 -0.795609 -3 0 
C -3 0.795609 -2.683901 1.55874 -2.12132 2.12132 
C -1.55874 2.683901 -0.795609 3 0 3 
z
" style="stroke: #d55e00; stroke-opacity: 0.7"/>
    </defs>
    <g clip-path="url(#p6a9d3a791d)">
     <use xlink:href="#mfa2c4a008f" x="362.717558" y="198.420059" style="fill: #d55e00; fill-opacity: 0.7; stroke: #d55e00; stroke-opacity: 0.7"/>
     <use xlink:href="#mfa2c4a008f" x="440.142831" y="222.413604" style="fill: #d55e00; fill-opacity: 0.7; stroke: #d55e00; stroke-opacity: 0.7"/>
     <use xlink:href="#mfa2c4a008f" x="366.463926" y="198.111717" style="fill: #d55e00; fill-opacity: 0.7; stroke: #d55e00; stroke-opacity: 0.7"/>
     <use xlink:href="#mfa2c4a008f" x="444.282814" y="222.910825" style="fill: #d55e00; fill-opacity: 0.7; stroke: #d55e00; stroke-opacity: 0.7"/>
     <use xlink:href="#mfa2c4a008f" x="392.355639" y="207.662689" style="fill: #d55e00; fill-opacity: 0.7; stroke: #d55e00; stroke-opacity: 0.7"/>
     <use xlink:href="#mfa2c4a008f" x="258.25387" y="145.346302" style="fill: #d55e00; fill-opacity: 0.7; stroke: #d55e00; stroke-opacity: 0.7"/>
     <use xlink:href="#mfa2c4a008f" x="298.85143" y="167.948404" style="fill: #d55e00; fill-opacity: 0.7; stroke: #d55e00; stroke-opacity: 0.7"/>
     <use xlink:href="#mfa2c4a008f" x="269.298766" y="149.666307" style="fill: #d55e00; fill-opacity: 0.7; stroke: #d55e00; stroke-opacity: 0.7"/>
     <use xlink:href="#mfa2c4a008f" x="251.365928" y="142.718179" style="fill: #d55e00; fill-opacity: 0.7; stroke: #d55e00; stroke-opacity: 0.7"/>
     <use xlink:href="#mfa2c4a008f" x="267.015383" y="146.077282" style="fill: #d55e00; fill-opacity: 0.7; stroke: #d55e00; stroke-opacity: 0.7"/>
     <use xlink:href="#mfa2c4a008f" x="164.20919" y="57.007102" style="fill: #d55e00; fill-opacity: 0.7; stroke: #d55e00; stroke-opacity: 0.7"/>
     <use xlink:href="#mfa2c4a008f" x="404.796207" y="211.458456" style="fill: #d55e00; fill-opacity: 0.7; stroke: #d55e00; stroke-opacity: 0.7"/>
     <use xlink:href="#mfa2c4a008f" x="362.287731" y="193.382028" style="fill: #d55e00; fill-opacity: 0.7; stroke: #d55e00; stroke-opacity: 0.7"/>
    </g>
   </g>
   <g id="PathCollection_4">
    <defs>
     <path id="m3d8755bb4c" d="M 0 3 
C 0.795609 3 1.55874 2.683901 2.12132 2.12132 
C 2.683901 1.55874 3 0.795609 3 0 
C 3 -0.795609 2.683901 -1.55874 2.12132 -2.12132 
C 1.55874 -2.683901 0.795609 -3 0 -3 
C -0.795609 -3 -1.55874 -2.683901 -2.12132 -2.12132 
C -2.683901 -1.55874 -3 -0.795609 -3 0 
C -3 0.795609 -2.683901 1.55874 -2.12132 2.12132 
C -1.55874 2.683901 -0.795609 3 0 3 
z
" style="stroke: #cc79a7; stroke-opacity: 0.7"/>
    </defs>
    <g clip-path="url(#p6a9d3a791d)">
     <use xlink:href="#m3d8755bb4c" x="432.68918" y="211.858326" style="fill: #cc79a7; fill-opacity: 0.7; stroke: #cc79a7; stroke-opacity: 0.7"/>
     <use xlink:href="#m3d8755bb4c" x="443.139325" y="211.930383" style="fill: #cc79a7; fill-opacity: 0.7; stroke: #cc79a7; stroke-opacity: 0.7"/>
     <use xlink:href="#m3d8755bb4c" x="476.424606" y="227.036758" style="fill: #cc79a7; fill-opacity: 0.7; stroke: #cc79a7; stroke-opacity: 0.7"/>
     <use xlink:href="#m3d8755bb4c" x="443.163779" y="213.190569" style="fill: #cc79a7; fill-opacity: 0.7; stroke: #cc79a7; stroke-opacity: 0.7"/>
     <use xlink:href="#m3d8755bb4c" x="469.205826" y="223.434884" style="fill: #cc79a7; fill-opacity: 0.7; stroke: #cc79a7; stroke-opacity: 0.7"/>
     <use xlink:href="#m3d8755bb4c" x="472.77487" y="223.284787" style="fill: #cc79a7; fill-opacity: 0.7; stroke: #cc79a7; stroke-opacity: 0.7"/>
     <use xlink:href="#m3d8755bb4c" x="455.100291" y="218.365393" style="fill: #cc79a7; fill-opacity: 0.7; stroke: #cc79a7; stroke-opacity: 0.7"/>
     <use xlink:href="#m3d8755bb4c" x="404.217057" y="195.202273" style="fill: #cc79a7; fill-opacity: 0.7; stroke: #cc79a7; stroke-opacity: 0.7"/>
     <use xlink:href="#m3d8755bb4c" x="460.809278" y="219.540262" style="fill: #cc79a7; fill-opacity: 0.7; stroke: #cc79a7; stroke-opacity: 0.7"/>
     <use xlink:href="#m3d8755bb4c" x="481.812709" y="228.149877" style="fill: #cc79a7; fill-opacity: 0.7; stroke: #cc79a7; stroke-opacity: 0.7"/>
     <use xlink:href="#m3d8755bb4c" x="477.412818" y="225.32328" style="fill: #cc79a7; fill-opacity: 0.7; stroke: #cc79a7; stroke-opacity: 0.7"/>
     <use xlink:href="#m3d8755bb4c" x="435.222125" y="203.780227" style="fill: #cc79a7; fill-opacity: 0.7; stroke: #cc79a7; stroke-opacity: 0.7"/>
     <use xlink:href="#m3d8755bb4c" x="471.426019" y="223.964146" style="fill: #cc79a7; fill-opacity: 0.7; stroke: #cc79a7; stroke-opacity: 0.7"/>
     <use xlink:href="#m3d8755bb4c" x="402.129018" y="196.193797" style="fill: #cc79a7; fill-opacity: 0.7; stroke: #cc79a7; stroke-opacity: 0.7"/>
     <use xlink:href="#m3d8755bb4c" x="446.768428" y="213.878859" style="fill: #cc79a7; fill-opacity: 0.7; stroke: #cc79a7; stroke-opacity: 0.7"/>
     <use xlink:href="#m3d8755bb4c" x="477.881326" y="225.434057" style="fill: #cc79a7; fill-opacity: 0.7; stroke: #cc79a7; stroke-opacity: 0.7"/>
     <use xlink:href="#m3d8755bb4c" x="497.938297" y="233.084525" style="fill: #cc79a7; fill-opacity: 0.7; stroke: #cc79a7; stroke-opacity: 0.7"/>
     <use xlink:href="#m3d8755bb4c" x="487.13636" y="230.004156" style="fill: #cc79a7; fill-opacity: 0.7; stroke: #cc79a7; stroke-opacity: 0.7"/>
     <use xlink:href="#m3d8755bb4c" x="444.591802" y="216.261947" style="fill: #cc79a7; fill-opacity: 0.7; stroke: #cc79a7; stroke-opacity: 0.7"/>
    </g>
   </g>
   <g id="PathCollection_5">
    <defs>
     <path id="m8d3016d615" d="M 0 3 
C 0.795609 3 1.55874 2.683901 2.12132 2.12132 
C 2.683901 1.55874 3 0.795609 3 0 
C 3 -0.795609 2.683901 -1.55874 2.12132 -2.12132 
C 1.55874 -2.683901 0.795609 -3 0 -3 
C -0.795609 -3 -1.55874 -2.683901 -2.12132 -2.12132 
C -2.683901 -1.55874 -3 -0.795609 -3 0 
C -3 0.795609 -2.683901 1.55874 -2.12132 2.12132 
C -1.55874 2.683901 -0.795609 3 0 3 
z
" style="stroke: #0072b2; stroke-opacity: 0.7"/>
    </defs>
    <g clip-path="url(#p6a9d3a791d)">
     <use xlink:href="#m8d3016d615" x="498.693843" y="253.02791" style="fill: #0072b2; fill-opacity: 0.7; stroke: #0072b2; stroke-opacity: 0.7"/>
     <use xlink:href="#m8d3016d615" x="473.329523" y="259.522446" style="fill: #0072b2; fill-opacity: 0.7; stroke: #0072b2; stroke-opacity: 0.7"/>
     <use xlink:href="#m8d3016d615" x="498.050709" y="257.799703" style="fill: #0072b2; fill-opacity: 0.7; stroke: #0072b2; stroke-opacity: 0.7"/>
     <use xlink:href="#m8d3016d615" x="496.01494" y="255.225206" style="fill: #0072b2; fill-opacity: 0.7; stroke: #0072b2; stroke-opacity: 0.7"/>
     <use xlink:href="#m8d3016d615" x="504.137426" y="254.726344" style="fill: #0072b2; fill-opacity: 0.7; stroke: #0072b2; stroke-opacity: 0.7"/>
     <use xlink:href="#m8d3016d615" x="484.013373" y="268.959332" style="fill: #0072b2; fill-opacity: 0.7; stroke: #0072b2; stroke-opacity: 0.7"/>
     <use xlink:href="#m8d3016d615" x="489.944853" y="265.587488" style="fill: #0072b2; fill-opacity: 0.7; stroke: #0072b2; stroke-opacity: 0.7"/>
     <use xlink:href="#m8d3016d615" x="475.177868" y="257.678322" style="fill: #0072b2; fill-opacity: 0.7; stroke: #0072b2; stroke-opacity: 0.7"/>
     <use xlink:href="#m8d3016d615" x="488.679508" y="257.879367" style="fill: #0072b2; fill-opacity: 0.7; stroke: #0072b2; stroke-opacity: 0.7"/>
     <use xlink:href="#m8d3016d615" x="494.350672" y="261.467678" style="fill: #0072b2; fill-opacity: 0.7; stroke: #0072b2; stroke-opacity: 0.7"/>
     <use xlink:href="#m8d3016d615" x="408.596237" y="221.833137" style="fill: #0072b2; fill-opacity: 0.7; stroke: #0072b2; stroke-opacity: 0.7"/>
     <use xlink:href="#m8d3016d615" x="486.921575" y="273.200483" style="fill: #0072b2; fill-opacity: 0.7; stroke: #0072b2; stroke-opacity: 0.7"/>
     <use xlink:href="#m8d3016d615" x="496.111333" y="253.870961" style="fill: #0072b2; fill-opacity: 0.7; stroke: #0072b2; stroke-opacity: 0.7"/>
     <use xlink:href="#m8d3016d615" x="484.470159" y="262.007683" style="fill: #0072b2; fill-opacity: 0.7; stroke: #0072b2; stroke-opacity: 0.7"/>
     <use xlink:href="#m8d3016d615" x="495.270424" y="258.308726" style="fill: #0072b2; fill-opacity: 0.7; stroke: #0072b2; stroke-opacity: 0.7"/>
     <use xlink:href="#m8d3016d615" x="475.164167" y="290.051359" style="fill: #0072b2; fill-opacity: 0.7; stroke: #0072b2; stroke-opacity: 0.7"/>
     <use xlink:href="#m8d3016d615" x="496.022211" y="249.283386" style="fill: #0072b2; fill-opacity: 0.7; stroke: #0072b2; stroke-opacity: 0.7"/>
     <use xlink:href="#m8d3016d615" x="457.205777" y="286.7061" style="fill: #0072b2; fill-opacity: 0.7; stroke: #0072b2; stroke-opacity: 0.7"/>
     <use xlink:href="#m8d3016d615" x="488.696951" y="256.378698" style="fill: #0072b2; fill-opacity: 0.7; stroke: #0072b2; stroke-opacity: 0.7"/>
     <use xlink:href="#m8d3016d615" x="499.023112" y="273.621913" style="fill: #0072b2; fill-opacity: 0.7; stroke: #0072b2; stroke-opacity: 0.7"/>
    </g>
   </g>
   <g id="PathCollection_6">
    <defs>
     <path id="m5c33fdefba" d="M 0 3 
C 0.795609 3 1.55874 2.683901 2.12132 2.12132 
C 2.683901 1.55874 3 0.795609 3 0 
C 3 -0.795609 2.683901 -1.55874 2.12132 -2.12132 
C 1.55874 -2.683901 0.795609 -3 0 -3 
C -0.795609 -3 -1.55874 -2.683901 -2.12132 -2.12132 
C -2.683901 -1.55874 -3 -0.795609 -3 0 
C -3 0.795609 -2.683901 1.55874 -2.12132 2.12132 
C -1.55874 2.683901 -0.795609 3 0 3 
z
" style="stroke: #d73027; stroke-opacity: 0.7"/>
    </defs>
    <g clip-path="url(#p6a9d3a791d)">
     <use xlink:href="#m5c33fdefba" x="531.274596" y="258.459353" style="fill: #d73027; fill-opacity: 0.7; stroke: #d73027; stroke-opacity: 0.7"/>
     <use xlink:href="#m5c33fdefba" x="531.965134" y="266.547674" style="fill: #d73027; fill-opacity: 0.7; stroke: #d73027; stroke-opacity: 0.7"/>
     <use xlink:href="#m5c33fdefba" x="525.167529" y="254.787657" style="fill: #d73027; fill-opacity: 0.7; stroke: #d73027; stroke-opacity: 0.7"/>
     <use xlink:href="#m5c33fdefba" x="536.7365" y="260.466307" style="fill: #d73027; fill-opacity: 0.7; stroke: #d73027; stroke-opacity: 0.7"/>
     <use xlink:href="#m5c33fdefba" x="522.524359" y="250.358051" style="fill: #d73027; fill-opacity: 0.7; stroke: #d73027; stroke-opacity: 0.7"/>
     <use xlink:href="#m5c33fdefba" x="520.819797" y="251.505627" style="fill: #d73027; fill-opacity: 0.7; stroke: #d73027; stroke-opacity: 0.7"/>
     <use xlink:href="#m5c33fdefba" x="549.116784" y="257.559039" style="fill: #d73027; fill-opacity: 0.7; stroke: #d73027; stroke-opacity: 0.7"/>
     <use xlink:href="#m5c33fdefba" x="532.075533" y="250.237599" style="fill: #d73027; fill-opacity: 0.7; stroke: #d73027; stroke-opacity: 0.7"/>
     <use xlink:href="#m5c33fdefba" x="556.45268" y="264.922174" style="fill: #d73027; fill-opacity: 0.7; stroke: #d73027; stroke-opacity: 0.7"/>
     <use xlink:href="#m5c33fdefba" x="537.654234" y="257.172624" style="fill: #d73027; fill-opacity: 0.7; stroke: #d73027; stroke-opacity: 0.7"/>
     <use xlink:href="#m5c33fdefba" x="553.637271" y="267.57475" style="fill: #d73027; fill-opacity: 0.7; stroke: #d73027; stroke-opacity: 0.7"/>
     <use xlink:href="#m5c33fdefba" x="574.671507" y="291.183602" style="fill: #d73027; fill-opacity: 0.7; stroke: #d73027; stroke-opacity: 0.7"/>
     <use xlink:href="#m5c33fdefba" x="540.625935" y="272.413593" style="fill: #d73027; fill-opacity: 0.7; stroke: #d73027; stroke-opacity: 0.7"/>
     <use xlink:href="#m5c33fdefba" x="677.789109" y="472.461648" style="fill: #d73027; fill-opacity: 0.7; stroke: #d73027; stroke-opacity: 0.7"/>
     <use xlink:href="#m5c33fdefba" x="535.822583" y="258.523961" style="fill: #d73027; fill-opacity: 0.7; stroke: #d73027; stroke-opacity: 0.7"/>
     <use xlink:href="#m5c33fdefba" x="535.750412" y="256.666106" style="fill: #d73027; fill-opacity: 0.7; stroke: #d73027; stroke-opacity: 0.7"/>
     <use xlink:href="#m5c33fdefba" x="569.957916" y="284.942546" style="fill: #d73027; fill-opacity: 0.7; stroke: #d73027; stroke-opacity: 0.7"/>
     <use xlink:href="#m5c33fdefba" x="554.534367" y="268.609111" style="fill: #d73027; fill-opacity: 0.7; stroke: #d73027; stroke-opacity: 0.7"/>
     <use xlink:href="#m5c33fdefba" x="586.60328" y="366.81798" style="fill: #d73027; fill-opacity: 0.7; stroke: #d73027; stroke-opacity: 0.7"/>
     <use xlink:href="#m5c33fdefba" x="521.701455" y="249.148482" style="fill: #d73027; fill-opacity: 0.7; stroke: #d73027; stroke-opacity: 0.7"/>
     <use xlink:href="#m5c33fdefba" x="552.843451" y="302.871466" style="fill: #d73027; fill-opacity: 0.7; stroke: #d73027; stroke-opacity: 0.7"/>
     <use xlink:href="#m5c33fdefba" x="539.994198" y="265.729996" style="fill: #d73027; fill-opacity: 0.7; stroke: #d73027; stroke-opacity: 0.7"/>
     <use xlink:href="#m5c33fdefba" x="529.550469" y="256.597499" style="fill: #d73027; fill-opacity: 0.7; stroke: #d73027; stroke-opacity: 0.7"/>
     <use xlink:href="#m5c33fdefba" x="547.549501" y="261.292291" style="fill: #d73027; fill-opacity: 0.7; stroke: #d73027; stroke-opacity: 0.7"/>
     <use xlink:href="#m5c33fdefba" x="523.013024" y="251.522723" style="fill: #d73027; fill-opacity: 0.7; stroke: #d73027; stroke-opacity: 0.7"/>
     <use xlink:href="#m5c33fdefba" x="523.451185" y="251.584048" style="fill: #d73027; fill-opacity: 0.7; stroke: #d73027; stroke-opacity: 0.7"/>
     <use xlink:href="#m5c33fdefba" x="523.234172" y="248.407769" style="fill: #d73027; fill-opacity: 0.7; stroke: #d73027; stroke-opacity: 0.7"/>
     <use xlink:href="#m5c33fdefba" x="533.168119" y="261.656485" style="fill: #d73027; fill-opacity: 0.7; stroke: #d73027; stroke-opacity: 0.7"/>
    </g>
   </g>
   <g id="matplotlib.axis_1">
    <g id="xtick_1">
     <g id="line2d_1">
      <defs>
       <path id="m43492ea28b" d="M 0 0 
L 0 3.5 
" style="stroke: #000000; stroke-width: 0.8"/>
      </defs>
      <g>
       <use xlink:href="#m43492ea28b" x="187.473037" y="493.234375" style="stroke: #000000; stroke-width: 0.8"/>
      </g>
     </g>
     <g id="text_1">
      <!-- −300 -->
      <g transform="translate(146.272255 523.029687) scale(0.3 -0.3)">
       <defs>
        <path id="DejaVuSans-2212" d="M 678 2272 
L 4684 2272 
L 4684 1741 
L 678 1741 
L 678 2272 
z
" transform="scale(0.015625)"/>
        <path id="DejaVuSans-33" d="M 2597 2516 
Q 3050 2419 3304 2112 
Q 3559 1806 3559 1356 
Q 3559 666 3084 287 
Q 2609 -91 1734 -91 
Q 1441 -91 1130 -33 
Q 819 25 488 141 
L 488 750 
Q 750 597 1062 519 
Q 1375 441 1716 441 
Q 2309 441 2620 675 
Q 2931 909 2931 1356 
Q 2931 1769 2642 2001 
Q 2353 2234 1838 2234 
L 1294 2234 
L 1294 2753 
L 1863 2753 
Q 2328 2753 2575 2939 
Q 2822 3125 2822 3475 
Q 2822 3834 2567 4026 
Q 2313 4219 1838 4219 
Q 1578 4219 1281 4162 
Q 984 4106 628 3988 
L 628 4550 
Q 988 4650 1302 4700 
Q 1616 4750 1894 4750 
Q 2613 4750 3031 4423 
Q 3450 4097 3450 3541 
Q 3450 3153 3228 2886 
Q 3006 2619 2597 2516 
z
" transform="scale(0.015625)"/>
        <path id="DejaVuSans-30" d="M 2034 4250 
Q 1547 4250 1301 3770 
Q 1056 3291 1056 2328 
Q 1056 1369 1301 889 
Q 1547 409 2034 409 
Q 2525 409 2770 889 
Q 3016 1369 3016 2328 
Q 3016 3291 2770 3770 
Q 2525 4250 2034 4250 
z
M 2034 4750 
Q 2819 4750 3233 4129 
Q 3647 3509 3647 2328 
Q 3647 1150 3233 529 
Q 2819 -91 2034 -91 
Q 1250 -91 836 529 
Q 422 1150 422 2328 
Q 422 3509 836 4129 
Q 1250 4750 2034 4750 
z
" transform="scale(0.015625)"/>
       </defs>
       <use xlink:href="#DejaVuSans-2212"/>
       <use xlink:href="#DejaVuSans-33" x="83.789062"/>
       <use xlink:href="#DejaVuSans-30" x="147.412109"/>
       <use xlink:href="#DejaVuSans-30" x="211.035156"/>
      </g>
     </g>
    </g>
    <g id="xtick_2">
     <g id="line2d_2">
      <g>
       <use xlink:href="#m43492ea28b" x="302.333068" y="493.234375" style="stroke: #000000; stroke-width: 0.8"/>
      </g>
     </g>
     <g id="text_2">
      <!-- −200 -->
      <g transform="translate(261.132286 523.029687) scale(0.3 -0.3)">
       <defs>
        <path id="DejaVuSans-32" d="M 1228 531 
L 3431 531 
L 3431 0 
L 469 0 
L 469 531 
Q 828 903 1448 1529 
Q 2069 2156 2228 2338 
Q 2531 2678 2651 2914 
Q 2772 3150 2772 3378 
Q 2772 3750 2511 3984 
Q 2250 4219 1831 4219 
Q 1534 4219 1204 4116 
Q 875 4013 500 3803 
L 500 4441 
Q 881 4594 1212 4672 
Q 1544 4750 1819 4750 
Q 2544 4750 2975 4387 
Q 3406 4025 3406 3419 
Q 3406 3131 3298 2873 
Q 3191 2616 2906 2266 
Q 2828 2175 2409 1742 
Q 1991 1309 1228 531 
z
" transform="scale(0.015625)"/>
       </defs>
       <use xlink:href="#DejaVuSans-2212"/>
       <use xlink:href="#DejaVuSans-32" x="83.789062"/>
       <use xlink:href="#DejaVuSans-30" x="147.412109"/>
       <use xlink:href="#DejaVuSans-30" x="211.035156"/>
      </g>
     </g>
    </g>
    <g id="xtick_3">
     <g id="line2d_3">
      <g>
       <use xlink:href="#m43492ea28b" x="417.193099" y="493.234375" style="stroke: #000000; stroke-width: 0.8"/>
      </g>
     </g>
     <g id="text_3">
      <!-- −100 -->
      <g transform="translate(375.992317 523.029687) scale(0.3 -0.3)">
       <defs>
        <path id="DejaVuSans-31" d="M 794 531 
L 1825 531 
L 1825 4091 
L 703 3866 
L 703 4441 
L 1819 4666 
L 2450 4666 
L 2450 531 
L 3481 531 
L 3481 0 
L 794 0 
L 794 531 
z
" transform="scale(0.015625)"/>
       </defs>
       <use xlink:href="#DejaVuSans-2212"/>
       <use xlink:href="#DejaVuSans-31" x="83.789062"/>
       <use xlink:href="#DejaVuSans-30" x="147.412109"/>
       <use xlink:href="#DejaVuSans-30" x="211.035156"/>
      </g>
     </g>
    </g>
    <g id="xtick_4">
     <g id="line2d_4">
      <g>
       <use xlink:href="#m43492ea28b" x="532.05313" y="493.234375" style="stroke: #000000; stroke-width: 0.8"/>
      </g>
     </g>
     <g id="text_4">
      <!-- 0 -->
      <g transform="translate(522.50938 523.029687) scale(0.3 -0.3)">
       <use xlink:href="#DejaVuSans-30"/>
      </g>
     </g>
    </g>
    <g id="xtick_5">
     <g id="line2d_5">
      <g>
       <use xlink:href="#m43492ea28b" x="646.91316" y="493.234375" style="stroke: #000000; stroke-width: 0.8"/>
      </g>
     </g>
     <g id="text_5">
      <!-- 100 -->
      <g transform="translate(618.28191 523.029687) scale(0.3 -0.3)">
       <use xlink:href="#DejaVuSans-31"/>
       <use xlink:href="#DejaVuSans-30" x="63.623047"/>
       <use xlink:href="#DejaVuSans-30" x="127.246094"/>
      </g>
     </g>
    </g>
    <g id="xtick_6">
     <g id="line2d_6">
      <g>
       <use xlink:href="#m43492ea28b" x="761.773191" y="493.234375" style="stroke: #000000; stroke-width: 0.8"/>
      </g>
     </g>
     <g id="text_6">
      <!-- 200 -->
      <g transform="translate(733.141941 523.029687) scale(0.3 -0.3)">
       <use xlink:href="#DejaVuSans-32"/>
       <use xlink:href="#DejaVuSans-30" x="63.623047"/>
       <use xlink:href="#DejaVuSans-30" x="127.246094"/>
      </g>
     </g>
    </g>
    <g id="xtick_7">
     <g id="line2d_7">
      <g>
       <use xlink:href="#m43492ea28b" x="876.633222" y="493.234375" style="stroke: #000000; stroke-width: 0.8"/>
      </g>
     </g>
     <g id="text_7">
      <!-- 300 -->
      <g transform="translate(848.001972 523.029687) scale(0.3 -0.3)">
       <use xlink:href="#DejaVuSans-33"/>
       <use xlink:href="#DejaVuSans-30" x="63.623047"/>
       <use xlink:href="#DejaVuSans-30" x="127.246094"/>
      </g>
     </g>
    </g>
    <g id="text_8">
     <!-- PC1 (3.46% Variance) -->
     <g transform="translate(347.18937 556.064062) scale(0.3 -0.3)">
      <defs>
       <path id="DejaVuSans-50" d="M 1259 4147 
L 1259 2394 
L 2053 2394 
Q 2494 2394 2734 2622 
Q 2975 2850 2975 3272 
Q 2975 3691 2734 3919 
Q 2494 4147 2053 4147 
L 1259 4147 
z
M 628 4666 
L 2053 4666 
Q 2838 4666 3239 4311 
Q 3641 3956 3641 3272 
Q 3641 2581 3239 2228 
Q 2838 1875 2053 1875 
L 1259 1875 
L 1259 0 
L 628 0 
L 628 4666 
z
" transform="scale(0.015625)"/>
       <path id="DejaVuSans-43" d="M 4122 4306 
L 4122 3641 
Q 3803 3938 3442 4084 
Q 3081 4231 2675 4231 
Q 1875 4231 1450 3742 
Q 1025 3253 1025 2328 
Q 1025 1406 1450 917 
Q 1875 428 2675 428 
Q 3081 428 3442 575 
Q 3803 722 4122 1019 
L 4122 359 
Q 3791 134 3420 21 
Q 3050 -91 2638 -91 
Q 1578 -91 968 557 
Q 359 1206 359 2328 
Q 359 3453 968 4101 
Q 1578 4750 2638 4750 
Q 3056 4750 3426 4639 
Q 3797 4528 4122 4306 
z
" transform="scale(0.015625)"/>
       <path id="DejaVuSans-20" transform="scale(0.015625)"/>
       <path id="DejaVuSans-28" d="M 1984 4856 
Q 1566 4138 1362 3434 
Q 1159 2731 1159 2009 
Q 1159 1288 1364 580 
Q 1569 -128 1984 -844 
L 1484 -844 
Q 1016 -109 783 600 
Q 550 1309 550 2009 
Q 550 2706 781 3412 
Q 1013 4119 1484 4856 
L 1984 4856 
z
" transform="scale(0.015625)"/>
       <path id="DejaVuSans-2e" d="M 684 794 
L 1344 794 
L 1344 0 
L 684 0 
L 684 794 
z
" transform="scale(0.015625)"/>
       <path id="DejaVuSans-34" d="M 2419 4116 
L 825 1625 
L 2419 1625 
L 2419 4116 
z
M 2253 4666 
L 3047 4666 
L 3047 1625 
L 3713 1625 
L 3713 1100 
L 3047 1100 
L 3047 0 
L 2419 0 
L 2419 1100 
L 313 1100 
L 313 1709 
L 2253 4666 
z
" transform="scale(0.015625)"/>
       <path id="DejaVuSans-36" d="M 2113 2584 
Q 1688 2584 1439 2293 
Q 1191 2003 1191 1497 
Q 1191 994 1439 701 
Q 1688 409 2113 409 
Q 2538 409 2786 701 
Q 3034 994 3034 1497 
Q 3034 2003 2786 2293 
Q 2538 2584 2113 2584 
z
M 3366 4563 
L 3366 3988 
Q 3128 4100 2886 4159 
Q 2644 4219 2406 4219 
Q 1781 4219 1451 3797 
Q 1122 3375 1075 2522 
Q 1259 2794 1537 2939 
Q 1816 3084 2150 3084 
Q 2853 3084 3261 2657 
Q 3669 2231 3669 1497 
Q 3669 778 3244 343 
Q 2819 -91 2113 -91 
Q 1303 -91 875 529 
Q 447 1150 447 2328 
Q 447 3434 972 4092 
Q 1497 4750 2381 4750 
Q 2619 4750 2861 4703 
Q 3103 4656 3366 4563 
z
" transform="scale(0.015625)"/>
       <path id="DejaVuSans-25" d="M 4653 2053 
Q 4381 2053 4226 1822 
Q 4072 1591 4072 1178 
Q 4072 772 4226 539 
Q 4381 306 4653 306 
Q 4919 306 5073 539 
Q 5228 772 5228 1178 
Q 5228 1588 5073 1820 
Q 4919 2053 4653 2053 
z
M 4653 2450 
Q 5147 2450 5437 2106 
Q 5728 1763 5728 1178 
Q 5728 594 5436 251 
Q 5144 -91 4653 -91 
Q 4153 -91 3862 251 
Q 3572 594 3572 1178 
Q 3572 1766 3864 2108 
Q 4156 2450 4653 2450 
z
M 1428 4353 
Q 1159 4353 1004 4120 
Q 850 3888 850 3481 
Q 850 3069 1003 2837 
Q 1156 2606 1428 2606 
Q 1700 2606 1854 2837 
Q 2009 3069 2009 3481 
Q 2009 3884 1853 4118 
Q 1697 4353 1428 4353 
z
M 4250 4750 
L 4750 4750 
L 1831 -91 
L 1331 -91 
L 4250 4750 
z
M 1428 4750 
Q 1922 4750 2215 4408 
Q 2509 4066 2509 3481 
Q 2509 2891 2217 2550 
Q 1925 2209 1428 2209 
Q 931 2209 642 2551 
Q 353 2894 353 3481 
Q 353 4063 643 4406 
Q 934 4750 1428 4750 
z
" transform="scale(0.015625)"/>
       <path id="DejaVuSans-56" d="M 1831 0 
L 50 4666 
L 709 4666 
L 2188 738 
L 3669 4666 
L 4325 4666 
L 2547 0 
L 1831 0 
z
" transform="scale(0.015625)"/>
       <path id="DejaVuSans-61" d="M 2194 1759 
Q 1497 1759 1228 1600 
Q 959 1441 959 1056 
Q 959 750 1161 570 
Q 1363 391 1709 391 
Q 2188 391 2477 730 
Q 2766 1069 2766 1631 
L 2766 1759 
L 2194 1759 
z
M 3341 1997 
L 3341 0 
L 2766 0 
L 2766 531 
Q 2569 213 2275 61 
Q 1981 -91 1556 -91 
Q 1019 -91 701 211 
Q 384 513 384 1019 
Q 384 1609 779 1909 
Q 1175 2209 1959 2209 
L 2766 2209 
L 2766 2266 
Q 2766 2663 2505 2880 
Q 2244 3097 1772 3097 
Q 1472 3097 1187 3025 
Q 903 2953 641 2809 
L 641 3341 
Q 956 3463 1253 3523 
Q 1550 3584 1831 3584 
Q 2591 3584 2966 3190 
Q 3341 2797 3341 1997 
z
" transform="scale(0.015625)"/>
       <path id="DejaVuSans-72" d="M 2631 2963 
Q 2534 3019 2420 3045 
Q 2306 3072 2169 3072 
Q 1681 3072 1420 2755 
Q 1159 2438 1159 1844 
L 1159 0 
L 581 0 
L 581 3500 
L 1159 3500 
L 1159 2956 
Q 1341 3275 1631 3429 
Q 1922 3584 2338 3584 
Q 2397 3584 2469 3576 
Q 2541 3569 2628 3553 
L 2631 2963 
z
" transform="scale(0.015625)"/>
       <path id="DejaVuSans-69" d="M 603 3500 
L 1178 3500 
L 1178 0 
L 603 0 
L 603 3500 
z
M 603 4863 
L 1178 4863 
L 1178 4134 
L 603 4134 
L 603 4863 
z
" transform="scale(0.015625)"/>
       <path id="DejaVuSans-6e" d="M 3513 2113 
L 3513 0 
L 2938 0 
L 2938 2094 
Q 2938 2591 2744 2837 
Q 2550 3084 2163 3084 
Q 1697 3084 1428 2787 
Q 1159 2491 1159 1978 
L 1159 0 
L 581 0 
L 581 3500 
L 1159 3500 
L 1159 2956 
Q 1366 3272 1645 3428 
Q 1925 3584 2291 3584 
Q 2894 3584 3203 3211 
Q 3513 2838 3513 2113 
z
" transform="scale(0.015625)"/>
       <path id="DejaVuSans-63" d="M 3122 3366 
L 3122 2828 
Q 2878 2963 2633 3030 
Q 2388 3097 2138 3097 
Q 1578 3097 1268 2742 
Q 959 2388 959 1747 
Q 959 1106 1268 751 
Q 1578 397 2138 397 
Q 2388 397 2633 464 
Q 2878 531 3122 666 
L 3122 134 
Q 2881 22 2623 -34 
Q 2366 -91 2075 -91 
Q 1284 -91 818 406 
Q 353 903 353 1747 
Q 353 2603 823 3093 
Q 1294 3584 2113 3584 
Q 2378 3584 2631 3529 
Q 2884 3475 3122 3366 
z
" transform="scale(0.015625)"/>
       <path id="DejaVuSans-65" d="M 3597 1894 
L 3597 1613 
L 953 1613 
Q 991 1019 1311 708 
Q 1631 397 2203 397 
Q 2534 397 2845 478 
Q 3156 559 3463 722 
L 3463 178 
Q 3153 47 2828 -22 
Q 2503 -91 2169 -91 
Q 1331 -91 842 396 
Q 353 884 353 1716 
Q 353 2575 817 3079 
Q 1281 3584 2069 3584 
Q 2775 3584 3186 3129 
Q 3597 2675 3597 1894 
z
M 3022 2063 
Q 3016 2534 2758 2815 
Q 2500 3097 2075 3097 
Q 1594 3097 1305 2825 
Q 1016 2553 972 2059 
L 3022 2063 
z
" transform="scale(0.015625)"/>
       <path id="DejaVuSans-29" d="M 513 4856 
L 1013 4856 
Q 1481 4119 1714 3412 
Q 1947 2706 1947 2009 
Q 1947 1309 1714 600 
Q 1481 -109 1013 -844 
L 513 -844 
Q 928 -128 1133 580 
Q 1338 1288 1338 2009 
Q 1338 2731 1133 3434 
Q 928 4138 513 4856 
z
" transform="scale(0.015625)"/>
      </defs>
      <use xlink:href="#DejaVuSans-50"/>
      <use xlink:href="#DejaVuSans-43" x="60.302734"/>
      <use xlink:href="#DejaVuSans-31" x="130.126953"/>
      <use xlink:href="#DejaVuSans-20" x="193.75"/>
      <use xlink:href="#DejaVuSans-28" x="225.537109"/>
      <use xlink:href="#DejaVuSans-33" x="264.550781"/>
      <use xlink:href="#DejaVuSans-2e" x="328.173828"/>
      <use xlink:href="#DejaVuSans-34" x="359.960938"/>
      <use xlink:href="#DejaVuSans-36" x="423.583984"/>
      <use xlink:href="#DejaVuSans-25" x="487.207031"/>
      <use xlink:href="#DejaVuSans-20" x="582.226562"/>
      <use xlink:href="#DejaVuSans-56" x="614.013672"/>
      <use xlink:href="#DejaVuSans-61" x="674.671875"/>
      <use xlink:href="#DejaVuSans-72" x="735.951172"/>
      <use xlink:href="#DejaVuSans-69" x="777.064453"/>
      <use xlink:href="#DejaVuSans-61" x="804.847656"/>
      <use xlink:href="#DejaVuSans-6e" x="866.126953"/>
      <use xlink:href="#DejaVuSans-63" x="929.505859"/>
      <use xlink:href="#DejaVuSans-65" x="984.486328"/>
      <use xlink:href="#DejaVuSans-29" x="1046.009766"/>
     </g>
    </g>
   </g>
   <g id="matplotlib.axis_2">
    <g id="ytick_1">
     <g id="line2d_8">
      <defs>
       <path id="meefa0047cc" d="M 0 0 
L -3.5 0 
" style="stroke: #000000; stroke-width: 0.8"/>
      </defs>
      <g>
       <use xlink:href="#meefa0047cc" x="129.635938" y="460.721358" style="stroke: #000000; stroke-width: 0.8"/>
      </g>
     </g>
     <g id="text_9">
      <!-- −400 -->
      <g transform="translate(40.234375 472.119014) scale(0.3 -0.3)">
       <use xlink:href="#DejaVuSans-2212"/>
       <use xlink:href="#DejaVuSans-34" x="83.789062"/>
       <use xlink:href="#DejaVuSans-30" x="147.412109"/>
       <use xlink:href="#DejaVuSans-30" x="211.035156"/>
      </g>
     </g>
    </g>
    <g id="ytick_2">
     <g id="line2d_9">
      <g>
       <use xlink:href="#meefa0047cc" x="129.635938" y="346.396738" style="stroke: #000000; stroke-width: 0.8"/>
      </g>
     </g>
     <g id="text_10">
      <!-- −200 -->
      <g transform="translate(40.234375 357.794394) scale(0.3 -0.3)">
       <use xlink:href="#DejaVuSans-2212"/>
       <use xlink:href="#DejaVuSans-32" x="83.789062"/>
       <use xlink:href="#DejaVuSans-30" x="147.412109"/>
       <use xlink:href="#DejaVuSans-30" x="211.035156"/>
      </g>
     </g>
    </g>
    <g id="ytick_3">
     <g id="line2d_10">
      <g>
       <use xlink:href="#meefa0047cc" x="129.635938" y="232.072117" style="stroke: #000000; stroke-width: 0.8"/>
      </g>
     </g>
     <g id="text_11">
      <!-- 0 -->
      <g transform="translate(103.548438 243.469774) scale(0.3 -0.3)">
       <use xlink:href="#DejaVuSans-30"/>
      </g>
     </g>
    </g>
    <g id="ytick_4">
     <g id="line2d_11">
      <g>
       <use xlink:href="#meefa0047cc" x="129.635938" y="117.747497" style="stroke: #000000; stroke-width: 0.8"/>
      </g>
     </g>
     <g id="text_12">
      <!-- 200 -->
      <g transform="translate(65.373438 129.145153) scale(0.3 -0.3)">
       <use xlink:href="#DejaVuSans-32"/>
       <use xlink:href="#DejaVuSans-30" x="63.623047"/>
       <use xlink:href="#DejaVuSans-30" x="127.246094"/>
      </g>
     </g>
    </g>
    <g id="text_13">
     <!-- PC2 (2.47% Variance) -->
     <g transform="translate(29.995313 427.486719) rotate(-90) scale(0.3 -0.3)">
      <defs>
       <path id="DejaVuSans-37" d="M 525 4666 
L 3525 4666 
L 3525 4397 
L 1831 0 
L 1172 0 
L 2766 4134 
L 525 4134 
L 525 4666 
z
" transform="scale(0.015625)"/>
      </defs>
      <use xlink:href="#DejaVuSans-50"/>
      <use xlink:href="#DejaVuSans-43" x="60.302734"/>
      <use xlink:href="#DejaVuSans-32" x="130.126953"/>
      <use xlink:href="#DejaVuSans-20" x="193.75"/>
      <use xlink:href="#DejaVuSans-28" x="225.537109"/>
      <use xlink:href="#DejaVuSans-32" x="264.550781"/>
      <use xlink:href="#DejaVuSans-2e" x="328.173828"/>
      <use xlink:href="#DejaVuSans-34" x="359.960938"/>
      <use xlink:href="#DejaVuSans-37" x="423.583984"/>
      <use xlink:href="#DejaVuSans-25" x="487.207031"/>
      <use xlink:href="#DejaVuSans-20" x="582.226562"/>
      <use xlink:href="#DejaVuSans-56" x="614.013672"/>
      <use xlink:href="#DejaVuSans-61" x="674.671875"/>
      <use xlink:href="#DejaVuSans-72" x="735.951172"/>
      <use xlink:href="#DejaVuSans-69" x="777.064453"/>
      <use xlink:href="#DejaVuSans-61" x="804.847656"/>
      <use xlink:href="#DejaVuSans-6e" x="866.126953"/>
      <use xlink:href="#DejaVuSans-63" x="929.505859"/>
      <use xlink:href="#DejaVuSans-65" x="984.486328"/>
      <use xlink:href="#DejaVuSans-29" x="1046.009766"/>
     </g>
    </g>
   </g>
   <g id="patch_3">
    <path d="M 129.635938 493.234375 
L 129.635938 36.234375 
" style="fill: none; stroke: #000000; stroke-width: 0.8; stroke-linejoin: miter; stroke-linecap: square"/>
   </g>
   <g id="patch_4">
    <path d="M 890.247489 493.234375 
L 890.247489 36.234375 
" style="fill: none; stroke: #000000; stroke-width: 0.8; stroke-linejoin: miter; stroke-linecap: square"/>
   </g>
   <g id="patch_5">
    <path d="M 129.635937 493.234375 
L 890.247489 493.234375 
" style="fill: none; stroke: #000000; stroke-width: 0.8; stroke-linejoin: miter; stroke-linecap: square"/>
   </g>
   <g id="patch_6">
    <path d="M 129.635937 36.234375 
L 890.247489 36.234375 
" style="fill: none; stroke: #000000; stroke-width: 0.8; stroke-linejoin: miter; stroke-linecap: square"/>
   </g>
   <g id="text_14">
    <!-- PCA of TE Insertions -->
    <g transform="translate(359.074526 29.995312) scale(0.3 -0.3)">
     <defs>
      <path id="DejaVuSans-41" d="M 2188 4044 
L 1331 1722 
L 3047 1722 
L 2188 4044 
z
M 1831 4666 
L 2547 4666 
L 4325 0 
L 3669 0 
L 3244 1197 
L 1141 1197 
L 716 0 
L 50 0 
L 1831 4666 
z
" transform="scale(0.015625)"/>
      <path id="DejaVuSans-6f" d="M 1959 3097 
Q 1497 3097 1228 2736 
Q 959 2375 959 1747 
Q 959 1119 1226 758 
Q 1494 397 1959 397 
Q 2419 397 2687 759 
Q 2956 1122 2956 1747 
Q 2956 2369 2687 2733 
Q 2419 3097 1959 3097 
z
M 1959 3584 
Q 2709 3584 3137 3096 
Q 3566 2609 3566 1747 
Q 3566 888 3137 398 
Q 2709 -91 1959 -91 
Q 1206 -91 779 398 
Q 353 888 353 1747 
Q 353 2609 779 3096 
Q 1206 3584 1959 3584 
z
" transform="scale(0.015625)"/>
      <path id="DejaVuSans-66" d="M 2375 4863 
L 2375 4384 
L 1825 4384 
Q 1516 4384 1395 4259 
Q 1275 4134 1275 3809 
L 1275 3500 
L 2222 3500 
L 2222 3053 
L 1275 3053 
L 1275 0 
L 697 0 
L 697 3053 
L 147 3053 
L 147 3500 
L 697 3500 
L 697 3744 
Q 697 4328 969 4595 
Q 1241 4863 1831 4863 
L 2375 4863 
z
" transform="scale(0.015625)"/>
      <path id="DejaVuSans-54" d="M -19 4666 
L 3928 4666 
L 3928 4134 
L 2272 4134 
L 2272 0 
L 1638 0 
L 1638 4134 
L -19 4134 
L -19 4666 
z
" transform="scale(0.015625)"/>
      <path id="DejaVuSans-45" d="M 628 4666 
L 3578 4666 
L 3578 4134 
L 1259 4134 
L 1259 2753 
L 3481 2753 
L 3481 2222 
L 1259 2222 
L 1259 531 
L 3634 531 
L 3634 0 
L 628 0 
L 628 4666 
z
" transform="scale(0.015625)"/>
      <path id="DejaVuSans-49" d="M 628 4666 
L 1259 4666 
L 1259 0 
L 628 0 
L 628 4666 
z
" transform="scale(0.015625)"/>
      <path id="DejaVuSans-73" d="M 2834 3397 
L 2834 2853 
Q 2591 2978 2328 3040 
Q 2066 3103 1784 3103 
Q 1356 3103 1142 2972 
Q 928 2841 928 2578 
Q 928 2378 1081 2264 
Q 1234 2150 1697 2047 
L 1894 2003 
Q 2506 1872 2764 1633 
Q 3022 1394 3022 966 
Q 3022 478 2636 193 
Q 2250 -91 1575 -91 
Q 1294 -91 989 -36 
Q 684 19 347 128 
L 347 722 
Q 666 556 975 473 
Q 1284 391 1588 391 
Q 1994 391 2212 530 
Q 2431 669 2431 922 
Q 2431 1156 2273 1281 
Q 2116 1406 1581 1522 
L 1381 1569 
Q 847 1681 609 1914 
Q 372 2147 372 2553 
Q 372 3047 722 3315 
Q 1072 3584 1716 3584 
Q 2034 3584 2315 3537 
Q 2597 3491 2834 3397 
z
" transform="scale(0.015625)"/>
      <path id="DejaVuSans-74" d="M 1172 4494 
L 1172 3500 
L 2356 3500 
L 2356 3053 
L 1172 3053 
L 1172 1153 
Q 1172 725 1289 603 
Q 1406 481 1766 481 
L 2356 481 
L 2356 0 
L 1766 0 
Q 1100 0 847 248 
Q 594 497 594 1153 
L 594 3053 
L 172 3053 
L 172 3500 
L 594 3500 
L 594 4494 
L 1172 4494 
z
" transform="scale(0.015625)"/>
     </defs>
     <use xlink:href="#DejaVuSans-50"/>
     <use xlink:href="#DejaVuSans-43" x="60.302734"/>
     <use xlink:href="#DejaVuSans-41" x="130.126953"/>
     <use xlink:href="#DejaVuSans-20" x="198.535156"/>
     <use xlink:href="#DejaVuSans-6f" x="230.322266"/>
     <use xlink:href="#DejaVuSans-66" x="291.503906"/>
     <use xlink:href="#DejaVuSans-20" x="326.708984"/>
     <use xlink:href="#DejaVuSans-54" x="358.496094"/>
     <use xlink:href="#DejaVuSans-45" x="419.580078"/>
     <use xlink:href="#DejaVuSans-20" x="482.763672"/>
     <use xlink:href="#DejaVuSans-49" x="514.550781"/>
     <use xlink:href="#DejaVuSans-6e" x="544.042969"/>
     <use xlink:href="#DejaVuSans-73" x="607.421875"/>
     <use xlink:href="#DejaVuSans-65" x="659.521484"/>
     <use xlink:href="#DejaVuSans-72" x="721.044922"/>
     <use xlink:href="#DejaVuSans-74" x="762.158203"/>
     <use xlink:href="#DejaVuSans-69" x="801.367188"/>
     <use xlink:href="#DejaVuSans-6f" x="829.150391"/>
     <use xlink:href="#DejaVuSans-6e" x="890.332031"/>
     <use xlink:href="#DejaVuSans-73" x="953.710938"/>
    </g>
   </g>
  </g>
 </g>
 <defs>
  <clipPath id="p6a9d3a791d">
   <rect x="129.635938" y="36.234375" width="760.611552" height="457"/>
  </clipPath>
 </defs>
</svg>
