<?xml version="1.0" encoding="utf-8" standalone="no"?>
<!DOCTYPE svg PUBLIC "-//W3C//DTD SVG 1.1//EN"
  "http://www.w3.org/Graphics/SVG/1.1/DTD/svg11.dtd">
<svg xmlns:xlink="http://www.w3.org/1999/xlink" width="864pt" height="432pt" viewBox="0 0 864 432" xmlns="http://www.w3.org/2000/svg" version="1.1">
 <metadata>
  <rdf:RDF xmlns:dc="http://purl.org/dc/elements/1.1/" xmlns:cc="http://creativecommons.org/ns#" xmlns:rdf="http://www.w3.org/1999/02/22-rdf-syntax-ns#">
   <cc:Work>
    <dc:type rdf:resource="http://purl.org/dc/dcmitype/StillImage"/>
    <dc:date>2025-09-04T12:11:46.518236</dc:date>
    <dc:format>image/svg+xml</dc:format>
    <dc:creator>
     <cc:Agent>
      <dc:title>Matplotlib v3.9.1, https://matplotlib.org/</dc:title>
     </cc:Agent>
    </dc:creator>
   </cc:Work>
  </rdf:RDF>
 </metadata>
 <defs>
  <style type="text/css">*{stroke-linejoin: round; stroke-linecap: butt}</style>
 </defs>
 <g id="figure_1">
  <g id="patch_1">
   <path d="M 0 432 
L 864 432 
L 864 0 
L 0 0 
z
" style="fill: #ffffff"/>
  </g>
  <g id="axes_1">
   <g id="patch_2">
    <path d="M 54.2 377.20974 
L 853.2 377.20974 
L 853.2 25.44 
L 54.2 25.44 
z
" style="fill: #ffffff"/>
   </g>
   <g id="patch_3">
    <path d="M 90.518182 377.20974 
L 97.855188 377.20974 
L 97.855188 292.275397 
L 90.518182 292.275397 
z
" clip-path="url(#p24bd4e9224)" style="fill: #0000ff"/>
   </g>
   <g id="patch_4">
    <path d="M 127.203214 377.20974 
L 134.54022 377.20974 
L 134.54022 320.586844 
L 127.203214 320.586844 
z
" clip-path="url(#p24bd4e9224)" style="fill: #0000ff"/>
   </g>
   <g id="patch_5">
    <path d="M 163.888246 377.20974 
L 171.225253 377.20974 
L 171.225253 348.898292 
L 163.888246 348.898292 
z
" clip-path="url(#p24bd4e9224)" style="fill: #0000ff"/>
   </g>
   <g id="patch_6">
    <path d="M 200.573278 377.20974 
L 207.910285 377.20974 
L 207.910285 306.431121 
L 200.573278 306.431121 
z
" clip-path="url(#p24bd4e9224)" style="fill: #0000ff"/>
   </g>
   <g id="patch_7">
    <path d="M 237.25831 377.20974 
L 244.595317 377.20974 
L 244.595317 313.508982 
L 237.25831 313.508982 
z
" clip-path="url(#p24bd4e9224)" style="fill: #0000ff"/>
   </g>
   <g id="patch_8">
    <path d="M 273.943343 377.20974 
L 281.280349 377.20974 
L 281.280349 334.742568 
L 273.943343 334.742568 
z
" clip-path="url(#p24bd4e9224)" style="fill: #0000ff"/>
   </g>
   <g id="patch_9">
    <path d="M 310.628375 377.20974 
L 317.965381 377.20974 
L 317.965381 341.82043 
L 310.628375 341.82043 
z
" clip-path="url(#p24bd4e9224)" style="fill: #0000ff"/>
   </g>
   <g id="patch_10">
    <path d="M 347.313407 377.20974 
L 354.650413 377.20974 
L 354.650413 355.976154 
L 347.313407 355.976154 
z
" clip-path="url(#p24bd4e9224)" style="fill: #0000ff"/>
   </g>
   <g id="patch_11">
    <path d="M 383.998439 377.20974 
L 391.335445 377.20974 
L 391.335445 292.275397 
L 383.998439 292.275397 
z
" clip-path="url(#p24bd4e9224)" style="fill: #0000ff"/>
   </g>
   <g id="patch_12">
    <path d="M 420.683471 377.20974 
L 428.020478 377.20974 
L 428.020478 285.197535 
L 420.683471 285.197535 
z
" clip-path="url(#p24bd4e9224)" style="fill: #0000ff"/>
   </g>
   <g id="patch_13">
    <path d="M 457.368503 377.20974 
L 464.70551 377.20974 
L 464.70551 320.586844 
L 457.368503 320.586844 
z
" clip-path="url(#p24bd4e9224)" style="fill: #0000ff"/>
   </g>
   <g id="patch_14">
    <path d="M 494.053535 377.20974 
L 501.390542 377.20974 
L 501.390542 370.131878 
L 494.053535 370.131878 
z
" clip-path="url(#p24bd4e9224)" style="fill: #0000ff"/>
   </g>
   <g id="patch_15">
    <path d="M 530.738567 377.20974 
L 538.075574 377.20974 
L 538.075574 355.976154 
L 530.738567 355.976154 
z
" clip-path="url(#p24bd4e9224)" style="fill: #0000ff"/>
   </g>
   <g id="patch_16">
    <path d="M 567.4236 377.20974 
L 574.760606 377.20974 
L 574.760606 355.976154 
L 567.4236 355.976154 
z
" clip-path="url(#p24bd4e9224)" style="fill: #0000ff"/>
   </g>
   <g id="patch_17">
    <path d="M 604.108632 377.20974 
L 611.445638 377.20974 
L 611.445638 327.664706 
L 604.108632 327.664706 
z
" clip-path="url(#p24bd4e9224)" style="fill: #0000ff"/>
   </g>
   <g id="patch_18">
    <path d="M 640.793664 377.20974 
L 648.13067 377.20974 
L 648.13067 348.898292 
L 640.793664 348.898292 
z
" clip-path="url(#p24bd4e9224)" style="fill: #0000ff"/>
   </g>
   <g id="patch_19">
    <path d="M 677.478696 377.20974 
L 684.815702 377.20974 
L 684.815702 348.898292 
L 677.478696 348.898292 
z
" clip-path="url(#p24bd4e9224)" style="fill: #0000ff"/>
   </g>
   <g id="patch_20">
    <path d="M 714.163728 377.20974 
L 721.500735 377.20974 
L 721.500735 263.963949 
L 714.163728 263.963949 
z
" clip-path="url(#p24bd4e9224)" style="fill: #0000ff"/>
   </g>
   <g id="patch_21">
    <path d="M 750.84876 377.20974 
L 758.185767 377.20974 
L 758.185767 320.586844 
L 750.84876 320.586844 
z
" clip-path="url(#p24bd4e9224)" style="fill: #0000ff"/>
   </g>
   <g id="patch_22">
    <path d="M 787.533792 377.20974 
L 794.870799 377.20974 
L 794.870799 334.742568 
L 787.533792 334.742568 
z
" clip-path="url(#p24bd4e9224)" style="fill: #0000ff"/>
   </g>
   <g id="patch_23">
    <path d="M 97.855188 377.20974 
L 105.192195 377.20974 
L 105.192195 377.20974 
L 97.855188 377.20974 
z
" clip-path="url(#p24bd4e9224)" style="fill: #008000"/>
   </g>
   <g id="patch_24">
    <path d="M 134.54022 377.20974 
L 141.877227 377.20974 
L 141.877227 42.19094 
L 134.54022 42.19094 
z
" clip-path="url(#p24bd4e9224)" style="fill: #008000"/>
   </g>
   <g id="patch_25">
    <path d="M 171.225253 377.20974 
L 178.562259 377.20974 
L 178.562259 377.20974 
L 171.225253 377.20974 
z
" clip-path="url(#p24bd4e9224)" style="fill: #008000"/>
   </g>
   <g id="patch_26">
    <path d="M 207.910285 377.20974 
L 215.247291 377.20974 
L 215.247291 377.20974 
L 207.910285 377.20974 
z
" clip-path="url(#p24bd4e9224)" style="fill: #008000"/>
   </g>
   <g id="patch_27">
    <path d="M 244.595317 377.20974 
L 251.932323 377.20974 
L 251.932323 377.20974 
L 244.595317 377.20974 
z
" clip-path="url(#p24bd4e9224)" style="fill: #008000"/>
   </g>
   <g id="patch_28">
    <path d="M 281.280349 377.20974 
L 288.617355 377.20974 
L 288.617355 377.20974 
L 281.280349 377.20974 
z
" clip-path="url(#p24bd4e9224)" style="fill: #008000"/>
   </g>
   <g id="patch_29">
    <path d="M 317.965381 377.20974 
L 325.302388 377.20974 
L 325.302388 377.20974 
L 317.965381 377.20974 
z
" clip-path="url(#p24bd4e9224)" style="fill: #008000"/>
   </g>
   <g id="patch_30">
    <path d="M 354.650413 377.20974 
L 361.98742 377.20974 
L 361.98742 377.20974 
L 354.650413 377.20974 
z
" clip-path="url(#p24bd4e9224)" style="fill: #008000"/>
   </g>
   <g id="patch_31">
    <path d="M 391.335445 377.20974 
L 398.672452 377.20974 
L 398.672452 377.20974 
L 391.335445 377.20974 
z
" clip-path="url(#p24bd4e9224)" style="fill: #008000"/>
   </g>
   <g id="patch_32">
    <path d="M 428.020478 377.20974 
L 435.357484 377.20974 
L 435.357484 377.20974 
L 428.020478 377.20974 
z
" clip-path="url(#p24bd4e9224)" style="fill: #008000"/>
   </g>
   <g id="patch_33">
    <path d="M 464.70551 377.20974 
L 472.042516 377.20974 
L 472.042516 377.20974 
L 464.70551 377.20974 
z
" clip-path="url(#p24bd4e9224)" style="fill: #008000"/>
   </g>
   <g id="patch_34">
    <path d="M 501.390542 377.20974 
L 508.727548 377.20974 
L 508.727548 377.20974 
L 501.390542 377.20974 
z
" clip-path="url(#p24bd4e9224)" style="fill: #008000"/>
   </g>
   <g id="patch_35">
    <path d="M 538.075574 377.20974 
L 545.41258 377.20974 
L 545.41258 377.20974 
L 538.075574 377.20974 
z
" clip-path="url(#p24bd4e9224)" style="fill: #008000"/>
   </g>
   <g id="patch_36">
    <path d="M 574.760606 377.20974 
L 582.097612 377.20974 
L 582.097612 42.19094 
L 574.760606 42.19094 
z
" clip-path="url(#p24bd4e9224)" style="fill: #008000"/>
   </g>
   <g id="patch_37">
    <path d="M 611.445638 377.20974 
L 618.782645 377.20974 
L 618.782645 42.19094 
L 611.445638 42.19094 
z
" clip-path="url(#p24bd4e9224)" style="fill: #008000"/>
   </g>
   <g id="patch_38">
    <path d="M 648.13067 377.20974 
L 655.467677 377.20974 
L 655.467677 377.20974 
L 648.13067 377.20974 
z
" clip-path="url(#p24bd4e9224)" style="fill: #008000"/>
   </g>
   <g id="patch_39">
    <path d="M 684.815702 377.20974 
L 692.152709 377.20974 
L 692.152709 377.20974 
L 684.815702 377.20974 
z
" clip-path="url(#p24bd4e9224)" style="fill: #008000"/>
   </g>
   <g id="patch_40">
    <path d="M 721.500735 377.20974 
L 728.837741 377.20974 
L 728.837741 377.20974 
L 721.500735 377.20974 
z
" clip-path="url(#p24bd4e9224)" style="fill: #008000"/>
   </g>
   <g id="patch_41">
    <path d="M 758.185767 377.20974 
L 765.522773 377.20974 
L 765.522773 377.20974 
L 758.185767 377.20974 
z
" clip-path="url(#p24bd4e9224)" style="fill: #008000"/>
   </g>
   <g id="patch_42">
    <path d="M 794.870799 377.20974 
L 802.207805 377.20974 
L 802.207805 377.20974 
L 794.870799 377.20974 
z
" clip-path="url(#p24bd4e9224)" style="fill: #008000"/>
   </g>
   <g id="patch_43">
    <path d="M 105.192195 377.20974 
L 112.529201 377.20974 
L 112.529201 300.337448 
L 105.192195 300.337448 
z
" clip-path="url(#p24bd4e9224)" style="fill: #ffa500"/>
   </g>
   <g id="patch_44">
    <path d="M 141.877227 377.20974 
L 149.214233 377.20974 
L 149.214233 314.043085 
L 141.877227 314.043085 
z
" clip-path="url(#p24bd4e9224)" style="fill: #ffa500"/>
   </g>
   <g id="patch_45">
    <path d="M 178.562259 377.20974 
L 185.899265 377.20974 
L 185.899265 319.120562 
L 178.562259 319.120562 
z
" clip-path="url(#p24bd4e9224)" style="fill: #ffa500"/>
   </g>
   <g id="patch_46">
    <path d="M 215.247291 377.20974 
L 222.584298 377.20974 
L 222.584298 325.227738 
L 215.247291 325.227738 
z
" clip-path="url(#p24bd4e9224)" style="fill: #ffa500"/>
   </g>
   <g id="patch_47">
    <path d="M 251.932323 377.20974 
L 259.26933 377.20974 
L 259.26933 326.43497 
L 251.932323 326.43497 
z
" clip-path="url(#p24bd4e9224)" style="fill: #ffa500"/>
   </g>
   <g id="patch_48">
    <path d="M 288.617355 377.20974 
L 295.954362 377.20974 
L 295.954362 327.571188 
L 288.617355 327.571188 
z
" clip-path="url(#p24bd4e9224)" style="fill: #ffa500"/>
   </g>
   <g id="patch_49">
    <path d="M 325.302388 377.20974 
L 332.639394 377.20974 
L 332.639394 331.334913 
L 325.302388 331.334913 
z
" clip-path="url(#p24bd4e9224)" style="fill: #ffa500"/>
   </g>
   <g id="patch_50">
    <path d="M 361.98742 377.20974 
L 369.324426 377.20974 
L 369.324426 332.15157 
L 361.98742 332.15157 
z
" clip-path="url(#p24bd4e9224)" style="fill: #ffa500"/>
   </g>
   <g id="patch_51">
    <path d="M 398.672452 377.20974 
L 406.009458 377.20974 
L 406.009458 330.624776 
L 398.672452 330.624776 
z
" clip-path="url(#p24bd4e9224)" style="fill: #ffa500"/>
   </g>
   <g id="patch_52">
    <path d="M 435.357484 377.20974 
L 442.69449 377.20974 
L 442.69449 331.654474 
L 435.357484 331.654474 
z
" clip-path="url(#p24bd4e9224)" style="fill: #ffa500"/>
   </g>
   <g id="patch_53">
    <path d="M 472.042516 377.20974 
L 479.379522 377.20974 
L 479.379522 331.903022 
L 472.042516 331.903022 
z
" clip-path="url(#p24bd4e9224)" style="fill: #ffa500"/>
   </g>
   <g id="patch_54">
    <path d="M 508.727548 377.20974 
L 516.064555 377.20974 
L 516.064555 334.139952 
L 508.727548 334.139952 
z
" clip-path="url(#p24bd4e9224)" style="fill: #ffa500"/>
   </g>
   <g id="patch_55">
    <path d="M 545.41258 377.20974 
L 552.749587 377.20974 
L 552.749587 333.500829 
L 545.41258 333.500829 
z
" clip-path="url(#p24bd4e9224)" style="fill: #ffa500"/>
   </g>
   <g id="patch_56">
    <path d="M 582.097612 377.20974 
L 589.434619 377.20974 
L 589.434619 334.139952 
L 582.097612 334.139952 
z
" clip-path="url(#p24bd4e9224)" style="fill: #ffa500"/>
   </g>
   <g id="patch_57">
    <path d="M 618.782645 377.20974 
L 626.119651 377.20974 
L 626.119651 331.441433 
L 618.782645 331.441433 
z
" clip-path="url(#p24bd4e9224)" style="fill: #ffa500"/>
   </g>
   <g id="patch_58">
    <path d="M 655.467677 377.20974 
L 662.804683 377.20974 
L 662.804683 330.979844 
L 655.467677 330.979844 
z
" clip-path="url(#p24bd4e9224)" style="fill: #ffa500"/>
   </g>
   <g id="patch_59">
    <path d="M 692.152709 377.20974 
L 699.489715 377.20974 
L 699.489715 328.423352 
L 692.152709 328.423352 
z
" clip-path="url(#p24bd4e9224)" style="fill: #ffa500"/>
   </g>
   <g id="patch_60">
    <path d="M 728.837741 377.20974 
L 736.174747 377.20974 
L 736.174747 327.464668 
L 728.837741 327.464668 
z
" clip-path="url(#p24bd4e9224)" style="fill: #ffa500"/>
   </g>
   <g id="patch_61">
    <path d="M 765.522773 377.20974 
L 772.85978 377.20974 
L 772.85978 326.967572 
L 765.522773 326.967572 
z
" clip-path="url(#p24bd4e9224)" style="fill: #ffa500"/>
   </g>
   <g id="patch_62">
    <path d="M 802.207805 377.20974 
L 809.544812 377.20974 
L 809.544812 321.677054 
L 802.207805 321.677054 
z
" clip-path="url(#p24bd4e9224)" style="fill: #ffa500"/>
   </g>
   <g id="patch_63">
    <path d="M 112.529201 377.20974 
L 119.866208 377.20974 
L 119.866208 224.075052 
L 112.529201 224.075052 
z
" clip-path="url(#p24bd4e9224)" style="fill: #ff0000"/>
   </g>
   <g id="patch_64">
    <path d="M 149.214233 377.20974 
L 156.55124 377.20974 
L 156.55124 326.164844 
L 149.214233 326.164844 
z
" clip-path="url(#p24bd4e9224)" style="fill: #ff0000"/>
   </g>
   <g id="patch_65">
    <path d="M 185.899265 377.20974 
L 193.236272 377.20974 
L 193.236272 326.164844 
L 185.899265 326.164844 
z
" clip-path="url(#p24bd4e9224)" style="fill: #ff0000"/>
   </g>
   <g id="patch_66">
    <path d="M 222.584298 377.20974 
L 229.921304 377.20974 
L 229.921304 334.965688 
L 222.584298 334.965688 
z
" clip-path="url(#p24bd4e9224)" style="fill: #ff0000"/>
   </g>
   <g id="patch_67">
    <path d="M 259.26933 377.20974 
L 266.606336 377.20974 
L 266.606336 342.006364 
L 259.26933 342.006364 
z
" clip-path="url(#p24bd4e9224)" style="fill: #ff0000"/>
   </g>
   <g id="patch_68">
    <path d="M 295.954362 377.20974 
L 303.291368 377.20974 
L 303.291368 345.526701 
L 295.954362 345.526701 
z
" clip-path="url(#p24bd4e9224)" style="fill: #ff0000"/>
   </g>
   <g id="patch_69">
    <path d="M 332.639394 377.20974 
L 339.9764 377.20974 
L 339.9764 338.486026 
L 332.639394 338.486026 
z
" clip-path="url(#p24bd4e9224)" style="fill: #ff0000"/>
   </g>
   <g id="patch_70">
    <path d="M 369.324426 377.20974 
L 376.661433 377.20974 
L 376.661433 349.047039 
L 369.324426 349.047039 
z
" clip-path="url(#p24bd4e9224)" style="fill: #ff0000"/>
   </g>
   <g id="patch_71">
    <path d="M 406.009458 377.20974 
L 413.346465 377.20974 
L 413.346465 352.567377 
L 406.009458 352.567377 
z
" clip-path="url(#p24bd4e9224)" style="fill: #ff0000"/>
   </g>
   <g id="patch_72">
    <path d="M 442.69449 377.20974 
L 450.031497 377.20974 
L 450.031497 340.246195 
L 442.69449 340.246195 
z
" clip-path="url(#p24bd4e9224)" style="fill: #ff0000"/>
   </g>
   <g id="patch_73">
    <path d="M 479.379522 377.20974 
L 486.716529 377.20974 
L 486.716529 340.246195 
L 479.379522 340.246195 
z
" clip-path="url(#p24bd4e9224)" style="fill: #ff0000"/>
   </g>
   <g id="patch_74">
    <path d="M 516.064555 377.20974 
L 523.401561 377.20974 
L 523.401561 350.807208 
L 516.064555 350.807208 
z
" clip-path="url(#p24bd4e9224)" style="fill: #ff0000"/>
   </g>
   <g id="patch_75">
    <path d="M 552.749587 377.20974 
L 560.086593 377.20974 
L 560.086593 342.006364 
L 552.749587 342.006364 
z
" clip-path="url(#p24bd4e9224)" style="fill: #ff0000"/>
   </g>
   <g id="patch_76">
    <path d="M 589.434619 377.20974 
L 596.771625 377.20974 
L 596.771625 324.404675 
L 589.434619 324.404675 
z
" clip-path="url(#p24bd4e9224)" style="fill: #ff0000"/>
   </g>
   <g id="patch_77">
    <path d="M 626.119651 377.20974 
L 633.456657 377.20974 
L 633.456657 349.047039 
L 626.119651 349.047039 
z
" clip-path="url(#p24bd4e9224)" style="fill: #ff0000"/>
   </g>
   <g id="patch_78">
    <path d="M 662.804683 377.20974 
L 670.14169 377.20974 
L 670.14169 322.644507 
L 662.804683 322.644507 
z
" clip-path="url(#p24bd4e9224)" style="fill: #ff0000"/>
   </g>
   <g id="patch_79">
    <path d="M 699.489715 377.20974 
L 706.826722 377.20974 
L 706.826722 331.445351 
L 699.489715 331.445351 
z
" clip-path="url(#p24bd4e9224)" style="fill: #ff0000"/>
   </g>
   <g id="patch_80">
    <path d="M 736.174747 377.20974 
L 743.511754 377.20974 
L 743.511754 312.083494 
L 736.174747 312.083494 
z
" clip-path="url(#p24bd4e9224)" style="fill: #ff0000"/>
   </g>
   <g id="patch_81">
    <path d="M 772.85978 377.20974 
L 780.196786 377.20974 
L 780.196786 296.241974 
L 772.85978 296.241974 
z
" clip-path="url(#p24bd4e9224)" style="fill: #ff0000"/>
   </g>
   <g id="patch_82">
    <path d="M 809.544812 377.20974 
L 816.881818 377.20974 
L 816.881818 290.961468 
L 809.544812 290.961468 
z
" clip-path="url(#p24bd4e9224)" style="fill: #ff0000"/>
   </g>
   <g id="matplotlib.axis_1">
    <g id="xtick_1">
     <g id="line2d_1">
      <defs>
       <path id="m735d1eab55" d="M 0 0 
L 0 3.5 
" style="stroke: #000000; stroke-width: 0.8"/>
      </defs>
      <g>
       <use xlink:href="#m735d1eab55" x="105.192195" y="377.20974" style="stroke: #000000; stroke-width: 0.8"/>
      </g>
     </g>
     <g id="text_1">
      <!-- 0.05 -->
      <g transform="translate(99.27128 405.326821) rotate(-45) scale(0.1 -0.1)">
       <defs>
        <path id="DejaVuSans-30" d="M 2034 4250 
Q 1547 4250 1301 3770 
Q 1056 3291 1056 2328 
Q 1056 1369 1301 889 
Q 1547 409 2034 409 
Q 2525 409 2770 889 
Q 3016 1369 3016 2328 
Q 3016 3291 2770 3770 
Q 2525 4250 2034 4250 
z
M 2034 4750 
Q 2819 4750 3233 4129 
Q 3647 3509 3647 2328 
Q 3647 1150 3233 529 
Q 2819 -91 2034 -91 
Q 1250 -91 836 529 
Q 422 1150 422 2328 
Q 422 3509 836 4129 
Q 1250 4750 2034 4750 
z
" transform="scale(0.015625)"/>
        <path id="DejaVuSans-2e" d="M 684 794 
L 1344 794 
L 1344 0 
L 684 0 
L 684 794 
z
" transform="scale(0.015625)"/>
        <path id="DejaVuSans-35" d="M 691 4666 
L 3169 4666 
L 3169 4134 
L 1269 4134 
L 1269 2991 
Q 1406 3038 1543 3061 
Q 1681 3084 1819 3084 
Q 2600 3084 3056 2656 
Q 3513 2228 3513 1497 
Q 3513 744 3044 326 
Q 2575 -91 1722 -91 
Q 1428 -91 1123 -41 
Q 819 9 494 109 
L 494 744 
Q 775 591 1075 516 
Q 1375 441 1709 441 
Q 2250 441 2565 725 
Q 2881 1009 2881 1497 
Q 2881 1984 2565 2268 
Q 2250 2553 1709 2553 
Q 1456 2553 1204 2497 
Q 953 2441 691 2322 
L 691 4666 
z
" transform="scale(0.015625)"/>
       </defs>
       <use xlink:href="#DejaVuSans-30"/>
       <use xlink:href="#DejaVuSans-2e" x="63.623047"/>
       <use xlink:href="#DejaVuSans-30" x="95.410156"/>
       <use xlink:href="#DejaVuSans-35" x="159.033203"/>
      </g>
     </g>
    </g>
    <g id="xtick_2">
     <g id="line2d_2">
      <g>
       <use xlink:href="#m735d1eab55" x="141.877227" y="377.20974" style="stroke: #000000; stroke-width: 0.8"/>
      </g>
     </g>
     <g id="text_2">
      <!-- 0.10 -->
      <g transform="translate(135.956312 405.326821) rotate(-45) scale(0.1 -0.1)">
       <defs>
        <path id="DejaVuSans-31" d="M 794 531 
L 1825 531 
L 1825 4091 
L 703 3866 
L 703 4441 
L 1819 4666 
L 2450 4666 
L 2450 531 
L 3481 531 
L 3481 0 
L 794 0 
L 794 531 
z
" transform="scale(0.015625)"/>
       </defs>
       <use xlink:href="#DejaVuSans-30"/>
       <use xlink:href="#DejaVuSans-2e" x="63.623047"/>
       <use xlink:href="#DejaVuSans-31" x="95.410156"/>
       <use xlink:href="#DejaVuSans-30" x="159.033203"/>
      </g>
     </g>
    </g>
    <g id="xtick_3">
     <g id="line2d_3">
      <g>
       <use xlink:href="#m735d1eab55" x="178.562259" y="377.20974" style="stroke: #000000; stroke-width: 0.8"/>
      </g>
     </g>
     <g id="text_3">
      <!-- 0.15 -->
      <g transform="translate(172.641345 405.326821) rotate(-45) scale(0.1 -0.1)">
       <use xlink:href="#DejaVuSans-30"/>
       <use xlink:href="#DejaVuSans-2e" x="63.623047"/>
       <use xlink:href="#DejaVuSans-31" x="95.410156"/>
       <use xlink:href="#DejaVuSans-35" x="159.033203"/>
      </g>
     </g>
    </g>
    <g id="xtick_4">
     <g id="line2d_4">
      <g>
       <use xlink:href="#m735d1eab55" x="215.247291" y="377.20974" style="stroke: #000000; stroke-width: 0.8"/>
      </g>
     </g>
     <g id="text_4">
      <!-- 0.20 -->
      <g transform="translate(209.326377 405.326821) rotate(-45) scale(0.1 -0.1)">
       <defs>
        <path id="DejaVuSans-32" d="M 1228 531 
L 3431 531 
L 3431 0 
L 469 0 
L 469 531 
Q 828 903 1448 1529 
Q 2069 2156 2228 2338 
Q 2531 2678 2651 2914 
Q 2772 3150 2772 3378 
Q 2772 3750 2511 3984 
Q 2250 4219 1831 4219 
Q 1534 4219 1204 4116 
Q 875 4013 500 3803 
L 500 4441 
Q 881 4594 1212 4672 
Q 1544 4750 1819 4750 
Q 2544 4750 2975 4387 
Q 3406 4025 3406 3419 
Q 3406 3131 3298 2873 
Q 3191 2616 2906 2266 
Q 2828 2175 2409 1742 
Q 1991 1309 1228 531 
z
" transform="scale(0.015625)"/>
       </defs>
       <use xlink:href="#DejaVuSans-30"/>
       <use xlink:href="#DejaVuSans-2e" x="63.623047"/>
       <use xlink:href="#DejaVuSans-32" x="95.410156"/>
       <use xlink:href="#DejaVuSans-30" x="159.033203"/>
      </g>
     </g>
    </g>
    <g id="xtick_5">
     <g id="line2d_5">
      <g>
       <use xlink:href="#m735d1eab55" x="251.932323" y="377.20974" style="stroke: #000000; stroke-width: 0.8"/>
      </g>
     </g>
     <g id="text_5">
      <!-- 0.25 -->
      <g transform="translate(246.011409 405.326821) rotate(-45) scale(0.1 -0.1)">
       <use xlink:href="#DejaVuSans-30"/>
       <use xlink:href="#DejaVuSans-2e" x="63.623047"/>
       <use xlink:href="#DejaVuSans-32" x="95.410156"/>
       <use xlink:href="#DejaVuSans-35" x="159.033203"/>
      </g>
     </g>
    </g>
    <g id="xtick_6">
     <g id="line2d_6">
      <g>
       <use xlink:href="#m735d1eab55" x="288.617355" y="377.20974" style="stroke: #000000; stroke-width: 0.8"/>
      </g>
     </g>
     <g id="text_6">
      <!-- 0.30 -->
      <g transform="translate(282.696441 405.326821) rotate(-45) scale(0.1 -0.1)">
       <defs>
        <path id="DejaVuSans-33" d="M 2597 2516 
Q 3050 2419 3304 2112 
Q 3559 1806 3559 1356 
Q 3559 666 3084 287 
Q 2609 -91 1734 -91 
Q 1441 -91 1130 -33 
Q 819 25 488 141 
L 488 750 
Q 750 597 1062 519 
Q 1375 441 1716 441 
Q 2309 441 2620 675 
Q 2931 909 2931 1356 
Q 2931 1769 2642 2001 
Q 2353 2234 1838 2234 
L 1294 2234 
L 1294 2753 
L 1863 2753 
Q 2328 2753 2575 2939 
Q 2822 3125 2822 3475 
Q 2822 3834 2567 4026 
Q 2313 4219 1838 4219 
Q 1578 4219 1281 4162 
Q 984 4106 628 3988 
L 628 4550 
Q 988 4650 1302 4700 
Q 1616 4750 1894 4750 
Q 2613 4750 3031 4423 
Q 3450 4097 3450 3541 
Q 3450 3153 3228 2886 
Q 3006 2619 2597 2516 
z
" transform="scale(0.015625)"/>
       </defs>
       <use xlink:href="#DejaVuSans-30"/>
       <use xlink:href="#DejaVuSans-2e" x="63.623047"/>
       <use xlink:href="#DejaVuSans-33" x="95.410156"/>
       <use xlink:href="#DejaVuSans-30" x="159.033203"/>
      </g>
     </g>
    </g>
    <g id="xtick_7">
     <g id="line2d_7">
      <g>
       <use xlink:href="#m735d1eab55" x="325.302388" y="377.20974" style="stroke: #000000; stroke-width: 0.8"/>
      </g>
     </g>
     <g id="text_7">
      <!-- 0.35 -->
      <g transform="translate(319.381473 405.326821) rotate(-45) scale(0.1 -0.1)">
       <use xlink:href="#DejaVuSans-30"/>
       <use xlink:href="#DejaVuSans-2e" x="63.623047"/>
       <use xlink:href="#DejaVuSans-33" x="95.410156"/>
       <use xlink:href="#DejaVuSans-35" x="159.033203"/>
      </g>
     </g>
    </g>
    <g id="xtick_8">
     <g id="line2d_8">
      <g>
       <use xlink:href="#m735d1eab55" x="361.98742" y="377.20974" style="stroke: #000000; stroke-width: 0.8"/>
      </g>
     </g>
     <g id="text_8">
      <!-- 0.40 -->
      <g transform="translate(356.066505 405.326821) rotate(-45) scale(0.1 -0.1)">
       <defs>
        <path id="DejaVuSans-34" d="M 2419 4116 
L 825 1625 
L 2419 1625 
L 2419 4116 
z
M 2253 4666 
L 3047 4666 
L 3047 1625 
L 3713 1625 
L 3713 1100 
L 3047 1100 
L 3047 0 
L 2419 0 
L 2419 1100 
L 313 1100 
L 313 1709 
L 2253 4666 
z
" transform="scale(0.015625)"/>
       </defs>
       <use xlink:href="#DejaVuSans-30"/>
       <use xlink:href="#DejaVuSans-2e" x="63.623047"/>
       <use xlink:href="#DejaVuSans-34" x="95.410156"/>
       <use xlink:href="#DejaVuSans-30" x="159.033203"/>
      </g>
     </g>
    </g>
    <g id="xtick_9">
     <g id="line2d_9">
      <g>
       <use xlink:href="#m735d1eab55" x="398.672452" y="377.20974" style="stroke: #000000; stroke-width: 0.8"/>
      </g>
     </g>
     <g id="text_9">
      <!-- 0.45 -->
      <g transform="translate(392.751537 405.326821) rotate(-45) scale(0.1 -0.1)">
       <use xlink:href="#DejaVuSans-30"/>
       <use xlink:href="#DejaVuSans-2e" x="63.623047"/>
       <use xlink:href="#DejaVuSans-34" x="95.410156"/>
       <use xlink:href="#DejaVuSans-35" x="159.033203"/>
      </g>
     </g>
    </g>
    <g id="xtick_10">
     <g id="line2d_10">
      <g>
       <use xlink:href="#m735d1eab55" x="435.357484" y="377.20974" style="stroke: #000000; stroke-width: 0.8"/>
      </g>
     </g>
     <g id="text_10">
      <!-- 0.50 -->
      <g transform="translate(429.436569 405.326821) rotate(-45) scale(0.1 -0.1)">
       <use xlink:href="#DejaVuSans-30"/>
       <use xlink:href="#DejaVuSans-2e" x="63.623047"/>
       <use xlink:href="#DejaVuSans-35" x="95.410156"/>
       <use xlink:href="#DejaVuSans-30" x="159.033203"/>
      </g>
     </g>
    </g>
    <g id="xtick_11">
     <g id="line2d_11">
      <g>
       <use xlink:href="#m735d1eab55" x="472.042516" y="377.20974" style="stroke: #000000; stroke-width: 0.8"/>
      </g>
     </g>
     <g id="text_11">
      <!-- 0.55 -->
      <g transform="translate(466.121602 405.326821) rotate(-45) scale(0.1 -0.1)">
       <use xlink:href="#DejaVuSans-30"/>
       <use xlink:href="#DejaVuSans-2e" x="63.623047"/>
       <use xlink:href="#DejaVuSans-35" x="95.410156"/>
       <use xlink:href="#DejaVuSans-35" x="159.033203"/>
      </g>
     </g>
    </g>
    <g id="xtick_12">
     <g id="line2d_12">
      <g>
       <use xlink:href="#m735d1eab55" x="508.727548" y="377.20974" style="stroke: #000000; stroke-width: 0.8"/>
      </g>
     </g>
     <g id="text_12">
      <!-- 0.60 -->
      <g transform="translate(502.806634 405.326821) rotate(-45) scale(0.1 -0.1)">
       <defs>
        <path id="DejaVuSans-36" d="M 2113 2584 
Q 1688 2584 1439 2293 
Q 1191 2003 1191 1497 
Q 1191 994 1439 701 
Q 1688 409 2113 409 
Q 2538 409 2786 701 
Q 3034 994 3034 1497 
Q 3034 2003 2786 2293 
Q 2538 2584 2113 2584 
z
M 3366 4563 
L 3366 3988 
Q 3128 4100 2886 4159 
Q 2644 4219 2406 4219 
Q 1781 4219 1451 3797 
Q 1122 3375 1075 2522 
Q 1259 2794 1537 2939 
Q 1816 3084 2150 3084 
Q 2853 3084 3261 2657 
Q 3669 2231 3669 1497 
Q 3669 778 3244 343 
Q 2819 -91 2113 -91 
Q 1303 -91 875 529 
Q 447 1150 447 2328 
Q 447 3434 972 4092 
Q 1497 4750 2381 4750 
Q 2619 4750 2861 4703 
Q 3103 4656 3366 4563 
z
" transform="scale(0.015625)"/>
       </defs>
       <use xlink:href="#DejaVuSans-30"/>
       <use xlink:href="#DejaVuSans-2e" x="63.623047"/>
       <use xlink:href="#DejaVuSans-36" x="95.410156"/>
       <use xlink:href="#DejaVuSans-30" x="159.033203"/>
      </g>
     </g>
    </g>
    <g id="xtick_13">
     <g id="line2d_13">
      <g>
       <use xlink:href="#m735d1eab55" x="545.41258" y="377.20974" style="stroke: #000000; stroke-width: 0.8"/>
      </g>
     </g>
     <g id="text_13">
      <!-- 0.65 -->
      <g transform="translate(539.491666 405.326821) rotate(-45) scale(0.1 -0.1)">
       <use xlink:href="#DejaVuSans-30"/>
       <use xlink:href="#DejaVuSans-2e" x="63.623047"/>
       <use xlink:href="#DejaVuSans-36" x="95.410156"/>
       <use xlink:href="#DejaVuSans-35" x="159.033203"/>
      </g>
     </g>
    </g>
    <g id="xtick_14">
     <g id="line2d_14">
      <g>
       <use xlink:href="#m735d1eab55" x="582.097612" y="377.20974" style="stroke: #000000; stroke-width: 0.8"/>
      </g>
     </g>
     <g id="text_14">
      <!-- 0.70 -->
      <g transform="translate(576.176698 405.326821) rotate(-45) scale(0.1 -0.1)">
       <defs>
        <path id="DejaVuSans-37" d="M 525 4666 
L 3525 4666 
L 3525 4397 
L 1831 0 
L 1172 0 
L 2766 4134 
L 525 4134 
L 525 4666 
z
" transform="scale(0.015625)"/>
       </defs>
       <use xlink:href="#DejaVuSans-30"/>
       <use xlink:href="#DejaVuSans-2e" x="63.623047"/>
       <use xlink:href="#DejaVuSans-37" x="95.410156"/>
       <use xlink:href="#DejaVuSans-30" x="159.033203"/>
      </g>
     </g>
    </g>
    <g id="xtick_15">
     <g id="line2d_15">
      <g>
       <use xlink:href="#m735d1eab55" x="618.782645" y="377.20974" style="stroke: #000000; stroke-width: 0.8"/>
      </g>
     </g>
     <g id="text_15">
      <!-- 0.75 -->
      <g transform="translate(612.86173 405.326821) rotate(-45) scale(0.1 -0.1)">
       <use xlink:href="#DejaVuSans-30"/>
       <use xlink:href="#DejaVuSans-2e" x="63.623047"/>
       <use xlink:href="#DejaVuSans-37" x="95.410156"/>
       <use xlink:href="#DejaVuSans-35" x="159.033203"/>
      </g>
     </g>
    </g>
    <g id="xtick_16">
     <g id="line2d_16">
      <g>
       <use xlink:href="#m735d1eab55" x="655.467677" y="377.20974" style="stroke: #000000; stroke-width: 0.8"/>
      </g>
     </g>
     <g id="text_16">
      <!-- 0.80 -->
      <g transform="translate(649.546762 405.326821) rotate(-45) scale(0.1 -0.1)">
       <defs>
        <path id="DejaVuSans-38" d="M 2034 2216 
Q 1584 2216 1326 1975 
Q 1069 1734 1069 1313 
Q 1069 891 1326 650 
Q 1584 409 2034 409 
Q 2484 409 2743 651 
Q 3003 894 3003 1313 
Q 3003 1734 2745 1975 
Q 2488 2216 2034 2216 
z
M 1403 2484 
Q 997 2584 770 2862 
Q 544 3141 544 3541 
Q 544 4100 942 4425 
Q 1341 4750 2034 4750 
Q 2731 4750 3128 4425 
Q 3525 4100 3525 3541 
Q 3525 3141 3298 2862 
Q 3072 2584 2669 2484 
Q 3125 2378 3379 2068 
Q 3634 1759 3634 1313 
Q 3634 634 3220 271 
Q 2806 -91 2034 -91 
Q 1263 -91 848 271 
Q 434 634 434 1313 
Q 434 1759 690 2068 
Q 947 2378 1403 2484 
z
M 1172 3481 
Q 1172 3119 1398 2916 
Q 1625 2713 2034 2713 
Q 2441 2713 2670 2916 
Q 2900 3119 2900 3481 
Q 2900 3844 2670 4047 
Q 2441 4250 2034 4250 
Q 1625 4250 1398 4047 
Q 1172 3844 1172 3481 
z
" transform="scale(0.015625)"/>
       </defs>
       <use xlink:href="#DejaVuSans-30"/>
       <use xlink:href="#DejaVuSans-2e" x="63.623047"/>
       <use xlink:href="#DejaVuSans-38" x="95.410156"/>
       <use xlink:href="#DejaVuSans-30" x="159.033203"/>
      </g>
     </g>
    </g>
    <g id="xtick_17">
     <g id="line2d_17">
      <g>
       <use xlink:href="#m735d1eab55" x="692.152709" y="377.20974" style="stroke: #000000; stroke-width: 0.8"/>
      </g>
     </g>
     <g id="text_17">
      <!-- 0.85 -->
      <g transform="translate(686.231794 405.326821) rotate(-45) scale(0.1 -0.1)">
       <use xlink:href="#DejaVuSans-30"/>
       <use xlink:href="#DejaVuSans-2e" x="63.623047"/>
       <use xlink:href="#DejaVuSans-38" x="95.410156"/>
       <use xlink:href="#DejaVuSans-35" x="159.033203"/>
      </g>
     </g>
    </g>
    <g id="xtick_18">
     <g id="line2d_18">
      <g>
       <use xlink:href="#m735d1eab55" x="728.837741" y="377.20974" style="stroke: #000000; stroke-width: 0.8"/>
      </g>
     </g>
     <g id="text_18">
      <!-- 0.90 -->
      <g transform="translate(722.916827 405.326821) rotate(-45) scale(0.1 -0.1)">
       <defs>
        <path id="DejaVuSans-39" d="M 703 97 
L 703 672 
Q 941 559 1184 500 
Q 1428 441 1663 441 
Q 2288 441 2617 861 
Q 2947 1281 2994 2138 
Q 2813 1869 2534 1725 
Q 2256 1581 1919 1581 
Q 1219 1581 811 2004 
Q 403 2428 403 3163 
Q 403 3881 828 4315 
Q 1253 4750 1959 4750 
Q 2769 4750 3195 4129 
Q 3622 3509 3622 2328 
Q 3622 1225 3098 567 
Q 2575 -91 1691 -91 
Q 1453 -91 1209 -44 
Q 966 3 703 97 
z
M 1959 2075 
Q 2384 2075 2632 2365 
Q 2881 2656 2881 3163 
Q 2881 3666 2632 3958 
Q 2384 4250 1959 4250 
Q 1534 4250 1286 3958 
Q 1038 3666 1038 3163 
Q 1038 2656 1286 2365 
Q 1534 2075 1959 2075 
z
" transform="scale(0.015625)"/>
       </defs>
       <use xlink:href="#DejaVuSans-30"/>
       <use xlink:href="#DejaVuSans-2e" x="63.623047"/>
       <use xlink:href="#DejaVuSans-39" x="95.410156"/>
       <use xlink:href="#DejaVuSans-30" x="159.033203"/>
      </g>
     </g>
    </g>
    <g id="xtick_19">
     <g id="line2d_19">
      <g>
       <use xlink:href="#m735d1eab55" x="765.522773" y="377.20974" style="stroke: #000000; stroke-width: 0.8"/>
      </g>
     </g>
     <g id="text_19">
      <!-- 0.95 -->
      <g transform="translate(759.601859 405.326821) rotate(-45) scale(0.1 -0.1)">
       <use xlink:href="#DejaVuSans-30"/>
       <use xlink:href="#DejaVuSans-2e" x="63.623047"/>
       <use xlink:href="#DejaVuSans-39" x="95.410156"/>
       <use xlink:href="#DejaVuSans-35" x="159.033203"/>
      </g>
     </g>
    </g>
    <g id="xtick_20">
     <g id="line2d_20">
      <g>
       <use xlink:href="#m735d1eab55" x="802.207805" y="377.20974" style="stroke: #000000; stroke-width: 0.8"/>
      </g>
     </g>
     <g id="text_20">
      <!-- 1.00 -->
      <g transform="translate(796.286891 405.326821) rotate(-45) scale(0.1 -0.1)">
       <use xlink:href="#DejaVuSans-31"/>
       <use xlink:href="#DejaVuSans-2e" x="63.623047"/>
       <use xlink:href="#DejaVuSans-30" x="95.410156"/>
       <use xlink:href="#DejaVuSans-30" x="159.033203"/>
      </g>
     </g>
    </g>
    <g id="text_21">
     <!-- Frequency -->
     <g transform="translate(427.870313 418.39582) scale(0.1 -0.1)">
      <defs>
       <path id="DejaVuSans-46" d="M 628 4666 
L 3309 4666 
L 3309 4134 
L 1259 4134 
L 1259 2759 
L 3109 2759 
L 3109 2228 
L 1259 2228 
L 1259 0 
L 628 0 
L 628 4666 
z
" transform="scale(0.015625)"/>
       <path id="DejaVuSans-72" d="M 2631 2963 
Q 2534 3019 2420 3045 
Q 2306 3072 2169 3072 
Q 1681 3072 1420 2755 
Q 1159 2438 1159 1844 
L 1159 0 
L 581 0 
L 581 3500 
L 1159 3500 
L 1159 2956 
Q 1341 3275 1631 3429 
Q 1922 3584 2338 3584 
Q 2397 3584 2469 3576 
Q 2541 3569 2628 3553 
L 2631 2963 
z
" transform="scale(0.015625)"/>
       <path id="DejaVuSans-65" d="M 3597 1894 
L 3597 1613 
L 953 1613 
Q 991 1019 1311 708 
Q 1631 397 2203 397 
Q 2534 397 2845 478 
Q 3156 559 3463 722 
L 3463 178 
Q 3153 47 2828 -22 
Q 2503 -91 2169 -91 
Q 1331 -91 842 396 
Q 353 884 353 1716 
Q 353 2575 817 3079 
Q 1281 3584 2069 3584 
Q 2775 3584 3186 3129 
Q 3597 2675 3597 1894 
z
M 3022 2063 
Q 3016 2534 2758 2815 
Q 2500 3097 2075 3097 
Q 1594 3097 1305 2825 
Q 1016 2553 972 2059 
L 3022 2063 
z
" transform="scale(0.015625)"/>
       <path id="DejaVuSans-71" d="M 947 1747 
Q 947 1113 1208 752 
Q 1469 391 1925 391 
Q 2381 391 2643 752 
Q 2906 1113 2906 1747 
Q 2906 2381 2643 2742 
Q 2381 3103 1925 3103 
Q 1469 3103 1208 2742 
Q 947 2381 947 1747 
z
M 2906 525 
Q 2725 213 2448 61 
Q 2172 -91 1784 -91 
Q 1150 -91 751 415 
Q 353 922 353 1747 
Q 353 2572 751 3078 
Q 1150 3584 1784 3584 
Q 2172 3584 2448 3432 
Q 2725 3281 2906 2969 
L 2906 3500 
L 3481 3500 
L 3481 -1331 
L 2906 -1331 
L 2906 525 
z
" transform="scale(0.015625)"/>
       <path id="DejaVuSans-75" d="M 544 1381 
L 544 3500 
L 1119 3500 
L 1119 1403 
Q 1119 906 1312 657 
Q 1506 409 1894 409 
Q 2359 409 2629 706 
Q 2900 1003 2900 1516 
L 2900 3500 
L 3475 3500 
L 3475 0 
L 2900 0 
L 2900 538 
Q 2691 219 2414 64 
Q 2138 -91 1772 -91 
Q 1169 -91 856 284 
Q 544 659 544 1381 
z
M 1991 3584 
L 1991 3584 
z
" transform="scale(0.015625)"/>
       <path id="DejaVuSans-6e" d="M 3513 2113 
L 3513 0 
L 2938 0 
L 2938 2094 
Q 2938 2591 2744 2837 
Q 2550 3084 2163 3084 
Q 1697 3084 1428 2787 
Q 1159 2491 1159 1978 
L 1159 0 
L 581 0 
L 581 3500 
L 1159 3500 
L 1159 2956 
Q 1366 3272 1645 3428 
Q 1925 3584 2291 3584 
Q 2894 3584 3203 3211 
Q 3513 2838 3513 2113 
z
" transform="scale(0.015625)"/>
       <path id="DejaVuSans-63" d="M 3122 3366 
L 3122 2828 
Q 2878 2963 2633 3030 
Q 2388 3097 2138 3097 
Q 1578 3097 1268 2742 
Q 959 2388 959 1747 
Q 959 1106 1268 751 
Q 1578 397 2138 397 
Q 2388 397 2633 464 
Q 2878 531 3122 666 
L 3122 134 
Q 2881 22 2623 -34 
Q 2366 -91 2075 -91 
Q 1284 -91 818 406 
Q 353 903 353 1747 
Q 353 2603 823 3093 
Q 1294 3584 2113 3584 
Q 2378 3584 2631 3529 
Q 2884 3475 3122 3366 
z
" transform="scale(0.015625)"/>
       <path id="DejaVuSans-79" d="M 2059 -325 
Q 1816 -950 1584 -1140 
Q 1353 -1331 966 -1331 
L 506 -1331 
L 506 -850 
L 844 -850 
Q 1081 -850 1212 -737 
Q 1344 -625 1503 -206 
L 1606 56 
L 191 3500 
L 800 3500 
L 1894 763 
L 2988 3500 
L 3597 3500 
L 2059 -325 
z
" transform="scale(0.015625)"/>
      </defs>
      <use xlink:href="#DejaVuSans-46"/>
      <use xlink:href="#DejaVuSans-72" x="50.269531"/>
      <use xlink:href="#DejaVuSans-65" x="89.132812"/>
      <use xlink:href="#DejaVuSans-71" x="150.65625"/>
      <use xlink:href="#DejaVuSans-75" x="214.132812"/>
      <use xlink:href="#DejaVuSans-65" x="277.511719"/>
      <use xlink:href="#DejaVuSans-6e" x="339.035156"/>
      <use xlink:href="#DejaVuSans-63" x="402.414062"/>
      <use xlink:href="#DejaVuSans-79" x="457.394531"/>
     </g>
    </g>
   </g>
   <g id="matplotlib.axis_2">
    <g id="ytick_1">
     <g id="line2d_21">
      <defs>
       <path id="mfbddf52513" d="M 0 0 
L -3.5 0 
" style="stroke: #000000; stroke-width: 0.8"/>
      </defs>
      <g>
       <use xlink:href="#mfbddf52513" x="54.2" y="377.20974" style="stroke: #000000; stroke-width: 0.8"/>
      </g>
     </g>
     <g id="text_22">
      <!-- 0.00 -->
      <g transform="translate(24.934375 381.008959) scale(0.1 -0.1)">
       <use xlink:href="#DejaVuSans-30"/>
       <use xlink:href="#DejaVuSans-2e" x="63.623047"/>
       <use xlink:href="#DejaVuSans-30" x="95.410156"/>
       <use xlink:href="#DejaVuSans-30" x="159.033203"/>
      </g>
     </g>
    </g>
    <g id="ytick_2">
     <g id="line2d_22">
      <g>
       <use xlink:href="#mfbddf52513" x="54.2" y="326.95692" style="stroke: #000000; stroke-width: 0.8"/>
      </g>
     </g>
     <g id="text_23">
      <!-- 0.05 -->
      <g transform="translate(24.934375 330.756139) scale(0.1 -0.1)">
       <use xlink:href="#DejaVuSans-30"/>
       <use xlink:href="#DejaVuSans-2e" x="63.623047"/>
       <use xlink:href="#DejaVuSans-30" x="95.410156"/>
       <use xlink:href="#DejaVuSans-35" x="159.033203"/>
      </g>
     </g>
    </g>
    <g id="ytick_3">
     <g id="line2d_23">
      <g>
       <use xlink:href="#mfbddf52513" x="54.2" y="276.7041" style="stroke: #000000; stroke-width: 0.8"/>
      </g>
     </g>
     <g id="text_24">
      <!-- 0.10 -->
      <g transform="translate(24.934375 280.503319) scale(0.1 -0.1)">
       <use xlink:href="#DejaVuSans-30"/>
       <use xlink:href="#DejaVuSans-2e" x="63.623047"/>
       <use xlink:href="#DejaVuSans-31" x="95.410156"/>
       <use xlink:href="#DejaVuSans-30" x="159.033203"/>
      </g>
     </g>
    </g>
    <g id="ytick_4">
     <g id="line2d_24">
      <g>
       <use xlink:href="#mfbddf52513" x="54.2" y="226.45128" style="stroke: #000000; stroke-width: 0.8"/>
      </g>
     </g>
     <g id="text_25">
      <!-- 0.15 -->
      <g transform="translate(24.934375 230.250499) scale(0.1 -0.1)">
       <use xlink:href="#DejaVuSans-30"/>
       <use xlink:href="#DejaVuSans-2e" x="63.623047"/>
       <use xlink:href="#DejaVuSans-31" x="95.410156"/>
       <use xlink:href="#DejaVuSans-35" x="159.033203"/>
      </g>
     </g>
    </g>
    <g id="ytick_5">
     <g id="line2d_25">
      <g>
       <use xlink:href="#mfbddf52513" x="54.2" y="176.19846" style="stroke: #000000; stroke-width: 0.8"/>
      </g>
     </g>
     <g id="text_26">
      <!-- 0.20 -->
      <g transform="translate(24.934375 179.997679) scale(0.1 -0.1)">
       <use xlink:href="#DejaVuSans-30"/>
       <use xlink:href="#DejaVuSans-2e" x="63.623047"/>
       <use xlink:href="#DejaVuSans-32" x="95.410156"/>
       <use xlink:href="#DejaVuSans-30" x="159.033203"/>
      </g>
     </g>
    </g>
    <g id="ytick_6">
     <g id="line2d_26">
      <g>
       <use xlink:href="#mfbddf52513" x="54.2" y="125.94564" style="stroke: #000000; stroke-width: 0.8"/>
      </g>
     </g>
     <g id="text_27">
      <!-- 0.25 -->
      <g transform="translate(24.934375 129.744859) scale(0.1 -0.1)">
       <use xlink:href="#DejaVuSans-30"/>
       <use xlink:href="#DejaVuSans-2e" x="63.623047"/>
       <use xlink:href="#DejaVuSans-32" x="95.410156"/>
       <use xlink:href="#DejaVuSans-35" x="159.033203"/>
      </g>
     </g>
    </g>
    <g id="ytick_7">
     <g id="line2d_27">
      <g>
       <use xlink:href="#mfbddf52513" x="54.2" y="75.69282" style="stroke: #000000; stroke-width: 0.8"/>
      </g>
     </g>
     <g id="text_28">
      <!-- 0.30 -->
      <g transform="translate(24.934375 79.492039) scale(0.1 -0.1)">
       <use xlink:href="#DejaVuSans-30"/>
       <use xlink:href="#DejaVuSans-2e" x="63.623047"/>
       <use xlink:href="#DejaVuSans-33" x="95.410156"/>
       <use xlink:href="#DejaVuSans-30" x="159.033203"/>
      </g>
     </g>
    </g>
    <g id="ytick_8">
     <g id="line2d_28">
      <g>
       <use xlink:href="#mfbddf52513" x="54.2" y="25.44" style="stroke: #000000; stroke-width: 0.8"/>
      </g>
     </g>
     <g id="text_29">
      <!-- 0.35 -->
      <g transform="translate(24.934375 29.239219) scale(0.1 -0.1)">
       <use xlink:href="#DejaVuSans-30"/>
       <use xlink:href="#DejaVuSans-2e" x="63.623047"/>
       <use xlink:href="#DejaVuSans-33" x="95.410156"/>
       <use xlink:href="#DejaVuSans-35" x="159.033203"/>
      </g>
     </g>
    </g>
    <g id="text_30">
     <!-- Count of insertions -->
     <g transform="translate(18.854687 248.647526) rotate(-90) scale(0.1 -0.1)">
      <defs>
       <path id="DejaVuSans-43" d="M 4122 4306 
L 4122 3641 
Q 3803 3938 3442 4084 
Q 3081 4231 2675 4231 
Q 1875 4231 1450 3742 
Q 1025 3253 1025 2328 
Q 1025 1406 1450 917 
Q 1875 428 2675 428 
Q 3081 428 3442 575 
Q 3803 722 4122 1019 
L 4122 359 
Q 3791 134 3420 21 
Q 3050 -91 2638 -91 
Q 1578 -91 968 557 
Q 359 1206 359 2328 
Q 359 3453 968 4101 
Q 1578 4750 2638 4750 
Q 3056 4750 3426 4639 
Q 3797 4528 4122 4306 
z
" transform="scale(0.015625)"/>
       <path id="DejaVuSans-6f" d="M 1959 3097 
Q 1497 3097 1228 2736 
Q 959 2375 959 1747 
Q 959 1119 1226 758 
Q 1494 397 1959 397 
Q 2419 397 2687 759 
Q 2956 1122 2956 1747 
Q 2956 2369 2687 2733 
Q 2419 3097 1959 3097 
z
M 1959 3584 
Q 2709 3584 3137 3096 
Q 3566 2609 3566 1747 
Q 3566 888 3137 398 
Q 2709 -91 1959 -91 
Q 1206 -91 779 398 
Q 353 888 353 1747 
Q 353 2609 779 3096 
Q 1206 3584 1959 3584 
z
" transform="scale(0.015625)"/>
       <path id="DejaVuSans-74" d="M 1172 4494 
L 1172 3500 
L 2356 3500 
L 2356 3053 
L 1172 3053 
L 1172 1153 
Q 1172 725 1289 603 
Q 1406 481 1766 481 
L 2356 481 
L 2356 0 
L 1766 0 
Q 1100 0 847 248 
Q 594 497 594 1153 
L 594 3053 
L 172 3053 
L 172 3500 
L 594 3500 
L 594 4494 
L 1172 4494 
z
" transform="scale(0.015625)"/>
       <path id="DejaVuSans-20" transform="scale(0.015625)"/>
       <path id="DejaVuSans-66" d="M 2375 4863 
L 2375 4384 
L 1825 4384 
Q 1516 4384 1395 4259 
Q 1275 4134 1275 3809 
L 1275 3500 
L 2222 3500 
L 2222 3053 
L 1275 3053 
L 1275 0 
L 697 0 
L 697 3053 
L 147 3053 
L 147 3500 
L 697 3500 
L 697 3744 
Q 697 4328 969 4595 
Q 1241 4863 1831 4863 
L 2375 4863 
z
" transform="scale(0.015625)"/>
       <path id="DejaVuSans-69" d="M 603 3500 
L 1178 3500 
L 1178 0 
L 603 0 
L 603 3500 
z
M 603 4863 
L 1178 4863 
L 1178 4134 
L 603 4134 
L 603 4863 
z
" transform="scale(0.015625)"/>
       <path id="DejaVuSans-73" d="M 2834 3397 
L 2834 2853 
Q 2591 2978 2328 3040 
Q 2066 3103 1784 3103 
Q 1356 3103 1142 2972 
Q 928 2841 928 2578 
Q 928 2378 1081 2264 
Q 1234 2150 1697 2047 
L 1894 2003 
Q 2506 1872 2764 1633 
Q 3022 1394 3022 966 
Q 3022 478 2636 193 
Q 2250 -91 1575 -91 
Q 1294 -91 989 -36 
Q 684 19 347 128 
L 347 722 
Q 666 556 975 473 
Q 1284 391 1588 391 
Q 1994 391 2212 530 
Q 2431 669 2431 922 
Q 2431 1156 2273 1281 
Q 2116 1406 1581 1522 
L 1381 1569 
Q 847 1681 609 1914 
Q 372 2147 372 2553 
Q 372 3047 722 3315 
Q 1072 3584 1716 3584 
Q 2034 3584 2315 3537 
Q 2597 3491 2834 3397 
z
" transform="scale(0.015625)"/>
      </defs>
      <use xlink:href="#DejaVuSans-43"/>
      <use xlink:href="#DejaVuSans-6f" x="69.824219"/>
      <use xlink:href="#DejaVuSans-75" x="131.005859"/>
      <use xlink:href="#DejaVuSans-6e" x="194.384766"/>
      <use xlink:href="#DejaVuSans-74" x="257.763672"/>
      <use xlink:href="#DejaVuSans-20" x="296.972656"/>
      <use xlink:href="#DejaVuSans-6f" x="328.759766"/>
      <use xlink:href="#DejaVuSans-66" x="389.941406"/>
      <use xlink:href="#DejaVuSans-20" x="425.146484"/>
      <use xlink:href="#DejaVuSans-69" x="456.933594"/>
      <use xlink:href="#DejaVuSans-6e" x="484.716797"/>
      <use xlink:href="#DejaVuSans-73" x="548.095703"/>
      <use xlink:href="#DejaVuSans-65" x="600.195312"/>
      <use xlink:href="#DejaVuSans-72" x="661.71875"/>
      <use xlink:href="#DejaVuSans-74" x="702.832031"/>
      <use xlink:href="#DejaVuSans-69" x="742.041016"/>
      <use xlink:href="#DejaVuSans-6f" x="769.824219"/>
      <use xlink:href="#DejaVuSans-6e" x="831.005859"/>
      <use xlink:href="#DejaVuSans-73" x="894.384766"/>
     </g>
    </g>
   </g>
   <g id="patch_83">
    <path d="M 54.2 377.20974 
L 54.2 25.44 
" style="fill: none; stroke: #000000; stroke-width: 0.8; stroke-linejoin: miter; stroke-linecap: square"/>
   </g>
   <g id="patch_84">
    <path d="M 853.2 377.20974 
L 853.2 25.44 
" style="fill: none; stroke: #000000; stroke-width: 0.8; stroke-linejoin: miter; stroke-linecap: square"/>
   </g>
   <g id="patch_85">
    <path d="M 54.2 377.20974 
L 853.2 377.20974 
" style="fill: none; stroke: #000000; stroke-width: 0.8; stroke-linejoin: miter; stroke-linecap: square"/>
   </g>
   <g id="patch_86">
    <path d="M 54.2 25.44 
L 853.2 25.44 
" style="fill: none; stroke: #000000; stroke-width: 0.8; stroke-linejoin: miter; stroke-linecap: square"/>
   </g>
   <g id="text_31">
    <!-- Site Frequency Spectrum - Senegal -->
    <g transform="translate(348.169375 19.44) scale(0.12 -0.12)">
     <defs>
      <path id="DejaVuSans-53" d="M 3425 4513 
L 3425 3897 
Q 3066 4069 2747 4153 
Q 2428 4238 2131 4238 
Q 1616 4238 1336 4038 
Q 1056 3838 1056 3469 
Q 1056 3159 1242 3001 
Q 1428 2844 1947 2747 
L 2328 2669 
Q 3034 2534 3370 2195 
Q 3706 1856 3706 1288 
Q 3706 609 3251 259 
Q 2797 -91 1919 -91 
Q 1588 -91 1214 -16 
Q 841 59 441 206 
L 441 856 
Q 825 641 1194 531 
Q 1563 422 1919 422 
Q 2459 422 2753 634 
Q 3047 847 3047 1241 
Q 3047 1584 2836 1778 
Q 2625 1972 2144 2069 
L 1759 2144 
Q 1053 2284 737 2584 
Q 422 2884 422 3419 
Q 422 4038 858 4394 
Q 1294 4750 2059 4750 
Q 2388 4750 2728 4690 
Q 3069 4631 3425 4513 
z
" transform="scale(0.015625)"/>
      <path id="DejaVuSans-70" d="M 1159 525 
L 1159 -1331 
L 581 -1331 
L 581 3500 
L 1159 3500 
L 1159 2969 
Q 1341 3281 1617 3432 
Q 1894 3584 2278 3584 
Q 2916 3584 3314 3078 
Q 3713 2572 3713 1747 
Q 3713 922 3314 415 
Q 2916 -91 2278 -91 
Q 1894 -91 1617 61 
Q 1341 213 1159 525 
z
M 3116 1747 
Q 3116 2381 2855 2742 
Q 2594 3103 2138 3103 
Q 1681 3103 1420 2742 
Q 1159 2381 1159 1747 
Q 1159 1113 1420 752 
Q 1681 391 2138 391 
Q 2594 391 2855 752 
Q 3116 1113 3116 1747 
z
" transform="scale(0.015625)"/>
      <path id="DejaVuSans-6d" d="M 3328 2828 
Q 3544 3216 3844 3400 
Q 4144 3584 4550 3584 
Q 5097 3584 5394 3201 
Q 5691 2819 5691 2113 
L 5691 0 
L 5113 0 
L 5113 2094 
Q 5113 2597 4934 2840 
Q 4756 3084 4391 3084 
Q 3944 3084 3684 2787 
Q 3425 2491 3425 1978 
L 3425 0 
L 2847 0 
L 2847 2094 
Q 2847 2600 2669 2842 
Q 2491 3084 2119 3084 
Q 1678 3084 1418 2786 
Q 1159 2488 1159 1978 
L 1159 0 
L 581 0 
L 581 3500 
L 1159 3500 
L 1159 2956 
Q 1356 3278 1631 3431 
Q 1906 3584 2284 3584 
Q 2666 3584 2933 3390 
Q 3200 3197 3328 2828 
z
" transform="scale(0.015625)"/>
      <path id="DejaVuSans-2d" d="M 313 2009 
L 1997 2009 
L 1997 1497 
L 313 1497 
L 313 2009 
z
" transform="scale(0.015625)"/>
      <path id="DejaVuSans-67" d="M 2906 1791 
Q 2906 2416 2648 2759 
Q 2391 3103 1925 3103 
Q 1463 3103 1205 2759 
Q 947 2416 947 1791 
Q 947 1169 1205 825 
Q 1463 481 1925 481 
Q 2391 481 2648 825 
Q 2906 1169 2906 1791 
z
M 3481 434 
Q 3481 -459 3084 -895 
Q 2688 -1331 1869 -1331 
Q 1566 -1331 1297 -1286 
Q 1028 -1241 775 -1147 
L 775 -588 
Q 1028 -725 1275 -790 
Q 1522 -856 1778 -856 
Q 2344 -856 2625 -561 
Q 2906 -266 2906 331 
L 2906 616 
Q 2728 306 2450 153 
Q 2172 0 1784 0 
Q 1141 0 747 490 
Q 353 981 353 1791 
Q 353 2603 747 3093 
Q 1141 3584 1784 3584 
Q 2172 3584 2450 3431 
Q 2728 3278 2906 2969 
L 2906 3500 
L 3481 3500 
L 3481 434 
z
" transform="scale(0.015625)"/>
      <path id="DejaVuSans-61" d="M 2194 1759 
Q 1497 1759 1228 1600 
Q 959 1441 959 1056 
Q 959 750 1161 570 
Q 1363 391 1709 391 
Q 2188 391 2477 730 
Q 2766 1069 2766 1631 
L 2766 1759 
L 2194 1759 
z
M 3341 1997 
L 3341 0 
L 2766 0 
L 2766 531 
Q 2569 213 2275 61 
Q 1981 -91 1556 -91 
Q 1019 -91 701 211 
Q 384 513 384 1019 
Q 384 1609 779 1909 
Q 1175 2209 1959 2209 
L 2766 2209 
L 2766 2266 
Q 2766 2663 2505 2880 
Q 2244 3097 1772 3097 
Q 1472 3097 1187 3025 
Q 903 2953 641 2809 
L 641 3341 
Q 956 3463 1253 3523 
Q 1550 3584 1831 3584 
Q 2591 3584 2966 3190 
Q 3341 2797 3341 1997 
z
" transform="scale(0.015625)"/>
      <path id="DejaVuSans-6c" d="M 603 4863 
L 1178 4863 
L 1178 0 
L 603 0 
L 603 4863 
z
" transform="scale(0.015625)"/>
     </defs>
     <use xlink:href="#DejaVuSans-53"/>
     <use xlink:href="#DejaVuSans-69" x="63.476562"/>
     <use xlink:href="#DejaVuSans-74" x="91.259766"/>
     <use xlink:href="#DejaVuSans-65" x="130.46875"/>
     <use xlink:href="#DejaVuSans-20" x="191.992188"/>
     <use xlink:href="#DejaVuSans-46" x="223.779297"/>
     <use xlink:href="#DejaVuSans-72" x="274.048828"/>
     <use xlink:href="#DejaVuSans-65" x="312.912109"/>
     <use xlink:href="#DejaVuSans-71" x="374.435547"/>
     <use xlink:href="#DejaVuSans-75" x="437.912109"/>
     <use xlink:href="#DejaVuSans-65" x="501.291016"/>
     <use xlink:href="#DejaVuSans-6e" x="562.814453"/>
     <use xlink:href="#DejaVuSans-63" x="626.193359"/>
     <use xlink:href="#DejaVuSans-79" x="681.173828"/>
     <use xlink:href="#DejaVuSans-20" x="740.353516"/>
     <use xlink:href="#DejaVuSans-53" x="772.140625"/>
     <use xlink:href="#DejaVuSans-70" x="835.617188"/>
     <use xlink:href="#DejaVuSans-65" x="899.09375"/>
     <use xlink:href="#DejaVuSans-63" x="960.617188"/>
     <use xlink:href="#DejaVuSans-74" x="1015.597656"/>
     <use xlink:href="#DejaVuSans-72" x="1054.806641"/>
     <use xlink:href="#DejaVuSans-75" x="1095.919922"/>
     <use xlink:href="#DejaVuSans-6d" x="1159.298828"/>
     <use xlink:href="#DejaVuSans-20" x="1256.710938"/>
     <use xlink:href="#DejaVuSans-2d" x="1288.498047"/>
     <use xlink:href="#DejaVuSans-20" x="1324.582031"/>
     <use xlink:href="#DejaVuSans-53" x="1356.369141"/>
     <use xlink:href="#DejaVuSans-65" x="1419.845703"/>
     <use xlink:href="#DejaVuSans-6e" x="1481.369141"/>
     <use xlink:href="#DejaVuSans-65" x="1544.748047"/>
     <use xlink:href="#DejaVuSans-67" x="1606.271484"/>
     <use xlink:href="#DejaVuSans-61" x="1669.748047"/>
     <use xlink:href="#DejaVuSans-6c" x="1731.027344"/>
    </g>
   </g>
   <g id="legend_1">
    <g id="patch_87">
     <path d="M 677.432813 92.1525 
L 846.2 92.1525 
Q 848.2 92.1525 848.2 90.1525 
L 848.2 32.44 
Q 848.2 30.44 846.2 30.44 
L 677.432813 30.44 
Q 675.432813 30.44 675.432813 32.44 
L 675.432813 90.1525 
Q 675.432813 92.1525 677.432813 92.1525 
z
" style="fill: #ffffff; opacity: 0.8; stroke: #cccccc; stroke-linejoin: miter"/>
    </g>
    <g id="patch_88">
     <path d="M 679.432813 42.038438 
L 699.432813 42.038438 
L 699.432813 35.038438 
L 679.432813 35.038438 
z
" style="fill: #0000ff"/>
    </g>
    <g id="text_32">
     <!-- Overlaping Rep Exons -->
     <g transform="translate(707.432813 42.038438) scale(0.1 -0.1)">
      <defs>
       <path id="DejaVuSans-4f" d="M 2522 4238 
Q 1834 4238 1429 3725 
Q 1025 3213 1025 2328 
Q 1025 1447 1429 934 
Q 1834 422 2522 422 
Q 3209 422 3611 934 
Q 4013 1447 4013 2328 
Q 4013 3213 3611 3725 
Q 3209 4238 2522 4238 
z
M 2522 4750 
Q 3503 4750 4090 4092 
Q 4678 3434 4678 2328 
Q 4678 1225 4090 567 
Q 3503 -91 2522 -91 
Q 1538 -91 948 565 
Q 359 1222 359 2328 
Q 359 3434 948 4092 
Q 1538 4750 2522 4750 
z
" transform="scale(0.015625)"/>
       <path id="DejaVuSans-76" d="M 191 3500 
L 800 3500 
L 1894 563 
L 2988 3500 
L 3597 3500 
L 2284 0 
L 1503 0 
L 191 3500 
z
" transform="scale(0.015625)"/>
       <path id="DejaVuSans-52" d="M 2841 2188 
Q 3044 2119 3236 1894 
Q 3428 1669 3622 1275 
L 4263 0 
L 3584 0 
L 2988 1197 
Q 2756 1666 2539 1819 
Q 2322 1972 1947 1972 
L 1259 1972 
L 1259 0 
L 628 0 
L 628 4666 
L 2053 4666 
Q 2853 4666 3247 4331 
Q 3641 3997 3641 3322 
Q 3641 2881 3436 2590 
Q 3231 2300 2841 2188 
z
M 1259 4147 
L 1259 2491 
L 2053 2491 
Q 2509 2491 2742 2702 
Q 2975 2913 2975 3322 
Q 2975 3731 2742 3939 
Q 2509 4147 2053 4147 
L 1259 4147 
z
" transform="scale(0.015625)"/>
       <path id="DejaVuSans-45" d="M 628 4666 
L 3578 4666 
L 3578 4134 
L 1259 4134 
L 1259 2753 
L 3481 2753 
L 3481 2222 
L 1259 2222 
L 1259 531 
L 3634 531 
L 3634 0 
L 628 0 
L 628 4666 
z
" transform="scale(0.015625)"/>
       <path id="DejaVuSans-78" d="M 3513 3500 
L 2247 1797 
L 3578 0 
L 2900 0 
L 1881 1375 
L 863 0 
L 184 0 
L 1544 1831 
L 300 3500 
L 978 3500 
L 1906 2253 
L 2834 3500 
L 3513 3500 
z
" transform="scale(0.015625)"/>
      </defs>
      <use xlink:href="#DejaVuSans-4f"/>
      <use xlink:href="#DejaVuSans-76" x="78.710938"/>
      <use xlink:href="#DejaVuSans-65" x="137.890625"/>
      <use xlink:href="#DejaVuSans-72" x="199.414062"/>
      <use xlink:href="#DejaVuSans-6c" x="240.527344"/>
      <use xlink:href="#DejaVuSans-61" x="268.310547"/>
      <use xlink:href="#DejaVuSans-70" x="329.589844"/>
      <use xlink:href="#DejaVuSans-69" x="393.066406"/>
      <use xlink:href="#DejaVuSans-6e" x="420.849609"/>
      <use xlink:href="#DejaVuSans-67" x="484.228516"/>
      <use xlink:href="#DejaVuSans-20" x="547.705078"/>
      <use xlink:href="#DejaVuSans-52" x="579.492188"/>
      <use xlink:href="#DejaVuSans-65" x="644.474609"/>
      <use xlink:href="#DejaVuSans-70" x="705.998047"/>
      <use xlink:href="#DejaVuSans-20" x="769.474609"/>
      <use xlink:href="#DejaVuSans-45" x="801.261719"/>
      <use xlink:href="#DejaVuSans-78" x="864.445312"/>
      <use xlink:href="#DejaVuSans-6f" x="920.5"/>
      <use xlink:href="#DejaVuSans-6e" x="981.681641"/>
      <use xlink:href="#DejaVuSans-73" x="1045.060547"/>
     </g>
    </g>
    <g id="patch_89">
     <path d="M 679.432813 56.716563 
L 699.432813 56.716563 
L 699.432813 49.716563 
L 679.432813 49.716563 
z
" style="fill: #008000"/>
    </g>
    <g id="text_33">
     <!-- Overlapping Exons Not Rep -->
     <g transform="translate(707.432813 56.716563) scale(0.1 -0.1)">
      <defs>
       <path id="DejaVuSans-4e" d="M 628 4666 
L 1478 4666 
L 3547 763 
L 3547 4666 
L 4159 4666 
L 4159 0 
L 3309 0 
L 1241 3903 
L 1241 0 
L 628 0 
L 628 4666 
z
" transform="scale(0.015625)"/>
      </defs>
      <use xlink:href="#DejaVuSans-4f"/>
      <use xlink:href="#DejaVuSans-76" x="78.710938"/>
      <use xlink:href="#DejaVuSans-65" x="137.890625"/>
      <use xlink:href="#DejaVuSans-72" x="199.414062"/>
      <use xlink:href="#DejaVuSans-6c" x="240.527344"/>
      <use xlink:href="#DejaVuSans-61" x="268.310547"/>
      <use xlink:href="#DejaVuSans-70" x="329.589844"/>
      <use xlink:href="#DejaVuSans-70" x="393.066406"/>
      <use xlink:href="#DejaVuSans-69" x="456.542969"/>
      <use xlink:href="#DejaVuSans-6e" x="484.326172"/>
      <use xlink:href="#DejaVuSans-67" x="547.705078"/>
      <use xlink:href="#DejaVuSans-20" x="611.181641"/>
      <use xlink:href="#DejaVuSans-45" x="642.96875"/>
      <use xlink:href="#DejaVuSans-78" x="706.152344"/>
      <use xlink:href="#DejaVuSans-6f" x="762.207031"/>
      <use xlink:href="#DejaVuSans-6e" x="823.388672"/>
      <use xlink:href="#DejaVuSans-73" x="886.767578"/>
      <use xlink:href="#DejaVuSans-20" x="938.867188"/>
      <use xlink:href="#DejaVuSans-4e" x="970.654297"/>
      <use xlink:href="#DejaVuSans-6f" x="1045.458984"/>
      <use xlink:href="#DejaVuSans-74" x="1106.640625"/>
      <use xlink:href="#DejaVuSans-20" x="1145.849609"/>
      <use xlink:href="#DejaVuSans-52" x="1177.636719"/>
      <use xlink:href="#DejaVuSans-65" x="1242.619141"/>
      <use xlink:href="#DejaVuSans-70" x="1304.142578"/>
     </g>
    </g>
    <g id="patch_90">
     <path d="M 679.432813 71.394688 
L 699.432813 71.394688 
L 699.432813 64.394688 
L 679.432813 64.394688 
z
" style="fill: #ffa500"/>
    </g>
    <g id="text_34">
     <!-- Overlapping Rep Not Exon -->
     <g transform="translate(707.432813 71.394688) scale(0.1 -0.1)">
      <use xlink:href="#DejaVuSans-4f"/>
      <use xlink:href="#DejaVuSans-76" x="78.710938"/>
      <use xlink:href="#DejaVuSans-65" x="137.890625"/>
      <use xlink:href="#DejaVuSans-72" x="199.414062"/>
      <use xlink:href="#DejaVuSans-6c" x="240.527344"/>
      <use xlink:href="#DejaVuSans-61" x="268.310547"/>
      <use xlink:href="#DejaVuSans-70" x="329.589844"/>
      <use xlink:href="#DejaVuSans-70" x="393.066406"/>
      <use xlink:href="#DejaVuSans-69" x="456.542969"/>
      <use xlink:href="#DejaVuSans-6e" x="484.326172"/>
      <use xlink:href="#DejaVuSans-67" x="547.705078"/>
      <use xlink:href="#DejaVuSans-20" x="611.181641"/>
      <use xlink:href="#DejaVuSans-52" x="642.96875"/>
      <use xlink:href="#DejaVuSans-65" x="707.951172"/>
      <use xlink:href="#DejaVuSans-70" x="769.474609"/>
      <use xlink:href="#DejaVuSans-20" x="832.951172"/>
      <use xlink:href="#DejaVuSans-4e" x="864.738281"/>
      <use xlink:href="#DejaVuSans-6f" x="939.542969"/>
      <use xlink:href="#DejaVuSans-74" x="1000.724609"/>
      <use xlink:href="#DejaVuSans-20" x="1039.933594"/>
      <use xlink:href="#DejaVuSans-45" x="1071.720703"/>
      <use xlink:href="#DejaVuSans-78" x="1134.904297"/>
      <use xlink:href="#DejaVuSans-6f" x="1190.958984"/>
      <use xlink:href="#DejaVuSans-6e" x="1252.140625"/>
     </g>
    </g>
    <g id="patch_91">
     <path d="M 679.432813 86.072813 
L 699.432813 86.072813 
L 699.432813 79.072813 
L 679.432813 79.072813 
z
" style="fill: #ff0000"/>
    </g>
    <g id="text_35">
     <!-- Not Overlapping Exon Rep -->
     <g transform="translate(707.432813 86.072813) scale(0.1 -0.1)">
      <use xlink:href="#DejaVuSans-4e"/>
      <use xlink:href="#DejaVuSans-6f" x="74.804688"/>
      <use xlink:href="#DejaVuSans-74" x="135.986328"/>
      <use xlink:href="#DejaVuSans-20" x="175.195312"/>
      <use xlink:href="#DejaVuSans-4f" x="206.982422"/>
      <use xlink:href="#DejaVuSans-76" x="285.693359"/>
      <use xlink:href="#DejaVuSans-65" x="344.873047"/>
      <use xlink:href="#DejaVuSans-72" x="406.396484"/>
      <use xlink:href="#DejaVuSans-6c" x="447.509766"/>
      <use xlink:href="#DejaVuSans-61" x="475.292969"/>
      <use xlink:href="#DejaVuSans-70" x="536.572266"/>
      <use xlink:href="#DejaVuSans-70" x="600.048828"/>
      <use xlink:href="#DejaVuSans-69" x="663.525391"/>
      <use xlink:href="#DejaVuSans-6e" x="691.308594"/>
      <use xlink:href="#DejaVuSans-67" x="754.6875"/>
      <use xlink:href="#DejaVuSans-20" x="818.164062"/>
      <use xlink:href="#DejaVuSans-45" x="849.951172"/>
      <use xlink:href="#DejaVuSans-78" x="913.134766"/>
      <use xlink:href="#DejaVuSans-6f" x="969.189453"/>
      <use xlink:href="#DejaVuSans-6e" x="1030.371094"/>
      <use xlink:href="#DejaVuSans-20" x="1093.75"/>
      <use xlink:href="#DejaVuSans-52" x="1125.537109"/>
      <use xlink:href="#DejaVuSans-65" x="1190.519531"/>
      <use xlink:href="#DejaVuSans-70" x="1252.042969"/>
     </g>
    </g>
   </g>
  </g>
 </g>
 <defs>
  <clipPath id="p24bd4e9224">
   <rect x="54.2" y="25.44" width="799" height="351.76974"/>
  </clipPath>
 </defs>
</svg>
