<?xml version="1.0" encoding="utf-8" standalone="no"?>
<!DOCTYPE svg PUBLIC "-//W3C//DTD SVG 1.1//EN"
  "http://www.w3.org/Graphics/SVG/1.1/DTD/svg11.dtd">
<svg xmlns:xlink="http://www.w3.org/1999/xlink" width="1008pt" height="432pt" viewBox="0 0 1008 432" xmlns="http://www.w3.org/2000/svg" version="1.1">
 <metadata>
  <rdf:RDF xmlns:dc="http://purl.org/dc/elements/1.1/" xmlns:cc="http://creativecommons.org/ns#" xmlns:rdf="http://www.w3.org/1999/02/22-rdf-syntax-ns#">
   <cc:Work>
    <dc:type rdf:resource="http://purl.org/dc/dcmitype/StillImage"/>
    <dc:date>2025-05-02T15:54:24.808692</dc:date>
    <dc:format>image/svg+xml</dc:format>
    <dc:creator>
     <cc:Agent>
      <dc:title>Matplotlib v3.9.1, https://matplotlib.org/</dc:title>
     </cc:Agent>
    </dc:creator>
   </cc:Work>
  </rdf:RDF>
 </metadata>
 <defs>
  <style type="text/css">*{stroke-linejoin: round; stroke-linecap: butt}</style>
 </defs>
 <g id="figure_1">
  <g id="patch_1">
   <path d="M 0 432 
L 1008 432 
L 1008 0 
L 0 0 
z
" style="fill: #ffffff"/>
  </g>
  <g id="axes_1">
   <g id="patch_2">
    <path d="M 51.05 377.20974 
L 997.2 377.20974 
L 997.2 25.44 
L 51.05 25.44 
z
" style="fill: #ffffff"/>
   </g>
   <g id="patch_3">
    <path d="M 94.056818 377.20974 
L 100.24485 377.20974 
L 100.24485 375.603898 
L 94.056818 375.603898 
z
" clip-path="url(#pca1e09cb84)" style="fill: #0000ff"/>
   </g>
   <g id="patch_4">
    <path d="M 124.996975 377.20974 
L 131.185007 377.20974 
L 131.185007 375.875688 
L 124.996975 375.875688 
z
" clip-path="url(#pca1e09cb84)" style="fill: #0000ff"/>
   </g>
   <g id="patch_5">
    <path d="M 155.937132 377.20974 
L 162.125164 377.20974 
L 162.125164 376.355109 
L 155.937132 376.355109 
z
" clip-path="url(#pca1e09cb84)" style="fill: #0000ff"/>
   </g>
   <g id="patch_6">
    <path d="M 186.877289 377.20974 
L 193.06532 377.20974 
L 193.06532 376.389051 
L 186.877289 376.389051 
z
" clip-path="url(#pca1e09cb84)" style="fill: #0000ff"/>
   </g>
   <g id="patch_7">
    <path d="M 217.817446 377.20974 
L 224.005477 377.20974 
L 224.005477 376.976029 
L 217.817446 376.976029 
z
" clip-path="url(#pca1e09cb84)" style="fill: #0000ff"/>
   </g>
   <g id="patch_8">
    <path d="M 248.757603 377.20974 
L 254.945634 377.20974 
L 254.945634 376.131467 
L 248.757603 376.131467 
z
" clip-path="url(#pca1e09cb84)" style="fill: #0000ff"/>
   </g>
   <g id="patch_9">
    <path d="M 279.69776 377.20974 
L 285.885791 377.20974 
L 285.885791 376.696581 
L 279.69776 376.696581 
z
" clip-path="url(#pca1e09cb84)" style="fill: #0000ff"/>
   </g>
   <g id="patch_10">
    <path d="M 310.637917 377.20974 
L 316.825948 377.20974 
L 316.825948 376.434832 
L 310.637917 376.434832 
z
" clip-path="url(#pca1e09cb84)" style="fill: #0000ff"/>
   </g>
   <g id="patch_11">
    <path d="M 341.578074 377.20974 
L 347.766105 377.20974 
L 347.766105 376.964087 
L 341.578074 376.964087 
z
" clip-path="url(#pca1e09cb84)" style="fill: #0000ff"/>
   </g>
   <g id="patch_12">
    <path d="M 372.518231 377.20974 
L 378.706262 377.20974 
L 378.706262 376.521617 
L 372.518231 376.521617 
z
" clip-path="url(#pca1e09cb84)" style="fill: #0000ff"/>
   </g>
   <g id="patch_13">
    <path d="M 403.458388 377.20974 
L 409.646419 377.20974 
L 409.646419 376.517027 
L 403.458388 376.517027 
z
" clip-path="url(#pca1e09cb84)" style="fill: #0000ff"/>
   </g>
   <g id="patch_14">
    <path d="M 434.398545 377.20974 
L 440.586576 377.20974 
L 440.586576 376.360873 
L 434.398545 376.360873 
z
" clip-path="url(#pca1e09cb84)" style="fill: #0000ff"/>
   </g>
   <g id="patch_15">
    <path d="M 465.338702 377.20974 
L 471.526733 377.20974 
L 471.526733 376.447768 
L 465.338702 376.447768 
z
" clip-path="url(#pca1e09cb84)" style="fill: #0000ff"/>
   </g>
   <g id="patch_16">
    <path d="M 496.278859 377.20974 
L 502.46689 377.20974 
L 502.46689 376.388369 
L 496.278859 376.388369 
z
" clip-path="url(#pca1e09cb84)" style="fill: #0000ff"/>
   </g>
   <g id="patch_17">
    <path d="M 527.219016 377.20974 
L 533.407047 377.20974 
L 533.407047 376.394175 
L 527.219016 376.394175 
z
" clip-path="url(#pca1e09cb84)" style="fill: #0000ff"/>
   </g>
   <g id="patch_18">
    <path d="M 558.159173 377.20974 
L 564.347204 377.20974 
L 564.347204 376.172548 
L 558.159173 376.172548 
z
" clip-path="url(#pca1e09cb84)" style="fill: #0000ff"/>
   </g>
   <g id="patch_19">
    <path d="M 589.09933 377.20974 
L 595.287361 377.20974 
L 595.287361 376.270275 
L 589.09933 376.270275 
z
" clip-path="url(#pca1e09cb84)" style="fill: #0000ff"/>
   </g>
   <g id="patch_20">
    <path d="M 620.039487 377.20974 
L 626.227518 377.20974 
L 626.227518 375.623686 
L 620.039487 375.623686 
z
" clip-path="url(#pca1e09cb84)" style="fill: #0000ff"/>
   </g>
   <g id="patch_21">
    <path d="M 650.979644 377.20974 
L 657.167675 377.20974 
L 657.167675 376.389294 
L 650.979644 376.389294 
z
" clip-path="url(#pca1e09cb84)" style="fill: #0000ff"/>
   </g>
   <g id="patch_22">
    <path d="M 681.919801 377.20974 
L 688.107832 377.20974 
L 688.107832 376.147462 
L 681.919801 376.147462 
z
" clip-path="url(#pca1e09cb84)" style="fill: #0000ff"/>
   </g>
   <g id="patch_23">
    <path d="M 712.859957 377.20974 
L 719.047989 377.20974 
L 719.047989 375.74155 
L 712.859957 375.74155 
z
" clip-path="url(#pca1e09cb84)" style="fill: #0000ff"/>
   </g>
   <g id="patch_24">
    <path d="M 743.800114 377.20974 
L 749.988146 377.20974 
L 749.988146 375.98495 
L 743.800114 375.98495 
z
" clip-path="url(#pca1e09cb84)" style="fill: #0000ff"/>
   </g>
   <g id="patch_25">
    <path d="M 774.740271 377.20974 
L 780.928303 377.20974 
L 780.928303 376.687752 
L 774.740271 376.687752 
z
" clip-path="url(#pca1e09cb84)" style="fill: #0000ff"/>
   </g>
   <g id="patch_26">
    <path d="M 805.680428 377.20974 
L 811.86846 377.20974 
L 811.86846 376.172815 
L 805.680428 376.172815 
z
" clip-path="url(#pca1e09cb84)" style="fill: #0000ff"/>
   </g>
   <g id="patch_27">
    <path d="M 836.620585 377.20974 
L 842.808617 377.20974 
L 842.808617 376.084526 
L 836.620585 376.084526 
z
" clip-path="url(#pca1e09cb84)" style="fill: #0000ff"/>
   </g>
   <g id="patch_28">
    <path d="M 867.560742 377.20974 
L 873.748774 377.20974 
L 873.748774 376.250191 
L 867.560742 376.250191 
z
" clip-path="url(#pca1e09cb84)" style="fill: #0000ff"/>
   </g>
   <g id="patch_29">
    <path d="M 898.500899 377.20974 
L 904.688931 377.20974 
L 904.688931 375.757238 
L 898.500899 375.757238 
z
" clip-path="url(#pca1e09cb84)" style="fill: #0000ff"/>
   </g>
   <g id="patch_30">
    <path d="M 929.441056 377.20974 
L 935.629088 377.20974 
L 935.629088 377.20974 
L 929.441056 377.20974 
z
" clip-path="url(#pca1e09cb84)" style="fill: #0000ff"/>
   </g>
   <g id="patch_31">
    <path d="M 100.24485 377.20974 
L 106.432881 377.20974 
L 106.432881 377.20974 
L 100.24485 377.20974 
z
" clip-path="url(#pca1e09cb84)" style="fill: #008000"/>
   </g>
   <g id="patch_32">
    <path d="M 131.185007 377.20974 
L 137.373038 377.20974 
L 137.373038 377.088463 
L 131.185007 377.088463 
z
" clip-path="url(#pca1e09cb84)" style="fill: #008000"/>
   </g>
   <g id="patch_33">
    <path d="M 162.125164 377.20974 
L 168.313195 377.20974 
L 168.313195 377.20974 
L 162.125164 377.20974 
z
" clip-path="url(#pca1e09cb84)" style="fill: #008000"/>
   </g>
   <g id="patch_34">
    <path d="M 193.06532 377.20974 
L 199.253352 377.20974 
L 199.253352 377.20974 
L 193.06532 377.20974 
z
" clip-path="url(#pca1e09cb84)" style="fill: #008000"/>
   </g>
   <g id="patch_35">
    <path d="M 224.005477 377.20974 
L 230.193509 377.20974 
L 230.193509 377.20974 
L 224.005477 377.20974 
z
" clip-path="url(#pca1e09cb84)" style="fill: #008000"/>
   </g>
   <g id="patch_36">
    <path d="M 254.945634 377.20974 
L 261.133666 377.20974 
L 261.133666 377.20974 
L 254.945634 377.20974 
z
" clip-path="url(#pca1e09cb84)" style="fill: #008000"/>
   </g>
   <g id="patch_37">
    <path d="M 285.885791 377.20974 
L 292.073823 377.20974 
L 292.073823 377.20974 
L 285.885791 377.20974 
z
" clip-path="url(#pca1e09cb84)" style="fill: #008000"/>
   </g>
   <g id="patch_38">
    <path d="M 316.825948 377.20974 
L 323.01398 377.20974 
L 323.01398 377.20974 
L 316.825948 377.20974 
z
" clip-path="url(#pca1e09cb84)" style="fill: #008000"/>
   </g>
   <g id="patch_39">
    <path d="M 347.766105 377.20974 
L 353.954137 377.20974 
L 353.954137 377.20974 
L 347.766105 377.20974 
z
" clip-path="url(#pca1e09cb84)" style="fill: #008000"/>
   </g>
   <g id="patch_40">
    <path d="M 378.706262 377.20974 
L 384.894294 377.20974 
L 384.894294 377.20974 
L 378.706262 377.20974 
z
" clip-path="url(#pca1e09cb84)" style="fill: #008000"/>
   </g>
   <g id="patch_41">
    <path d="M 409.646419 377.20974 
L 415.834451 377.20974 
L 415.834451 377.20974 
L 409.646419 377.20974 
z
" clip-path="url(#pca1e09cb84)" style="fill: #008000"/>
   </g>
   <g id="patch_42">
    <path d="M 440.586576 377.20974 
L 446.774608 377.20974 
L 446.774608 377.20974 
L 440.586576 377.20974 
z
" clip-path="url(#pca1e09cb84)" style="fill: #008000"/>
   </g>
   <g id="patch_43">
    <path d="M 471.526733 377.20974 
L 477.714765 377.20974 
L 477.714765 377.20974 
L 471.526733 377.20974 
z
" clip-path="url(#pca1e09cb84)" style="fill: #008000"/>
   </g>
   <g id="patch_44">
    <path d="M 502.46689 377.20974 
L 508.654922 377.20974 
L 508.654922 377.20974 
L 502.46689 377.20974 
z
" clip-path="url(#pca1e09cb84)" style="fill: #008000"/>
   </g>
   <g id="patch_45">
    <path d="M 533.407047 377.20974 
L 539.595078 377.20974 
L 539.595078 377.20974 
L 533.407047 377.20974 
z
" clip-path="url(#pca1e09cb84)" style="fill: #008000"/>
   </g>
   <g id="patch_46">
    <path d="M 564.347204 377.20974 
L 570.535235 377.20974 
L 570.535235 377.06157 
L 564.347204 377.06157 
z
" clip-path="url(#pca1e09cb84)" style="fill: #008000"/>
   </g>
   <g id="patch_47">
    <path d="M 595.287361 377.20974 
L 601.475392 377.20974 
L 601.475392 377.075531 
L 595.287361 377.075531 
z
" clip-path="url(#pca1e09cb84)" style="fill: #008000"/>
   </g>
   <g id="patch_48">
    <path d="M 626.227518 377.20974 
L 632.415549 377.20974 
L 632.415549 377.087736 
L 626.227518 377.087736 
z
" clip-path="url(#pca1e09cb84)" style="fill: #008000"/>
   </g>
   <g id="patch_49">
    <path d="M 657.167675 377.20974 
L 663.355706 377.20974 
L 663.355706 377.20974 
L 657.167675 377.20974 
z
" clip-path="url(#pca1e09cb84)" style="fill: #008000"/>
   </g>
   <g id="patch_50">
    <path d="M 688.107832 377.20974 
L 694.295863 377.20974 
L 694.295863 377.121217 
L 688.107832 377.121217 
z
" clip-path="url(#pca1e09cb84)" style="fill: #008000"/>
   </g>
   <g id="patch_51">
    <path d="M 719.047989 377.20974 
L 725.23602 377.20974 
L 725.23602 377.20974 
L 719.047989 377.20974 
z
" clip-path="url(#pca1e09cb84)" style="fill: #008000"/>
   </g>
   <g id="patch_52">
    <path d="M 749.988146 377.20974 
L 756.176177 377.20974 
L 756.176177 377.148501 
L 749.988146 377.148501 
z
" clip-path="url(#pca1e09cb84)" style="fill: #008000"/>
   </g>
   <g id="patch_53">
    <path d="M 780.928303 377.20974 
L 787.116334 377.20974 
L 787.116334 377.114833 
L 780.928303 377.114833 
z
" clip-path="url(#pca1e09cb84)" style="fill: #008000"/>
   </g>
   <g id="patch_54">
    <path d="M 811.86846 377.20974 
L 818.056491 377.20974 
L 818.056491 377.071484 
L 811.86846 377.071484 
z
" clip-path="url(#pca1e09cb84)" style="fill: #008000"/>
   </g>
   <g id="patch_55">
    <path d="M 842.808617 377.20974 
L 848.996648 377.20974 
L 848.996648 377.087434 
L 842.808617 377.087434 
z
" clip-path="url(#pca1e09cb84)" style="fill: #008000"/>
   </g>
   <g id="patch_56">
    <path d="M 873.748774 377.20974 
L 879.936805 377.20974 
L 879.936805 377.083007 
L 873.748774 377.083007 
z
" clip-path="url(#pca1e09cb84)" style="fill: #008000"/>
   </g>
   <g id="patch_57">
    <path d="M 904.688931 377.20974 
L 910.876962 377.20974 
L 910.876962 377.030419 
L 904.688931 377.030419 
z
" clip-path="url(#pca1e09cb84)" style="fill: #008000"/>
   </g>
   <g id="patch_58">
    <path d="M 935.629088 377.20974 
L 941.817119 377.20974 
L 941.817119 376.96286 
L 935.629088 376.96286 
z
" clip-path="url(#pca1e09cb84)" style="fill: #008000"/>
   </g>
   <g id="patch_59">
    <path d="M 106.432881 377.20974 
L 112.620912 377.20974 
L 112.620912 72.099794 
L 106.432881 72.099794 
z
" clip-path="url(#pca1e09cb84)" style="fill: #ffa500"/>
   </g>
   <g id="patch_60">
    <path d="M 137.373038 377.20974 
L 143.561069 377.20974 
L 143.561069 71.590583 
L 137.373038 71.590583 
z
" clip-path="url(#pca1e09cb84)" style="fill: #ffa500"/>
   </g>
   <g id="patch_61">
    <path d="M 168.313195 377.20974 
L 174.501226 377.20974 
L 174.501226 58.603057 
L 168.313195 58.603057 
z
" clip-path="url(#pca1e09cb84)" style="fill: #ffa500"/>
   </g>
   <g id="patch_62">
    <path d="M 199.253352 377.20974 
L 205.441383 377.20974 
L 205.441383 58.987362 
L 199.253352 58.987362 
z
" clip-path="url(#pca1e09cb84)" style="fill: #ffa500"/>
   </g>
   <g id="patch_63">
    <path d="M 230.193509 377.20974 
L 236.38154 377.20974 
L 236.38154 51.884186 
L 230.193509 51.884186 
z
" clip-path="url(#pca1e09cb84)" style="fill: #ffa500"/>
   </g>
   <g id="patch_64">
    <path d="M 261.133666 377.20974 
L 267.321697 377.20974 
L 267.321697 48.605863 
L 261.133666 48.605863 
z
" clip-path="url(#pca1e09cb84)" style="fill: #ffa500"/>
   </g>
   <g id="patch_65">
    <path d="M 292.073823 377.20974 
L 298.261854 377.20974 
L 298.261854 47.248429 
L 292.073823 47.248429 
z
" clip-path="url(#pca1e09cb84)" style="fill: #ffa500"/>
   </g>
   <g id="patch_66">
    <path d="M 323.01398 377.20974 
L 329.202011 377.20974 
L 329.202011 42.19094 
L 323.01398 42.19094 
z
" clip-path="url(#pca1e09cb84)" style="fill: #ffa500"/>
   </g>
   <g id="patch_67">
    <path d="M 353.954137 377.20974 
L 360.142168 377.20974 
L 360.142168 43.857901 
L 353.954137 43.857901 
z
" clip-path="url(#pca1e09cb84)" style="fill: #ffa500"/>
   </g>
   <g id="patch_68">
    <path d="M 384.894294 377.20974 
L 391.082325 377.20974 
L 391.082325 47.598867 
L 384.894294 47.598867 
z
" clip-path="url(#pca1e09cb84)" style="fill: #ffa500"/>
   </g>
   <g id="patch_69">
    <path d="M 415.834451 377.20974 
L 422.022482 377.20974 
L 422.022482 44.938186 
L 415.834451 44.938186 
z
" clip-path="url(#pca1e09cb84)" style="fill: #ffa500"/>
   </g>
   <g id="patch_70">
    <path d="M 446.774608 377.20974 
L 452.962639 377.20974 
L 452.962639 50.395659 
L 446.774608 50.395659 
z
" clip-path="url(#pca1e09cb84)" style="fill: #ffa500"/>
   </g>
   <g id="patch_71">
    <path d="M 477.714765 377.20974 
L 483.902796 377.20974 
L 483.902796 45.370894 
L 477.714765 45.370894 
z
" clip-path="url(#pca1e09cb84)" style="fill: #ffa500"/>
   </g>
   <g id="patch_72">
    <path d="M 508.654922 377.20974 
L 514.842953 377.20974 
L 514.842953 44.554405 
L 508.654922 44.554405 
z
" clip-path="url(#pca1e09cb84)" style="fill: #ffa500"/>
   </g>
   <g id="patch_73">
    <path d="M 539.595078 377.20974 
L 545.78311 377.20974 
L 545.78311 44.785411 
L 539.595078 44.785411 
z
" clip-path="url(#pca1e09cb84)" style="fill: #ffa500"/>
   </g>
   <g id="patch_74">
    <path d="M 570.535235 377.20974 
L 576.723267 377.20974 
L 576.723267 46.049118 
L 570.535235 46.049118 
z
" clip-path="url(#pca1e09cb84)" style="fill: #ffa500"/>
   </g>
   <g id="patch_75">
    <path d="M 601.475392 377.20974 
L 607.663424 377.20974 
L 607.663424 47.054826 
L 601.475392 47.054826 
z
" clip-path="url(#pca1e09cb84)" style="fill: #ffa500"/>
   </g>
   <g id="patch_76">
    <path d="M 632.415549 377.20974 
L 638.603581 377.20974 
L 638.603581 46.578447 
L 632.415549 46.578447 
z
" clip-path="url(#pca1e09cb84)" style="fill: #ffa500"/>
   </g>
   <g id="patch_77">
    <path d="M 663.355706 377.20974 
L 669.543738 377.20974 
L 669.543738 46.980066 
L 663.355706 46.980066 
z
" clip-path="url(#pca1e09cb84)" style="fill: #ffa500"/>
   </g>
   <g id="patch_78">
    <path d="M 694.295863 377.20974 
L 700.483895 377.20974 
L 700.483895 46.841052 
L 694.295863 46.841052 
z
" clip-path="url(#pca1e09cb84)" style="fill: #ffa500"/>
   </g>
   <g id="patch_79">
    <path d="M 725.23602 377.20974 
L 731.424052 377.20974 
L 731.424052 48.55538 
L 725.23602 48.55538 
z
" clip-path="url(#pca1e09cb84)" style="fill: #ffa500"/>
   </g>
   <g id="patch_80">
    <path d="M 756.176177 377.20974 
L 762.364209 377.20974 
L 762.364209 51.292962 
L 756.176177 51.292962 
z
" clip-path="url(#pca1e09cb84)" style="fill: #ffa500"/>
   </g>
   <g id="patch_81">
    <path d="M 787.116334 377.20974 
L 793.304366 377.20974 
L 793.304366 50.824573 
L 787.116334 50.824573 
z
" clip-path="url(#pca1e09cb84)" style="fill: #ffa500"/>
   </g>
   <g id="patch_82">
    <path d="M 818.056491 377.20974 
L 824.244523 377.20974 
L 824.244523 53.343257 
L 818.056491 53.343257 
z
" clip-path="url(#pca1e09cb84)" style="fill: #ffa500"/>
   </g>
   <g id="patch_83">
    <path d="M 848.996648 377.20974 
L 855.18468 377.20974 
L 855.18468 53.930668 
L 848.996648 53.930668 
z
" clip-path="url(#pca1e09cb84)" style="fill: #ffa500"/>
   </g>
   <g id="patch_84">
    <path d="M 879.936805 377.20974 
L 886.124836 377.20974 
L 886.124836 54.276049 
L 879.936805 54.276049 
z
" clip-path="url(#pca1e09cb84)" style="fill: #ffa500"/>
   </g>
   <g id="patch_85">
    <path d="M 910.876962 377.20974 
L 917.064993 377.20974 
L 917.064993 55.220554 
L 910.876962 55.220554 
z
" clip-path="url(#pca1e09cb84)" style="fill: #ffa500"/>
   </g>
   <g id="patch_86">
    <path d="M 941.817119 377.20974 
L 948.00515 377.20974 
L 948.00515 51.821841 
L 941.817119 51.821841 
z
" clip-path="url(#pca1e09cb84)" style="fill: #ffa500"/>
   </g>
   <g id="patch_87">
    <path d="M 112.620912 377.20974 
L 118.808944 377.20974 
L 118.808944 337.799706 
L 112.620912 337.799706 
z
" clip-path="url(#pca1e09cb84)" style="fill: #ff0000"/>
   </g>
   <g id="patch_88">
    <path d="M 143.561069 377.20974 
L 149.749101 377.20974 
L 149.749101 338.158404 
L 143.561069 338.158404 
z
" clip-path="url(#pca1e09cb84)" style="fill: #ff0000"/>
   </g>
   <g id="patch_89">
    <path d="M 174.501226 377.20974 
L 180.689258 377.20974 
L 180.689258 350.545232 
L 174.501226 350.545232 
z
" clip-path="url(#pca1e09cb84)" style="fill: #ff0000"/>
   </g>
   <g id="patch_90">
    <path d="M 205.441383 377.20974 
L 211.629415 377.20974 
L 211.629415 350.126985 
L 205.441383 350.126985 
z
" clip-path="url(#pca1e09cb84)" style="fill: #ff0000"/>
   </g>
   <g id="patch_91">
    <path d="M 236.38154 377.20974 
L 242.569572 377.20974 
L 242.569572 356.643182 
L 236.38154 356.643182 
z
" clip-path="url(#pca1e09cb84)" style="fill: #ff0000"/>
   </g>
   <g id="patch_92">
    <path d="M 267.321697 377.20974 
L 273.509729 377.20974 
L 273.509729 360.766068 
L 267.321697 360.766068 
z
" clip-path="url(#pca1e09cb84)" style="fill: #ff0000"/>
   </g>
   <g id="patch_93">
    <path d="M 298.261854 377.20974 
L 304.449886 377.20974 
L 304.449886 361.558387 
L 298.261854 361.558387 
z
" clip-path="url(#pca1e09cb84)" style="fill: #ff0000"/>
   </g>
   <g id="patch_94">
    <path d="M 329.202011 377.20974 
L 335.390043 377.20974 
L 335.390043 366.877626 
L 329.202011 366.877626 
z
" clip-path="url(#pca1e09cb84)" style="fill: #ff0000"/>
   </g>
   <g id="patch_95">
    <path d="M 360.142168 377.20974 
L 366.330199 377.20974 
L 366.330199 364.68141 
L 360.142168 364.68141 
z
" clip-path="url(#pca1e09cb84)" style="fill: #ff0000"/>
   </g>
   <g id="patch_96">
    <path d="M 391.082325 377.20974 
L 397.270356 377.20974 
L 397.270356 361.382913 
L 391.082325 361.382913 
z
" clip-path="url(#pca1e09cb84)" style="fill: #ff0000"/>
   </g>
   <g id="patch_97">
    <path d="M 422.022482 377.20974 
L 428.210513 377.20974 
L 428.210513 364.048185 
L 422.022482 364.048185 
z
" clip-path="url(#pca1e09cb84)" style="fill: #ff0000"/>
   </g>
   <g id="patch_98">
    <path d="M 452.962639 377.20974 
L 459.15067 377.20974 
L 459.15067 358.746867 
L 452.962639 358.746867 
z
" clip-path="url(#pca1e09cb84)" style="fill: #ff0000"/>
   </g>
   <g id="patch_99">
    <path d="M 483.902796 377.20974 
L 490.090827 377.20974 
L 490.090827 363.684736 
L 483.902796 363.684736 
z
" clip-path="url(#pca1e09cb84)" style="fill: #ff0000"/>
   </g>
   <g id="patch_100">
    <path d="M 514.842953 377.20974 
L 521.030984 377.20974 
L 521.030984 364.560624 
L 514.842953 364.560624 
z
" clip-path="url(#pca1e09cb84)" style="fill: #ff0000"/>
   </g>
   <g id="patch_101">
    <path d="M 545.78311 377.20974 
L 551.971141 377.20974 
L 551.971141 364.323812 
L 545.78311 364.323812 
z
" clip-path="url(#pca1e09cb84)" style="fill: #ff0000"/>
   </g>
   <g id="patch_102">
    <path d="M 576.723267 377.20974 
L 582.911298 377.20974 
L 582.911298 363.429902 
L 576.723267 363.429902 
z
" clip-path="url(#pca1e09cb84)" style="fill: #ff0000"/>
   </g>
   <g id="patch_103">
    <path d="M 607.663424 377.20974 
L 613.851455 377.20974 
L 613.851455 362.312506 
L 607.663424 362.312506 
z
" clip-path="url(#pca1e09cb84)" style="fill: #ff0000"/>
   </g>
   <g id="patch_104">
    <path d="M 638.603581 377.20974 
L 644.791612 377.20974 
L 644.791612 363.423269 
L 638.603581 363.423269 
z
" clip-path="url(#pca1e09cb84)" style="fill: #ff0000"/>
   </g>
   <g id="patch_105">
    <path d="M 669.543738 377.20974 
L 675.731769 377.20974 
L 675.731769 362.134038 
L 669.543738 362.134038 
z
" clip-path="url(#pca1e09cb84)" style="fill: #ff0000"/>
   </g>
   <g id="patch_106">
    <path d="M 700.483895 377.20974 
L 706.671926 377.20974 
L 706.671926 362.603408 
L 700.483895 362.603408 
z
" clip-path="url(#pca1e09cb84)" style="fill: #ff0000"/>
   </g>
   <g id="patch_107">
    <path d="M 731.424052 377.20974 
L 737.612083 377.20974 
L 737.612083 361.206468 
L 731.424052 361.206468 
z
" clip-path="url(#pca1e09cb84)" style="fill: #ff0000"/>
   </g>
   <g id="patch_108">
    <path d="M 762.364209 377.20974 
L 768.55224 377.20974 
L 768.55224 358.286726 
L 762.364209 358.286726 
z
" clip-path="url(#pca1e09cb84)" style="fill: #ff0000"/>
   </g>
   <g id="patch_109">
    <path d="M 793.304366 377.20974 
L 799.492397 377.20974 
L 799.492397 358.08598 
L 793.304366 358.08598 
z
" clip-path="url(#pca1e09cb84)" style="fill: #ff0000"/>
   </g>
   <g id="patch_110">
    <path d="M 824.244523 377.20974 
L 830.432554 377.20974 
L 830.432554 356.125583 
L 824.244523 356.125583 
z
" clip-path="url(#pca1e09cb84)" style="fill: #ff0000"/>
   </g>
   <g id="patch_111">
    <path d="M 855.18468 377.20974 
L 861.372711 377.20974 
L 861.372711 355.61051 
L 855.18468 355.61051 
z
" clip-path="url(#pca1e09cb84)" style="fill: #ff0000"/>
   </g>
   <g id="patch_112">
    <path d="M 886.124836 377.20974 
L 892.312868 377.20974 
L 892.312868 355.103891 
L 886.124836 355.103891 
z
" clip-path="url(#pca1e09cb84)" style="fill: #ff0000"/>
   </g>
   <g id="patch_113">
    <path d="M 917.064993 377.20974 
L 923.253025 377.20974 
L 923.253025 354.704927 
L 917.064993 354.704927 
z
" clip-path="url(#pca1e09cb84)" style="fill: #ff0000"/>
   </g>
   <g id="patch_114">
    <path d="M 948.00515 377.20974 
L 954.193182 377.20974 
L 954.193182 356.718697 
L 948.00515 356.718697 
z
" clip-path="url(#pca1e09cb84)" style="fill: #ff0000"/>
   </g>
   <g id="matplotlib.axis_1">
    <g id="xtick_1">
     <g id="line2d_1">
      <defs>
       <path id="me83a8fe5fb" d="M 0 0 
L 0 3.5 
" style="stroke: #000000; stroke-width: 0.8"/>
      </defs>
      <g>
       <use xlink:href="#me83a8fe5fb" x="106.432881" y="377.20974" style="stroke: #000000; stroke-width: 0.8"/>
      </g>
     </g>
     <g id="text_1">
      <!-- 0.04 -->
      <g transform="translate(100.511967 405.326821) rotate(-45) scale(0.1 -0.1)">
       <defs>
        <path id="DejaVuSans-30" d="M 2034 4250 
Q 1547 4250 1301 3770 
Q 1056 3291 1056 2328 
Q 1056 1369 1301 889 
Q 1547 409 2034 409 
Q 2525 409 2770 889 
Q 3016 1369 3016 2328 
Q 3016 3291 2770 3770 
Q 2525 4250 2034 4250 
z
M 2034 4750 
Q 2819 4750 3233 4129 
Q 3647 3509 3647 2328 
Q 3647 1150 3233 529 
Q 2819 -91 2034 -91 
Q 1250 -91 836 529 
Q 422 1150 422 2328 
Q 422 3509 836 4129 
Q 1250 4750 2034 4750 
z
" transform="scale(0.015625)"/>
        <path id="DejaVuSans-2e" d="M 684 794 
L 1344 794 
L 1344 0 
L 684 0 
L 684 794 
z
" transform="scale(0.015625)"/>
        <path id="DejaVuSans-34" d="M 2419 4116 
L 825 1625 
L 2419 1625 
L 2419 4116 
z
M 2253 4666 
L 3047 4666 
L 3047 1625 
L 3713 1625 
L 3713 1100 
L 3047 1100 
L 3047 0 
L 2419 0 
L 2419 1100 
L 313 1100 
L 313 1709 
L 2253 4666 
z
" transform="scale(0.015625)"/>
       </defs>
       <use xlink:href="#DejaVuSans-30"/>
       <use xlink:href="#DejaVuSans-2e" x="63.623047"/>
       <use xlink:href="#DejaVuSans-30" x="95.410156"/>
       <use xlink:href="#DejaVuSans-34" x="159.033203"/>
      </g>
     </g>
    </g>
    <g id="xtick_2">
     <g id="line2d_2">
      <g>
       <use xlink:href="#me83a8fe5fb" x="137.373038" y="377.20974" style="stroke: #000000; stroke-width: 0.8"/>
      </g>
     </g>
     <g id="text_2">
      <!-- 0.07 -->
      <g transform="translate(131.452123 405.326821) rotate(-45) scale(0.1 -0.1)">
       <defs>
        <path id="DejaVuSans-37" d="M 525 4666 
L 3525 4666 
L 3525 4397 
L 1831 0 
L 1172 0 
L 2766 4134 
L 525 4134 
L 525 4666 
z
" transform="scale(0.015625)"/>
       </defs>
       <use xlink:href="#DejaVuSans-30"/>
       <use xlink:href="#DejaVuSans-2e" x="63.623047"/>
       <use xlink:href="#DejaVuSans-30" x="95.410156"/>
       <use xlink:href="#DejaVuSans-37" x="159.033203"/>
      </g>
     </g>
    </g>
    <g id="xtick_3">
     <g id="line2d_3">
      <g>
       <use xlink:href="#me83a8fe5fb" x="168.313195" y="377.20974" style="stroke: #000000; stroke-width: 0.8"/>
      </g>
     </g>
     <g id="text_3">
      <!-- 0.11 -->
      <g transform="translate(162.39228 405.326821) rotate(-45) scale(0.1 -0.1)">
       <defs>
        <path id="DejaVuSans-31" d="M 794 531 
L 1825 531 
L 1825 4091 
L 703 3866 
L 703 4441 
L 1819 4666 
L 2450 4666 
L 2450 531 
L 3481 531 
L 3481 0 
L 794 0 
L 794 531 
z
" transform="scale(0.015625)"/>
       </defs>
       <use xlink:href="#DejaVuSans-30"/>
       <use xlink:href="#DejaVuSans-2e" x="63.623047"/>
       <use xlink:href="#DejaVuSans-31" x="95.410156"/>
       <use xlink:href="#DejaVuSans-31" x="159.033203"/>
      </g>
     </g>
    </g>
    <g id="xtick_4">
     <g id="line2d_4">
      <g>
       <use xlink:href="#me83a8fe5fb" x="199.253352" y="377.20974" style="stroke: #000000; stroke-width: 0.8"/>
      </g>
     </g>
     <g id="text_4">
      <!-- 0.14 -->
      <g transform="translate(193.332437 405.326821) rotate(-45) scale(0.1 -0.1)">
       <use xlink:href="#DejaVuSans-30"/>
       <use xlink:href="#DejaVuSans-2e" x="63.623047"/>
       <use xlink:href="#DejaVuSans-31" x="95.410156"/>
       <use xlink:href="#DejaVuSans-34" x="159.033203"/>
      </g>
     </g>
    </g>
    <g id="xtick_5">
     <g id="line2d_5">
      <g>
       <use xlink:href="#me83a8fe5fb" x="230.193509" y="377.20974" style="stroke: #000000; stroke-width: 0.8"/>
      </g>
     </g>
     <g id="text_5">
      <!-- 0.18 -->
      <g transform="translate(224.272594 405.326821) rotate(-45) scale(0.1 -0.1)">
       <defs>
        <path id="DejaVuSans-38" d="M 2034 2216 
Q 1584 2216 1326 1975 
Q 1069 1734 1069 1313 
Q 1069 891 1326 650 
Q 1584 409 2034 409 
Q 2484 409 2743 651 
Q 3003 894 3003 1313 
Q 3003 1734 2745 1975 
Q 2488 2216 2034 2216 
z
M 1403 2484 
Q 997 2584 770 2862 
Q 544 3141 544 3541 
Q 544 4100 942 4425 
Q 1341 4750 2034 4750 
Q 2731 4750 3128 4425 
Q 3525 4100 3525 3541 
Q 3525 3141 3298 2862 
Q 3072 2584 2669 2484 
Q 3125 2378 3379 2068 
Q 3634 1759 3634 1313 
Q 3634 634 3220 271 
Q 2806 -91 2034 -91 
Q 1263 -91 848 271 
Q 434 634 434 1313 
Q 434 1759 690 2068 
Q 947 2378 1403 2484 
z
M 1172 3481 
Q 1172 3119 1398 2916 
Q 1625 2713 2034 2713 
Q 2441 2713 2670 2916 
Q 2900 3119 2900 3481 
Q 2900 3844 2670 4047 
Q 2441 4250 2034 4250 
Q 1625 4250 1398 4047 
Q 1172 3844 1172 3481 
z
" transform="scale(0.015625)"/>
       </defs>
       <use xlink:href="#DejaVuSans-30"/>
       <use xlink:href="#DejaVuSans-2e" x="63.623047"/>
       <use xlink:href="#DejaVuSans-31" x="95.410156"/>
       <use xlink:href="#DejaVuSans-38" x="159.033203"/>
      </g>
     </g>
    </g>
    <g id="xtick_6">
     <g id="line2d_6">
      <g>
       <use xlink:href="#me83a8fe5fb" x="261.133666" y="377.20974" style="stroke: #000000; stroke-width: 0.8"/>
      </g>
     </g>
     <g id="text_6">
      <!-- 0.25 -->
      <g transform="translate(255.212751 405.326821) rotate(-45) scale(0.1 -0.1)">
       <defs>
        <path id="DejaVuSans-32" d="M 1228 531 
L 3431 531 
L 3431 0 
L 469 0 
L 469 531 
Q 828 903 1448 1529 
Q 2069 2156 2228 2338 
Q 2531 2678 2651 2914 
Q 2772 3150 2772 3378 
Q 2772 3750 2511 3984 
Q 2250 4219 1831 4219 
Q 1534 4219 1204 4116 
Q 875 4013 500 3803 
L 500 4441 
Q 881 4594 1212 4672 
Q 1544 4750 1819 4750 
Q 2544 4750 2975 4387 
Q 3406 4025 3406 3419 
Q 3406 3131 3298 2873 
Q 3191 2616 2906 2266 
Q 2828 2175 2409 1742 
Q 1991 1309 1228 531 
z
" transform="scale(0.015625)"/>
        <path id="DejaVuSans-35" d="M 691 4666 
L 3169 4666 
L 3169 4134 
L 1269 4134 
L 1269 2991 
Q 1406 3038 1543 3061 
Q 1681 3084 1819 3084 
Q 2600 3084 3056 2656 
Q 3513 2228 3513 1497 
Q 3513 744 3044 326 
Q 2575 -91 1722 -91 
Q 1428 -91 1123 -41 
Q 819 9 494 109 
L 494 744 
Q 775 591 1075 516 
Q 1375 441 1709 441 
Q 2250 441 2565 725 
Q 2881 1009 2881 1497 
Q 2881 1984 2565 2268 
Q 2250 2553 1709 2553 
Q 1456 2553 1204 2497 
Q 953 2441 691 2322 
L 691 4666 
z
" transform="scale(0.015625)"/>
       </defs>
       <use xlink:href="#DejaVuSans-30"/>
       <use xlink:href="#DejaVuSans-2e" x="63.623047"/>
       <use xlink:href="#DejaVuSans-32" x="95.410156"/>
       <use xlink:href="#DejaVuSans-35" x="159.033203"/>
      </g>
     </g>
    </g>
    <g id="xtick_7">
     <g id="line2d_7">
      <g>
       <use xlink:href="#me83a8fe5fb" x="292.073823" y="377.20974" style="stroke: #000000; stroke-width: 0.8"/>
      </g>
     </g>
     <g id="text_7">
      <!-- 0.29 -->
      <g transform="translate(286.152908 405.326821) rotate(-45) scale(0.1 -0.1)">
       <defs>
        <path id="DejaVuSans-39" d="M 703 97 
L 703 672 
Q 941 559 1184 500 
Q 1428 441 1663 441 
Q 2288 441 2617 861 
Q 2947 1281 2994 2138 
Q 2813 1869 2534 1725 
Q 2256 1581 1919 1581 
Q 1219 1581 811 2004 
Q 403 2428 403 3163 
Q 403 3881 828 4315 
Q 1253 4750 1959 4750 
Q 2769 4750 3195 4129 
Q 3622 3509 3622 2328 
Q 3622 1225 3098 567 
Q 2575 -91 1691 -91 
Q 1453 -91 1209 -44 
Q 966 3 703 97 
z
M 1959 2075 
Q 2384 2075 2632 2365 
Q 2881 2656 2881 3163 
Q 2881 3666 2632 3958 
Q 2384 4250 1959 4250 
Q 1534 4250 1286 3958 
Q 1038 3666 1038 3163 
Q 1038 2656 1286 2365 
Q 1534 2075 1959 2075 
z
" transform="scale(0.015625)"/>
       </defs>
       <use xlink:href="#DejaVuSans-30"/>
       <use xlink:href="#DejaVuSans-2e" x="63.623047"/>
       <use xlink:href="#DejaVuSans-32" x="95.410156"/>
       <use xlink:href="#DejaVuSans-39" x="159.033203"/>
      </g>
     </g>
    </g>
    <g id="xtick_8">
     <g id="line2d_8">
      <g>
       <use xlink:href="#me83a8fe5fb" x="323.01398" y="377.20974" style="stroke: #000000; stroke-width: 0.8"/>
      </g>
     </g>
     <g id="text_8">
      <!-- 0.32 -->
      <g transform="translate(317.093065 405.326821) rotate(-45) scale(0.1 -0.1)">
       <defs>
        <path id="DejaVuSans-33" d="M 2597 2516 
Q 3050 2419 3304 2112 
Q 3559 1806 3559 1356 
Q 3559 666 3084 287 
Q 2609 -91 1734 -91 
Q 1441 -91 1130 -33 
Q 819 25 488 141 
L 488 750 
Q 750 597 1062 519 
Q 1375 441 1716 441 
Q 2309 441 2620 675 
Q 2931 909 2931 1356 
Q 2931 1769 2642 2001 
Q 2353 2234 1838 2234 
L 1294 2234 
L 1294 2753 
L 1863 2753 
Q 2328 2753 2575 2939 
Q 2822 3125 2822 3475 
Q 2822 3834 2567 4026 
Q 2313 4219 1838 4219 
Q 1578 4219 1281 4162 
Q 984 4106 628 3988 
L 628 4550 
Q 988 4650 1302 4700 
Q 1616 4750 1894 4750 
Q 2613 4750 3031 4423 
Q 3450 4097 3450 3541 
Q 3450 3153 3228 2886 
Q 3006 2619 2597 2516 
z
" transform="scale(0.015625)"/>
       </defs>
       <use xlink:href="#DejaVuSans-30"/>
       <use xlink:href="#DejaVuSans-2e" x="63.623047"/>
       <use xlink:href="#DejaVuSans-33" x="95.410156"/>
       <use xlink:href="#DejaVuSans-32" x="159.033203"/>
      </g>
     </g>
    </g>
    <g id="xtick_9">
     <g id="line2d_9">
      <g>
       <use xlink:href="#me83a8fe5fb" x="353.954137" y="377.20974" style="stroke: #000000; stroke-width: 0.8"/>
      </g>
     </g>
     <g id="text_9">
      <!-- 0.36 -->
      <g transform="translate(348.033222 405.326821) rotate(-45) scale(0.1 -0.1)">
       <defs>
        <path id="DejaVuSans-36" d="M 2113 2584 
Q 1688 2584 1439 2293 
Q 1191 2003 1191 1497 
Q 1191 994 1439 701 
Q 1688 409 2113 409 
Q 2538 409 2786 701 
Q 3034 994 3034 1497 
Q 3034 2003 2786 2293 
Q 2538 2584 2113 2584 
z
M 3366 4563 
L 3366 3988 
Q 3128 4100 2886 4159 
Q 2644 4219 2406 4219 
Q 1781 4219 1451 3797 
Q 1122 3375 1075 2522 
Q 1259 2794 1537 2939 
Q 1816 3084 2150 3084 
Q 2853 3084 3261 2657 
Q 3669 2231 3669 1497 
Q 3669 778 3244 343 
Q 2819 -91 2113 -91 
Q 1303 -91 875 529 
Q 447 1150 447 2328 
Q 447 3434 972 4092 
Q 1497 4750 2381 4750 
Q 2619 4750 2861 4703 
Q 3103 4656 3366 4563 
z
" transform="scale(0.015625)"/>
       </defs>
       <use xlink:href="#DejaVuSans-30"/>
       <use xlink:href="#DejaVuSans-2e" x="63.623047"/>
       <use xlink:href="#DejaVuSans-33" x="95.410156"/>
       <use xlink:href="#DejaVuSans-36" x="159.033203"/>
      </g>
     </g>
    </g>
    <g id="xtick_10">
     <g id="line2d_10">
      <g>
       <use xlink:href="#me83a8fe5fb" x="384.894294" y="377.20974" style="stroke: #000000; stroke-width: 0.8"/>
      </g>
     </g>
     <g id="text_10">
      <!-- 0.39 -->
      <g transform="translate(378.973379 405.326821) rotate(-45) scale(0.1 -0.1)">
       <use xlink:href="#DejaVuSans-30"/>
       <use xlink:href="#DejaVuSans-2e" x="63.623047"/>
       <use xlink:href="#DejaVuSans-33" x="95.410156"/>
       <use xlink:href="#DejaVuSans-39" x="159.033203"/>
      </g>
     </g>
    </g>
    <g id="xtick_11">
     <g id="line2d_11">
      <g>
       <use xlink:href="#me83a8fe5fb" x="415.834451" y="377.20974" style="stroke: #000000; stroke-width: 0.8"/>
      </g>
     </g>
     <g id="text_11">
      <!-- 0.43 -->
      <g transform="translate(409.913536 405.326821) rotate(-45) scale(0.1 -0.1)">
       <use xlink:href="#DejaVuSans-30"/>
       <use xlink:href="#DejaVuSans-2e" x="63.623047"/>
       <use xlink:href="#DejaVuSans-34" x="95.410156"/>
       <use xlink:href="#DejaVuSans-33" x="159.033203"/>
      </g>
     </g>
    </g>
    <g id="xtick_12">
     <g id="line2d_12">
      <g>
       <use xlink:href="#me83a8fe5fb" x="446.774608" y="377.20974" style="stroke: #000000; stroke-width: 0.8"/>
      </g>
     </g>
     <g id="text_12">
      <!-- 0.46 -->
      <g transform="translate(440.853693 405.326821) rotate(-45) scale(0.1 -0.1)">
       <use xlink:href="#DejaVuSans-30"/>
       <use xlink:href="#DejaVuSans-2e" x="63.623047"/>
       <use xlink:href="#DejaVuSans-34" x="95.410156"/>
       <use xlink:href="#DejaVuSans-36" x="159.033203"/>
      </g>
     </g>
    </g>
    <g id="xtick_13">
     <g id="line2d_13">
      <g>
       <use xlink:href="#me83a8fe5fb" x="477.714765" y="377.20974" style="stroke: #000000; stroke-width: 0.8"/>
      </g>
     </g>
     <g id="text_13">
      <!-- 0.50 -->
      <g transform="translate(471.79385 405.326821) rotate(-45) scale(0.1 -0.1)">
       <use xlink:href="#DejaVuSans-30"/>
       <use xlink:href="#DejaVuSans-2e" x="63.623047"/>
       <use xlink:href="#DejaVuSans-35" x="95.410156"/>
       <use xlink:href="#DejaVuSans-30" x="159.033203"/>
      </g>
     </g>
    </g>
    <g id="xtick_14">
     <g id="line2d_14">
      <g>
       <use xlink:href="#me83a8fe5fb" x="508.654922" y="377.20974" style="stroke: #000000; stroke-width: 0.8"/>
      </g>
     </g>
     <g id="text_14">
      <!-- 0.54 -->
      <g transform="translate(502.734007 405.326821) rotate(-45) scale(0.1 -0.1)">
       <use xlink:href="#DejaVuSans-30"/>
       <use xlink:href="#DejaVuSans-2e" x="63.623047"/>
       <use xlink:href="#DejaVuSans-35" x="95.410156"/>
       <use xlink:href="#DejaVuSans-34" x="159.033203"/>
      </g>
     </g>
    </g>
    <g id="xtick_15">
     <g id="line2d_15">
      <g>
       <use xlink:href="#me83a8fe5fb" x="539.595078" y="377.20974" style="stroke: #000000; stroke-width: 0.8"/>
      </g>
     </g>
     <g id="text_15">
      <!-- 0.57 -->
      <g transform="translate(533.674164 405.326821) rotate(-45) scale(0.1 -0.1)">
       <use xlink:href="#DejaVuSans-30"/>
       <use xlink:href="#DejaVuSans-2e" x="63.623047"/>
       <use xlink:href="#DejaVuSans-35" x="95.410156"/>
       <use xlink:href="#DejaVuSans-37" x="159.033203"/>
      </g>
     </g>
    </g>
    <g id="xtick_16">
     <g id="line2d_16">
      <g>
       <use xlink:href="#me83a8fe5fb" x="570.535235" y="377.20974" style="stroke: #000000; stroke-width: 0.8"/>
      </g>
     </g>
     <g id="text_16">
      <!-- 0.61 -->
      <g transform="translate(564.614321 405.326821) rotate(-45) scale(0.1 -0.1)">
       <use xlink:href="#DejaVuSans-30"/>
       <use xlink:href="#DejaVuSans-2e" x="63.623047"/>
       <use xlink:href="#DejaVuSans-36" x="95.410156"/>
       <use xlink:href="#DejaVuSans-31" x="159.033203"/>
      </g>
     </g>
    </g>
    <g id="xtick_17">
     <g id="line2d_17">
      <g>
       <use xlink:href="#me83a8fe5fb" x="601.475392" y="377.20974" style="stroke: #000000; stroke-width: 0.8"/>
      </g>
     </g>
     <g id="text_17">
      <!-- 0.64 -->
      <g transform="translate(595.554478 405.326821) rotate(-45) scale(0.1 -0.1)">
       <use xlink:href="#DejaVuSans-30"/>
       <use xlink:href="#DejaVuSans-2e" x="63.623047"/>
       <use xlink:href="#DejaVuSans-36" x="95.410156"/>
       <use xlink:href="#DejaVuSans-34" x="159.033203"/>
      </g>
     </g>
    </g>
    <g id="xtick_18">
     <g id="line2d_18">
      <g>
       <use xlink:href="#me83a8fe5fb" x="632.415549" y="377.20974" style="stroke: #000000; stroke-width: 0.8"/>
      </g>
     </g>
     <g id="text_18">
      <!-- 0.68 -->
      <g transform="translate(626.494635 405.326821) rotate(-45) scale(0.1 -0.1)">
       <use xlink:href="#DejaVuSans-30"/>
       <use xlink:href="#DejaVuSans-2e" x="63.623047"/>
       <use xlink:href="#DejaVuSans-36" x="95.410156"/>
       <use xlink:href="#DejaVuSans-38" x="159.033203"/>
      </g>
     </g>
    </g>
    <g id="xtick_19">
     <g id="line2d_19">
      <g>
       <use xlink:href="#me83a8fe5fb" x="663.355706" y="377.20974" style="stroke: #000000; stroke-width: 0.8"/>
      </g>
     </g>
     <g id="text_19">
      <!-- 0.71 -->
      <g transform="translate(657.434792 405.326821) rotate(-45) scale(0.1 -0.1)">
       <use xlink:href="#DejaVuSans-30"/>
       <use xlink:href="#DejaVuSans-2e" x="63.623047"/>
       <use xlink:href="#DejaVuSans-37" x="95.410156"/>
       <use xlink:href="#DejaVuSans-31" x="159.033203"/>
      </g>
     </g>
    </g>
    <g id="xtick_20">
     <g id="line2d_20">
      <g>
       <use xlink:href="#me83a8fe5fb" x="694.295863" y="377.20974" style="stroke: #000000; stroke-width: 0.8"/>
      </g>
     </g>
     <g id="text_20">
      <!-- 0.75 -->
      <g transform="translate(688.374949 405.326821) rotate(-45) scale(0.1 -0.1)">
       <use xlink:href="#DejaVuSans-30"/>
       <use xlink:href="#DejaVuSans-2e" x="63.623047"/>
       <use xlink:href="#DejaVuSans-37" x="95.410156"/>
       <use xlink:href="#DejaVuSans-35" x="159.033203"/>
      </g>
     </g>
    </g>
    <g id="xtick_21">
     <g id="line2d_21">
      <g>
       <use xlink:href="#me83a8fe5fb" x="725.23602" y="377.20974" style="stroke: #000000; stroke-width: 0.8"/>
      </g>
     </g>
     <g id="text_21">
      <!-- 0.79 -->
      <g transform="translate(719.315106 405.326821) rotate(-45) scale(0.1 -0.1)">
       <use xlink:href="#DejaVuSans-30"/>
       <use xlink:href="#DejaVuSans-2e" x="63.623047"/>
       <use xlink:href="#DejaVuSans-37" x="95.410156"/>
       <use xlink:href="#DejaVuSans-39" x="159.033203"/>
      </g>
     </g>
    </g>
    <g id="xtick_22">
     <g id="line2d_22">
      <g>
       <use xlink:href="#me83a8fe5fb" x="756.176177" y="377.20974" style="stroke: #000000; stroke-width: 0.8"/>
      </g>
     </g>
     <g id="text_22">
      <!-- 0.82 -->
      <g transform="translate(750.255263 405.326821) rotate(-45) scale(0.1 -0.1)">
       <use xlink:href="#DejaVuSans-30"/>
       <use xlink:href="#DejaVuSans-2e" x="63.623047"/>
       <use xlink:href="#DejaVuSans-38" x="95.410156"/>
       <use xlink:href="#DejaVuSans-32" x="159.033203"/>
      </g>
     </g>
    </g>
    <g id="xtick_23">
     <g id="line2d_23">
      <g>
       <use xlink:href="#me83a8fe5fb" x="787.116334" y="377.20974" style="stroke: #000000; stroke-width: 0.8"/>
      </g>
     </g>
     <g id="text_23">
      <!-- 0.86 -->
      <g transform="translate(781.19542 405.326821) rotate(-45) scale(0.1 -0.1)">
       <use xlink:href="#DejaVuSans-30"/>
       <use xlink:href="#DejaVuSans-2e" x="63.623047"/>
       <use xlink:href="#DejaVuSans-38" x="95.410156"/>
       <use xlink:href="#DejaVuSans-36" x="159.033203"/>
      </g>
     </g>
    </g>
    <g id="xtick_24">
     <g id="line2d_24">
      <g>
       <use xlink:href="#me83a8fe5fb" x="818.056491" y="377.20974" style="stroke: #000000; stroke-width: 0.8"/>
      </g>
     </g>
     <g id="text_24">
      <!-- 0.89 -->
      <g transform="translate(812.135577 405.326821) rotate(-45) scale(0.1 -0.1)">
       <use xlink:href="#DejaVuSans-30"/>
       <use xlink:href="#DejaVuSans-2e" x="63.623047"/>
       <use xlink:href="#DejaVuSans-38" x="95.410156"/>
       <use xlink:href="#DejaVuSans-39" x="159.033203"/>
      </g>
     </g>
    </g>
    <g id="xtick_25">
     <g id="line2d_25">
      <g>
       <use xlink:href="#me83a8fe5fb" x="848.996648" y="377.20974" style="stroke: #000000; stroke-width: 0.8"/>
      </g>
     </g>
     <g id="text_25">
      <!-- 0.93 -->
      <g transform="translate(843.075734 405.326821) rotate(-45) scale(0.1 -0.1)">
       <use xlink:href="#DejaVuSans-30"/>
       <use xlink:href="#DejaVuSans-2e" x="63.623047"/>
       <use xlink:href="#DejaVuSans-39" x="95.410156"/>
       <use xlink:href="#DejaVuSans-33" x="159.033203"/>
      </g>
     </g>
    </g>
    <g id="xtick_26">
     <g id="line2d_26">
      <g>
       <use xlink:href="#me83a8fe5fb" x="879.936805" y="377.20974" style="stroke: #000000; stroke-width: 0.8"/>
      </g>
     </g>
     <g id="text_26">
      <!-- 0.96 -->
      <g transform="translate(874.015891 405.326821) rotate(-45) scale(0.1 -0.1)">
       <use xlink:href="#DejaVuSans-30"/>
       <use xlink:href="#DejaVuSans-2e" x="63.623047"/>
       <use xlink:href="#DejaVuSans-39" x="95.410156"/>
       <use xlink:href="#DejaVuSans-36" x="159.033203"/>
      </g>
     </g>
    </g>
    <g id="xtick_27">
     <g id="line2d_27">
      <g>
       <use xlink:href="#me83a8fe5fb" x="910.876962" y="377.20974" style="stroke: #000000; stroke-width: 0.8"/>
      </g>
     </g>
     <g id="text_27">
      <!-- 1.00 -->
      <g transform="translate(904.956048 405.326821) rotate(-45) scale(0.1 -0.1)">
       <use xlink:href="#DejaVuSans-31"/>
       <use xlink:href="#DejaVuSans-2e" x="63.623047"/>
       <use xlink:href="#DejaVuSans-30" x="95.410156"/>
       <use xlink:href="#DejaVuSans-30" x="159.033203"/>
      </g>
     </g>
    </g>
    <g id="xtick_28">
     <g id="line2d_28">
      <g>
       <use xlink:href="#me83a8fe5fb" x="941.817119" y="377.20974" style="stroke: #000000; stroke-width: 0.8"/>
      </g>
     </g>
     <g id="text_28">
      <!-- 0.21 -->
      <g transform="translate(935.896205 405.326821) rotate(-45) scale(0.1 -0.1)">
       <use xlink:href="#DejaVuSans-30"/>
       <use xlink:href="#DejaVuSans-2e" x="63.623047"/>
       <use xlink:href="#DejaVuSans-32" x="95.410156"/>
       <use xlink:href="#DejaVuSans-31" x="159.033203"/>
      </g>
     </g>
    </g>
    <g id="text_29">
     <!-- Frequency -->
     <g transform="translate(498.295313 418.39582) scale(0.1 -0.1)">
      <defs>
       <path id="DejaVuSans-46" d="M 628 4666 
L 3309 4666 
L 3309 4134 
L 1259 4134 
L 1259 2759 
L 3109 2759 
L 3109 2228 
L 1259 2228 
L 1259 0 
L 628 0 
L 628 4666 
z
" transform="scale(0.015625)"/>
       <path id="DejaVuSans-72" d="M 2631 2963 
Q 2534 3019 2420 3045 
Q 2306 3072 2169 3072 
Q 1681 3072 1420 2755 
Q 1159 2438 1159 1844 
L 1159 0 
L 581 0 
L 581 3500 
L 1159 3500 
L 1159 2956 
Q 1341 3275 1631 3429 
Q 1922 3584 2338 3584 
Q 2397 3584 2469 3576 
Q 2541 3569 2628 3553 
L 2631 2963 
z
" transform="scale(0.015625)"/>
       <path id="DejaVuSans-65" d="M 3597 1894 
L 3597 1613 
L 953 1613 
Q 991 1019 1311 708 
Q 1631 397 2203 397 
Q 2534 397 2845 478 
Q 3156 559 3463 722 
L 3463 178 
Q 3153 47 2828 -22 
Q 2503 -91 2169 -91 
Q 1331 -91 842 396 
Q 353 884 353 1716 
Q 353 2575 817 3079 
Q 1281 3584 2069 3584 
Q 2775 3584 3186 3129 
Q 3597 2675 3597 1894 
z
M 3022 2063 
Q 3016 2534 2758 2815 
Q 2500 3097 2075 3097 
Q 1594 3097 1305 2825 
Q 1016 2553 972 2059 
L 3022 2063 
z
" transform="scale(0.015625)"/>
       <path id="DejaVuSans-71" d="M 947 1747 
Q 947 1113 1208 752 
Q 1469 391 1925 391 
Q 2381 391 2643 752 
Q 2906 1113 2906 1747 
Q 2906 2381 2643 2742 
Q 2381 3103 1925 3103 
Q 1469 3103 1208 2742 
Q 947 2381 947 1747 
z
M 2906 525 
Q 2725 213 2448 61 
Q 2172 -91 1784 -91 
Q 1150 -91 751 415 
Q 353 922 353 1747 
Q 353 2572 751 3078 
Q 1150 3584 1784 3584 
Q 2172 3584 2448 3432 
Q 2725 3281 2906 2969 
L 2906 3500 
L 3481 3500 
L 3481 -1331 
L 2906 -1331 
L 2906 525 
z
" transform="scale(0.015625)"/>
       <path id="DejaVuSans-75" d="M 544 1381 
L 544 3500 
L 1119 3500 
L 1119 1403 
Q 1119 906 1312 657 
Q 1506 409 1894 409 
Q 2359 409 2629 706 
Q 2900 1003 2900 1516 
L 2900 3500 
L 3475 3500 
L 3475 0 
L 2900 0 
L 2900 538 
Q 2691 219 2414 64 
Q 2138 -91 1772 -91 
Q 1169 -91 856 284 
Q 544 659 544 1381 
z
M 1991 3584 
L 1991 3584 
z
" transform="scale(0.015625)"/>
       <path id="DejaVuSans-6e" d="M 3513 2113 
L 3513 0 
L 2938 0 
L 2938 2094 
Q 2938 2591 2744 2837 
Q 2550 3084 2163 3084 
Q 1697 3084 1428 2787 
Q 1159 2491 1159 1978 
L 1159 0 
L 581 0 
L 581 3500 
L 1159 3500 
L 1159 2956 
Q 1366 3272 1645 3428 
Q 1925 3584 2291 3584 
Q 2894 3584 3203 3211 
Q 3513 2838 3513 2113 
z
" transform="scale(0.015625)"/>
       <path id="DejaVuSans-63" d="M 3122 3366 
L 3122 2828 
Q 2878 2963 2633 3030 
Q 2388 3097 2138 3097 
Q 1578 3097 1268 2742 
Q 959 2388 959 1747 
Q 959 1106 1268 751 
Q 1578 397 2138 397 
Q 2388 397 2633 464 
Q 2878 531 3122 666 
L 3122 134 
Q 2881 22 2623 -34 
Q 2366 -91 2075 -91 
Q 1284 -91 818 406 
Q 353 903 353 1747 
Q 353 2603 823 3093 
Q 1294 3584 2113 3584 
Q 2378 3584 2631 3529 
Q 2884 3475 3122 3366 
z
" transform="scale(0.015625)"/>
       <path id="DejaVuSans-79" d="M 2059 -325 
Q 1816 -950 1584 -1140 
Q 1353 -1331 966 -1331 
L 506 -1331 
L 506 -850 
L 844 -850 
Q 1081 -850 1212 -737 
Q 1344 -625 1503 -206 
L 1606 56 
L 191 3500 
L 800 3500 
L 1894 763 
L 2988 3500 
L 3597 3500 
L 2059 -325 
z
" transform="scale(0.015625)"/>
      </defs>
      <use xlink:href="#DejaVuSans-46"/>
      <use xlink:href="#DejaVuSans-72" x="50.269531"/>
      <use xlink:href="#DejaVuSans-65" x="89.132812"/>
      <use xlink:href="#DejaVuSans-71" x="150.65625"/>
      <use xlink:href="#DejaVuSans-75" x="214.132812"/>
      <use xlink:href="#DejaVuSans-65" x="277.511719"/>
      <use xlink:href="#DejaVuSans-6e" x="339.035156"/>
      <use xlink:href="#DejaVuSans-63" x="402.414062"/>
      <use xlink:href="#DejaVuSans-79" x="457.394531"/>
     </g>
    </g>
   </g>
   <g id="matplotlib.axis_2">
    <g id="ytick_1">
     <g id="line2d_29">
      <defs>
       <path id="meec17cf77b" d="M 0 0 
L -3.5 0 
" style="stroke: #000000; stroke-width: 0.8"/>
      </defs>
      <g>
       <use xlink:href="#meec17cf77b" x="51.05" y="377.20974" style="stroke: #000000; stroke-width: 0.8"/>
      </g>
     </g>
     <g id="text_30">
      <!-- 0 -->
      <g transform="translate(37.6875 381.008959) scale(0.1 -0.1)">
       <use xlink:href="#DejaVuSans-30"/>
      </g>
     </g>
    </g>
    <g id="ytick_2">
     <g id="line2d_30">
      <g>
       <use xlink:href="#meec17cf77b" x="51.05" y="307.984576" style="stroke: #000000; stroke-width: 0.8"/>
      </g>
     </g>
     <g id="text_31">
      <!-- 20 -->
      <g transform="translate(31.325 311.783794) scale(0.1 -0.1)">
       <use xlink:href="#DejaVuSans-32"/>
       <use xlink:href="#DejaVuSans-30" x="63.623047"/>
      </g>
     </g>
    </g>
    <g id="ytick_3">
     <g id="line2d_31">
      <g>
       <use xlink:href="#meec17cf77b" x="51.05" y="238.759411" style="stroke: #000000; stroke-width: 0.8"/>
      </g>
     </g>
     <g id="text_32">
      <!-- 40 -->
      <g transform="translate(31.325 242.55863) scale(0.1 -0.1)">
       <use xlink:href="#DejaVuSans-34"/>
       <use xlink:href="#DejaVuSans-30" x="63.623047"/>
      </g>
     </g>
    </g>
    <g id="ytick_4">
     <g id="line2d_32">
      <g>
       <use xlink:href="#meec17cf77b" x="51.05" y="169.534247" style="stroke: #000000; stroke-width: 0.8"/>
      </g>
     </g>
     <g id="text_33">
      <!-- 60 -->
      <g transform="translate(31.325 173.333465) scale(0.1 -0.1)">
       <use xlink:href="#DejaVuSans-36"/>
       <use xlink:href="#DejaVuSans-30" x="63.623047"/>
      </g>
     </g>
    </g>
    <g id="ytick_5">
     <g id="line2d_33">
      <g>
       <use xlink:href="#meec17cf77b" x="51.05" y="100.309082" style="stroke: #000000; stroke-width: 0.8"/>
      </g>
     </g>
     <g id="text_34">
      <!-- 80 -->
      <g transform="translate(31.325 104.108301) scale(0.1 -0.1)">
       <use xlink:href="#DejaVuSans-38"/>
       <use xlink:href="#DejaVuSans-30" x="63.623047"/>
      </g>
     </g>
    </g>
    <g id="ytick_6">
     <g id="line2d_34">
      <g>
       <use xlink:href="#meec17cf77b" x="51.05" y="31.083917" style="stroke: #000000; stroke-width: 0.8"/>
      </g>
     </g>
     <g id="text_35">
      <!-- 100 -->
      <g transform="translate(24.9625 34.883136) scale(0.1 -0.1)">
       <use xlink:href="#DejaVuSans-31"/>
       <use xlink:href="#DejaVuSans-30" x="63.623047"/>
       <use xlink:href="#DejaVuSans-30" x="127.246094"/>
      </g>
     </g>
    </g>
    <g id="text_36">
     <!-- Percentage of insertions -->
     <g transform="translate(18.882812 261.921745) rotate(-90) scale(0.1 -0.1)">
      <defs>
       <path id="DejaVuSans-50" d="M 1259 4147 
L 1259 2394 
L 2053 2394 
Q 2494 2394 2734 2622 
Q 2975 2850 2975 3272 
Q 2975 3691 2734 3919 
Q 2494 4147 2053 4147 
L 1259 4147 
z
M 628 4666 
L 2053 4666 
Q 2838 4666 3239 4311 
Q 3641 3956 3641 3272 
Q 3641 2581 3239 2228 
Q 2838 1875 2053 1875 
L 1259 1875 
L 1259 0 
L 628 0 
L 628 4666 
z
" transform="scale(0.015625)"/>
       <path id="DejaVuSans-74" d="M 1172 4494 
L 1172 3500 
L 2356 3500 
L 2356 3053 
L 1172 3053 
L 1172 1153 
Q 1172 725 1289 603 
Q 1406 481 1766 481 
L 2356 481 
L 2356 0 
L 1766 0 
Q 1100 0 847 248 
Q 594 497 594 1153 
L 594 3053 
L 172 3053 
L 172 3500 
L 594 3500 
L 594 4494 
L 1172 4494 
z
" transform="scale(0.015625)"/>
       <path id="DejaVuSans-61" d="M 2194 1759 
Q 1497 1759 1228 1600 
Q 959 1441 959 1056 
Q 959 750 1161 570 
Q 1363 391 1709 391 
Q 2188 391 2477 730 
Q 2766 1069 2766 1631 
L 2766 1759 
L 2194 1759 
z
M 3341 1997 
L 3341 0 
L 2766 0 
L 2766 531 
Q 2569 213 2275 61 
Q 1981 -91 1556 -91 
Q 1019 -91 701 211 
Q 384 513 384 1019 
Q 384 1609 779 1909 
Q 1175 2209 1959 2209 
L 2766 2209 
L 2766 2266 
Q 2766 2663 2505 2880 
Q 2244 3097 1772 3097 
Q 1472 3097 1187 3025 
Q 903 2953 641 2809 
L 641 3341 
Q 956 3463 1253 3523 
Q 1550 3584 1831 3584 
Q 2591 3584 2966 3190 
Q 3341 2797 3341 1997 
z
" transform="scale(0.015625)"/>
       <path id="DejaVuSans-67" d="M 2906 1791 
Q 2906 2416 2648 2759 
Q 2391 3103 1925 3103 
Q 1463 3103 1205 2759 
Q 947 2416 947 1791 
Q 947 1169 1205 825 
Q 1463 481 1925 481 
Q 2391 481 2648 825 
Q 2906 1169 2906 1791 
z
M 3481 434 
Q 3481 -459 3084 -895 
Q 2688 -1331 1869 -1331 
Q 1566 -1331 1297 -1286 
Q 1028 -1241 775 -1147 
L 775 -588 
Q 1028 -725 1275 -790 
Q 1522 -856 1778 -856 
Q 2344 -856 2625 -561 
Q 2906 -266 2906 331 
L 2906 616 
Q 2728 306 2450 153 
Q 2172 0 1784 0 
Q 1141 0 747 490 
Q 353 981 353 1791 
Q 353 2603 747 3093 
Q 1141 3584 1784 3584 
Q 2172 3584 2450 3431 
Q 2728 3278 2906 2969 
L 2906 3500 
L 3481 3500 
L 3481 434 
z
" transform="scale(0.015625)"/>
       <path id="DejaVuSans-20" transform="scale(0.015625)"/>
       <path id="DejaVuSans-6f" d="M 1959 3097 
Q 1497 3097 1228 2736 
Q 959 2375 959 1747 
Q 959 1119 1226 758 
Q 1494 397 1959 397 
Q 2419 397 2687 759 
Q 2956 1122 2956 1747 
Q 2956 2369 2687 2733 
Q 2419 3097 1959 3097 
z
M 1959 3584 
Q 2709 3584 3137 3096 
Q 3566 2609 3566 1747 
Q 3566 888 3137 398 
Q 2709 -91 1959 -91 
Q 1206 -91 779 398 
Q 353 888 353 1747 
Q 353 2609 779 3096 
Q 1206 3584 1959 3584 
z
" transform="scale(0.015625)"/>
       <path id="DejaVuSans-66" d="M 2375 4863 
L 2375 4384 
L 1825 4384 
Q 1516 4384 1395 4259 
Q 1275 4134 1275 3809 
L 1275 3500 
L 2222 3500 
L 2222 3053 
L 1275 3053 
L 1275 0 
L 697 0 
L 697 3053 
L 147 3053 
L 147 3500 
L 697 3500 
L 697 3744 
Q 697 4328 969 4595 
Q 1241 4863 1831 4863 
L 2375 4863 
z
" transform="scale(0.015625)"/>
       <path id="DejaVuSans-69" d="M 603 3500 
L 1178 3500 
L 1178 0 
L 603 0 
L 603 3500 
z
M 603 4863 
L 1178 4863 
L 1178 4134 
L 603 4134 
L 603 4863 
z
" transform="scale(0.015625)"/>
       <path id="DejaVuSans-73" d="M 2834 3397 
L 2834 2853 
Q 2591 2978 2328 3040 
Q 2066 3103 1784 3103 
Q 1356 3103 1142 2972 
Q 928 2841 928 2578 
Q 928 2378 1081 2264 
Q 1234 2150 1697 2047 
L 1894 2003 
Q 2506 1872 2764 1633 
Q 3022 1394 3022 966 
Q 3022 478 2636 193 
Q 2250 -91 1575 -91 
Q 1294 -91 989 -36 
Q 684 19 347 128 
L 347 722 
Q 666 556 975 473 
Q 1284 391 1588 391 
Q 1994 391 2212 530 
Q 2431 669 2431 922 
Q 2431 1156 2273 1281 
Q 2116 1406 1581 1522 
L 1381 1569 
Q 847 1681 609 1914 
Q 372 2147 372 2553 
Q 372 3047 722 3315 
Q 1072 3584 1716 3584 
Q 2034 3584 2315 3537 
Q 2597 3491 2834 3397 
z
" transform="scale(0.015625)"/>
      </defs>
      <use xlink:href="#DejaVuSans-50"/>
      <use xlink:href="#DejaVuSans-65" x="56.677734"/>
      <use xlink:href="#DejaVuSans-72" x="118.201172"/>
      <use xlink:href="#DejaVuSans-63" x="157.064453"/>
      <use xlink:href="#DejaVuSans-65" x="212.044922"/>
      <use xlink:href="#DejaVuSans-6e" x="273.568359"/>
      <use xlink:href="#DejaVuSans-74" x="336.947266"/>
      <use xlink:href="#DejaVuSans-61" x="376.15625"/>
      <use xlink:href="#DejaVuSans-67" x="437.435547"/>
      <use xlink:href="#DejaVuSans-65" x="500.912109"/>
      <use xlink:href="#DejaVuSans-20" x="562.435547"/>
      <use xlink:href="#DejaVuSans-6f" x="594.222656"/>
      <use xlink:href="#DejaVuSans-66" x="655.404297"/>
      <use xlink:href="#DejaVuSans-20" x="690.609375"/>
      <use xlink:href="#DejaVuSans-69" x="722.396484"/>
      <use xlink:href="#DejaVuSans-6e" x="750.179688"/>
      <use xlink:href="#DejaVuSans-73" x="813.558594"/>
      <use xlink:href="#DejaVuSans-65" x="865.658203"/>
      <use xlink:href="#DejaVuSans-72" x="927.181641"/>
      <use xlink:href="#DejaVuSans-74" x="968.294922"/>
      <use xlink:href="#DejaVuSans-69" x="1007.503906"/>
      <use xlink:href="#DejaVuSans-6f" x="1035.287109"/>
      <use xlink:href="#DejaVuSans-6e" x="1096.46875"/>
      <use xlink:href="#DejaVuSans-73" x="1159.847656"/>
     </g>
    </g>
   </g>
   <g id="patch_115">
    <path d="M 51.05 377.20974 
L 51.05 25.44 
" style="fill: none; stroke: #000000; stroke-width: 0.8; stroke-linejoin: miter; stroke-linecap: square"/>
   </g>
   <g id="patch_116">
    <path d="M 997.2 377.20974 
L 997.2 25.44 
" style="fill: none; stroke: #000000; stroke-width: 0.8; stroke-linejoin: miter; stroke-linecap: square"/>
   </g>
   <g id="patch_117">
    <path d="M 51.05 377.20974 
L 997.2 377.20974 
" style="fill: none; stroke: #000000; stroke-width: 0.8; stroke-linejoin: miter; stroke-linecap: square"/>
   </g>
   <g id="patch_118">
    <path d="M 51.05 25.44 
L 997.2 25.44 
" style="fill: none; stroke: #000000; stroke-width: 0.8; stroke-linejoin: miter; stroke-linecap: square"/>
   </g>
   <g id="text_37">
    <!-- Site Frequency Spectrum for USA -->
    <g transform="translate(424.24 19.44) scale(0.12 -0.12)">
     <defs>
      <path id="DejaVuSans-53" d="M 3425 4513 
L 3425 3897 
Q 3066 4069 2747 4153 
Q 2428 4238 2131 4238 
Q 1616 4238 1336 4038 
Q 1056 3838 1056 3469 
Q 1056 3159 1242 3001 
Q 1428 2844 1947 2747 
L 2328 2669 
Q 3034 2534 3370 2195 
Q 3706 1856 3706 1288 
Q 3706 609 3251 259 
Q 2797 -91 1919 -91 
Q 1588 -91 1214 -16 
Q 841 59 441 206 
L 441 856 
Q 825 641 1194 531 
Q 1563 422 1919 422 
Q 2459 422 2753 634 
Q 3047 847 3047 1241 
Q 3047 1584 2836 1778 
Q 2625 1972 2144 2069 
L 1759 2144 
Q 1053 2284 737 2584 
Q 422 2884 422 3419 
Q 422 4038 858 4394 
Q 1294 4750 2059 4750 
Q 2388 4750 2728 4690 
Q 3069 4631 3425 4513 
z
" transform="scale(0.015625)"/>
      <path id="DejaVuSans-70" d="M 1159 525 
L 1159 -1331 
L 581 -1331 
L 581 3500 
L 1159 3500 
L 1159 2969 
Q 1341 3281 1617 3432 
Q 1894 3584 2278 3584 
Q 2916 3584 3314 3078 
Q 3713 2572 3713 1747 
Q 3713 922 3314 415 
Q 2916 -91 2278 -91 
Q 1894 -91 1617 61 
Q 1341 213 1159 525 
z
M 3116 1747 
Q 3116 2381 2855 2742 
Q 2594 3103 2138 3103 
Q 1681 3103 1420 2742 
Q 1159 2381 1159 1747 
Q 1159 1113 1420 752 
Q 1681 391 2138 391 
Q 2594 391 2855 752 
Q 3116 1113 3116 1747 
z
" transform="scale(0.015625)"/>
      <path id="DejaVuSans-6d" d="M 3328 2828 
Q 3544 3216 3844 3400 
Q 4144 3584 4550 3584 
Q 5097 3584 5394 3201 
Q 5691 2819 5691 2113 
L 5691 0 
L 5113 0 
L 5113 2094 
Q 5113 2597 4934 2840 
Q 4756 3084 4391 3084 
Q 3944 3084 3684 2787 
Q 3425 2491 3425 1978 
L 3425 0 
L 2847 0 
L 2847 2094 
Q 2847 2600 2669 2842 
Q 2491 3084 2119 3084 
Q 1678 3084 1418 2786 
Q 1159 2488 1159 1978 
L 1159 0 
L 581 0 
L 581 3500 
L 1159 3500 
L 1159 2956 
Q 1356 3278 1631 3431 
Q 1906 3584 2284 3584 
Q 2666 3584 2933 3390 
Q 3200 3197 3328 2828 
z
" transform="scale(0.015625)"/>
      <path id="DejaVuSans-55" d="M 556 4666 
L 1191 4666 
L 1191 1831 
Q 1191 1081 1462 751 
Q 1734 422 2344 422 
Q 2950 422 3222 751 
Q 3494 1081 3494 1831 
L 3494 4666 
L 4128 4666 
L 4128 1753 
Q 4128 841 3676 375 
Q 3225 -91 2344 -91 
Q 1459 -91 1007 375 
Q 556 841 556 1753 
L 556 4666 
z
" transform="scale(0.015625)"/>
      <path id="DejaVuSans-41" d="M 2188 4044 
L 1331 1722 
L 3047 1722 
L 2188 4044 
z
M 1831 4666 
L 2547 4666 
L 4325 0 
L 3669 0 
L 3244 1197 
L 1141 1197 
L 716 0 
L 50 0 
L 1831 4666 
z
" transform="scale(0.015625)"/>
     </defs>
     <use xlink:href="#DejaVuSans-53"/>
     <use xlink:href="#DejaVuSans-69" x="63.476562"/>
     <use xlink:href="#DejaVuSans-74" x="91.259766"/>
     <use xlink:href="#DejaVuSans-65" x="130.46875"/>
     <use xlink:href="#DejaVuSans-20" x="191.992188"/>
     <use xlink:href="#DejaVuSans-46" x="223.779297"/>
     <use xlink:href="#DejaVuSans-72" x="274.048828"/>
     <use xlink:href="#DejaVuSans-65" x="312.912109"/>
     <use xlink:href="#DejaVuSans-71" x="374.435547"/>
     <use xlink:href="#DejaVuSans-75" x="437.912109"/>
     <use xlink:href="#DejaVuSans-65" x="501.291016"/>
     <use xlink:href="#DejaVuSans-6e" x="562.814453"/>
     <use xlink:href="#DejaVuSans-63" x="626.193359"/>
     <use xlink:href="#DejaVuSans-79" x="681.173828"/>
     <use xlink:href="#DejaVuSans-20" x="740.353516"/>
     <use xlink:href="#DejaVuSans-53" x="772.140625"/>
     <use xlink:href="#DejaVuSans-70" x="835.617188"/>
     <use xlink:href="#DejaVuSans-65" x="899.09375"/>
     <use xlink:href="#DejaVuSans-63" x="960.617188"/>
     <use xlink:href="#DejaVuSans-74" x="1015.597656"/>
     <use xlink:href="#DejaVuSans-72" x="1054.806641"/>
     <use xlink:href="#DejaVuSans-75" x="1095.919922"/>
     <use xlink:href="#DejaVuSans-6d" x="1159.298828"/>
     <use xlink:href="#DejaVuSans-20" x="1256.710938"/>
     <use xlink:href="#DejaVuSans-66" x="1288.498047"/>
     <use xlink:href="#DejaVuSans-6f" x="1323.703125"/>
     <use xlink:href="#DejaVuSans-72" x="1384.884766"/>
     <use xlink:href="#DejaVuSans-20" x="1425.998047"/>
     <use xlink:href="#DejaVuSans-55" x="1457.785156"/>
     <use xlink:href="#DejaVuSans-53" x="1530.978516"/>
     <use xlink:href="#DejaVuSans-41" x="1596.330078"/>
    </g>
   </g>
   <g id="legend_1">
    <g id="patch_119">
     <path d="M 827.282813 92.1525 
L 990.2 92.1525 
Q 992.2 92.1525 992.2 90.1525 
L 992.2 32.44 
Q 992.2 30.44 990.2 30.44 
L 827.282813 30.44 
Q 825.282813 30.44 825.282813 32.44 
L 825.282813 90.1525 
Q 825.282813 92.1525 827.282813 92.1525 
z
" style="fill: #ffffff; opacity: 0.8; stroke: #cccccc; stroke-linejoin: miter"/>
    </g>
    <g id="patch_120">
     <path d="M 829.282813 42.038438 
L 849.282813 42.038438 
L 849.282813 35.038438 
L 829.282813 35.038438 
z
" style="fill: #0000ff"/>
    </g>
    <g id="text_38">
     <!-- overlaping rep exons -->
     <g transform="translate(857.282813 42.038438) scale(0.1 -0.1)">
      <defs>
       <path id="DejaVuSans-76" d="M 191 3500 
L 800 3500 
L 1894 563 
L 2988 3500 
L 3597 3500 
L 2284 0 
L 1503 0 
L 191 3500 
z
" transform="scale(0.015625)"/>
       <path id="DejaVuSans-6c" d="M 603 4863 
L 1178 4863 
L 1178 0 
L 603 0 
L 603 4863 
z
" transform="scale(0.015625)"/>
       <path id="DejaVuSans-78" d="M 3513 3500 
L 2247 1797 
L 3578 0 
L 2900 0 
L 1881 1375 
L 863 0 
L 184 0 
L 1544 1831 
L 300 3500 
L 978 3500 
L 1906 2253 
L 2834 3500 
L 3513 3500 
z
" transform="scale(0.015625)"/>
      </defs>
      <use xlink:href="#DejaVuSans-6f"/>
      <use xlink:href="#DejaVuSans-76" x="61.181641"/>
      <use xlink:href="#DejaVuSans-65" x="120.361328"/>
      <use xlink:href="#DejaVuSans-72" x="181.884766"/>
      <use xlink:href="#DejaVuSans-6c" x="222.998047"/>
      <use xlink:href="#DejaVuSans-61" x="250.78125"/>
      <use xlink:href="#DejaVuSans-70" x="312.060547"/>
      <use xlink:href="#DejaVuSans-69" x="375.537109"/>
      <use xlink:href="#DejaVuSans-6e" x="403.320312"/>
      <use xlink:href="#DejaVuSans-67" x="466.699219"/>
      <use xlink:href="#DejaVuSans-20" x="530.175781"/>
      <use xlink:href="#DejaVuSans-72" x="561.962891"/>
      <use xlink:href="#DejaVuSans-65" x="600.826172"/>
      <use xlink:href="#DejaVuSans-70" x="662.349609"/>
      <use xlink:href="#DejaVuSans-20" x="725.826172"/>
      <use xlink:href="#DejaVuSans-65" x="757.613281"/>
      <use xlink:href="#DejaVuSans-78" x="817.386719"/>
      <use xlink:href="#DejaVuSans-6f" x="873.441406"/>
      <use xlink:href="#DejaVuSans-6e" x="934.623047"/>
      <use xlink:href="#DejaVuSans-73" x="998.001953"/>
     </g>
    </g>
    <g id="patch_121">
     <path d="M 829.282813 56.716563 
L 849.282813 56.716563 
L 849.282813 49.716563 
L 829.282813 49.716563 
z
" style="fill: #008000"/>
    </g>
    <g id="text_39">
     <!-- overlapping exons not rep -->
     <g transform="translate(857.282813 56.716563) scale(0.1 -0.1)">
      <use xlink:href="#DejaVuSans-6f"/>
      <use xlink:href="#DejaVuSans-76" x="61.181641"/>
      <use xlink:href="#DejaVuSans-65" x="120.361328"/>
      <use xlink:href="#DejaVuSans-72" x="181.884766"/>
      <use xlink:href="#DejaVuSans-6c" x="222.998047"/>
      <use xlink:href="#DejaVuSans-61" x="250.78125"/>
      <use xlink:href="#DejaVuSans-70" x="312.060547"/>
      <use xlink:href="#DejaVuSans-70" x="375.537109"/>
      <use xlink:href="#DejaVuSans-69" x="439.013672"/>
      <use xlink:href="#DejaVuSans-6e" x="466.796875"/>
      <use xlink:href="#DejaVuSans-67" x="530.175781"/>
      <use xlink:href="#DejaVuSans-20" x="593.652344"/>
      <use xlink:href="#DejaVuSans-65" x="625.439453"/>
      <use xlink:href="#DejaVuSans-78" x="685.212891"/>
      <use xlink:href="#DejaVuSans-6f" x="741.267578"/>
      <use xlink:href="#DejaVuSans-6e" x="802.449219"/>
      <use xlink:href="#DejaVuSans-73" x="865.828125"/>
      <use xlink:href="#DejaVuSans-20" x="917.927734"/>
      <use xlink:href="#DejaVuSans-6e" x="949.714844"/>
      <use xlink:href="#DejaVuSans-6f" x="1013.09375"/>
      <use xlink:href="#DejaVuSans-74" x="1074.275391"/>
      <use xlink:href="#DejaVuSans-20" x="1113.484375"/>
      <use xlink:href="#DejaVuSans-72" x="1145.271484"/>
      <use xlink:href="#DejaVuSans-65" x="1184.134766"/>
      <use xlink:href="#DejaVuSans-70" x="1245.658203"/>
     </g>
    </g>
    <g id="patch_122">
     <path d="M 829.282813 71.394688 
L 849.282813 71.394688 
L 849.282813 64.394688 
L 829.282813 64.394688 
z
" style="fill: #ffa500"/>
    </g>
    <g id="text_40">
     <!-- overlapping rep not exon -->
     <g transform="translate(857.282813 71.394688) scale(0.1 -0.1)">
      <use xlink:href="#DejaVuSans-6f"/>
      <use xlink:href="#DejaVuSans-76" x="61.181641"/>
      <use xlink:href="#DejaVuSans-65" x="120.361328"/>
      <use xlink:href="#DejaVuSans-72" x="181.884766"/>
      <use xlink:href="#DejaVuSans-6c" x="222.998047"/>
      <use xlink:href="#DejaVuSans-61" x="250.78125"/>
      <use xlink:href="#DejaVuSans-70" x="312.060547"/>
      <use xlink:href="#DejaVuSans-70" x="375.537109"/>
      <use xlink:href="#DejaVuSans-69" x="439.013672"/>
      <use xlink:href="#DejaVuSans-6e" x="466.796875"/>
      <use xlink:href="#DejaVuSans-67" x="530.175781"/>
      <use xlink:href="#DejaVuSans-20" x="593.652344"/>
      <use xlink:href="#DejaVuSans-72" x="625.439453"/>
      <use xlink:href="#DejaVuSans-65" x="664.302734"/>
      <use xlink:href="#DejaVuSans-70" x="725.826172"/>
      <use xlink:href="#DejaVuSans-20" x="789.302734"/>
      <use xlink:href="#DejaVuSans-6e" x="821.089844"/>
      <use xlink:href="#DejaVuSans-6f" x="884.46875"/>
      <use xlink:href="#DejaVuSans-74" x="945.650391"/>
      <use xlink:href="#DejaVuSans-20" x="984.859375"/>
      <use xlink:href="#DejaVuSans-65" x="1016.646484"/>
      <use xlink:href="#DejaVuSans-78" x="1076.419922"/>
      <use xlink:href="#DejaVuSans-6f" x="1132.474609"/>
      <use xlink:href="#DejaVuSans-6e" x="1193.65625"/>
     </g>
    </g>
    <g id="patch_123">
     <path d="M 829.282813 86.072813 
L 849.282813 86.072813 
L 849.282813 79.072813 
L 829.282813 79.072813 
z
" style="fill: #ff0000"/>
    </g>
    <g id="text_41">
     <!-- not overlapping exon rep -->
     <g transform="translate(857.282813 86.072813) scale(0.1 -0.1)">
      <use xlink:href="#DejaVuSans-6e"/>
      <use xlink:href="#DejaVuSans-6f" x="63.378906"/>
      <use xlink:href="#DejaVuSans-74" x="124.560547"/>
      <use xlink:href="#DejaVuSans-20" x="163.769531"/>
      <use xlink:href="#DejaVuSans-6f" x="195.556641"/>
      <use xlink:href="#DejaVuSans-76" x="256.738281"/>
      <use xlink:href="#DejaVuSans-65" x="315.917969"/>
      <use xlink:href="#DejaVuSans-72" x="377.441406"/>
      <use xlink:href="#DejaVuSans-6c" x="418.554688"/>
      <use xlink:href="#DejaVuSans-61" x="446.337891"/>
      <use xlink:href="#DejaVuSans-70" x="507.617188"/>
      <use xlink:href="#DejaVuSans-70" x="571.09375"/>
      <use xlink:href="#DejaVuSans-69" x="634.570312"/>
      <use xlink:href="#DejaVuSans-6e" x="662.353516"/>
      <use xlink:href="#DejaVuSans-67" x="725.732422"/>
      <use xlink:href="#DejaVuSans-20" x="789.208984"/>
      <use xlink:href="#DejaVuSans-65" x="820.996094"/>
      <use xlink:href="#DejaVuSans-78" x="880.769531"/>
      <use xlink:href="#DejaVuSans-6f" x="936.824219"/>
      <use xlink:href="#DejaVuSans-6e" x="998.005859"/>
      <use xlink:href="#DejaVuSans-20" x="1061.384766"/>
      <use xlink:href="#DejaVuSans-72" x="1093.171875"/>
      <use xlink:href="#DejaVuSans-65" x="1132.035156"/>
      <use xlink:href="#DejaVuSans-70" x="1193.558594"/>
     </g>
    </g>
   </g>
  </g>
 </g>
 <defs>
  <clipPath id="pca1e09cb84">
   <rect x="51.05" y="25.44" width="946.15" height="351.76974"/>
  </clipPath>
 </defs>
</svg>
