<?xml version="1.0" encoding="utf-8" standalone="no"?>
<!DOCTYPE svg PUBLIC "-//W3C//DTD SVG 1.1//EN"
  "http://www.w3.org/Graphics/SVG/1.1/DTD/svg11.dtd">
<svg xmlns:xlink="http://www.w3.org/1999/xlink" width="1008pt" height="432pt" viewBox="0 0 1008 432" xmlns="http://www.w3.org/2000/svg" version="1.1">
 <metadata>
  <rdf:RDF xmlns:dc="http://purl.org/dc/elements/1.1/" xmlns:cc="http://creativecommons.org/ns#" xmlns:rdf="http://www.w3.org/1999/02/22-rdf-syntax-ns#">
   <cc:Work>
    <dc:type rdf:resource="http://purl.org/dc/dcmitype/StillImage"/>
    <dc:date>2025-05-02T15:54:23.876024</dc:date>
    <dc:format>image/svg+xml</dc:format>
    <dc:creator>
     <cc:Agent>
      <dc:title>Matplotlib v3.9.1, https://matplotlib.org/</dc:title>
     </cc:Agent>
    </dc:creator>
   </cc:Work>
  </rdf:RDF>
 </metadata>
 <defs>
  <style type="text/css">*{stroke-linejoin: round; stroke-linecap: butt}</style>
 </defs>
 <g id="figure_1">
  <g id="patch_1">
   <path d="M 0 432 
L 1008 432 
L 1008 0 
L 0 0 
z
" style="fill: #ffffff"/>
  </g>
  <g id="axes_1">
   <g id="patch_2">
    <path d="M 51.05 377.20974 
L 997.2 377.20974 
L 997.2 25.44 
L 51.05 25.44 
z
" style="fill: #ffffff"/>
   </g>
   <g id="patch_3">
    <path d="M 94.056818 377.20974 
L 103.207205 377.20974 
L 103.207205 376.317238 
L 94.056818 376.317238 
z
" clip-path="url(#p9fef2d9cca)" style="fill: #0000ff"/>
   </g>
   <g id="patch_4">
    <path d="M 139.808752 377.20974 
L 148.959139 377.20974 
L 148.959139 376.632952 
L 139.808752 376.632952 
z
" clip-path="url(#p9fef2d9cca)" style="fill: #0000ff"/>
   </g>
   <g id="patch_5">
    <path d="M 185.560687 377.20974 
L 194.711074 377.20974 
L 194.711074 375.835579 
L 185.560687 375.835579 
z
" clip-path="url(#p9fef2d9cca)" style="fill: #0000ff"/>
   </g>
   <g id="patch_6">
    <path d="M 231.312621 377.20974 
L 240.463008 377.20974 
L 240.463008 376.633996 
L 231.312621 376.633996 
z
" clip-path="url(#p9fef2d9cca)" style="fill: #0000ff"/>
   </g>
   <g id="patch_7">
    <path d="M 277.064555 377.20974 
L 286.214942 377.20974 
L 286.214942 376.191335 
L 277.064555 376.191335 
z
" clip-path="url(#p9fef2d9cca)" style="fill: #0000ff"/>
   </g>
   <g id="patch_8">
    <path d="M 322.816489 377.20974 
L 331.966876 377.20974 
L 331.966876 376.813715 
L 322.816489 376.813715 
z
" clip-path="url(#p9fef2d9cca)" style="fill: #0000ff"/>
   </g>
   <g id="patch_9">
    <path d="M 368.568424 377.20974 
L 377.71881 377.20974 
L 377.71881 376.708742 
L 368.568424 376.708742 
z
" clip-path="url(#p9fef2d9cca)" style="fill: #0000ff"/>
   </g>
   <g id="patch_10">
    <path d="M 414.320358 377.20974 
L 423.470745 377.20974 
L 423.470745 375.875004 
L 414.320358 375.875004 
z
" clip-path="url(#p9fef2d9cca)" style="fill: #0000ff"/>
   </g>
   <g id="patch_11">
    <path d="M 460.072292 377.20974 
L 469.222679 377.20974 
L 469.222679 376.735727 
L 460.072292 376.735727 
z
" clip-path="url(#p9fef2d9cca)" style="fill: #0000ff"/>
   </g>
   <g id="patch_12">
    <path d="M 505.824226 377.20974 
L 514.974613 377.20974 
L 514.974613 376.870217 
L 505.824226 376.870217 
z
" clip-path="url(#p9fef2d9cca)" style="fill: #0000ff"/>
   </g>
   <g id="patch_13">
    <path d="M 551.576161 377.20974 
L 560.726547 377.20974 
L 560.726547 376.449877 
L 551.576161 376.449877 
z
" clip-path="url(#p9fef2d9cca)" style="fill: #0000ff"/>
   </g>
   <g id="patch_14">
    <path d="M 597.328095 377.20974 
L 606.478482 377.20974 
L 606.478482 376.465438 
L 597.328095 376.465438 
z
" clip-path="url(#p9fef2d9cca)" style="fill: #0000ff"/>
   </g>
   <g id="patch_15">
    <path d="M 643.080029 377.20974 
L 652.230416 377.20974 
L 652.230416 376.913908 
L 643.080029 376.913908 
z
" clip-path="url(#p9fef2d9cca)" style="fill: #0000ff"/>
   </g>
   <g id="patch_16">
    <path d="M 688.831963 377.20974 
L 697.98235 377.20974 
L 697.98235 376.020678 
L 688.831963 376.020678 
z
" clip-path="url(#p9fef2d9cca)" style="fill: #0000ff"/>
   </g>
   <g id="patch_17">
    <path d="M 734.583897 377.20974 
L 743.734284 377.20974 
L 743.734284 376.133364 
L 734.583897 376.133364 
z
" clip-path="url(#p9fef2d9cca)" style="fill: #0000ff"/>
   </g>
   <g id="patch_18">
    <path d="M 780.335832 377.20974 
L 789.486219 377.20974 
L 789.486219 376.372845 
L 780.335832 376.372845 
z
" clip-path="url(#p9fef2d9cca)" style="fill: #0000ff"/>
   </g>
   <g id="patch_19">
    <path d="M 826.087766 377.20974 
L 835.238153 377.20974 
L 835.238153 375.899845 
L 826.087766 375.899845 
z
" clip-path="url(#p9fef2d9cca)" style="fill: #0000ff"/>
   </g>
   <g id="patch_20">
    <path d="M 871.8397 377.20974 
L 880.990087 377.20974 
L 880.990087 376.159223 
L 871.8397 376.159223 
z
" clip-path="url(#p9fef2d9cca)" style="fill: #0000ff"/>
   </g>
   <g id="patch_21">
    <path d="M 917.591634 377.20974 
L 926.742021 377.20974 
L 926.742021 375.604113 
L 917.591634 375.604113 
z
" clip-path="url(#p9fef2d9cca)" style="fill: #0000ff"/>
   </g>
   <g id="patch_22">
    <path d="M 103.207205 377.20974 
L 112.357592 377.20974 
L 112.357592 377.170936 
L 103.207205 377.170936 
z
" clip-path="url(#p9fef2d9cca)" style="fill: #008000"/>
   </g>
   <g id="patch_23">
    <path d="M 148.959139 377.20974 
L 158.109526 377.20974 
L 158.109526 377.137642 
L 148.959139 377.137642 
z
" clip-path="url(#p9fef2d9cca)" style="fill: #008000"/>
   </g>
   <g id="patch_24">
    <path d="M 194.711074 377.20974 
L 203.86146 377.20974 
L 203.86146 377.20974 
L 194.711074 377.20974 
z
" clip-path="url(#p9fef2d9cca)" style="fill: #008000"/>
   </g>
   <g id="patch_25">
    <path d="M 240.463008 377.20974 
L 249.613395 377.20974 
L 249.613395 377.094591 
L 240.463008 377.094591 
z
" clip-path="url(#p9fef2d9cca)" style="fill: #008000"/>
   </g>
   <g id="patch_26">
    <path d="M 286.214942 377.20974 
L 295.365329 377.20974 
L 295.365329 377.08244 
L 286.214942 377.08244 
z
" clip-path="url(#p9fef2d9cca)" style="fill: #008000"/>
   </g>
   <g id="patch_27">
    <path d="M 331.966876 377.20974 
L 341.117263 377.20974 
L 341.117263 377.077732 
L 331.966876 377.077732 
z
" clip-path="url(#p9fef2d9cca)" style="fill: #008000"/>
   </g>
   <g id="patch_28">
    <path d="M 377.71881 377.20974 
L 386.869197 377.20974 
L 386.869197 377.084491 
L 377.71881 377.084491 
z
" clip-path="url(#p9fef2d9cca)" style="fill: #008000"/>
   </g>
   <g id="patch_29">
    <path d="M 423.470745 377.20974 
L 432.621132 377.20974 
L 432.621132 377.088401 
L 423.470745 377.088401 
z
" clip-path="url(#p9fef2d9cca)" style="fill: #008000"/>
   </g>
   <g id="patch_30">
    <path d="M 469.222679 377.20974 
L 478.373066 377.20974 
L 478.373066 377.091237 
L 469.222679 377.091237 
z
" clip-path="url(#p9fef2d9cca)" style="fill: #008000"/>
   </g>
   <g id="patch_31">
    <path d="M 514.974613 377.20974 
L 524.125 377.20974 
L 524.125 377.20974 
L 514.974613 377.20974 
z
" clip-path="url(#p9fef2d9cca)" style="fill: #008000"/>
   </g>
   <g id="patch_32">
    <path d="M 560.726547 377.20974 
L 569.876934 377.20974 
L 569.876934 377.20974 
L 560.726547 377.20974 
z
" clip-path="url(#p9fef2d9cca)" style="fill: #008000"/>
   </g>
   <g id="patch_33">
    <path d="M 606.478482 377.20974 
L 615.628868 377.20974 
L 615.628868 377.04434 
L 606.478482 377.04434 
z
" clip-path="url(#p9fef2d9cca)" style="fill: #008000"/>
   </g>
   <g id="patch_34">
    <path d="M 652.230416 377.20974 
L 661.380803 377.20974 
L 661.380803 377.20974 
L 652.230416 377.20974 
z
" clip-path="url(#p9fef2d9cca)" style="fill: #008000"/>
   </g>
   <g id="patch_35">
    <path d="M 697.98235 377.20974 
L 707.132737 377.20974 
L 707.132737 377.150287 
L 697.98235 377.150287 
z
" clip-path="url(#p9fef2d9cca)" style="fill: #008000"/>
   </g>
   <g id="patch_36">
    <path d="M 743.734284 377.20974 
L 752.884671 377.20974 
L 752.884671 377.162941 
L 743.734284 377.162941 
z
" clip-path="url(#p9fef2d9cca)" style="fill: #008000"/>
   </g>
   <g id="patch_37">
    <path d="M 789.486219 377.20974 
L 798.636605 377.20974 
L 798.636605 377.10058 
L 789.486219 377.10058 
z
" clip-path="url(#p9fef2d9cca)" style="fill: #008000"/>
   </g>
   <g id="patch_38">
    <path d="M 835.238153 377.20974 
L 844.38854 377.20974 
L 844.38854 377.076078 
L 835.238153 377.076078 
z
" clip-path="url(#p9fef2d9cca)" style="fill: #008000"/>
   </g>
   <g id="patch_39">
    <path d="M 880.990087 377.20974 
L 890.140474 377.20974 
L 890.140474 377.090814 
L 880.990087 377.090814 
z
" clip-path="url(#p9fef2d9cca)" style="fill: #008000"/>
   </g>
   <g id="patch_40">
    <path d="M 926.742021 377.20974 
L 935.892408 377.20974 
L 935.892408 377.052326 
L 926.742021 377.052326 
z
" clip-path="url(#p9fef2d9cca)" style="fill: #008000"/>
   </g>
   <g id="patch_41">
    <path d="M 112.357592 377.20974 
L 121.507979 377.20974 
L 121.507979 63.242906 
L 112.357592 63.242906 
z
" clip-path="url(#p9fef2d9cca)" style="fill: #ffa500"/>
   </g>
   <g id="patch_42">
    <path d="M 158.109526 377.20974 
L 167.259913 377.20974 
L 167.259913 53.991955 
L 158.109526 53.991955 
z
" clip-path="url(#p9fef2d9cca)" style="fill: #ffa500"/>
   </g>
   <g id="patch_43">
    <path d="M 203.86146 377.20974 
L 213.011847 377.20974 
L 213.011847 53.987424 
L 203.86146 53.987424 
z
" clip-path="url(#p9fef2d9cca)" style="fill: #ffa500"/>
   </g>
   <g id="patch_44">
    <path d="M 249.613395 377.20974 
L 258.763781 377.20974 
L 258.763781 45.926553 
L 249.613395 45.926553 
z
" clip-path="url(#p9fef2d9cca)" style="fill: #ffa500"/>
   </g>
   <g id="patch_45">
    <path d="M 295.365329 377.20974 
L 304.515716 377.20974 
L 304.515716 45.846184 
L 295.365329 45.846184 
z
" clip-path="url(#p9fef2d9cca)" style="fill: #ffa500"/>
   </g>
   <g id="patch_46">
    <path d="M 341.117263 377.20974 
L 350.26765 377.20974 
L 350.26765 42.304536 
L 341.117263 42.304536 
z
" clip-path="url(#p9fef2d9cca)" style="fill: #ffa500"/>
   </g>
   <g id="patch_47">
    <path d="M 386.869197 377.20974 
L 396.019584 377.20974 
L 396.019584 46.300282 
L 386.869197 46.300282 
z
" clip-path="url(#p9fef2d9cca)" style="fill: #ffa500"/>
   </g>
   <g id="patch_48">
    <path d="M 432.621132 377.20974 
L 441.771518 377.20974 
L 441.771518 44.617819 
L 432.621132 44.617819 
z
" clip-path="url(#p9fef2d9cca)" style="fill: #ffa500"/>
   </g>
   <g id="patch_49">
    <path d="M 478.373066 377.20974 
L 487.523453 377.20974 
L 487.523453 45.755624 
L 478.373066 45.755624 
z
" clip-path="url(#p9fef2d9cca)" style="fill: #ffa500"/>
   </g>
   <g id="patch_50">
    <path d="M 524.125 377.20974 
L 533.275387 377.20974 
L 533.275387 42.552964 
L 524.125 42.552964 
z
" clip-path="url(#p9fef2d9cca)" style="fill: #ffa500"/>
   </g>
   <g id="patch_51">
    <path d="M 569.876934 377.20974 
L 579.027321 377.20974 
L 579.027321 42.964793 
L 569.876934 42.964793 
z
" clip-path="url(#p9fef2d9cca)" style="fill: #ffa500"/>
   </g>
   <g id="patch_52">
    <path d="M 615.628868 377.20974 
L 624.779255 377.20974 
L 624.779255 42.19094 
L 615.628868 42.19094 
z
" clip-path="url(#p9fef2d9cca)" style="fill: #ffa500"/>
   </g>
   <g id="patch_53">
    <path d="M 661.380803 377.20974 
L 670.53119 377.20974 
L 670.53119 42.992765 
L 661.380803 42.992765 
z
" clip-path="url(#p9fef2d9cca)" style="fill: #ffa500"/>
   </g>
   <g id="patch_54">
    <path d="M 707.132737 377.20974 
L 716.283124 377.20974 
L 716.283124 48.315089 
L 707.132737 48.315089 
z
" clip-path="url(#p9fef2d9cca)" style="fill: #ffa500"/>
   </g>
   <g id="patch_55">
    <path d="M 752.884671 377.20974 
L 762.035058 377.20974 
L 762.035058 46.715558 
L 752.884671 46.715558 
z
" clip-path="url(#p9fef2d9cca)" style="fill: #ffa500"/>
   </g>
   <g id="patch_56">
    <path d="M 798.636605 377.20974 
L 807.786992 377.20974 
L 807.786992 47.4003 
L 798.636605 47.4003 
z
" clip-path="url(#p9fef2d9cca)" style="fill: #ffa500"/>
   </g>
   <g id="patch_57">
    <path d="M 844.38854 377.20974 
L 853.538926 377.20974 
L 853.538926 50.938968 
L 844.38854 50.938968 
z
" clip-path="url(#p9fef2d9cca)" style="fill: #ffa500"/>
   </g>
   <g id="patch_58">
    <path d="M 890.140474 377.20974 
L 899.290861 377.20974 
L 899.290861 51.747692 
L 890.140474 51.747692 
z
" clip-path="url(#p9fef2d9cca)" style="fill: #ffa500"/>
   </g>
   <g id="patch_59">
    <path d="M 935.892408 377.20974 
L 945.042795 377.20974 
L 945.042795 52.510939 
L 935.892408 52.510939 
z
" clip-path="url(#p9fef2d9cca)" style="fill: #ffa500"/>
   </g>
   <g id="patch_60">
    <path d="M 121.507979 377.20974 
L 130.658366 377.20974 
L 130.658366 342.285732 
L 121.507979 342.285732 
z
" clip-path="url(#p9fef2d9cca)" style="fill: #ff0000"/>
   </g>
   <g id="patch_61">
    <path d="M 167.259913 377.20974 
L 176.4103 377.20974 
L 176.4103 351.254263 
L 167.259913 351.254263 
z
" clip-path="url(#p9fef2d9cca)" style="fill: #ff0000"/>
   </g>
   <g id="patch_62">
    <path d="M 213.011847 377.20974 
L 222.162234 377.20974 
L 222.162234 351.984069 
L 213.011847 351.984069 
z
" clip-path="url(#p9fef2d9cca)" style="fill: #ff0000"/>
   </g>
   <g id="patch_63">
    <path d="M 258.763781 377.20974 
L 267.914168 377.20974 
L 267.914168 359.361671 
L 258.763781 359.361671 
z
" clip-path="url(#p9fef2d9cca)" style="fill: #ff0000"/>
   </g>
   <g id="patch_64">
    <path d="M 304.515716 377.20974 
L 313.666103 377.20974 
L 313.666103 359.896854 
L 304.515716 359.896854 
z
" clip-path="url(#p9fef2d9cca)" style="fill: #ff0000"/>
   </g>
   <g id="patch_65">
    <path d="M 350.26765 377.20974 
L 359.418037 377.20974 
L 359.418037 362.820829 
L 350.26765 362.820829 
z
" clip-path="url(#p9fef2d9cca)" style="fill: #ff0000"/>
   </g>
   <g id="patch_66">
    <path d="M 396.019584 377.20974 
L 405.169971 377.20974 
L 405.169971 358.923298 
L 396.019584 358.923298 
z
" clip-path="url(#p9fef2d9cca)" style="fill: #ff0000"/>
   </g>
   <g id="patch_67">
    <path d="M 441.771518 377.20974 
L 450.921905 377.20974 
L 450.921905 361.435589 
L 441.771518 361.435589 
z
" clip-path="url(#p9fef2d9cca)" style="fill: #ff0000"/>
   </g>
   <g id="patch_68">
    <path d="M 487.523453 377.20974 
L 496.673839 377.20974 
L 496.673839 359.434225 
L 487.523453 359.434225 
z
" clip-path="url(#p9fef2d9cca)" style="fill: #ff0000"/>
   </g>
   <g id="patch_69">
    <path d="M 533.275387 377.20974 
L 542.425774 377.20974 
L 542.425774 362.383891 
L 533.275387 362.383891 
z
" clip-path="url(#p9fef2d9cca)" style="fill: #ff0000"/>
   </g>
   <g id="patch_70">
    <path d="M 579.027321 377.20974 
L 588.177708 377.20974 
L 588.177708 362.392402 
L 579.027321 362.392402 
z
" clip-path="url(#p9fef2d9cca)" style="fill: #ff0000"/>
   </g>
   <g id="patch_71">
    <path d="M 624.779255 377.20974 
L 633.929642 377.20974 
L 633.929642 363.316095 
L 624.779255 363.316095 
z
" clip-path="url(#p9fef2d9cca)" style="fill: #ff0000"/>
   </g>
   <g id="patch_72">
    <path d="M 670.53119 377.20974 
L 679.681576 377.20974 
L 679.681576 361.900399 
L 670.53119 361.900399 
z
" clip-path="url(#p9fef2d9cca)" style="fill: #ff0000"/>
   </g>
   <g id="patch_73">
    <path d="M 716.283124 377.20974 
L 725.433511 377.20974 
L 725.433511 357.530758 
L 716.283124 357.530758 
z
" clip-path="url(#p9fef2d9cca)" style="fill: #ff0000"/>
   </g>
   <g id="patch_74">
    <path d="M 762.035058 377.20974 
L 771.185445 377.20974 
L 771.185445 359.004949 
L 762.035058 359.004949 
z
" clip-path="url(#p9fef2d9cca)" style="fill: #ff0000"/>
   </g>
   <g id="patch_75">
    <path d="M 807.786992 377.20974 
L 816.937379 377.20974 
L 816.937379 358.143087 
L 807.786992 358.143087 
z
" clip-path="url(#p9fef2d9cca)" style="fill: #ff0000"/>
   </g>
   <g id="patch_76">
    <path d="M 853.538926 377.20974 
L 862.689313 377.20974 
L 862.689313 355.101921 
L 853.538926 355.101921 
z
" clip-path="url(#p9fef2d9cca)" style="fill: #ff0000"/>
   </g>
   <g id="patch_77">
    <path d="M 899.290861 377.20974 
L 908.441248 377.20974 
L 908.441248 354.019083 
L 899.290861 354.019083 
z
" clip-path="url(#p9fef2d9cca)" style="fill: #ff0000"/>
   </g>
   <g id="patch_78">
    <path d="M 945.042795 377.20974 
L 954.193182 377.20974 
L 954.193182 353.849435 
L 945.042795 353.849435 
z
" clip-path="url(#p9fef2d9cca)" style="fill: #ff0000"/>
   </g>
   <g id="matplotlib.axis_1">
    <g id="xtick_1">
     <g id="line2d_1">
      <defs>
       <path id="m362da5e5ac" d="M 0 0 
L 0 3.5 
" style="stroke: #000000; stroke-width: 0.8"/>
      </defs>
      <g>
       <use xlink:href="#m362da5e5ac" x="112.357592" y="377.20974" style="stroke: #000000; stroke-width: 0.8"/>
      </g>
     </g>
     <g id="text_1">
      <!-- 0.05 -->
      <g transform="translate(106.436677 405.326821) rotate(-45) scale(0.1 -0.1)">
       <defs>
        <path id="DejaVuSans-30" d="M 2034 4250 
Q 1547 4250 1301 3770 
Q 1056 3291 1056 2328 
Q 1056 1369 1301 889 
Q 1547 409 2034 409 
Q 2525 409 2770 889 
Q 3016 1369 3016 2328 
Q 3016 3291 2770 3770 
Q 2525 4250 2034 4250 
z
M 2034 4750 
Q 2819 4750 3233 4129 
Q 3647 3509 3647 2328 
Q 3647 1150 3233 529 
Q 2819 -91 2034 -91 
Q 1250 -91 836 529 
Q 422 1150 422 2328 
Q 422 3509 836 4129 
Q 1250 4750 2034 4750 
z
" transform="scale(0.015625)"/>
        <path id="DejaVuSans-2e" d="M 684 794 
L 1344 794 
L 1344 0 
L 684 0 
L 684 794 
z
" transform="scale(0.015625)"/>
        <path id="DejaVuSans-35" d="M 691 4666 
L 3169 4666 
L 3169 4134 
L 1269 4134 
L 1269 2991 
Q 1406 3038 1543 3061 
Q 1681 3084 1819 3084 
Q 2600 3084 3056 2656 
Q 3513 2228 3513 1497 
Q 3513 744 3044 326 
Q 2575 -91 1722 -91 
Q 1428 -91 1123 -41 
Q 819 9 494 109 
L 494 744 
Q 775 591 1075 516 
Q 1375 441 1709 441 
Q 2250 441 2565 725 
Q 2881 1009 2881 1497 
Q 2881 1984 2565 2268 
Q 2250 2553 1709 2553 
Q 1456 2553 1204 2497 
Q 953 2441 691 2322 
L 691 4666 
z
" transform="scale(0.015625)"/>
       </defs>
       <use xlink:href="#DejaVuSans-30"/>
       <use xlink:href="#DejaVuSans-2e" x="63.623047"/>
       <use xlink:href="#DejaVuSans-30" x="95.410156"/>
       <use xlink:href="#DejaVuSans-35" x="159.033203"/>
      </g>
     </g>
    </g>
    <g id="xtick_2">
     <g id="line2d_2">
      <g>
       <use xlink:href="#m362da5e5ac" x="158.109526" y="377.20974" style="stroke: #000000; stroke-width: 0.8"/>
      </g>
     </g>
     <g id="text_2">
      <!-- 0.11 -->
      <g transform="translate(152.188612 405.326821) rotate(-45) scale(0.1 -0.1)">
       <defs>
        <path id="DejaVuSans-31" d="M 794 531 
L 1825 531 
L 1825 4091 
L 703 3866 
L 703 4441 
L 1819 4666 
L 2450 4666 
L 2450 531 
L 3481 531 
L 3481 0 
L 794 0 
L 794 531 
z
" transform="scale(0.015625)"/>
       </defs>
       <use xlink:href="#DejaVuSans-30"/>
       <use xlink:href="#DejaVuSans-2e" x="63.623047"/>
       <use xlink:href="#DejaVuSans-31" x="95.410156"/>
       <use xlink:href="#DejaVuSans-31" x="159.033203"/>
      </g>
     </g>
    </g>
    <g id="xtick_3">
     <g id="line2d_3">
      <g>
       <use xlink:href="#m362da5e5ac" x="203.86146" y="377.20974" style="stroke: #000000; stroke-width: 0.8"/>
      </g>
     </g>
     <g id="text_3">
      <!-- 0.16 -->
      <g transform="translate(197.940546 405.326821) rotate(-45) scale(0.1 -0.1)">
       <defs>
        <path id="DejaVuSans-36" d="M 2113 2584 
Q 1688 2584 1439 2293 
Q 1191 2003 1191 1497 
Q 1191 994 1439 701 
Q 1688 409 2113 409 
Q 2538 409 2786 701 
Q 3034 994 3034 1497 
Q 3034 2003 2786 2293 
Q 2538 2584 2113 2584 
z
M 3366 4563 
L 3366 3988 
Q 3128 4100 2886 4159 
Q 2644 4219 2406 4219 
Q 1781 4219 1451 3797 
Q 1122 3375 1075 2522 
Q 1259 2794 1537 2939 
Q 1816 3084 2150 3084 
Q 2853 3084 3261 2657 
Q 3669 2231 3669 1497 
Q 3669 778 3244 343 
Q 2819 -91 2113 -91 
Q 1303 -91 875 529 
Q 447 1150 447 2328 
Q 447 3434 972 4092 
Q 1497 4750 2381 4750 
Q 2619 4750 2861 4703 
Q 3103 4656 3366 4563 
z
" transform="scale(0.015625)"/>
       </defs>
       <use xlink:href="#DejaVuSans-30"/>
       <use xlink:href="#DejaVuSans-2e" x="63.623047"/>
       <use xlink:href="#DejaVuSans-31" x="95.410156"/>
       <use xlink:href="#DejaVuSans-36" x="159.033203"/>
      </g>
     </g>
    </g>
    <g id="xtick_4">
     <g id="line2d_4">
      <g>
       <use xlink:href="#m362da5e5ac" x="249.613395" y="377.20974" style="stroke: #000000; stroke-width: 0.8"/>
      </g>
     </g>
     <g id="text_4">
      <!-- 0.21 -->
      <g transform="translate(243.69248 405.326821) rotate(-45) scale(0.1 -0.1)">
       <defs>
        <path id="DejaVuSans-32" d="M 1228 531 
L 3431 531 
L 3431 0 
L 469 0 
L 469 531 
Q 828 903 1448 1529 
Q 2069 2156 2228 2338 
Q 2531 2678 2651 2914 
Q 2772 3150 2772 3378 
Q 2772 3750 2511 3984 
Q 2250 4219 1831 4219 
Q 1534 4219 1204 4116 
Q 875 4013 500 3803 
L 500 4441 
Q 881 4594 1212 4672 
Q 1544 4750 1819 4750 
Q 2544 4750 2975 4387 
Q 3406 4025 3406 3419 
Q 3406 3131 3298 2873 
Q 3191 2616 2906 2266 
Q 2828 2175 2409 1742 
Q 1991 1309 1228 531 
z
" transform="scale(0.015625)"/>
       </defs>
       <use xlink:href="#DejaVuSans-30"/>
       <use xlink:href="#DejaVuSans-2e" x="63.623047"/>
       <use xlink:href="#DejaVuSans-32" x="95.410156"/>
       <use xlink:href="#DejaVuSans-31" x="159.033203"/>
      </g>
     </g>
    </g>
    <g id="xtick_5">
     <g id="line2d_5">
      <g>
       <use xlink:href="#m362da5e5ac" x="295.365329" y="377.20974" style="stroke: #000000; stroke-width: 0.8"/>
      </g>
     </g>
     <g id="text_5">
      <!-- 0.26 -->
      <g transform="translate(289.444414 405.326821) rotate(-45) scale(0.1 -0.1)">
       <use xlink:href="#DejaVuSans-30"/>
       <use xlink:href="#DejaVuSans-2e" x="63.623047"/>
       <use xlink:href="#DejaVuSans-32" x="95.410156"/>
       <use xlink:href="#DejaVuSans-36" x="159.033203"/>
      </g>
     </g>
    </g>
    <g id="xtick_6">
     <g id="line2d_6">
      <g>
       <use xlink:href="#m362da5e5ac" x="341.117263" y="377.20974" style="stroke: #000000; stroke-width: 0.8"/>
      </g>
     </g>
     <g id="text_6">
      <!-- 0.32 -->
      <g transform="translate(335.196349 405.326821) rotate(-45) scale(0.1 -0.1)">
       <defs>
        <path id="DejaVuSans-33" d="M 2597 2516 
Q 3050 2419 3304 2112 
Q 3559 1806 3559 1356 
Q 3559 666 3084 287 
Q 2609 -91 1734 -91 
Q 1441 -91 1130 -33 
Q 819 25 488 141 
L 488 750 
Q 750 597 1062 519 
Q 1375 441 1716 441 
Q 2309 441 2620 675 
Q 2931 909 2931 1356 
Q 2931 1769 2642 2001 
Q 2353 2234 1838 2234 
L 1294 2234 
L 1294 2753 
L 1863 2753 
Q 2328 2753 2575 2939 
Q 2822 3125 2822 3475 
Q 2822 3834 2567 4026 
Q 2313 4219 1838 4219 
Q 1578 4219 1281 4162 
Q 984 4106 628 3988 
L 628 4550 
Q 988 4650 1302 4700 
Q 1616 4750 1894 4750 
Q 2613 4750 3031 4423 
Q 3450 4097 3450 3541 
Q 3450 3153 3228 2886 
Q 3006 2619 2597 2516 
z
" transform="scale(0.015625)"/>
       </defs>
       <use xlink:href="#DejaVuSans-30"/>
       <use xlink:href="#DejaVuSans-2e" x="63.623047"/>
       <use xlink:href="#DejaVuSans-33" x="95.410156"/>
       <use xlink:href="#DejaVuSans-32" x="159.033203"/>
      </g>
     </g>
    </g>
    <g id="xtick_7">
     <g id="line2d_7">
      <g>
       <use xlink:href="#m362da5e5ac" x="386.869197" y="377.20974" style="stroke: #000000; stroke-width: 0.8"/>
      </g>
     </g>
     <g id="text_7">
      <!-- 0.37 -->
      <g transform="translate(380.948283 405.326821) rotate(-45) scale(0.1 -0.1)">
       <defs>
        <path id="DejaVuSans-37" d="M 525 4666 
L 3525 4666 
L 3525 4397 
L 1831 0 
L 1172 0 
L 2766 4134 
L 525 4134 
L 525 4666 
z
" transform="scale(0.015625)"/>
       </defs>
       <use xlink:href="#DejaVuSans-30"/>
       <use xlink:href="#DejaVuSans-2e" x="63.623047"/>
       <use xlink:href="#DejaVuSans-33" x="95.410156"/>
       <use xlink:href="#DejaVuSans-37" x="159.033203"/>
      </g>
     </g>
    </g>
    <g id="xtick_8">
     <g id="line2d_8">
      <g>
       <use xlink:href="#m362da5e5ac" x="432.621132" y="377.20974" style="stroke: #000000; stroke-width: 0.8"/>
      </g>
     </g>
     <g id="text_8">
      <!-- 0.42 -->
      <g transform="translate(426.700217 405.326821) rotate(-45) scale(0.1 -0.1)">
       <defs>
        <path id="DejaVuSans-34" d="M 2419 4116 
L 825 1625 
L 2419 1625 
L 2419 4116 
z
M 2253 4666 
L 3047 4666 
L 3047 1625 
L 3713 1625 
L 3713 1100 
L 3047 1100 
L 3047 0 
L 2419 0 
L 2419 1100 
L 313 1100 
L 313 1709 
L 2253 4666 
z
" transform="scale(0.015625)"/>
       </defs>
       <use xlink:href="#DejaVuSans-30"/>
       <use xlink:href="#DejaVuSans-2e" x="63.623047"/>
       <use xlink:href="#DejaVuSans-34" x="95.410156"/>
       <use xlink:href="#DejaVuSans-32" x="159.033203"/>
      </g>
     </g>
    </g>
    <g id="xtick_9">
     <g id="line2d_9">
      <g>
       <use xlink:href="#m362da5e5ac" x="478.373066" y="377.20974" style="stroke: #000000; stroke-width: 0.8"/>
      </g>
     </g>
     <g id="text_9">
      <!-- 0.47 -->
      <g transform="translate(472.452151 405.326821) rotate(-45) scale(0.1 -0.1)">
       <use xlink:href="#DejaVuSans-30"/>
       <use xlink:href="#DejaVuSans-2e" x="63.623047"/>
       <use xlink:href="#DejaVuSans-34" x="95.410156"/>
       <use xlink:href="#DejaVuSans-37" x="159.033203"/>
      </g>
     </g>
    </g>
    <g id="xtick_10">
     <g id="line2d_10">
      <g>
       <use xlink:href="#m362da5e5ac" x="524.125" y="377.20974" style="stroke: #000000; stroke-width: 0.8"/>
      </g>
     </g>
     <g id="text_10">
      <!-- 0.53 -->
      <g transform="translate(518.204086 405.326821) rotate(-45) scale(0.1 -0.1)">
       <use xlink:href="#DejaVuSans-30"/>
       <use xlink:href="#DejaVuSans-2e" x="63.623047"/>
       <use xlink:href="#DejaVuSans-35" x="95.410156"/>
       <use xlink:href="#DejaVuSans-33" x="159.033203"/>
      </g>
     </g>
    </g>
    <g id="xtick_11">
     <g id="line2d_11">
      <g>
       <use xlink:href="#m362da5e5ac" x="569.876934" y="377.20974" style="stroke: #000000; stroke-width: 0.8"/>
      </g>
     </g>
     <g id="text_11">
      <!-- 0.58 -->
      <g transform="translate(563.95602 405.326821) rotate(-45) scale(0.1 -0.1)">
       <defs>
        <path id="DejaVuSans-38" d="M 2034 2216 
Q 1584 2216 1326 1975 
Q 1069 1734 1069 1313 
Q 1069 891 1326 650 
Q 1584 409 2034 409 
Q 2484 409 2743 651 
Q 3003 894 3003 1313 
Q 3003 1734 2745 1975 
Q 2488 2216 2034 2216 
z
M 1403 2484 
Q 997 2584 770 2862 
Q 544 3141 544 3541 
Q 544 4100 942 4425 
Q 1341 4750 2034 4750 
Q 2731 4750 3128 4425 
Q 3525 4100 3525 3541 
Q 3525 3141 3298 2862 
Q 3072 2584 2669 2484 
Q 3125 2378 3379 2068 
Q 3634 1759 3634 1313 
Q 3634 634 3220 271 
Q 2806 -91 2034 -91 
Q 1263 -91 848 271 
Q 434 634 434 1313 
Q 434 1759 690 2068 
Q 947 2378 1403 2484 
z
M 1172 3481 
Q 1172 3119 1398 2916 
Q 1625 2713 2034 2713 
Q 2441 2713 2670 2916 
Q 2900 3119 2900 3481 
Q 2900 3844 2670 4047 
Q 2441 4250 2034 4250 
Q 1625 4250 1398 4047 
Q 1172 3844 1172 3481 
z
" transform="scale(0.015625)"/>
       </defs>
       <use xlink:href="#DejaVuSans-30"/>
       <use xlink:href="#DejaVuSans-2e" x="63.623047"/>
       <use xlink:href="#DejaVuSans-35" x="95.410156"/>
       <use xlink:href="#DejaVuSans-38" x="159.033203"/>
      </g>
     </g>
    </g>
    <g id="xtick_12">
     <g id="line2d_12">
      <g>
       <use xlink:href="#m362da5e5ac" x="615.628868" y="377.20974" style="stroke: #000000; stroke-width: 0.8"/>
      </g>
     </g>
     <g id="text_12">
      <!-- 0.63 -->
      <g transform="translate(609.707954 405.326821) rotate(-45) scale(0.1 -0.1)">
       <use xlink:href="#DejaVuSans-30"/>
       <use xlink:href="#DejaVuSans-2e" x="63.623047"/>
       <use xlink:href="#DejaVuSans-36" x="95.410156"/>
       <use xlink:href="#DejaVuSans-33" x="159.033203"/>
      </g>
     </g>
    </g>
    <g id="xtick_13">
     <g id="line2d_13">
      <g>
       <use xlink:href="#m362da5e5ac" x="661.380803" y="377.20974" style="stroke: #000000; stroke-width: 0.8"/>
      </g>
     </g>
     <g id="text_13">
      <!-- 0.68 -->
      <g transform="translate(655.459888 405.326821) rotate(-45) scale(0.1 -0.1)">
       <use xlink:href="#DejaVuSans-30"/>
       <use xlink:href="#DejaVuSans-2e" x="63.623047"/>
       <use xlink:href="#DejaVuSans-36" x="95.410156"/>
       <use xlink:href="#DejaVuSans-38" x="159.033203"/>
      </g>
     </g>
    </g>
    <g id="xtick_14">
     <g id="line2d_14">
      <g>
       <use xlink:href="#m362da5e5ac" x="707.132737" y="377.20974" style="stroke: #000000; stroke-width: 0.8"/>
      </g>
     </g>
     <g id="text_14">
      <!-- 0.74 -->
      <g transform="translate(701.211823 405.326821) rotate(-45) scale(0.1 -0.1)">
       <use xlink:href="#DejaVuSans-30"/>
       <use xlink:href="#DejaVuSans-2e" x="63.623047"/>
       <use xlink:href="#DejaVuSans-37" x="95.410156"/>
       <use xlink:href="#DejaVuSans-34" x="159.033203"/>
      </g>
     </g>
    </g>
    <g id="xtick_15">
     <g id="line2d_15">
      <g>
       <use xlink:href="#m362da5e5ac" x="752.884671" y="377.20974" style="stroke: #000000; stroke-width: 0.8"/>
      </g>
     </g>
     <g id="text_15">
      <!-- 0.79 -->
      <g transform="translate(746.963757 405.326821) rotate(-45) scale(0.1 -0.1)">
       <defs>
        <path id="DejaVuSans-39" d="M 703 97 
L 703 672 
Q 941 559 1184 500 
Q 1428 441 1663 441 
Q 2288 441 2617 861 
Q 2947 1281 2994 2138 
Q 2813 1869 2534 1725 
Q 2256 1581 1919 1581 
Q 1219 1581 811 2004 
Q 403 2428 403 3163 
Q 403 3881 828 4315 
Q 1253 4750 1959 4750 
Q 2769 4750 3195 4129 
Q 3622 3509 3622 2328 
Q 3622 1225 3098 567 
Q 2575 -91 1691 -91 
Q 1453 -91 1209 -44 
Q 966 3 703 97 
z
M 1959 2075 
Q 2384 2075 2632 2365 
Q 2881 2656 2881 3163 
Q 2881 3666 2632 3958 
Q 2384 4250 1959 4250 
Q 1534 4250 1286 3958 
Q 1038 3666 1038 3163 
Q 1038 2656 1286 2365 
Q 1534 2075 1959 2075 
z
" transform="scale(0.015625)"/>
       </defs>
       <use xlink:href="#DejaVuSans-30"/>
       <use xlink:href="#DejaVuSans-2e" x="63.623047"/>
       <use xlink:href="#DejaVuSans-37" x="95.410156"/>
       <use xlink:href="#DejaVuSans-39" x="159.033203"/>
      </g>
     </g>
    </g>
    <g id="xtick_16">
     <g id="line2d_16">
      <g>
       <use xlink:href="#m362da5e5ac" x="798.636605" y="377.20974" style="stroke: #000000; stroke-width: 0.8"/>
      </g>
     </g>
     <g id="text_16">
      <!-- 0.84 -->
      <g transform="translate(792.715691 405.326821) rotate(-45) scale(0.1 -0.1)">
       <use xlink:href="#DejaVuSans-30"/>
       <use xlink:href="#DejaVuSans-2e" x="63.623047"/>
       <use xlink:href="#DejaVuSans-38" x="95.410156"/>
       <use xlink:href="#DejaVuSans-34" x="159.033203"/>
      </g>
     </g>
    </g>
    <g id="xtick_17">
     <g id="line2d_17">
      <g>
       <use xlink:href="#m362da5e5ac" x="844.38854" y="377.20974" style="stroke: #000000; stroke-width: 0.8"/>
      </g>
     </g>
     <g id="text_17">
      <!-- 0.89 -->
      <g transform="translate(838.467625 405.326821) rotate(-45) scale(0.1 -0.1)">
       <use xlink:href="#DejaVuSans-30"/>
       <use xlink:href="#DejaVuSans-2e" x="63.623047"/>
       <use xlink:href="#DejaVuSans-38" x="95.410156"/>
       <use xlink:href="#DejaVuSans-39" x="159.033203"/>
      </g>
     </g>
    </g>
    <g id="xtick_18">
     <g id="line2d_18">
      <g>
       <use xlink:href="#m362da5e5ac" x="890.140474" y="377.20974" style="stroke: #000000; stroke-width: 0.8"/>
      </g>
     </g>
     <g id="text_18">
      <!-- 0.95 -->
      <g transform="translate(884.219559 405.326821) rotate(-45) scale(0.1 -0.1)">
       <use xlink:href="#DejaVuSans-30"/>
       <use xlink:href="#DejaVuSans-2e" x="63.623047"/>
       <use xlink:href="#DejaVuSans-39" x="95.410156"/>
       <use xlink:href="#DejaVuSans-35" x="159.033203"/>
      </g>
     </g>
    </g>
    <g id="xtick_19">
     <g id="line2d_19">
      <g>
       <use xlink:href="#m362da5e5ac" x="935.892408" y="377.20974" style="stroke: #000000; stroke-width: 0.8"/>
      </g>
     </g>
     <g id="text_19">
      <!-- 1.00 -->
      <g transform="translate(929.971494 405.326821) rotate(-45) scale(0.1 -0.1)">
       <use xlink:href="#DejaVuSans-31"/>
       <use xlink:href="#DejaVuSans-2e" x="63.623047"/>
       <use xlink:href="#DejaVuSans-30" x="95.410156"/>
       <use xlink:href="#DejaVuSans-30" x="159.033203"/>
      </g>
     </g>
    </g>
    <g id="text_20">
     <!-- Frequency -->
     <g transform="translate(498.295313 418.39582) scale(0.1 -0.1)">
      <defs>
       <path id="DejaVuSans-46" d="M 628 4666 
L 3309 4666 
L 3309 4134 
L 1259 4134 
L 1259 2759 
L 3109 2759 
L 3109 2228 
L 1259 2228 
L 1259 0 
L 628 0 
L 628 4666 
z
" transform="scale(0.015625)"/>
       <path id="DejaVuSans-72" d="M 2631 2963 
Q 2534 3019 2420 3045 
Q 2306 3072 2169 3072 
Q 1681 3072 1420 2755 
Q 1159 2438 1159 1844 
L 1159 0 
L 581 0 
L 581 3500 
L 1159 3500 
L 1159 2956 
Q 1341 3275 1631 3429 
Q 1922 3584 2338 3584 
Q 2397 3584 2469 3576 
Q 2541 3569 2628 3553 
L 2631 2963 
z
" transform="scale(0.015625)"/>
       <path id="DejaVuSans-65" d="M 3597 1894 
L 3597 1613 
L 953 1613 
Q 991 1019 1311 708 
Q 1631 397 2203 397 
Q 2534 397 2845 478 
Q 3156 559 3463 722 
L 3463 178 
Q 3153 47 2828 -22 
Q 2503 -91 2169 -91 
Q 1331 -91 842 396 
Q 353 884 353 1716 
Q 353 2575 817 3079 
Q 1281 3584 2069 3584 
Q 2775 3584 3186 3129 
Q 3597 2675 3597 1894 
z
M 3022 2063 
Q 3016 2534 2758 2815 
Q 2500 3097 2075 3097 
Q 1594 3097 1305 2825 
Q 1016 2553 972 2059 
L 3022 2063 
z
" transform="scale(0.015625)"/>
       <path id="DejaVuSans-71" d="M 947 1747 
Q 947 1113 1208 752 
Q 1469 391 1925 391 
Q 2381 391 2643 752 
Q 2906 1113 2906 1747 
Q 2906 2381 2643 2742 
Q 2381 3103 1925 3103 
Q 1469 3103 1208 2742 
Q 947 2381 947 1747 
z
M 2906 525 
Q 2725 213 2448 61 
Q 2172 -91 1784 -91 
Q 1150 -91 751 415 
Q 353 922 353 1747 
Q 353 2572 751 3078 
Q 1150 3584 1784 3584 
Q 2172 3584 2448 3432 
Q 2725 3281 2906 2969 
L 2906 3500 
L 3481 3500 
L 3481 -1331 
L 2906 -1331 
L 2906 525 
z
" transform="scale(0.015625)"/>
       <path id="DejaVuSans-75" d="M 544 1381 
L 544 3500 
L 1119 3500 
L 1119 1403 
Q 1119 906 1312 657 
Q 1506 409 1894 409 
Q 2359 409 2629 706 
Q 2900 1003 2900 1516 
L 2900 3500 
L 3475 3500 
L 3475 0 
L 2900 0 
L 2900 538 
Q 2691 219 2414 64 
Q 2138 -91 1772 -91 
Q 1169 -91 856 284 
Q 544 659 544 1381 
z
M 1991 3584 
L 1991 3584 
z
" transform="scale(0.015625)"/>
       <path id="DejaVuSans-6e" d="M 3513 2113 
L 3513 0 
L 2938 0 
L 2938 2094 
Q 2938 2591 2744 2837 
Q 2550 3084 2163 3084 
Q 1697 3084 1428 2787 
Q 1159 2491 1159 1978 
L 1159 0 
L 581 0 
L 581 3500 
L 1159 3500 
L 1159 2956 
Q 1366 3272 1645 3428 
Q 1925 3584 2291 3584 
Q 2894 3584 3203 3211 
Q 3513 2838 3513 2113 
z
" transform="scale(0.015625)"/>
       <path id="DejaVuSans-63" d="M 3122 3366 
L 3122 2828 
Q 2878 2963 2633 3030 
Q 2388 3097 2138 3097 
Q 1578 3097 1268 2742 
Q 959 2388 959 1747 
Q 959 1106 1268 751 
Q 1578 397 2138 397 
Q 2388 397 2633 464 
Q 2878 531 3122 666 
L 3122 134 
Q 2881 22 2623 -34 
Q 2366 -91 2075 -91 
Q 1284 -91 818 406 
Q 353 903 353 1747 
Q 353 2603 823 3093 
Q 1294 3584 2113 3584 
Q 2378 3584 2631 3529 
Q 2884 3475 3122 3366 
z
" transform="scale(0.015625)"/>
       <path id="DejaVuSans-79" d="M 2059 -325 
Q 1816 -950 1584 -1140 
Q 1353 -1331 966 -1331 
L 506 -1331 
L 506 -850 
L 844 -850 
Q 1081 -850 1212 -737 
Q 1344 -625 1503 -206 
L 1606 56 
L 191 3500 
L 800 3500 
L 1894 763 
L 2988 3500 
L 3597 3500 
L 2059 -325 
z
" transform="scale(0.015625)"/>
      </defs>
      <use xlink:href="#DejaVuSans-46"/>
      <use xlink:href="#DejaVuSans-72" x="50.269531"/>
      <use xlink:href="#DejaVuSans-65" x="89.132812"/>
      <use xlink:href="#DejaVuSans-71" x="150.65625"/>
      <use xlink:href="#DejaVuSans-75" x="214.132812"/>
      <use xlink:href="#DejaVuSans-65" x="277.511719"/>
      <use xlink:href="#DejaVuSans-6e" x="339.035156"/>
      <use xlink:href="#DejaVuSans-63" x="402.414062"/>
      <use xlink:href="#DejaVuSans-79" x="457.394531"/>
     </g>
    </g>
   </g>
   <g id="matplotlib.axis_2">
    <g id="ytick_1">
     <g id="line2d_20">
      <defs>
       <path id="mef16fef06e" d="M 0 0 
L -3.5 0 
" style="stroke: #000000; stroke-width: 0.8"/>
      </defs>
      <g>
       <use xlink:href="#mef16fef06e" x="51.05" y="377.20974" style="stroke: #000000; stroke-width: 0.8"/>
      </g>
     </g>
     <g id="text_21">
      <!-- 0 -->
      <g transform="translate(37.6875 381.008959) scale(0.1 -0.1)">
       <use xlink:href="#DejaVuSans-30"/>
      </g>
     </g>
    </g>
    <g id="ytick_2">
     <g id="line2d_21">
      <g>
       <use xlink:href="#mef16fef06e" x="51.05" y="307.245311" style="stroke: #000000; stroke-width: 0.8"/>
      </g>
     </g>
     <g id="text_22">
      <!-- 20 -->
      <g transform="translate(31.325 311.044529) scale(0.1 -0.1)">
       <use xlink:href="#DejaVuSans-32"/>
       <use xlink:href="#DejaVuSans-30" x="63.623047"/>
      </g>
     </g>
    </g>
    <g id="ytick_3">
     <g id="line2d_22">
      <g>
       <use xlink:href="#mef16fef06e" x="51.05" y="237.280881" style="stroke: #000000; stroke-width: 0.8"/>
      </g>
     </g>
     <g id="text_23">
      <!-- 40 -->
      <g transform="translate(31.325 241.080099) scale(0.1 -0.1)">
       <use xlink:href="#DejaVuSans-34"/>
       <use xlink:href="#DejaVuSans-30" x="63.623047"/>
      </g>
     </g>
    </g>
    <g id="ytick_4">
     <g id="line2d_23">
      <g>
       <use xlink:href="#mef16fef06e" x="51.05" y="167.316451" style="stroke: #000000; stroke-width: 0.8"/>
      </g>
     </g>
     <g id="text_24">
      <!-- 60 -->
      <g transform="translate(31.325 171.11567) scale(0.1 -0.1)">
       <use xlink:href="#DejaVuSans-36"/>
       <use xlink:href="#DejaVuSans-30" x="63.623047"/>
      </g>
     </g>
    </g>
    <g id="ytick_5">
     <g id="line2d_24">
      <g>
       <use xlink:href="#mef16fef06e" x="51.05" y="97.352021" style="stroke: #000000; stroke-width: 0.8"/>
      </g>
     </g>
     <g id="text_25">
      <!-- 80 -->
      <g transform="translate(31.325 101.15124) scale(0.1 -0.1)">
       <use xlink:href="#DejaVuSans-38"/>
       <use xlink:href="#DejaVuSans-30" x="63.623047"/>
      </g>
     </g>
    </g>
    <g id="ytick_6">
     <g id="line2d_25">
      <g>
       <use xlink:href="#mef16fef06e" x="51.05" y="27.387591" style="stroke: #000000; stroke-width: 0.8"/>
      </g>
     </g>
     <g id="text_26">
      <!-- 100 -->
      <g transform="translate(24.9625 31.18681) scale(0.1 -0.1)">
       <use xlink:href="#DejaVuSans-31"/>
       <use xlink:href="#DejaVuSans-30" x="63.623047"/>
       <use xlink:href="#DejaVuSans-30" x="127.246094"/>
      </g>
     </g>
    </g>
    <g id="text_27">
     <!-- Percentage of insertions -->
     <g transform="translate(18.882812 261.921745) rotate(-90) scale(0.1 -0.1)">
      <defs>
       <path id="DejaVuSans-50" d="M 1259 4147 
L 1259 2394 
L 2053 2394 
Q 2494 2394 2734 2622 
Q 2975 2850 2975 3272 
Q 2975 3691 2734 3919 
Q 2494 4147 2053 4147 
L 1259 4147 
z
M 628 4666 
L 2053 4666 
Q 2838 4666 3239 4311 
Q 3641 3956 3641 3272 
Q 3641 2581 3239 2228 
Q 2838 1875 2053 1875 
L 1259 1875 
L 1259 0 
L 628 0 
L 628 4666 
z
" transform="scale(0.015625)"/>
       <path id="DejaVuSans-74" d="M 1172 4494 
L 1172 3500 
L 2356 3500 
L 2356 3053 
L 1172 3053 
L 1172 1153 
Q 1172 725 1289 603 
Q 1406 481 1766 481 
L 2356 481 
L 2356 0 
L 1766 0 
Q 1100 0 847 248 
Q 594 497 594 1153 
L 594 3053 
L 172 3053 
L 172 3500 
L 594 3500 
L 594 4494 
L 1172 4494 
z
" transform="scale(0.015625)"/>
       <path id="DejaVuSans-61" d="M 2194 1759 
Q 1497 1759 1228 1600 
Q 959 1441 959 1056 
Q 959 750 1161 570 
Q 1363 391 1709 391 
Q 2188 391 2477 730 
Q 2766 1069 2766 1631 
L 2766 1759 
L 2194 1759 
z
M 3341 1997 
L 3341 0 
L 2766 0 
L 2766 531 
Q 2569 213 2275 61 
Q 1981 -91 1556 -91 
Q 1019 -91 701 211 
Q 384 513 384 1019 
Q 384 1609 779 1909 
Q 1175 2209 1959 2209 
L 2766 2209 
L 2766 2266 
Q 2766 2663 2505 2880 
Q 2244 3097 1772 3097 
Q 1472 3097 1187 3025 
Q 903 2953 641 2809 
L 641 3341 
Q 956 3463 1253 3523 
Q 1550 3584 1831 3584 
Q 2591 3584 2966 3190 
Q 3341 2797 3341 1997 
z
" transform="scale(0.015625)"/>
       <path id="DejaVuSans-67" d="M 2906 1791 
Q 2906 2416 2648 2759 
Q 2391 3103 1925 3103 
Q 1463 3103 1205 2759 
Q 947 2416 947 1791 
Q 947 1169 1205 825 
Q 1463 481 1925 481 
Q 2391 481 2648 825 
Q 2906 1169 2906 1791 
z
M 3481 434 
Q 3481 -459 3084 -895 
Q 2688 -1331 1869 -1331 
Q 1566 -1331 1297 -1286 
Q 1028 -1241 775 -1147 
L 775 -588 
Q 1028 -725 1275 -790 
Q 1522 -856 1778 -856 
Q 2344 -856 2625 -561 
Q 2906 -266 2906 331 
L 2906 616 
Q 2728 306 2450 153 
Q 2172 0 1784 0 
Q 1141 0 747 490 
Q 353 981 353 1791 
Q 353 2603 747 3093 
Q 1141 3584 1784 3584 
Q 2172 3584 2450 3431 
Q 2728 3278 2906 2969 
L 2906 3500 
L 3481 3500 
L 3481 434 
z
" transform="scale(0.015625)"/>
       <path id="DejaVuSans-20" transform="scale(0.015625)"/>
       <path id="DejaVuSans-6f" d="M 1959 3097 
Q 1497 3097 1228 2736 
Q 959 2375 959 1747 
Q 959 1119 1226 758 
Q 1494 397 1959 397 
Q 2419 397 2687 759 
Q 2956 1122 2956 1747 
Q 2956 2369 2687 2733 
Q 2419 3097 1959 3097 
z
M 1959 3584 
Q 2709 3584 3137 3096 
Q 3566 2609 3566 1747 
Q 3566 888 3137 398 
Q 2709 -91 1959 -91 
Q 1206 -91 779 398 
Q 353 888 353 1747 
Q 353 2609 779 3096 
Q 1206 3584 1959 3584 
z
" transform="scale(0.015625)"/>
       <path id="DejaVuSans-66" d="M 2375 4863 
L 2375 4384 
L 1825 4384 
Q 1516 4384 1395 4259 
Q 1275 4134 1275 3809 
L 1275 3500 
L 2222 3500 
L 2222 3053 
L 1275 3053 
L 1275 0 
L 697 0 
L 697 3053 
L 147 3053 
L 147 3500 
L 697 3500 
L 697 3744 
Q 697 4328 969 4595 
Q 1241 4863 1831 4863 
L 2375 4863 
z
" transform="scale(0.015625)"/>
       <path id="DejaVuSans-69" d="M 603 3500 
L 1178 3500 
L 1178 0 
L 603 0 
L 603 3500 
z
M 603 4863 
L 1178 4863 
L 1178 4134 
L 603 4134 
L 603 4863 
z
" transform="scale(0.015625)"/>
       <path id="DejaVuSans-73" d="M 2834 3397 
L 2834 2853 
Q 2591 2978 2328 3040 
Q 2066 3103 1784 3103 
Q 1356 3103 1142 2972 
Q 928 2841 928 2578 
Q 928 2378 1081 2264 
Q 1234 2150 1697 2047 
L 1894 2003 
Q 2506 1872 2764 1633 
Q 3022 1394 3022 966 
Q 3022 478 2636 193 
Q 2250 -91 1575 -91 
Q 1294 -91 989 -36 
Q 684 19 347 128 
L 347 722 
Q 666 556 975 473 
Q 1284 391 1588 391 
Q 1994 391 2212 530 
Q 2431 669 2431 922 
Q 2431 1156 2273 1281 
Q 2116 1406 1581 1522 
L 1381 1569 
Q 847 1681 609 1914 
Q 372 2147 372 2553 
Q 372 3047 722 3315 
Q 1072 3584 1716 3584 
Q 2034 3584 2315 3537 
Q 2597 3491 2834 3397 
z
" transform="scale(0.015625)"/>
      </defs>
      <use xlink:href="#DejaVuSans-50"/>
      <use xlink:href="#DejaVuSans-65" x="56.677734"/>
      <use xlink:href="#DejaVuSans-72" x="118.201172"/>
      <use xlink:href="#DejaVuSans-63" x="157.064453"/>
      <use xlink:href="#DejaVuSans-65" x="212.044922"/>
      <use xlink:href="#DejaVuSans-6e" x="273.568359"/>
      <use xlink:href="#DejaVuSans-74" x="336.947266"/>
      <use xlink:href="#DejaVuSans-61" x="376.15625"/>
      <use xlink:href="#DejaVuSans-67" x="437.435547"/>
      <use xlink:href="#DejaVuSans-65" x="500.912109"/>
      <use xlink:href="#DejaVuSans-20" x="562.435547"/>
      <use xlink:href="#DejaVuSans-6f" x="594.222656"/>
      <use xlink:href="#DejaVuSans-66" x="655.404297"/>
      <use xlink:href="#DejaVuSans-20" x="690.609375"/>
      <use xlink:href="#DejaVuSans-69" x="722.396484"/>
      <use xlink:href="#DejaVuSans-6e" x="750.179688"/>
      <use xlink:href="#DejaVuSans-73" x="813.558594"/>
      <use xlink:href="#DejaVuSans-65" x="865.658203"/>
      <use xlink:href="#DejaVuSans-72" x="927.181641"/>
      <use xlink:href="#DejaVuSans-74" x="968.294922"/>
      <use xlink:href="#DejaVuSans-69" x="1007.503906"/>
      <use xlink:href="#DejaVuSans-6f" x="1035.287109"/>
      <use xlink:href="#DejaVuSans-6e" x="1096.46875"/>
      <use xlink:href="#DejaVuSans-73" x="1159.847656"/>
     </g>
    </g>
   </g>
   <g id="patch_79">
    <path d="M 51.05 377.20974 
L 51.05 25.44 
" style="fill: none; stroke: #000000; stroke-width: 0.8; stroke-linejoin: miter; stroke-linecap: square"/>
   </g>
   <g id="patch_80">
    <path d="M 997.2 377.20974 
L 997.2 25.44 
" style="fill: none; stroke: #000000; stroke-width: 0.8; stroke-linejoin: miter; stroke-linecap: square"/>
   </g>
   <g id="patch_81">
    <path d="M 51.05 377.20974 
L 997.2 377.20974 
" style="fill: none; stroke: #000000; stroke-width: 0.8; stroke-linejoin: miter; stroke-linecap: square"/>
   </g>
   <g id="patch_82">
    <path d="M 51.05 25.44 
L 997.2 25.44 
" style="fill: none; stroke: #000000; stroke-width: 0.8; stroke-linejoin: miter; stroke-linecap: square"/>
   </g>
   <g id="text_28">
    <!-- Site Frequency Spectrum for Kenya -->
    <g transform="translate(418.3 19.44) scale(0.12 -0.12)">
     <defs>
      <path id="DejaVuSans-53" d="M 3425 4513 
L 3425 3897 
Q 3066 4069 2747 4153 
Q 2428 4238 2131 4238 
Q 1616 4238 1336 4038 
Q 1056 3838 1056 3469 
Q 1056 3159 1242 3001 
Q 1428 2844 1947 2747 
L 2328 2669 
Q 3034 2534 3370 2195 
Q 3706 1856 3706 1288 
Q 3706 609 3251 259 
Q 2797 -91 1919 -91 
Q 1588 -91 1214 -16 
Q 841 59 441 206 
L 441 856 
Q 825 641 1194 531 
Q 1563 422 1919 422 
Q 2459 422 2753 634 
Q 3047 847 3047 1241 
Q 3047 1584 2836 1778 
Q 2625 1972 2144 2069 
L 1759 2144 
Q 1053 2284 737 2584 
Q 422 2884 422 3419 
Q 422 4038 858 4394 
Q 1294 4750 2059 4750 
Q 2388 4750 2728 4690 
Q 3069 4631 3425 4513 
z
" transform="scale(0.015625)"/>
      <path id="DejaVuSans-70" d="M 1159 525 
L 1159 -1331 
L 581 -1331 
L 581 3500 
L 1159 3500 
L 1159 2969 
Q 1341 3281 1617 3432 
Q 1894 3584 2278 3584 
Q 2916 3584 3314 3078 
Q 3713 2572 3713 1747 
Q 3713 922 3314 415 
Q 2916 -91 2278 -91 
Q 1894 -91 1617 61 
Q 1341 213 1159 525 
z
M 3116 1747 
Q 3116 2381 2855 2742 
Q 2594 3103 2138 3103 
Q 1681 3103 1420 2742 
Q 1159 2381 1159 1747 
Q 1159 1113 1420 752 
Q 1681 391 2138 391 
Q 2594 391 2855 752 
Q 3116 1113 3116 1747 
z
" transform="scale(0.015625)"/>
      <path id="DejaVuSans-6d" d="M 3328 2828 
Q 3544 3216 3844 3400 
Q 4144 3584 4550 3584 
Q 5097 3584 5394 3201 
Q 5691 2819 5691 2113 
L 5691 0 
L 5113 0 
L 5113 2094 
Q 5113 2597 4934 2840 
Q 4756 3084 4391 3084 
Q 3944 3084 3684 2787 
Q 3425 2491 3425 1978 
L 3425 0 
L 2847 0 
L 2847 2094 
Q 2847 2600 2669 2842 
Q 2491 3084 2119 3084 
Q 1678 3084 1418 2786 
Q 1159 2488 1159 1978 
L 1159 0 
L 581 0 
L 581 3500 
L 1159 3500 
L 1159 2956 
Q 1356 3278 1631 3431 
Q 1906 3584 2284 3584 
Q 2666 3584 2933 3390 
Q 3200 3197 3328 2828 
z
" transform="scale(0.015625)"/>
      <path id="DejaVuSans-4b" d="M 628 4666 
L 1259 4666 
L 1259 2694 
L 3353 4666 
L 4166 4666 
L 1850 2491 
L 4331 0 
L 3500 0 
L 1259 2247 
L 1259 0 
L 628 0 
L 628 4666 
z
" transform="scale(0.015625)"/>
     </defs>
     <use xlink:href="#DejaVuSans-53"/>
     <use xlink:href="#DejaVuSans-69" x="63.476562"/>
     <use xlink:href="#DejaVuSans-74" x="91.259766"/>
     <use xlink:href="#DejaVuSans-65" x="130.46875"/>
     <use xlink:href="#DejaVuSans-20" x="191.992188"/>
     <use xlink:href="#DejaVuSans-46" x="223.779297"/>
     <use xlink:href="#DejaVuSans-72" x="274.048828"/>
     <use xlink:href="#DejaVuSans-65" x="312.912109"/>
     <use xlink:href="#DejaVuSans-71" x="374.435547"/>
     <use xlink:href="#DejaVuSans-75" x="437.912109"/>
     <use xlink:href="#DejaVuSans-65" x="501.291016"/>
     <use xlink:href="#DejaVuSans-6e" x="562.814453"/>
     <use xlink:href="#DejaVuSans-63" x="626.193359"/>
     <use xlink:href="#DejaVuSans-79" x="681.173828"/>
     <use xlink:href="#DejaVuSans-20" x="740.353516"/>
     <use xlink:href="#DejaVuSans-53" x="772.140625"/>
     <use xlink:href="#DejaVuSans-70" x="835.617188"/>
     <use xlink:href="#DejaVuSans-65" x="899.09375"/>
     <use xlink:href="#DejaVuSans-63" x="960.617188"/>
     <use xlink:href="#DejaVuSans-74" x="1015.597656"/>
     <use xlink:href="#DejaVuSans-72" x="1054.806641"/>
     <use xlink:href="#DejaVuSans-75" x="1095.919922"/>
     <use xlink:href="#DejaVuSans-6d" x="1159.298828"/>
     <use xlink:href="#DejaVuSans-20" x="1256.710938"/>
     <use xlink:href="#DejaVuSans-66" x="1288.498047"/>
     <use xlink:href="#DejaVuSans-6f" x="1323.703125"/>
     <use xlink:href="#DejaVuSans-72" x="1384.884766"/>
     <use xlink:href="#DejaVuSans-20" x="1425.998047"/>
     <use xlink:href="#DejaVuSans-4b" x="1457.785156"/>
     <use xlink:href="#DejaVuSans-65" x="1518.361328"/>
     <use xlink:href="#DejaVuSans-6e" x="1579.884766"/>
     <use xlink:href="#DejaVuSans-79" x="1643.263672"/>
     <use xlink:href="#DejaVuSans-61" x="1702.443359"/>
    </g>
   </g>
   <g id="legend_1">
    <g id="patch_83">
     <path d="M 827.282812 92.1525 
L 990.2 92.1525 
Q 992.2 92.1525 992.2 90.1525 
L 992.2 32.44 
Q 992.2 30.44 990.2 30.44 
L 827.282812 30.44 
Q 825.282812 30.44 825.282812 32.44 
L 825.282812 90.1525 
Q 825.282812 92.1525 827.282812 92.1525 
z
" style="fill: #ffffff; opacity: 0.8; stroke: #cccccc; stroke-linejoin: miter"/>
    </g>
    <g id="patch_84">
     <path d="M 829.282812 42.038438 
L 849.282812 42.038438 
L 849.282812 35.038438 
L 829.282812 35.038438 
z
" style="fill: #0000ff"/>
    </g>
    <g id="text_29">
     <!-- overlaping rep exons -->
     <g transform="translate(857.282812 42.038438) scale(0.1 -0.1)">
      <defs>
       <path id="DejaVuSans-76" d="M 191 3500 
L 800 3500 
L 1894 563 
L 2988 3500 
L 3597 3500 
L 2284 0 
L 1503 0 
L 191 3500 
z
" transform="scale(0.015625)"/>
       <path id="DejaVuSans-6c" d="M 603 4863 
L 1178 4863 
L 1178 0 
L 603 0 
L 603 4863 
z
" transform="scale(0.015625)"/>
       <path id="DejaVuSans-78" d="M 3513 3500 
L 2247 1797 
L 3578 0 
L 2900 0 
L 1881 1375 
L 863 0 
L 184 0 
L 1544 1831 
L 300 3500 
L 978 3500 
L 1906 2253 
L 2834 3500 
L 3513 3500 
z
" transform="scale(0.015625)"/>
      </defs>
      <use xlink:href="#DejaVuSans-6f"/>
      <use xlink:href="#DejaVuSans-76" x="61.181641"/>
      <use xlink:href="#DejaVuSans-65" x="120.361328"/>
      <use xlink:href="#DejaVuSans-72" x="181.884766"/>
      <use xlink:href="#DejaVuSans-6c" x="222.998047"/>
      <use xlink:href="#DejaVuSans-61" x="250.78125"/>
      <use xlink:href="#DejaVuSans-70" x="312.060547"/>
      <use xlink:href="#DejaVuSans-69" x="375.537109"/>
      <use xlink:href="#DejaVuSans-6e" x="403.320312"/>
      <use xlink:href="#DejaVuSans-67" x="466.699219"/>
      <use xlink:href="#DejaVuSans-20" x="530.175781"/>
      <use xlink:href="#DejaVuSans-72" x="561.962891"/>
      <use xlink:href="#DejaVuSans-65" x="600.826172"/>
      <use xlink:href="#DejaVuSans-70" x="662.349609"/>
      <use xlink:href="#DejaVuSans-20" x="725.826172"/>
      <use xlink:href="#DejaVuSans-65" x="757.613281"/>
      <use xlink:href="#DejaVuSans-78" x="817.386719"/>
      <use xlink:href="#DejaVuSans-6f" x="873.441406"/>
      <use xlink:href="#DejaVuSans-6e" x="934.623047"/>
      <use xlink:href="#DejaVuSans-73" x="998.001953"/>
     </g>
    </g>
    <g id="patch_85">
     <path d="M 829.282812 56.716563 
L 849.282812 56.716563 
L 849.282812 49.716563 
L 829.282812 49.716563 
z
" style="fill: #008000"/>
    </g>
    <g id="text_30">
     <!-- overlapping exons not rep -->
     <g transform="translate(857.282812 56.716563) scale(0.1 -0.1)">
      <use xlink:href="#DejaVuSans-6f"/>
      <use xlink:href="#DejaVuSans-76" x="61.181641"/>
      <use xlink:href="#DejaVuSans-65" x="120.361328"/>
      <use xlink:href="#DejaVuSans-72" x="181.884766"/>
      <use xlink:href="#DejaVuSans-6c" x="222.998047"/>
      <use xlink:href="#DejaVuSans-61" x="250.78125"/>
      <use xlink:href="#DejaVuSans-70" x="312.060547"/>
      <use xlink:href="#DejaVuSans-70" x="375.537109"/>
      <use xlink:href="#DejaVuSans-69" x="439.013672"/>
      <use xlink:href="#DejaVuSans-6e" x="466.796875"/>
      <use xlink:href="#DejaVuSans-67" x="530.175781"/>
      <use xlink:href="#DejaVuSans-20" x="593.652344"/>
      <use xlink:href="#DejaVuSans-65" x="625.439453"/>
      <use xlink:href="#DejaVuSans-78" x="685.212891"/>
      <use xlink:href="#DejaVuSans-6f" x="741.267578"/>
      <use xlink:href="#DejaVuSans-6e" x="802.449219"/>
      <use xlink:href="#DejaVuSans-73" x="865.828125"/>
      <use xlink:href="#DejaVuSans-20" x="917.927734"/>
      <use xlink:href="#DejaVuSans-6e" x="949.714844"/>
      <use xlink:href="#DejaVuSans-6f" x="1013.09375"/>
      <use xlink:href="#DejaVuSans-74" x="1074.275391"/>
      <use xlink:href="#DejaVuSans-20" x="1113.484375"/>
      <use xlink:href="#DejaVuSans-72" x="1145.271484"/>
      <use xlink:href="#DejaVuSans-65" x="1184.134766"/>
      <use xlink:href="#DejaVuSans-70" x="1245.658203"/>
     </g>
    </g>
    <g id="patch_86">
     <path d="M 829.282812 71.394688 
L 849.282812 71.394688 
L 849.282812 64.394688 
L 829.282812 64.394688 
z
" style="fill: #ffa500"/>
    </g>
    <g id="text_31">
     <!-- overlapping rep not exon -->
     <g transform="translate(857.282812 71.394688) scale(0.1 -0.1)">
      <use xlink:href="#DejaVuSans-6f"/>
      <use xlink:href="#DejaVuSans-76" x="61.181641"/>
      <use xlink:href="#DejaVuSans-65" x="120.361328"/>
      <use xlink:href="#DejaVuSans-72" x="181.884766"/>
      <use xlink:href="#DejaVuSans-6c" x="222.998047"/>
      <use xlink:href="#DejaVuSans-61" x="250.78125"/>
      <use xlink:href="#DejaVuSans-70" x="312.060547"/>
      <use xlink:href="#DejaVuSans-70" x="375.537109"/>
      <use xlink:href="#DejaVuSans-69" x="439.013672"/>
      <use xlink:href="#DejaVuSans-6e" x="466.796875"/>
      <use xlink:href="#DejaVuSans-67" x="530.175781"/>
      <use xlink:href="#DejaVuSans-20" x="593.652344"/>
      <use xlink:href="#DejaVuSans-72" x="625.439453"/>
      <use xlink:href="#DejaVuSans-65" x="664.302734"/>
      <use xlink:href="#DejaVuSans-70" x="725.826172"/>
      <use xlink:href="#DejaVuSans-20" x="789.302734"/>
      <use xlink:href="#DejaVuSans-6e" x="821.089844"/>
      <use xlink:href="#DejaVuSans-6f" x="884.46875"/>
      <use xlink:href="#DejaVuSans-74" x="945.650391"/>
      <use xlink:href="#DejaVuSans-20" x="984.859375"/>
      <use xlink:href="#DejaVuSans-65" x="1016.646484"/>
      <use xlink:href="#DejaVuSans-78" x="1076.419922"/>
      <use xlink:href="#DejaVuSans-6f" x="1132.474609"/>
      <use xlink:href="#DejaVuSans-6e" x="1193.65625"/>
     </g>
    </g>
    <g id="patch_87">
     <path d="M 829.282812 86.072813 
L 849.282812 86.072813 
L 849.282812 79.072813 
L 829.282812 79.072813 
z
" style="fill: #ff0000"/>
    </g>
    <g id="text_32">
     <!-- not overlapping exon rep -->
     <g transform="translate(857.282812 86.072813) scale(0.1 -0.1)">
      <use xlink:href="#DejaVuSans-6e"/>
      <use xlink:href="#DejaVuSans-6f" x="63.378906"/>
      <use xlink:href="#DejaVuSans-74" x="124.560547"/>
      <use xlink:href="#DejaVuSans-20" x="163.769531"/>
      <use xlink:href="#DejaVuSans-6f" x="195.556641"/>
      <use xlink:href="#DejaVuSans-76" x="256.738281"/>
      <use xlink:href="#DejaVuSans-65" x="315.917969"/>
      <use xlink:href="#DejaVuSans-72" x="377.441406"/>
      <use xlink:href="#DejaVuSans-6c" x="418.554688"/>
      <use xlink:href="#DejaVuSans-61" x="446.337891"/>
      <use xlink:href="#DejaVuSans-70" x="507.617188"/>
      <use xlink:href="#DejaVuSans-70" x="571.09375"/>
      <use xlink:href="#DejaVuSans-69" x="634.570312"/>
      <use xlink:href="#DejaVuSans-6e" x="662.353516"/>
      <use xlink:href="#DejaVuSans-67" x="725.732422"/>
      <use xlink:href="#DejaVuSans-20" x="789.208984"/>
      <use xlink:href="#DejaVuSans-65" x="820.996094"/>
      <use xlink:href="#DejaVuSans-78" x="880.769531"/>
      <use xlink:href="#DejaVuSans-6f" x="936.824219"/>
      <use xlink:href="#DejaVuSans-6e" x="998.005859"/>
      <use xlink:href="#DejaVuSans-20" x="1061.384766"/>
      <use xlink:href="#DejaVuSans-72" x="1093.171875"/>
      <use xlink:href="#DejaVuSans-65" x="1132.035156"/>
      <use xlink:href="#DejaVuSans-70" x="1193.558594"/>
     </g>
    </g>
   </g>
  </g>
 </g>
 <defs>
  <clipPath id="p9fef2d9cca">
   <rect x="51.05" y="25.44" width="946.15" height="351.76974"/>
  </clipPath>
 </defs>
</svg>
