<?xml version="1.0" encoding="utf-8" standalone="no"?>
<!DOCTYPE svg PUBLIC "-//W3C//DTD SVG 1.1//EN"
  "http://www.w3.org/Graphics/SVG/1.1/DTD/svg11.dtd">
<svg xmlns:xlink="http://www.w3.org/1999/xlink" width="864pt" height="432pt" viewBox="0 0 864 432" xmlns="http://www.w3.org/2000/svg" version="1.1">
 <metadata>
  <rdf:RDF xmlns:dc="http://purl.org/dc/elements/1.1/" xmlns:cc="http://creativecommons.org/ns#" xmlns:rdf="http://www.w3.org/1999/02/22-rdf-syntax-ns#">
   <cc:Work>
    <dc:type rdf:resource="http://purl.org/dc/dcmitype/StillImage"/>
    <dc:date>2025-05-02T15:15:40.562232</dc:date>
    <dc:format>image/svg+xml</dc:format>
    <dc:creator>
     <cc:Agent>
      <dc:title>Matplotlib v3.9.1, https://matplotlib.org/</dc:title>
     </cc:Agent>
    </dc:creator>
   </cc:Work>
  </rdf:RDF>
 </metadata>
 <defs>
  <style type="text/css">*{stroke-linejoin: round; stroke-linecap: butt}</style>
 </defs>
 <g id="figure_1">
  <g id="patch_1">
   <path d="M 0 432 
L 864 432 
L 864 0 
L 0 0 
z
" style="fill: #ffffff"/>
  </g>
  <g id="axes_1">
   <g id="patch_2">
    <path d="M 44.66 390.04 
L 853.2 390.04 
L 853.2 25.44 
L 44.66 25.44 
z
" style="fill: #ffffff"/>
   </g>
   <g id="patch_3">
    <path d="M 81.411818 390.04 
L 164.677656 390.04 
L 164.677656 390.04 
L 81.411818 390.04 
z
" clip-path="url(#pf36d09ee44)" style="fill: #0000ff; opacity: 0.8"/>
   </g>
   <g id="patch_4">
    <path d="M 95.767997 390.04 
L 179.033835 390.04 
L 179.033835 284.061876 
L 95.767997 284.061876 
z
" clip-path="url(#pf36d09ee44)" style="fill: #0000ff; opacity: 0.8"/>
   </g>
   <g id="patch_5">
    <path d="M 110.124176 390.04 
L 193.390014 390.04 
L 193.390014 361.507428 
L 110.124176 361.507428 
z
" clip-path="url(#pf36d09ee44)" style="fill: #0000ff; opacity: 0.8"/>
   </g>
   <g id="patch_6">
    <path d="M 124.480355 390.04 
L 207.746193 390.04 
L 207.746193 357.431346 
L 124.480355 357.431346 
z
" clip-path="url(#pf36d09ee44)" style="fill: #0000ff; opacity: 0.8"/>
   </g>
   <g id="patch_7">
    <path d="M 138.836534 390.04 
L 222.102372 390.04 
L 222.102372 369.659591 
L 138.836534 369.659591 
z
" clip-path="url(#pf36d09ee44)" style="fill: #0000ff; opacity: 0.8"/>
   </g>
   <g id="patch_8">
    <path d="M 153.192713 390.04 
L 236.458551 390.04 
L 236.458551 390.04 
L 153.192713 390.04 
z
" clip-path="url(#pf36d09ee44)" style="fill: #0000ff; opacity: 0.8"/>
   </g>
   <g id="patch_9">
    <path d="M 167.548892 390.04 
L 250.81473 390.04 
L 250.81473 381.887837 
L 167.548892 381.887837 
z
" clip-path="url(#pf36d09ee44)" style="fill: #0000ff; opacity: 0.8"/>
   </g>
   <g id="patch_10">
    <path d="M 181.905071 390.04 
L 265.170909 390.04 
L 265.170909 390.04 
L 181.905071 390.04 
z
" clip-path="url(#pf36d09ee44)" style="fill: #0000ff; opacity: 0.8"/>
   </g>
   <g id="patch_11">
    <path d="M 196.26125 390.04 
L 279.527088 390.04 
L 279.527088 357.431346 
L 196.26125 357.431346 
z
" clip-path="url(#pf36d09ee44)" style="fill: #0000ff; opacity: 0.8"/>
   </g>
   <g id="patch_12">
    <path d="M 210.617429 390.04 
L 293.883267 390.04 
L 293.883267 385.963918 
L 210.617429 385.963918 
z
" clip-path="url(#pf36d09ee44)" style="fill: #0000ff; opacity: 0.8"/>
   </g>
   <g id="patch_13">
    <path d="M 224.973608 390.04 
L 308.239446 390.04 
L 308.239446 373.735673 
L 224.973608 373.735673 
z
" clip-path="url(#pf36d09ee44)" style="fill: #0000ff; opacity: 0.8"/>
   </g>
   <g id="patch_14">
    <path d="M 239.329787 390.04 
L 322.595625 390.04 
L 322.595625 390.04 
L 239.329787 390.04 
z
" clip-path="url(#pf36d09ee44)" style="fill: #0000ff; opacity: 0.8"/>
   </g>
   <g id="patch_15">
    <path d="M 253.685966 390.04 
L 336.951804 390.04 
L 336.951804 341.12702 
L 253.685966 341.12702 
z
" clip-path="url(#pf36d09ee44)" style="fill: #0000ff; opacity: 0.8"/>
   </g>
   <g id="patch_16">
    <path d="M 268.042145 390.04 
L 351.307983 390.04 
L 351.307983 365.58351 
L 268.042145 365.58351 
z
" clip-path="url(#pf36d09ee44)" style="fill: #0000ff; opacity: 0.8"/>
   </g>
   <g id="patch_17">
    <path d="M 282.398324 390.04 
L 365.664162 390.04 
L 365.664162 365.58351 
L 282.398324 365.58351 
z
" clip-path="url(#pf36d09ee44)" style="fill: #0000ff; opacity: 0.8"/>
   </g>
   <g id="patch_18">
    <path d="M 296.754503 390.04 
L 380.020341 390.04 
L 380.020341 353.355265 
L 296.754503 353.355265 
z
" clip-path="url(#pf36d09ee44)" style="fill: #0000ff; opacity: 0.8"/>
   </g>
   <g id="patch_19">
    <path d="M 311.110682 390.04 
L 394.37652 390.04 
L 394.37652 373.735673 
L 311.110682 373.735673 
z
" clip-path="url(#pf36d09ee44)" style="fill: #0000ff; opacity: 0.8"/>
   </g>
   <g id="patch_20">
    <path d="M 325.466861 390.04 
L 408.732699 390.04 
L 408.732699 390.04 
L 325.466861 390.04 
z
" clip-path="url(#pf36d09ee44)" style="fill: #0000ff; opacity: 0.8"/>
   </g>
   <g id="patch_21">
    <path d="M 339.82304 390.04 
L 423.088878 390.04 
L 423.088878 341.12702 
L 339.82304 341.12702 
z
" clip-path="url(#pf36d09ee44)" style="fill: #0000ff; opacity: 0.8"/>
   </g>
   <g id="patch_22">
    <path d="M 354.179219 390.04 
L 437.445057 390.04 
L 437.445057 357.431346 
L 354.179219 357.431346 
z
" clip-path="url(#pf36d09ee44)" style="fill: #0000ff; opacity: 0.8"/>
   </g>
   <g id="patch_23">
    <path d="M 368.535398 390.04 
L 451.801236 390.04 
L 451.801236 353.355265 
L 368.535398 353.355265 
z
" clip-path="url(#pf36d09ee44)" style="fill: #0000ff; opacity: 0.8"/>
   </g>
   <g id="patch_24">
    <path d="M 382.891577 390.04 
L 466.157415 390.04 
L 466.157415 328.898774 
L 382.891577 328.898774 
z
" clip-path="url(#pf36d09ee44)" style="fill: #0000ff; opacity: 0.8"/>
   </g>
   <g id="patch_25">
    <path d="M 397.247756 390.04 
L 480.513594 390.04 
L 480.513594 288.137957 
L 397.247756 288.137957 
z
" clip-path="url(#pf36d09ee44)" style="fill: #0000ff; opacity: 0.8"/>
   </g>
   <g id="patch_26">
    <path d="M 411.603935 390.04 
L 494.869773 390.04 
L 494.869773 390.04 
L 411.603935 390.04 
z
" clip-path="url(#pf36d09ee44)" style="fill: #0000ff; opacity: 0.8"/>
   </g>
   <g id="patch_27">
    <path d="M 425.960114 390.04 
L 509.225952 390.04 
L 509.225952 308.518366 
L 425.960114 308.518366 
z
" clip-path="url(#pf36d09ee44)" style="fill: #0000ff; opacity: 0.8"/>
   </g>
   <g id="patch_28">
    <path d="M 440.316293 390.04 
L 523.582131 390.04 
L 523.582131 284.061876 
L 440.316293 284.061876 
z
" clip-path="url(#pf36d09ee44)" style="fill: #0000ff; opacity: 0.8"/>
   </g>
   <g id="patch_29">
    <path d="M 454.672472 390.04 
L 537.93831 390.04 
L 537.93831 206.616323 
L 454.672472 206.616323 
z
" clip-path="url(#pf36d09ee44)" style="fill: #0000ff; opacity: 0.8"/>
   </g>
   <g id="patch_30">
    <path d="M 469.028651 390.04 
L 552.294489 390.04 
L 552.294489 121.018608 
L 469.028651 121.018608 
z
" clip-path="url(#pf36d09ee44)" style="fill: #0000ff; opacity: 0.8"/>
   </g>
   <g id="patch_31">
    <path d="M 483.38483 390.04 
L 566.650668 390.04 
L 566.650668 104.714281 
L 483.38483 104.714281 
z
" clip-path="url(#pf36d09ee44)" style="fill: #0000ff; opacity: 0.8"/>
   </g>
   <g id="patch_32">
    <path d="M 164.677656 390.04 
L 247.943494 390.04 
L 247.943494 390.04 
L 164.677656 390.04 
z
" clip-path="url(#pf36d09ee44)" style="fill: #008000; opacity: 0.8"/>
   </g>
   <g id="patch_33">
    <path d="M 179.033835 390.04 
L 262.299673 390.04 
L 262.299673 303.230476 
L 179.033835 303.230476 
z
" clip-path="url(#pf36d09ee44)" style="fill: #008000; opacity: 0.8"/>
   </g>
   <g id="patch_34">
    <path d="M 193.390014 390.04 
L 276.655852 390.04 
L 276.655852 346.635238 
L 193.390014 346.635238 
z
" clip-path="url(#pf36d09ee44)" style="fill: #008000; opacity: 0.8"/>
   </g>
   <g id="patch_35">
    <path d="M 207.746193 390.04 
L 291.012031 390.04 
L 291.012031 390.04 
L 207.746193 390.04 
z
" clip-path="url(#pf36d09ee44)" style="fill: #008000; opacity: 0.8"/>
   </g>
   <g id="patch_36">
    <path d="M 222.102372 390.04 
L 305.36821 390.04 
L 305.36821 346.635238 
L 222.102372 346.635238 
z
" clip-path="url(#pf36d09ee44)" style="fill: #008000; opacity: 0.8"/>
   </g>
   <g id="patch_37">
    <path d="M 236.458551 390.04 
L 319.724389 390.04 
L 319.724389 390.04 
L 236.458551 390.04 
z
" clip-path="url(#pf36d09ee44)" style="fill: #008000; opacity: 0.8"/>
   </g>
   <g id="patch_38">
    <path d="M 250.81473 390.04 
L 334.080568 390.04 
L 334.080568 390.04 
L 250.81473 390.04 
z
" clip-path="url(#pf36d09ee44)" style="fill: #008000; opacity: 0.8"/>
   </g>
   <g id="patch_39">
    <path d="M 265.170909 390.04 
L 348.436747 390.04 
L 348.436747 390.04 
L 265.170909 390.04 
z
" clip-path="url(#pf36d09ee44)" style="fill: #008000; opacity: 0.8"/>
   </g>
   <g id="patch_40">
    <path d="M 279.527088 390.04 
L 362.792926 390.04 
L 362.792926 346.635238 
L 279.527088 346.635238 
z
" clip-path="url(#pf36d09ee44)" style="fill: #008000; opacity: 0.8"/>
   </g>
   <g id="patch_41">
    <path d="M 293.883267 390.04 
L 377.149105 390.04 
L 377.149105 390.04 
L 293.883267 390.04 
z
" clip-path="url(#pf36d09ee44)" style="fill: #008000; opacity: 0.8"/>
   </g>
   <g id="patch_42">
    <path d="M 308.239446 390.04 
L 391.505284 390.04 
L 391.505284 346.635238 
L 308.239446 346.635238 
z
" clip-path="url(#pf36d09ee44)" style="fill: #008000; opacity: 0.8"/>
   </g>
   <g id="patch_43">
    <path d="M 322.595625 390.04 
L 405.861463 390.04 
L 405.861463 390.04 
L 322.595625 390.04 
z
" clip-path="url(#pf36d09ee44)" style="fill: #008000; opacity: 0.8"/>
   </g>
   <g id="patch_44">
    <path d="M 336.951804 390.04 
L 420.217642 390.04 
L 420.217642 390.04 
L 336.951804 390.04 
z
" clip-path="url(#pf36d09ee44)" style="fill: #008000; opacity: 0.8"/>
   </g>
   <g id="patch_45">
    <path d="M 351.307983 390.04 
L 434.573821 390.04 
L 434.573821 390.04 
L 351.307983 390.04 
z
" clip-path="url(#pf36d09ee44)" style="fill: #008000; opacity: 0.8"/>
   </g>
   <g id="patch_46">
    <path d="M 365.664162 390.04 
L 448.93 390.04 
L 448.93 390.04 
L 365.664162 390.04 
z
" clip-path="url(#pf36d09ee44)" style="fill: #008000; opacity: 0.8"/>
   </g>
   <g id="patch_47">
    <path d="M 380.020341 390.04 
L 463.286179 390.04 
L 463.286179 390.04 
L 380.020341 390.04 
z
" clip-path="url(#pf36d09ee44)" style="fill: #008000; opacity: 0.8"/>
   </g>
   <g id="patch_48">
    <path d="M 394.37652 390.04 
L 477.642358 390.04 
L 477.642358 390.04 
L 394.37652 390.04 
z
" clip-path="url(#pf36d09ee44)" style="fill: #008000; opacity: 0.8"/>
   </g>
   <g id="patch_49">
    <path d="M 408.732699 390.04 
L 491.998537 390.04 
L 491.998537 390.04 
L 408.732699 390.04 
z
" clip-path="url(#pf36d09ee44)" style="fill: #008000; opacity: 0.8"/>
   </g>
   <g id="patch_50">
    <path d="M 423.088878 390.04 
L 506.354716 390.04 
L 506.354716 390.04 
L 423.088878 390.04 
z
" clip-path="url(#pf36d09ee44)" style="fill: #008000; opacity: 0.8"/>
   </g>
   <g id="patch_51">
    <path d="M 437.445057 390.04 
L 520.710895 390.04 
L 520.710895 259.825714 
L 437.445057 259.825714 
z
" clip-path="url(#pf36d09ee44)" style="fill: #008000; opacity: 0.8"/>
   </g>
   <g id="patch_52">
    <path d="M 451.801236 390.04 
L 535.067074 390.04 
L 535.067074 346.635238 
L 451.801236 346.635238 
z
" clip-path="url(#pf36d09ee44)" style="fill: #008000; opacity: 0.8"/>
   </g>
   <g id="patch_53">
    <path d="M 466.157415 390.04 
L 549.423253 390.04 
L 549.423253 346.635238 
L 466.157415 346.635238 
z
" clip-path="url(#pf36d09ee44)" style="fill: #008000; opacity: 0.8"/>
   </g>
   <g id="patch_54">
    <path d="M 480.513594 390.04 
L 563.779432 390.04 
L 563.779432 259.825714 
L 480.513594 259.825714 
z
" clip-path="url(#pf36d09ee44)" style="fill: #008000; opacity: 0.8"/>
   </g>
   <g id="patch_55">
    <path d="M 494.869773 390.04 
L 578.135611 390.04 
L 578.135611 390.04 
L 494.869773 390.04 
z
" clip-path="url(#pf36d09ee44)" style="fill: #008000; opacity: 0.8"/>
   </g>
   <g id="patch_56">
    <path d="M 509.225952 390.04 
L 592.49179 390.04 
L 592.49179 390.04 
L 509.225952 390.04 
z
" clip-path="url(#pf36d09ee44)" style="fill: #008000; opacity: 0.8"/>
   </g>
   <g id="patch_57">
    <path d="M 523.582131 390.04 
L 606.847969 390.04 
L 606.847969 346.635238 
L 523.582131 346.635238 
z
" clip-path="url(#pf36d09ee44)" style="fill: #008000; opacity: 0.8"/>
   </g>
   <g id="patch_58">
    <path d="M 537.93831 390.04 
L 621.204148 390.04 
L 621.204148 42.801905 
L 537.93831 42.801905 
z
" clip-path="url(#pf36d09ee44)" style="fill: #008000; opacity: 0.8"/>
   </g>
   <g id="patch_59">
    <path d="M 552.294489 390.04 
L 635.560327 390.04 
L 635.560327 42.801905 
L 552.294489 42.801905 
z
" clip-path="url(#pf36d09ee44)" style="fill: #008000; opacity: 0.8"/>
   </g>
   <g id="patch_60">
    <path d="M 566.650668 390.04 
L 649.916506 390.04 
L 649.916506 129.611429 
L 566.650668 129.611429 
z
" clip-path="url(#pf36d09ee44)" style="fill: #008000; opacity: 0.8"/>
   </g>
   <g id="patch_61">
    <path d="M 247.943494 390.04 
L 331.209332 390.04 
L 331.209332 390.04 
L 247.943494 390.04 
z
" clip-path="url(#pf36d09ee44)" style="fill: #ffa500; opacity: 0.8"/>
   </g>
   <g id="patch_62">
    <path d="M 262.299673 390.04 
L 345.565511 390.04 
L 345.565511 310.387714 
L 262.299673 310.387714 
z
" clip-path="url(#pf36d09ee44)" style="fill: #ffa500; opacity: 0.8"/>
   </g>
   <g id="patch_63">
    <path d="M 276.655852 390.04 
L 359.92169 390.04 
L 359.92169 347.907742 
L 276.655852 347.907742 
z
" clip-path="url(#pf36d09ee44)" style="fill: #ffa500; opacity: 0.8"/>
   </g>
   <g id="patch_64">
    <path d="M 291.012031 390.04 
L 374.277869 390.04 
L 374.277869 360.188991 
L 291.012031 360.188991 
z
" clip-path="url(#pf36d09ee44)" style="fill: #ffa500; opacity: 0.8"/>
   </g>
   <g id="patch_65">
    <path d="M 305.36821 390.04 
L 388.634048 390.04 
L 388.634048 364.65244 
L 305.36821 364.65244 
z
" clip-path="url(#pf36d09ee44)" style="fill: #ffa500; opacity: 0.8"/>
   </g>
   <g id="patch_66">
    <path d="M 319.724389 390.04 
L 402.990227 390.04 
L 402.990227 390.04 
L 319.724389 390.04 
z
" clip-path="url(#pf36d09ee44)" style="fill: #ffa500; opacity: 0.8"/>
   </g>
   <g id="patch_67">
    <path d="M 334.080568 390.04 
L 417.346406 390.04 
L 417.346406 368.155572 
L 334.080568 368.155572 
z
" clip-path="url(#pf36d09ee44)" style="fill: #ffa500; opacity: 0.8"/>
   </g>
   <g id="patch_68">
    <path d="M 348.436747 390.04 
L 431.702585 390.04 
L 431.702585 368.412558 
L 348.436747 368.412558 
z
" clip-path="url(#pf36d09ee44)" style="fill: #ffa500; opacity: 0.8"/>
   </g>
   <g id="patch_69">
    <path d="M 362.792926 390.04 
L 446.058764 390.04 
L 446.058764 369.494607 
L 362.792926 369.494607 
z
" clip-path="url(#pf36d09ee44)" style="fill: #ffa500; opacity: 0.8"/>
   </g>
   <g id="patch_70">
    <path d="M 377.149105 390.04 
L 460.414943 390.04 
L 460.414943 368.601917 
L 377.149105 368.601917 
z
" clip-path="url(#pf36d09ee44)" style="fill: #ffa500; opacity: 0.8"/>
   </g>
   <g id="patch_71">
    <path d="M 391.505284 390.04 
L 474.771122 390.04 
L 474.771122 368.087944 
L 391.505284 368.087944 
z
" clip-path="url(#pf36d09ee44)" style="fill: #ffa500; opacity: 0.8"/>
   </g>
   <g id="patch_72">
    <path d="M 405.861463 390.04 
L 489.127301 390.04 
L 489.127301 390.04 
L 405.861463 390.04 
z
" clip-path="url(#pf36d09ee44)" style="fill: #ffa500; opacity: 0.8"/>
   </g>
   <g id="patch_73">
    <path d="M 420.217642 390.04 
L 503.48348 390.04 
L 503.48348 365.856219 
L 420.217642 365.856219 
z
" clip-path="url(#pf36d09ee44)" style="fill: #ffa500; opacity: 0.8"/>
   </g>
   <g id="patch_74">
    <path d="M 434.573821 390.04 
L 517.839659 390.04 
L 517.839659 364.679491 
L 434.573821 364.679491 
z
" clip-path="url(#pf36d09ee44)" style="fill: #ffa500; opacity: 0.8"/>
   </g>
   <g id="patch_75">
    <path d="M 448.93 390.04 
L 532.195838 390.04 
L 532.195838 363.353982 
L 448.93 363.353982 
z
" clip-path="url(#pf36d09ee44)" style="fill: #ffa500; opacity: 0.8"/>
   </g>
   <g id="patch_76">
    <path d="M 463.286179 390.04 
L 546.552017 390.04 
L 546.552017 359.972581 
L 463.286179 359.972581 
z
" clip-path="url(#pf36d09ee44)" style="fill: #ffa500; opacity: 0.8"/>
   </g>
   <g id="patch_77">
    <path d="M 477.642358 390.04 
L 560.908196 390.04 
L 560.908196 356.645282 
L 477.642358 356.645282 
z
" clip-path="url(#pf36d09ee44)" style="fill: #ffa500; opacity: 0.8"/>
   </g>
   <g id="patch_78">
    <path d="M 491.998537 390.04 
L 575.264375 390.04 
L 575.264375 390.04 
L 491.998537 390.04 
z
" clip-path="url(#pf36d09ee44)" style="fill: #ffa500; opacity: 0.8"/>
   </g>
   <g id="patch_79">
    <path d="M 506.354716 390.04 
L 589.620554 390.04 
L 589.620554 354.697595 
L 506.354716 354.697595 
z
" clip-path="url(#pf36d09ee44)" style="fill: #ffa500; opacity: 0.8"/>
   </g>
   <g id="patch_80">
    <path d="M 520.710895 390.04 
L 603.976733 390.04 
L 603.976733 348.895111 
L 520.710895 348.895111 
z
" clip-path="url(#pf36d09ee44)" style="fill: #ffa500; opacity: 0.8"/>
   </g>
   <g id="patch_81">
    <path d="M 535.067074 390.04 
L 618.332912 390.04 
L 618.332912 340.874427 
L 535.067074 340.874427 
z
" clip-path="url(#pf36d09ee44)" style="fill: #ffa500; opacity: 0.8"/>
   </g>
   <g id="patch_82">
    <path d="M 549.423253 390.04 
L 632.689091 390.04 
L 632.689091 331.988105 
L 549.423253 331.988105 
z
" clip-path="url(#pf36d09ee44)" style="fill: #ffa500; opacity: 0.8"/>
   </g>
   <g id="patch_83">
    <path d="M 563.779432 390.04 
L 647.04527 390.04 
L 647.04527 319.90974 
L 563.779432 319.90974 
z
" clip-path="url(#pf36d09ee44)" style="fill: #ffa500; opacity: 0.8"/>
   </g>
   <g id="patch_84">
    <path d="M 578.135611 390.04 
L 661.401449 390.04 
L 661.401449 390.04 
L 578.135611 390.04 
z
" clip-path="url(#pf36d09ee44)" style="fill: #ffa500; opacity: 0.8"/>
   </g>
   <g id="patch_85">
    <path d="M 592.49179 390.04 
L 675.757628 390.04 
L 675.757628 296.889161 
L 592.49179 296.889161 
z
" clip-path="url(#pf36d09ee44)" style="fill: #ffa500; opacity: 0.8"/>
   </g>
   <g id="patch_86">
    <path d="M 606.847969 390.04 
L 690.113807 390.04 
L 690.113807 258.084201 
L 606.847969 258.084201 
z
" clip-path="url(#pf36d09ee44)" style="fill: #ffa500; opacity: 0.8"/>
   </g>
   <g id="patch_87">
    <path d="M 621.204148 390.04 
L 704.469986 390.04 
L 704.469986 192.863736 
L 621.204148 192.863736 
z
" clip-path="url(#pf36d09ee44)" style="fill: #ffa500; opacity: 0.8"/>
   </g>
   <g id="patch_88">
    <path d="M 635.560327 390.04 
L 718.826165 390.04 
L 718.826165 145.956939 
L 635.560327 145.956939 
z
" clip-path="url(#pf36d09ee44)" style="fill: #ffa500; opacity: 0.8"/>
   </g>
   <g id="patch_89">
    <path d="M 649.916506 390.04 
L 733.182344 390.04 
L 733.182344 128.427755 
L 649.916506 128.427755 
z
" clip-path="url(#pf36d09ee44)" style="fill: #ffa500; opacity: 0.8"/>
   </g>
   <g id="patch_90">
    <path d="M 331.209332 390.04 
L 414.47517 390.04 
L 414.47517 390.04 
L 331.209332 390.04 
z
" clip-path="url(#pf36d09ee44)" style="fill: #ff0000; opacity: 0.8"/>
   </g>
   <g id="patch_91">
    <path d="M 345.565511 390.04 
L 428.831349 390.04 
L 428.831349 249.781921 
L 345.565511 249.781921 
z
" clip-path="url(#pf36d09ee44)" style="fill: #ff0000; opacity: 0.8"/>
   </g>
   <g id="patch_92">
    <path d="M 359.92169 390.04 
L 443.187528 390.04 
L 443.187528 313.342984 
L 359.92169 313.342984 
z
" clip-path="url(#pf36d09ee44)" style="fill: #ff0000; opacity: 0.8"/>
   </g>
   <g id="patch_93">
    <path d="M 374.277869 390.04 
L 457.543707 390.04 
L 457.543707 351.267752 
L 374.277869 351.267752 
z
" clip-path="url(#pf36d09ee44)" style="fill: #ff0000; opacity: 0.8"/>
   </g>
   <g id="patch_94">
    <path d="M 388.634048 390.04 
L 471.899886 390.04 
L 471.899886 362.496873 
L 388.634048 362.496873 
z
" clip-path="url(#pf36d09ee44)" style="fill: #ff0000; opacity: 0.8"/>
   </g>
   <g id="patch_95">
    <path d="M 402.990227 390.04 
L 486.256065 390.04 
L 486.256065 390.04 
L 402.990227 390.04 
z
" clip-path="url(#pf36d09ee44)" style="fill: #ff0000; opacity: 0.8"/>
   </g>
   <g id="patch_96">
    <path d="M 417.346406 390.04 
L 500.612244 390.04 
L 500.612244 370.971681 
L 417.346406 370.971681 
z
" clip-path="url(#pf36d09ee44)" style="fill: #ff0000; opacity: 0.8"/>
   </g>
   <g id="patch_97">
    <path d="M 431.702585 390.04 
L 514.968423 390.04 
L 514.968423 371.183551 
L 431.702585 371.183551 
z
" clip-path="url(#pf36d09ee44)" style="fill: #ff0000; opacity: 0.8"/>
   </g>
   <g id="patch_98">
    <path d="M 446.058764 390.04 
L 529.324602 390.04 
L 529.324602 373.725994 
L 446.058764 373.725994 
z
" clip-path="url(#pf36d09ee44)" style="fill: #ff0000; opacity: 0.8"/>
   </g>
   <g id="patch_99">
    <path d="M 460.414943 390.04 
L 543.680781 390.04 
L 543.680781 374.573475 
L 460.414943 374.573475 
z
" clip-path="url(#pf36d09ee44)" style="fill: #ff0000; opacity: 0.8"/>
   </g>
   <g id="patch_100">
    <path d="M 474.771122 390.04 
L 558.03696 390.04 
L 558.03696 374.149734 
L 474.771122 374.149734 
z
" clip-path="url(#pf36d09ee44)" style="fill: #ff0000; opacity: 0.8"/>
   </g>
   <g id="patch_101">
    <path d="M 489.127301 390.04 
L 572.393139 390.04 
L 572.393139 390.04 
L 489.127301 390.04 
z
" clip-path="url(#pf36d09ee44)" style="fill: #ff0000; opacity: 0.8"/>
   </g>
   <g id="patch_102">
    <path d="M 503.48348 390.04 
L 586.749318 390.04 
L 586.749318 374.361604 
L 503.48348 374.361604 
z
" clip-path="url(#pf36d09ee44)" style="fill: #ff0000; opacity: 0.8"/>
   </g>
   <g id="patch_103">
    <path d="M 517.839659 390.04 
L 601.105497 390.04 
L 601.105497 371.819162 
L 517.839659 371.819162 
z
" clip-path="url(#pf36d09ee44)" style="fill: #ff0000; opacity: 0.8"/>
   </g>
   <g id="patch_104">
    <path d="M 532.195838 390.04 
L 615.461676 390.04 
L 615.461676 375.632826 
L 532.195838 375.632826 
z
" clip-path="url(#pf36d09ee44)" style="fill: #ff0000; opacity: 0.8"/>
   </g>
   <g id="patch_105">
    <path d="M 546.552017 390.04 
L 629.817855 390.04 
L 629.817855 373.302253 
L 546.552017 373.302253 
z
" clip-path="url(#pf36d09ee44)" style="fill: #ff0000; opacity: 0.8"/>
   </g>
   <g id="patch_106">
    <path d="M 560.908196 390.04 
L 644.174034 390.04 
L 644.174034 370.33607 
L 560.908196 370.33607 
z
" clip-path="url(#pf36d09ee44)" style="fill: #ff0000; opacity: 0.8"/>
   </g>
   <g id="patch_107">
    <path d="M 575.264375 390.04 
L 658.530213 390.04 
L 658.530213 390.04 
L 575.264375 390.04 
z
" clip-path="url(#pf36d09ee44)" style="fill: #ff0000; opacity: 0.8"/>
   </g>
   <g id="patch_108">
    <path d="M 589.620554 390.04 
L 672.886392 390.04 
L 672.886392 362.708743 
L 589.620554 362.708743 
z
" clip-path="url(#pf36d09ee44)" style="fill: #ff0000; opacity: 0.8"/>
   </g>
   <g id="patch_109">
    <path d="M 603.976733 390.04 
L 687.242571 390.04 
L 687.242571 359.31882 
L 603.976733 359.31882 
z
" clip-path="url(#pf36d09ee44)" style="fill: #ff0000; opacity: 0.8"/>
   </g>
   <g id="patch_110">
    <path d="M 618.332912 390.04 
L 701.59875 390.04 
L 701.59875 354.445805 
L 618.332912 354.445805 
z
" clip-path="url(#pf36d09ee44)" style="fill: #ff0000; opacity: 0.8"/>
   </g>
   <g id="patch_111">
    <path d="M 632.689091 390.04 
L 715.954929 390.04 
L 715.954929 343.004813 
L 632.689091 343.004813 
z
" clip-path="url(#pf36d09ee44)" style="fill: #ff0000; opacity: 0.8"/>
   </g>
   <g id="patch_112">
    <path d="M 647.04527 390.04 
L 730.311108 390.04 
L 730.311108 331.775692 
L 647.04527 331.775692 
z
" clip-path="url(#pf36d09ee44)" style="fill: #ff0000; opacity: 0.8"/>
   </g>
   <g id="patch_113">
    <path d="M 661.401449 390.04 
L 744.667287 390.04 
L 744.667287 390.04 
L 661.401449 390.04 
z
" clip-path="url(#pf36d09ee44)" style="fill: #ff0000; opacity: 0.8"/>
   </g>
   <g id="patch_114">
    <path d="M 675.757628 390.04 
L 759.023466 390.04 
L 759.023466 303.173214 
L 675.757628 303.173214 
z
" clip-path="url(#pf36d09ee44)" style="fill: #ff0000; opacity: 0.8"/>
   </g>
   <g id="patch_115">
    <path d="M 690.113807 390.04 
L 773.379645 390.04 
L 773.379645 262.070393 
L 690.113807 262.070393 
z
" clip-path="url(#pf36d09ee44)" style="fill: #ff0000; opacity: 0.8"/>
   </g>
   <g id="patch_116">
    <path d="M 704.469986 390.04 
L 787.735824 390.04 
L 787.735824 191.517613 
L 704.469986 191.517613 
z
" clip-path="url(#pf36d09ee44)" style="fill: #ff0000; opacity: 0.8"/>
   </g>
   <g id="patch_117">
    <path d="M 718.826165 390.04 
L 802.092003 390.04 
L 802.092003 126.049719 
L 718.826165 126.049719 
z
" clip-path="url(#pf36d09ee44)" style="fill: #ff0000; opacity: 0.8"/>
   </g>
   <g id="patch_118">
    <path d="M 733.182344 390.04 
L 816.448182 390.04 
L 816.448182 113.973117 
L 733.182344 113.973117 
z
" clip-path="url(#pf36d09ee44)" style="fill: #ff0000; opacity: 0.8"/>
   </g>
   <g id="matplotlib.axis_1">
    <g id="xtick_1">
     <g id="line2d_1">
      <defs>
       <path id="ma5e8833203" d="M 0 0 
L 0 3.5 
" style="stroke: #000000; stroke-width: 0.8"/>
      </defs>
      <g>
       <use xlink:href="#ma5e8833203" x="136.683107" y="390.04" style="stroke: #000000; stroke-width: 0.8"/>
      </g>
     </g>
     <g id="text_1">
      <!-- −0.25 -->
      <g transform="translate(121.360451 404.638438) scale(0.1 -0.1)">
       <defs>
        <path id="DejaVuSans-2212" d="M 678 2272 
L 4684 2272 
L 4684 1741 
L 678 1741 
L 678 2272 
z
" transform="scale(0.015625)"/>
        <path id="DejaVuSans-30" d="M 2034 4250 
Q 1547 4250 1301 3770 
Q 1056 3291 1056 2328 
Q 1056 1369 1301 889 
Q 1547 409 2034 409 
Q 2525 409 2770 889 
Q 3016 1369 3016 2328 
Q 3016 3291 2770 3770 
Q 2525 4250 2034 4250 
z
M 2034 4750 
Q 2819 4750 3233 4129 
Q 3647 3509 3647 2328 
Q 3647 1150 3233 529 
Q 2819 -91 2034 -91 
Q 1250 -91 836 529 
Q 422 1150 422 2328 
Q 422 3509 836 4129 
Q 1250 4750 2034 4750 
z
" transform="scale(0.015625)"/>
        <path id="DejaVuSans-2e" d="M 684 794 
L 1344 794 
L 1344 0 
L 684 0 
L 684 794 
z
" transform="scale(0.015625)"/>
        <path id="DejaVuSans-32" d="M 1228 531 
L 3431 531 
L 3431 0 
L 469 0 
L 469 531 
Q 828 903 1448 1529 
Q 2069 2156 2228 2338 
Q 2531 2678 2651 2914 
Q 2772 3150 2772 3378 
Q 2772 3750 2511 3984 
Q 2250 4219 1831 4219 
Q 1534 4219 1204 4116 
Q 875 4013 500 3803 
L 500 4441 
Q 881 4594 1212 4672 
Q 1544 4750 1819 4750 
Q 2544 4750 2975 4387 
Q 3406 4025 3406 3419 
Q 3406 3131 3298 2873 
Q 3191 2616 2906 2266 
Q 2828 2175 2409 1742 
Q 1991 1309 1228 531 
z
" transform="scale(0.015625)"/>
        <path id="DejaVuSans-35" d="M 691 4666 
L 3169 4666 
L 3169 4134 
L 1269 4134 
L 1269 2991 
Q 1406 3038 1543 3061 
Q 1681 3084 1819 3084 
Q 2600 3084 3056 2656 
Q 3513 2228 3513 1497 
Q 3513 744 3044 326 
Q 2575 -91 1722 -91 
Q 1428 -91 1123 -41 
Q 819 9 494 109 
L 494 744 
Q 775 591 1075 516 
Q 1375 441 1709 441 
Q 2250 441 2565 725 
Q 2881 1009 2881 1497 
Q 2881 1984 2565 2268 
Q 2250 2553 1709 2553 
Q 1456 2553 1204 2497 
Q 953 2441 691 2322 
L 691 4666 
z
" transform="scale(0.015625)"/>
       </defs>
       <use xlink:href="#DejaVuSans-2212"/>
       <use xlink:href="#DejaVuSans-30" x="83.789062"/>
       <use xlink:href="#DejaVuSans-2e" x="147.412109"/>
       <use xlink:href="#DejaVuSans-32" x="179.199219"/>
       <use xlink:href="#DejaVuSans-35" x="242.822266"/>
      </g>
     </g>
    </g>
    <g id="xtick_2">
     <g id="line2d_2">
      <g>
       <use xlink:href="#ma5e8833203" x="240.765405" y="390.04" style="stroke: #000000; stroke-width: 0.8"/>
      </g>
     </g>
     <g id="text_2">
      <!-- 0.00 -->
      <g transform="translate(229.632592 404.638438) scale(0.1 -0.1)">
       <use xlink:href="#DejaVuSans-30"/>
       <use xlink:href="#DejaVuSans-2e" x="63.623047"/>
       <use xlink:href="#DejaVuSans-30" x="95.410156"/>
       <use xlink:href="#DejaVuSans-30" x="159.033203"/>
      </g>
     </g>
    </g>
    <g id="xtick_3">
     <g id="line2d_3">
      <g>
       <use xlink:href="#ma5e8833203" x="344.847702" y="390.04" style="stroke: #000000; stroke-width: 0.8"/>
      </g>
     </g>
     <g id="text_3">
      <!-- 0.25 -->
      <g transform="translate(333.71489 404.638438) scale(0.1 -0.1)">
       <use xlink:href="#DejaVuSans-30"/>
       <use xlink:href="#DejaVuSans-2e" x="63.623047"/>
       <use xlink:href="#DejaVuSans-32" x="95.410156"/>
       <use xlink:href="#DejaVuSans-35" x="159.033203"/>
      </g>
     </g>
    </g>
    <g id="xtick_4">
     <g id="line2d_4">
      <g>
       <use xlink:href="#ma5e8833203" x="448.93" y="390.04" style="stroke: #000000; stroke-width: 0.8"/>
      </g>
     </g>
     <g id="text_4">
      <!-- 0.50 -->
      <g transform="translate(437.797188 404.638438) scale(0.1 -0.1)">
       <use xlink:href="#DejaVuSans-30"/>
       <use xlink:href="#DejaVuSans-2e" x="63.623047"/>
       <use xlink:href="#DejaVuSans-35" x="95.410156"/>
       <use xlink:href="#DejaVuSans-30" x="159.033203"/>
      </g>
     </g>
    </g>
    <g id="xtick_5">
     <g id="line2d_5">
      <g>
       <use xlink:href="#ma5e8833203" x="553.012298" y="390.04" style="stroke: #000000; stroke-width: 0.8"/>
      </g>
     </g>
     <g id="text_5">
      <!-- 0.75 -->
      <g transform="translate(541.879485 404.638438) scale(0.1 -0.1)">
       <defs>
        <path id="DejaVuSans-37" d="M 525 4666 
L 3525 4666 
L 3525 4397 
L 1831 0 
L 1172 0 
L 2766 4134 
L 525 4134 
L 525 4666 
z
" transform="scale(0.015625)"/>
       </defs>
       <use xlink:href="#DejaVuSans-30"/>
       <use xlink:href="#DejaVuSans-2e" x="63.623047"/>
       <use xlink:href="#DejaVuSans-37" x="95.410156"/>
       <use xlink:href="#DejaVuSans-35" x="159.033203"/>
      </g>
     </g>
    </g>
    <g id="xtick_6">
     <g id="line2d_6">
      <g>
       <use xlink:href="#ma5e8833203" x="657.094595" y="390.04" style="stroke: #000000; stroke-width: 0.8"/>
      </g>
     </g>
     <g id="text_6">
      <!-- 1.00 -->
      <g transform="translate(645.961783 404.638438) scale(0.1 -0.1)">
       <defs>
        <path id="DejaVuSans-31" d="M 794 531 
L 1825 531 
L 1825 4091 
L 703 3866 
L 703 4441 
L 1819 4666 
L 2450 4666 
L 2450 531 
L 3481 531 
L 3481 0 
L 794 0 
L 794 531 
z
" transform="scale(0.015625)"/>
       </defs>
       <use xlink:href="#DejaVuSans-31"/>
       <use xlink:href="#DejaVuSans-2e" x="63.623047"/>
       <use xlink:href="#DejaVuSans-30" x="95.410156"/>
       <use xlink:href="#DejaVuSans-30" x="159.033203"/>
      </g>
     </g>
    </g>
    <g id="xtick_7">
     <g id="line2d_7">
      <g>
       <use xlink:href="#ma5e8833203" x="761.176893" y="390.04" style="stroke: #000000; stroke-width: 0.8"/>
      </g>
     </g>
     <g id="text_7">
      <!-- 1.25 -->
      <g transform="translate(750.04408 404.638438) scale(0.1 -0.1)">
       <use xlink:href="#DejaVuSans-31"/>
       <use xlink:href="#DejaVuSans-2e" x="63.623047"/>
       <use xlink:href="#DejaVuSans-32" x="95.410156"/>
       <use xlink:href="#DejaVuSans-35" x="159.033203"/>
      </g>
     </g>
    </g>
    <g id="text_8">
     <!-- Frequency -->
     <g transform="translate(423.100313 418.316562) scale(0.1 -0.1)">
      <defs>
       <path id="DejaVuSans-46" d="M 628 4666 
L 3309 4666 
L 3309 4134 
L 1259 4134 
L 1259 2759 
L 3109 2759 
L 3109 2228 
L 1259 2228 
L 1259 0 
L 628 0 
L 628 4666 
z
" transform="scale(0.015625)"/>
       <path id="DejaVuSans-72" d="M 2631 2963 
Q 2534 3019 2420 3045 
Q 2306 3072 2169 3072 
Q 1681 3072 1420 2755 
Q 1159 2438 1159 1844 
L 1159 0 
L 581 0 
L 581 3500 
L 1159 3500 
L 1159 2956 
Q 1341 3275 1631 3429 
Q 1922 3584 2338 3584 
Q 2397 3584 2469 3576 
Q 2541 3569 2628 3553 
L 2631 2963 
z
" transform="scale(0.015625)"/>
       <path id="DejaVuSans-65" d="M 3597 1894 
L 3597 1613 
L 953 1613 
Q 991 1019 1311 708 
Q 1631 397 2203 397 
Q 2534 397 2845 478 
Q 3156 559 3463 722 
L 3463 178 
Q 3153 47 2828 -22 
Q 2503 -91 2169 -91 
Q 1331 -91 842 396 
Q 353 884 353 1716 
Q 353 2575 817 3079 
Q 1281 3584 2069 3584 
Q 2775 3584 3186 3129 
Q 3597 2675 3597 1894 
z
M 3022 2063 
Q 3016 2534 2758 2815 
Q 2500 3097 2075 3097 
Q 1594 3097 1305 2825 
Q 1016 2553 972 2059 
L 3022 2063 
z
" transform="scale(0.015625)"/>
       <path id="DejaVuSans-71" d="M 947 1747 
Q 947 1113 1208 752 
Q 1469 391 1925 391 
Q 2381 391 2643 752 
Q 2906 1113 2906 1747 
Q 2906 2381 2643 2742 
Q 2381 3103 1925 3103 
Q 1469 3103 1208 2742 
Q 947 2381 947 1747 
z
M 2906 525 
Q 2725 213 2448 61 
Q 2172 -91 1784 -91 
Q 1150 -91 751 415 
Q 353 922 353 1747 
Q 353 2572 751 3078 
Q 1150 3584 1784 3584 
Q 2172 3584 2448 3432 
Q 2725 3281 2906 2969 
L 2906 3500 
L 3481 3500 
L 3481 -1331 
L 2906 -1331 
L 2906 525 
z
" transform="scale(0.015625)"/>
       <path id="DejaVuSans-75" d="M 544 1381 
L 544 3500 
L 1119 3500 
L 1119 1403 
Q 1119 906 1312 657 
Q 1506 409 1894 409 
Q 2359 409 2629 706 
Q 2900 1003 2900 1516 
L 2900 3500 
L 3475 3500 
L 3475 0 
L 2900 0 
L 2900 538 
Q 2691 219 2414 64 
Q 2138 -91 1772 -91 
Q 1169 -91 856 284 
Q 544 659 544 1381 
z
M 1991 3584 
L 1991 3584 
z
" transform="scale(0.015625)"/>
       <path id="DejaVuSans-6e" d="M 3513 2113 
L 3513 0 
L 2938 0 
L 2938 2094 
Q 2938 2591 2744 2837 
Q 2550 3084 2163 3084 
Q 1697 3084 1428 2787 
Q 1159 2491 1159 1978 
L 1159 0 
L 581 0 
L 581 3500 
L 1159 3500 
L 1159 2956 
Q 1366 3272 1645 3428 
Q 1925 3584 2291 3584 
Q 2894 3584 3203 3211 
Q 3513 2838 3513 2113 
z
" transform="scale(0.015625)"/>
       <path id="DejaVuSans-63" d="M 3122 3366 
L 3122 2828 
Q 2878 2963 2633 3030 
Q 2388 3097 2138 3097 
Q 1578 3097 1268 2742 
Q 959 2388 959 1747 
Q 959 1106 1268 751 
Q 1578 397 2138 397 
Q 2388 397 2633 464 
Q 2878 531 3122 666 
L 3122 134 
Q 2881 22 2623 -34 
Q 2366 -91 2075 -91 
Q 1284 -91 818 406 
Q 353 903 353 1747 
Q 353 2603 823 3093 
Q 1294 3584 2113 3584 
Q 2378 3584 2631 3529 
Q 2884 3475 3122 3366 
z
" transform="scale(0.015625)"/>
       <path id="DejaVuSans-79" d="M 2059 -325 
Q 1816 -950 1584 -1140 
Q 1353 -1331 966 -1331 
L 506 -1331 
L 506 -850 
L 844 -850 
Q 1081 -850 1212 -737 
Q 1344 -625 1503 -206 
L 1606 56 
L 191 3500 
L 800 3500 
L 1894 763 
L 2988 3500 
L 3597 3500 
L 2059 -325 
z
" transform="scale(0.015625)"/>
      </defs>
      <use xlink:href="#DejaVuSans-46"/>
      <use xlink:href="#DejaVuSans-72" x="50.269531"/>
      <use xlink:href="#DejaVuSans-65" x="89.132812"/>
      <use xlink:href="#DejaVuSans-71" x="150.65625"/>
      <use xlink:href="#DejaVuSans-75" x="214.132812"/>
      <use xlink:href="#DejaVuSans-65" x="277.511719"/>
      <use xlink:href="#DejaVuSans-6e" x="339.035156"/>
      <use xlink:href="#DejaVuSans-63" x="402.414062"/>
      <use xlink:href="#DejaVuSans-79" x="457.394531"/>
     </g>
    </g>
   </g>
   <g id="matplotlib.axis_2">
    <g id="ytick_1">
     <g id="line2d_8">
      <defs>
       <path id="m431261078e" d="M 0 0 
L -3.5 0 
" style="stroke: #000000; stroke-width: 0.8"/>
      </defs>
      <g>
       <use xlink:href="#m431261078e" x="44.66" y="390.04" style="stroke: #000000; stroke-width: 0.8"/>
      </g>
     </g>
     <g id="text_9">
      <!-- 0 -->
      <g transform="translate(31.2975 393.839219) scale(0.1 -0.1)">
       <use xlink:href="#DejaVuSans-30"/>
      </g>
     </g>
    </g>
    <g id="ytick_2">
     <g id="line2d_9">
      <g>
       <use xlink:href="#m431261078e" x="44.66" y="309.74119" style="stroke: #000000; stroke-width: 0.8"/>
      </g>
     </g>
     <g id="text_10">
      <!-- 5 -->
      <g transform="translate(31.2975 313.540409) scale(0.1 -0.1)">
       <use xlink:href="#DejaVuSans-35"/>
      </g>
     </g>
    </g>
    <g id="ytick_3">
     <g id="line2d_10">
      <g>
       <use xlink:href="#m431261078e" x="44.66" y="229.442381" style="stroke: #000000; stroke-width: 0.8"/>
      </g>
     </g>
     <g id="text_11">
      <!-- 10 -->
      <g transform="translate(24.935 233.2416) scale(0.1 -0.1)">
       <use xlink:href="#DejaVuSans-31"/>
       <use xlink:href="#DejaVuSans-30" x="63.623047"/>
      </g>
     </g>
    </g>
    <g id="ytick_4">
     <g id="line2d_11">
      <g>
       <use xlink:href="#m431261078e" x="44.66" y="149.143571" style="stroke: #000000; stroke-width: 0.8"/>
      </g>
     </g>
     <g id="text_12">
      <!-- 15 -->
      <g transform="translate(24.935 152.94279) scale(0.1 -0.1)">
       <use xlink:href="#DejaVuSans-31"/>
       <use xlink:href="#DejaVuSans-35" x="63.623047"/>
      </g>
     </g>
    </g>
    <g id="ytick_5">
     <g id="line2d_12">
      <g>
       <use xlink:href="#m431261078e" x="44.66" y="68.844762" style="stroke: #000000; stroke-width: 0.8"/>
      </g>
     </g>
     <g id="text_13">
      <!-- 20 -->
      <g transform="translate(24.935 72.643981) scale(0.1 -0.1)">
       <use xlink:href="#DejaVuSans-32"/>
       <use xlink:href="#DejaVuSans-30" x="63.623047"/>
      </g>
     </g>
    </g>
    <g id="text_14">
     <!-- Percentage of insertions -->
     <g transform="translate(18.855312 268.336875) rotate(-90) scale(0.1 -0.1)">
      <defs>
       <path id="DejaVuSans-50" d="M 1259 4147 
L 1259 2394 
L 2053 2394 
Q 2494 2394 2734 2622 
Q 2975 2850 2975 3272 
Q 2975 3691 2734 3919 
Q 2494 4147 2053 4147 
L 1259 4147 
z
M 628 4666 
L 2053 4666 
Q 2838 4666 3239 4311 
Q 3641 3956 3641 3272 
Q 3641 2581 3239 2228 
Q 2838 1875 2053 1875 
L 1259 1875 
L 1259 0 
L 628 0 
L 628 4666 
z
" transform="scale(0.015625)"/>
       <path id="DejaVuSans-74" d="M 1172 4494 
L 1172 3500 
L 2356 3500 
L 2356 3053 
L 1172 3053 
L 1172 1153 
Q 1172 725 1289 603 
Q 1406 481 1766 481 
L 2356 481 
L 2356 0 
L 1766 0 
Q 1100 0 847 248 
Q 594 497 594 1153 
L 594 3053 
L 172 3053 
L 172 3500 
L 594 3500 
L 594 4494 
L 1172 4494 
z
" transform="scale(0.015625)"/>
       <path id="DejaVuSans-61" d="M 2194 1759 
Q 1497 1759 1228 1600 
Q 959 1441 959 1056 
Q 959 750 1161 570 
Q 1363 391 1709 391 
Q 2188 391 2477 730 
Q 2766 1069 2766 1631 
L 2766 1759 
L 2194 1759 
z
M 3341 1997 
L 3341 0 
L 2766 0 
L 2766 531 
Q 2569 213 2275 61 
Q 1981 -91 1556 -91 
Q 1019 -91 701 211 
Q 384 513 384 1019 
Q 384 1609 779 1909 
Q 1175 2209 1959 2209 
L 2766 2209 
L 2766 2266 
Q 2766 2663 2505 2880 
Q 2244 3097 1772 3097 
Q 1472 3097 1187 3025 
Q 903 2953 641 2809 
L 641 3341 
Q 956 3463 1253 3523 
Q 1550 3584 1831 3584 
Q 2591 3584 2966 3190 
Q 3341 2797 3341 1997 
z
" transform="scale(0.015625)"/>
       <path id="DejaVuSans-67" d="M 2906 1791 
Q 2906 2416 2648 2759 
Q 2391 3103 1925 3103 
Q 1463 3103 1205 2759 
Q 947 2416 947 1791 
Q 947 1169 1205 825 
Q 1463 481 1925 481 
Q 2391 481 2648 825 
Q 2906 1169 2906 1791 
z
M 3481 434 
Q 3481 -459 3084 -895 
Q 2688 -1331 1869 -1331 
Q 1566 -1331 1297 -1286 
Q 1028 -1241 775 -1147 
L 775 -588 
Q 1028 -725 1275 -790 
Q 1522 -856 1778 -856 
Q 2344 -856 2625 -561 
Q 2906 -266 2906 331 
L 2906 616 
Q 2728 306 2450 153 
Q 2172 0 1784 0 
Q 1141 0 747 490 
Q 353 981 353 1791 
Q 353 2603 747 3093 
Q 1141 3584 1784 3584 
Q 2172 3584 2450 3431 
Q 2728 3278 2906 2969 
L 2906 3500 
L 3481 3500 
L 3481 434 
z
" transform="scale(0.015625)"/>
       <path id="DejaVuSans-20" transform="scale(0.015625)"/>
       <path id="DejaVuSans-6f" d="M 1959 3097 
Q 1497 3097 1228 2736 
Q 959 2375 959 1747 
Q 959 1119 1226 758 
Q 1494 397 1959 397 
Q 2419 397 2687 759 
Q 2956 1122 2956 1747 
Q 2956 2369 2687 2733 
Q 2419 3097 1959 3097 
z
M 1959 3584 
Q 2709 3584 3137 3096 
Q 3566 2609 3566 1747 
Q 3566 888 3137 398 
Q 2709 -91 1959 -91 
Q 1206 -91 779 398 
Q 353 888 353 1747 
Q 353 2609 779 3096 
Q 1206 3584 1959 3584 
z
" transform="scale(0.015625)"/>
       <path id="DejaVuSans-66" d="M 2375 4863 
L 2375 4384 
L 1825 4384 
Q 1516 4384 1395 4259 
Q 1275 4134 1275 3809 
L 1275 3500 
L 2222 3500 
L 2222 3053 
L 1275 3053 
L 1275 0 
L 697 0 
L 697 3053 
L 147 3053 
L 147 3500 
L 697 3500 
L 697 3744 
Q 697 4328 969 4595 
Q 1241 4863 1831 4863 
L 2375 4863 
z
" transform="scale(0.015625)"/>
       <path id="DejaVuSans-69" d="M 603 3500 
L 1178 3500 
L 1178 0 
L 603 0 
L 603 3500 
z
M 603 4863 
L 1178 4863 
L 1178 4134 
L 603 4134 
L 603 4863 
z
" transform="scale(0.015625)"/>
       <path id="DejaVuSans-73" d="M 2834 3397 
L 2834 2853 
Q 2591 2978 2328 3040 
Q 2066 3103 1784 3103 
Q 1356 3103 1142 2972 
Q 928 2841 928 2578 
Q 928 2378 1081 2264 
Q 1234 2150 1697 2047 
L 1894 2003 
Q 2506 1872 2764 1633 
Q 3022 1394 3022 966 
Q 3022 478 2636 193 
Q 2250 -91 1575 -91 
Q 1294 -91 989 -36 
Q 684 19 347 128 
L 347 722 
Q 666 556 975 473 
Q 1284 391 1588 391 
Q 1994 391 2212 530 
Q 2431 669 2431 922 
Q 2431 1156 2273 1281 
Q 2116 1406 1581 1522 
L 1381 1569 
Q 847 1681 609 1914 
Q 372 2147 372 2553 
Q 372 3047 722 3315 
Q 1072 3584 1716 3584 
Q 2034 3584 2315 3537 
Q 2597 3491 2834 3397 
z
" transform="scale(0.015625)"/>
      </defs>
      <use xlink:href="#DejaVuSans-50"/>
      <use xlink:href="#DejaVuSans-65" x="56.677734"/>
      <use xlink:href="#DejaVuSans-72" x="118.201172"/>
      <use xlink:href="#DejaVuSans-63" x="157.064453"/>
      <use xlink:href="#DejaVuSans-65" x="212.044922"/>
      <use xlink:href="#DejaVuSans-6e" x="273.568359"/>
      <use xlink:href="#DejaVuSans-74" x="336.947266"/>
      <use xlink:href="#DejaVuSans-61" x="376.15625"/>
      <use xlink:href="#DejaVuSans-67" x="437.435547"/>
      <use xlink:href="#DejaVuSans-65" x="500.912109"/>
      <use xlink:href="#DejaVuSans-20" x="562.435547"/>
      <use xlink:href="#DejaVuSans-6f" x="594.222656"/>
      <use xlink:href="#DejaVuSans-66" x="655.404297"/>
      <use xlink:href="#DejaVuSans-20" x="690.609375"/>
      <use xlink:href="#DejaVuSans-69" x="722.396484"/>
      <use xlink:href="#DejaVuSans-6e" x="750.179688"/>
      <use xlink:href="#DejaVuSans-73" x="813.558594"/>
      <use xlink:href="#DejaVuSans-65" x="865.658203"/>
      <use xlink:href="#DejaVuSans-72" x="927.181641"/>
      <use xlink:href="#DejaVuSans-74" x="968.294922"/>
      <use xlink:href="#DejaVuSans-69" x="1007.503906"/>
      <use xlink:href="#DejaVuSans-6f" x="1035.287109"/>
      <use xlink:href="#DejaVuSans-6e" x="1096.46875"/>
      <use xlink:href="#DejaVuSans-73" x="1159.847656"/>
     </g>
    </g>
   </g>
   <g id="patch_119">
    <path d="M 44.66 390.04 
L 44.66 25.44 
" style="fill: none; stroke: #000000; stroke-width: 0.8; stroke-linejoin: miter; stroke-linecap: square"/>
   </g>
   <g id="patch_120">
    <path d="M 853.2 390.04 
L 853.2 25.44 
" style="fill: none; stroke: #000000; stroke-width: 0.8; stroke-linejoin: miter; stroke-linecap: square"/>
   </g>
   <g id="patch_121">
    <path d="M 44.66 390.04 
L 853.2 390.04 
" style="fill: none; stroke: #000000; stroke-width: 0.8; stroke-linejoin: miter; stroke-linecap: square"/>
   </g>
   <g id="patch_122">
    <path d="M 44.66 25.44 
L 853.2 25.44 
" style="fill: none; stroke: #000000; stroke-width: 0.8; stroke-linejoin: miter; stroke-linecap: square"/>
   </g>
   <g id="text_15">
    <!-- Site Frequency Spectrum for Colombia -->
    <g transform="translate(333.265938 19.44) scale(0.12 -0.12)">
     <defs>
      <path id="DejaVuSans-53" d="M 3425 4513 
L 3425 3897 
Q 3066 4069 2747 4153 
Q 2428 4238 2131 4238 
Q 1616 4238 1336 4038 
Q 1056 3838 1056 3469 
Q 1056 3159 1242 3001 
Q 1428 2844 1947 2747 
L 2328 2669 
Q 3034 2534 3370 2195 
Q 3706 1856 3706 1288 
Q 3706 609 3251 259 
Q 2797 -91 1919 -91 
Q 1588 -91 1214 -16 
Q 841 59 441 206 
L 441 856 
Q 825 641 1194 531 
Q 1563 422 1919 422 
Q 2459 422 2753 634 
Q 3047 847 3047 1241 
Q 3047 1584 2836 1778 
Q 2625 1972 2144 2069 
L 1759 2144 
Q 1053 2284 737 2584 
Q 422 2884 422 3419 
Q 422 4038 858 4394 
Q 1294 4750 2059 4750 
Q 2388 4750 2728 4690 
Q 3069 4631 3425 4513 
z
" transform="scale(0.015625)"/>
      <path id="DejaVuSans-70" d="M 1159 525 
L 1159 -1331 
L 581 -1331 
L 581 3500 
L 1159 3500 
L 1159 2969 
Q 1341 3281 1617 3432 
Q 1894 3584 2278 3584 
Q 2916 3584 3314 3078 
Q 3713 2572 3713 1747 
Q 3713 922 3314 415 
Q 2916 -91 2278 -91 
Q 1894 -91 1617 61 
Q 1341 213 1159 525 
z
M 3116 1747 
Q 3116 2381 2855 2742 
Q 2594 3103 2138 3103 
Q 1681 3103 1420 2742 
Q 1159 2381 1159 1747 
Q 1159 1113 1420 752 
Q 1681 391 2138 391 
Q 2594 391 2855 752 
Q 3116 1113 3116 1747 
z
" transform="scale(0.015625)"/>
      <path id="DejaVuSans-6d" d="M 3328 2828 
Q 3544 3216 3844 3400 
Q 4144 3584 4550 3584 
Q 5097 3584 5394 3201 
Q 5691 2819 5691 2113 
L 5691 0 
L 5113 0 
L 5113 2094 
Q 5113 2597 4934 2840 
Q 4756 3084 4391 3084 
Q 3944 3084 3684 2787 
Q 3425 2491 3425 1978 
L 3425 0 
L 2847 0 
L 2847 2094 
Q 2847 2600 2669 2842 
Q 2491 3084 2119 3084 
Q 1678 3084 1418 2786 
Q 1159 2488 1159 1978 
L 1159 0 
L 581 0 
L 581 3500 
L 1159 3500 
L 1159 2956 
Q 1356 3278 1631 3431 
Q 1906 3584 2284 3584 
Q 2666 3584 2933 3390 
Q 3200 3197 3328 2828 
z
" transform="scale(0.015625)"/>
      <path id="DejaVuSans-43" d="M 4122 4306 
L 4122 3641 
Q 3803 3938 3442 4084 
Q 3081 4231 2675 4231 
Q 1875 4231 1450 3742 
Q 1025 3253 1025 2328 
Q 1025 1406 1450 917 
Q 1875 428 2675 428 
Q 3081 428 3442 575 
Q 3803 722 4122 1019 
L 4122 359 
Q 3791 134 3420 21 
Q 3050 -91 2638 -91 
Q 1578 -91 968 557 
Q 359 1206 359 2328 
Q 359 3453 968 4101 
Q 1578 4750 2638 4750 
Q 3056 4750 3426 4639 
Q 3797 4528 4122 4306 
z
" transform="scale(0.015625)"/>
      <path id="DejaVuSans-6c" d="M 603 4863 
L 1178 4863 
L 1178 0 
L 603 0 
L 603 4863 
z
" transform="scale(0.015625)"/>
      <path id="DejaVuSans-62" d="M 3116 1747 
Q 3116 2381 2855 2742 
Q 2594 3103 2138 3103 
Q 1681 3103 1420 2742 
Q 1159 2381 1159 1747 
Q 1159 1113 1420 752 
Q 1681 391 2138 391 
Q 2594 391 2855 752 
Q 3116 1113 3116 1747 
z
M 1159 2969 
Q 1341 3281 1617 3432 
Q 1894 3584 2278 3584 
Q 2916 3584 3314 3078 
Q 3713 2572 3713 1747 
Q 3713 922 3314 415 
Q 2916 -91 2278 -91 
Q 1894 -91 1617 61 
Q 1341 213 1159 525 
L 1159 0 
L 581 0 
L 581 4863 
L 1159 4863 
L 1159 2969 
z
" transform="scale(0.015625)"/>
     </defs>
     <use xlink:href="#DejaVuSans-53"/>
     <use xlink:href="#DejaVuSans-69" x="63.476562"/>
     <use xlink:href="#DejaVuSans-74" x="91.259766"/>
     <use xlink:href="#DejaVuSans-65" x="130.46875"/>
     <use xlink:href="#DejaVuSans-20" x="191.992188"/>
     <use xlink:href="#DejaVuSans-46" x="223.779297"/>
     <use xlink:href="#DejaVuSans-72" x="274.048828"/>
     <use xlink:href="#DejaVuSans-65" x="312.912109"/>
     <use xlink:href="#DejaVuSans-71" x="374.435547"/>
     <use xlink:href="#DejaVuSans-75" x="437.912109"/>
     <use xlink:href="#DejaVuSans-65" x="501.291016"/>
     <use xlink:href="#DejaVuSans-6e" x="562.814453"/>
     <use xlink:href="#DejaVuSans-63" x="626.193359"/>
     <use xlink:href="#DejaVuSans-79" x="681.173828"/>
     <use xlink:href="#DejaVuSans-20" x="740.353516"/>
     <use xlink:href="#DejaVuSans-53" x="772.140625"/>
     <use xlink:href="#DejaVuSans-70" x="835.617188"/>
     <use xlink:href="#DejaVuSans-65" x="899.09375"/>
     <use xlink:href="#DejaVuSans-63" x="960.617188"/>
     <use xlink:href="#DejaVuSans-74" x="1015.597656"/>
     <use xlink:href="#DejaVuSans-72" x="1054.806641"/>
     <use xlink:href="#DejaVuSans-75" x="1095.919922"/>
     <use xlink:href="#DejaVuSans-6d" x="1159.298828"/>
     <use xlink:href="#DejaVuSans-20" x="1256.710938"/>
     <use xlink:href="#DejaVuSans-66" x="1288.498047"/>
     <use xlink:href="#DejaVuSans-6f" x="1323.703125"/>
     <use xlink:href="#DejaVuSans-72" x="1384.884766"/>
     <use xlink:href="#DejaVuSans-20" x="1425.998047"/>
     <use xlink:href="#DejaVuSans-43" x="1457.785156"/>
     <use xlink:href="#DejaVuSans-6f" x="1527.609375"/>
     <use xlink:href="#DejaVuSans-6c" x="1588.791016"/>
     <use xlink:href="#DejaVuSans-6f" x="1616.574219"/>
     <use xlink:href="#DejaVuSans-6d" x="1677.755859"/>
     <use xlink:href="#DejaVuSans-62" x="1775.167969"/>
     <use xlink:href="#DejaVuSans-69" x="1838.644531"/>
     <use xlink:href="#DejaVuSans-61" x="1866.427734"/>
    </g>
   </g>
   <g id="legend_1">
    <g id="patch_123">
     <path d="M 683.282812 92.1525 
L 846.2 92.1525 
Q 848.2 92.1525 848.2 90.1525 
L 848.2 32.44 
Q 848.2 30.44 846.2 30.44 
L 683.282812 30.44 
Q 681.282812 30.44 681.282812 32.44 
L 681.282812 90.1525 
Q 681.282812 92.1525 683.282812 92.1525 
z
" style="fill: #ffffff; opacity: 0.8; stroke: #cccccc; stroke-linejoin: miter"/>
    </g>
    <g id="patch_124">
     <path d="M 685.282812 42.038438 
L 705.282812 42.038438 
L 705.282812 35.038438 
L 685.282812 35.038438 
z
" style="fill: #0000ff; opacity: 0.8"/>
    </g>
    <g id="text_16">
     <!-- overlaping rep exons -->
     <g transform="translate(713.282812 42.038438) scale(0.1 -0.1)">
      <defs>
       <path id="DejaVuSans-76" d="M 191 3500 
L 800 3500 
L 1894 563 
L 2988 3500 
L 3597 3500 
L 2284 0 
L 1503 0 
L 191 3500 
z
" transform="scale(0.015625)"/>
       <path id="DejaVuSans-78" d="M 3513 3500 
L 2247 1797 
L 3578 0 
L 2900 0 
L 1881 1375 
L 863 0 
L 184 0 
L 1544 1831 
L 300 3500 
L 978 3500 
L 1906 2253 
L 2834 3500 
L 3513 3500 
z
" transform="scale(0.015625)"/>
      </defs>
      <use xlink:href="#DejaVuSans-6f"/>
      <use xlink:href="#DejaVuSans-76" x="61.181641"/>
      <use xlink:href="#DejaVuSans-65" x="120.361328"/>
      <use xlink:href="#DejaVuSans-72" x="181.884766"/>
      <use xlink:href="#DejaVuSans-6c" x="222.998047"/>
      <use xlink:href="#DejaVuSans-61" x="250.78125"/>
      <use xlink:href="#DejaVuSans-70" x="312.060547"/>
      <use xlink:href="#DejaVuSans-69" x="375.537109"/>
      <use xlink:href="#DejaVuSans-6e" x="403.320312"/>
      <use xlink:href="#DejaVuSans-67" x="466.699219"/>
      <use xlink:href="#DejaVuSans-20" x="530.175781"/>
      <use xlink:href="#DejaVuSans-72" x="561.962891"/>
      <use xlink:href="#DejaVuSans-65" x="600.826172"/>
      <use xlink:href="#DejaVuSans-70" x="662.349609"/>
      <use xlink:href="#DejaVuSans-20" x="725.826172"/>
      <use xlink:href="#DejaVuSans-65" x="757.613281"/>
      <use xlink:href="#DejaVuSans-78" x="817.386719"/>
      <use xlink:href="#DejaVuSans-6f" x="873.441406"/>
      <use xlink:href="#DejaVuSans-6e" x="934.623047"/>
      <use xlink:href="#DejaVuSans-73" x="998.001953"/>
     </g>
    </g>
    <g id="patch_125">
     <path d="M 685.282812 56.716563 
L 705.282812 56.716563 
L 705.282812 49.716563 
L 685.282812 49.716563 
z
" style="fill: #008000; opacity: 0.8"/>
    </g>
    <g id="text_17">
     <!-- overlapping exons not rep -->
     <g transform="translate(713.282812 56.716563) scale(0.1 -0.1)">
      <use xlink:href="#DejaVuSans-6f"/>
      <use xlink:href="#DejaVuSans-76" x="61.181641"/>
      <use xlink:href="#DejaVuSans-65" x="120.361328"/>
      <use xlink:href="#DejaVuSans-72" x="181.884766"/>
      <use xlink:href="#DejaVuSans-6c" x="222.998047"/>
      <use xlink:href="#DejaVuSans-61" x="250.78125"/>
      <use xlink:href="#DejaVuSans-70" x="312.060547"/>
      <use xlink:href="#DejaVuSans-70" x="375.537109"/>
      <use xlink:href="#DejaVuSans-69" x="439.013672"/>
      <use xlink:href="#DejaVuSans-6e" x="466.796875"/>
      <use xlink:href="#DejaVuSans-67" x="530.175781"/>
      <use xlink:href="#DejaVuSans-20" x="593.652344"/>
      <use xlink:href="#DejaVuSans-65" x="625.439453"/>
      <use xlink:href="#DejaVuSans-78" x="685.212891"/>
      <use xlink:href="#DejaVuSans-6f" x="741.267578"/>
      <use xlink:href="#DejaVuSans-6e" x="802.449219"/>
      <use xlink:href="#DejaVuSans-73" x="865.828125"/>
      <use xlink:href="#DejaVuSans-20" x="917.927734"/>
      <use xlink:href="#DejaVuSans-6e" x="949.714844"/>
      <use xlink:href="#DejaVuSans-6f" x="1013.09375"/>
      <use xlink:href="#DejaVuSans-74" x="1074.275391"/>
      <use xlink:href="#DejaVuSans-20" x="1113.484375"/>
      <use xlink:href="#DejaVuSans-72" x="1145.271484"/>
      <use xlink:href="#DejaVuSans-65" x="1184.134766"/>
      <use xlink:href="#DejaVuSans-70" x="1245.658203"/>
     </g>
    </g>
    <g id="patch_126">
     <path d="M 685.282812 71.394688 
L 705.282812 71.394688 
L 705.282812 64.394688 
L 685.282812 64.394688 
z
" style="fill: #ffa500; opacity: 0.8"/>
    </g>
    <g id="text_18">
     <!-- overlapping rep not exon -->
     <g transform="translate(713.282812 71.394688) scale(0.1 -0.1)">
      <use xlink:href="#DejaVuSans-6f"/>
      <use xlink:href="#DejaVuSans-76" x="61.181641"/>
      <use xlink:href="#DejaVuSans-65" x="120.361328"/>
      <use xlink:href="#DejaVuSans-72" x="181.884766"/>
      <use xlink:href="#DejaVuSans-6c" x="222.998047"/>
      <use xlink:href="#DejaVuSans-61" x="250.78125"/>
      <use xlink:href="#DejaVuSans-70" x="312.060547"/>
      <use xlink:href="#DejaVuSans-70" x="375.537109"/>
      <use xlink:href="#DejaVuSans-69" x="439.013672"/>
      <use xlink:href="#DejaVuSans-6e" x="466.796875"/>
      <use xlink:href="#DejaVuSans-67" x="530.175781"/>
      <use xlink:href="#DejaVuSans-20" x="593.652344"/>
      <use xlink:href="#DejaVuSans-72" x="625.439453"/>
      <use xlink:href="#DejaVuSans-65" x="664.302734"/>
      <use xlink:href="#DejaVuSans-70" x="725.826172"/>
      <use xlink:href="#DejaVuSans-20" x="789.302734"/>
      <use xlink:href="#DejaVuSans-6e" x="821.089844"/>
      <use xlink:href="#DejaVuSans-6f" x="884.46875"/>
      <use xlink:href="#DejaVuSans-74" x="945.650391"/>
      <use xlink:href="#DejaVuSans-20" x="984.859375"/>
      <use xlink:href="#DejaVuSans-65" x="1016.646484"/>
      <use xlink:href="#DejaVuSans-78" x="1076.419922"/>
      <use xlink:href="#DejaVuSans-6f" x="1132.474609"/>
      <use xlink:href="#DejaVuSans-6e" x="1193.65625"/>
     </g>
    </g>
    <g id="patch_127">
     <path d="M 685.282812 86.072813 
L 705.282812 86.072813 
L 705.282812 79.072813 
L 685.282812 79.072813 
z
" style="fill: #ff0000; opacity: 0.8"/>
    </g>
    <g id="text_19">
     <!-- not overlapping exon rep -->
     <g transform="translate(713.282812 86.072813) scale(0.1 -0.1)">
      <use xlink:href="#DejaVuSans-6e"/>
      <use xlink:href="#DejaVuSans-6f" x="63.378906"/>
      <use xlink:href="#DejaVuSans-74" x="124.560547"/>
      <use xlink:href="#DejaVuSans-20" x="163.769531"/>
      <use xlink:href="#DejaVuSans-6f" x="195.556641"/>
      <use xlink:href="#DejaVuSans-76" x="256.738281"/>
      <use xlink:href="#DejaVuSans-65" x="315.917969"/>
      <use xlink:href="#DejaVuSans-72" x="377.441406"/>
      <use xlink:href="#DejaVuSans-6c" x="418.554688"/>
      <use xlink:href="#DejaVuSans-61" x="446.337891"/>
      <use xlink:href="#DejaVuSans-70" x="507.617188"/>
      <use xlink:href="#DejaVuSans-70" x="571.09375"/>
      <use xlink:href="#DejaVuSans-69" x="634.570312"/>
      <use xlink:href="#DejaVuSans-6e" x="662.353516"/>
      <use xlink:href="#DejaVuSans-67" x="725.732422"/>
      <use xlink:href="#DejaVuSans-20" x="789.208984"/>
      <use xlink:href="#DejaVuSans-65" x="820.996094"/>
      <use xlink:href="#DejaVuSans-78" x="880.769531"/>
      <use xlink:href="#DejaVuSans-6f" x="936.824219"/>
      <use xlink:href="#DejaVuSans-6e" x="998.005859"/>
      <use xlink:href="#DejaVuSans-20" x="1061.384766"/>
      <use xlink:href="#DejaVuSans-72" x="1093.171875"/>
      <use xlink:href="#DejaVuSans-65" x="1132.035156"/>
      <use xlink:href="#DejaVuSans-70" x="1193.558594"/>
     </g>
    </g>
   </g>
  </g>
 </g>
 <defs>
  <clipPath id="pf36d09ee44">
   <rect x="44.66" y="25.44" width="808.54" height="364.6"/>
  </clipPath>
 </defs>
</svg>
