<?xml version="1.0" encoding="utf-8" standalone="no"?>
<!DOCTYPE svg PUBLIC "-//W3C//DTD SVG 1.1//EN"
  "http://www.w3.org/Graphics/SVG/1.1/DTD/svg11.dtd">
<svg xmlns:xlink="http://www.w3.org/1999/xlink" width="864pt" height="576pt" viewBox="0 0 864 576" xmlns="http://www.w3.org/2000/svg" version="1.1">
 <metadata>
  <rdf:RDF xmlns:dc="http://purl.org/dc/elements/1.1/" xmlns:cc="http://creativecommons.org/ns#" xmlns:rdf="http://www.w3.org/1999/02/22-rdf-syntax-ns#">
   <cc:Work>
    <dc:type rdf:resource="http://purl.org/dc/dcmitype/StillImage"/>
    <dc:date>2025-07-13T10:21:58.678513</dc:date>
    <dc:format>image/svg+xml</dc:format>
    <dc:creator>
     <cc:Agent>
      <dc:title>Matplotlib v3.9.1, https://matplotlib.org/</dc:title>
     </cc:Agent>
    </dc:creator>
   </cc:Work>
  </rdf:RDF>
 </metadata>
 <defs>
  <style type="text/css">*{stroke-linejoin: round; stroke-linecap: butt}</style>
 </defs>
 <g id="figure_1">
  <g id="patch_1">
   <path d="M 0 576 
L 864 576 
L 864 0 
L 0 0 
z
" style="fill: #ffffff"/>
  </g>
  <g id="axes_1">
   <g id="patch_2">
    <path d="M 79.521777 465.443994 
L 600.31 465.443994 
L 600.31 28.32 
L 79.521777 28.32 
z
" style="fill: #ffffff"/>
   </g>
   <g id="patch_3">
    <path d="M 103.193969 109309.318398 
L 108.125675 109309.318398 
L 108.125675 37.18981 
L 103.193969 37.18981 
z
" clip-path="url(#p3ded3e7484)" style="fill: #8a2be2"/>
   </g>
   <g id="patch_4">
    <path d="M 152.511035 109309.318398 
L 157.442742 109309.318398 
L 157.442742 132.236807 
L 152.511035 132.236807 
z
" clip-path="url(#p3ded3e7484)" style="fill: #8a2be2"/>
   </g>
   <g id="patch_5">
    <path d="M 201.828102 109309.318398 
L 206.759808 109309.318398 
L 206.759808 186.836229 
L 201.828102 186.836229 
z
" clip-path="url(#p3ded3e7484)" style="fill: #8a2be2"/>
   </g>
   <g id="patch_6">
    <path d="M 251.145168 109309.318398 
L 256.076875 109309.318398 
L 256.076875 237.821843 
L 251.145168 237.821843 
z
" clip-path="url(#p3ded3e7484)" style="fill: #8a2be2"/>
   </g>
   <g id="patch_7">
    <path d="M 300.462235 109309.318398 
L 305.393942 109309.318398 
L 305.393942 267.250026 
L 300.462235 267.250026 
z
" clip-path="url(#p3ded3e7484)" style="fill: #8a2be2"/>
   </g>
   <g id="patch_8">
    <path d="M 349.779302 109309.318398 
L 354.711008 109309.318398 
L 354.711008 307.775176 
L 349.779302 307.775176 
z
" clip-path="url(#p3ded3e7484)" style="fill: #8a2be2"/>
   </g>
   <g id="patch_9">
    <path d="M 399.096368 109309.318398 
L 404.028075 109309.318398 
L 404.028075 358.023686 
L 399.096368 358.023686 
z
" clip-path="url(#p3ded3e7484)" style="fill: #8a2be2"/>
   </g>
   <g id="patch_10">
    <path d="M 448.413435 109309.318398 
L 453.345142 109309.318398 
L 453.345142 385.283736 
L 448.413435 385.283736 
z
" clip-path="url(#p3ded3e7484)" style="fill: #8a2be2"/>
   </g>
   <g id="patch_11">
    <path d="M 497.730501 109309.318398 
L 502.662208 109309.318398 
L 502.662208 439.724642 
L 497.730501 439.724642 
z
" clip-path="url(#p3ded3e7484)" style="fill: #8a2be2"/>
   </g>
   <g id="patch_12">
    <path d="M 547.047568 109309.318398 
L 551.979275 109309.318398 
L 551.979275 710.742277 
L 547.047568 710.742277 
z
" clip-path="url(#p3ded3e7484)" style="fill: #8a2be2"/>
   </g>
   <g id="patch_13">
    <path d="M 108.125675 109309.318398 
L 113.057382 109309.318398 
L 113.057382 36.871131 
L 108.125675 36.871131 
z
" clip-path="url(#p3ded3e7484)" style="fill: url(#hd2f84fb321)"/>
   </g>
   <g id="patch_14">
    <path d="M 157.442742 109309.318398 
L 162.374449 109309.318398 
L 162.374449 133.851314 
L 157.442742 133.851314 
z
" clip-path="url(#p3ded3e7484)" style="fill: url(#hd2f84fb321)"/>
   </g>
   <g id="patch_15">
    <path d="M 206.759808 109309.318398 
L 211.691515 109309.318398 
L 211.691515 196.999094 
L 206.759808 196.999094 
z
" clip-path="url(#p3ded3e7484)" style="fill: url(#hd2f84fb321)"/>
   </g>
   <g id="patch_16">
    <path d="M 256.076875 109309.318398 
L 261.008582 109309.318398 
L 261.008582 233.827639 
L 256.076875 233.827639 
z
" clip-path="url(#p3ded3e7484)" style="fill: url(#hd2f84fb321)"/>
   </g>
   <g id="patch_17">
    <path d="M 305.393942 109309.318398 
L 310.325648 109309.318398 
L 310.325648 262.010963 
L 305.393942 262.010963 
z
" clip-path="url(#p3ded3e7484)" style="fill: url(#hd2f84fb321)"/>
   </g>
   <g id="patch_18">
    <path d="M 354.711008 109309.318398 
L 359.642715 109309.318398 
L 359.642715 297.8265 
L 354.711008 297.8265 
z
" clip-path="url(#p3ded3e7484)" style="fill: url(#hd2f84fb321)"/>
   </g>
   <g id="patch_19">
    <path d="M 404.028075 109309.318398 
L 408.959782 109309.318398 
L 408.959782 332.751598 
L 404.028075 332.751598 
z
" clip-path="url(#p3ded3e7484)" style="fill: url(#hd2f84fb321)"/>
   </g>
   <g id="patch_20">
    <path d="M 453.345142 109309.318398 
L 458.276848 109309.318398 
L 458.276848 331.044687 
L 453.345142 331.044687 
z
" clip-path="url(#p3ded3e7484)" style="fill: url(#hd2f84fb321)"/>
   </g>
   <g id="patch_21">
    <path d="M 502.662208 109309.318398 
L 507.593915 109309.318398 
L 507.593915 373.637673 
L 502.662208 373.637673 
z
" clip-path="url(#p3ded3e7484)" style="fill: url(#hd2f84fb321)"/>
   </g>
   <g id="patch_22">
    <path d="M 551.979275 109309.318398 
L 556.910981 109309.318398 
L 556.910981 441.368808 
L 551.979275 441.368808 
z
" clip-path="url(#p3ded3e7484)" style="fill: url(#hd2f84fb321)"/>
   </g>
   <g id="patch_23">
    <path d="M 113.057382 109309.318398 
L 117.989089 109309.318398 
L 117.989089 38.479656 
L 113.057382 38.479656 
z
" clip-path="url(#p3ded3e7484)" style="fill: #005f73"/>
   </g>
   <g id="patch_24">
    <path d="M 162.374449 109309.318398 
L 167.306155 109309.318398 
L 167.306155 133.011832 
L 162.374449 133.011832 
z
" clip-path="url(#p3ded3e7484)" style="fill: #005f73"/>
   </g>
   <g id="patch_25">
    <path d="M 211.691515 109309.318398 
L 216.623222 109309.318398 
L 216.623222 182.546073 
L 211.691515 182.546073 
z
" clip-path="url(#p3ded3e7484)" style="fill: #005f73"/>
   </g>
   <g id="patch_26">
    <path d="M 261.008582 109309.318398 
L 265.940288 109309.318398 
L 265.940288 210.189627 
L 261.008582 210.189627 
z
" clip-path="url(#p3ded3e7484)" style="fill: #005f73"/>
   </g>
   <g id="patch_27">
    <path d="M 310.325648 109309.318398 
L 315.257355 109309.318398 
L 315.257355 245.707853 
L 310.325648 245.707853 
z
" clip-path="url(#p3ded3e7484)" style="fill: #005f73"/>
   </g>
   <g id="patch_28">
    <path d="M 359.642715 109309.318398 
L 364.574422 109309.318398 
L 364.574422 288.867886 
L 359.642715 288.867886 
z
" clip-path="url(#p3ded3e7484)" style="fill: #005f73"/>
   </g>
   <g id="patch_29">
    <path d="M 408.959782 109309.318398 
L 413.891488 109309.318398 
L 413.891488 307.886479 
L 408.959782 307.886479 
z
" clip-path="url(#p3ded3e7484)" style="fill: #005f73"/>
   </g>
   <g id="patch_30">
    <path d="M 458.276848 109309.318398 
L 463.208555 109309.318398 
L 463.208555 301.645643 
L 458.276848 301.645643 
z
" clip-path="url(#p3ded3e7484)" style="fill: #005f73"/>
   </g>
   <g id="patch_31">
    <path d="M 507.593915 109309.318398 
L 512.525621 109309.318398 
L 512.525621 350.065913 
L 507.593915 350.065913 
z
" clip-path="url(#p3ded3e7484)" style="fill: #005f73"/>
   </g>
   <g id="patch_32">
    <path d="M 556.910981 109309.318398 
L 561.842688 109309.318398 
L 561.842688 375.701802 
L 556.910981 375.701802 
z
" clip-path="url(#p3ded3e7484)" style="fill: #005f73"/>
   </g>
   <g id="patch_33">
    <path d="M 117.989089 109309.318398 
L 122.920795 109309.318398 
L 122.920795 39.414348 
L 117.989089 39.414348 
z
" clip-path="url(#p3ded3e7484)" style="fill: url(#h61bee04811)"/>
   </g>
   <g id="patch_34">
    <path d="M 167.306155 109309.318398 
L 172.237862 109309.318398 
L 172.237862 124.162177 
L 167.306155 124.162177 
z
" clip-path="url(#p3ded3e7484)" style="fill: url(#h61bee04811)"/>
   </g>
   <g id="patch_35">
    <path d="M 216.623222 109309.318398 
L 221.554928 109309.318398 
L 221.554928 181.941946 
L 216.623222 181.941946 
z
" clip-path="url(#p3ded3e7484)" style="fill: url(#h61bee04811)"/>
   </g>
   <g id="patch_36">
    <path d="M 265.940288 109309.318398 
L 270.871995 109309.318398 
L 270.871995 225.044977 
L 265.940288 225.044977 
z
" clip-path="url(#p3ded3e7484)" style="fill: url(#h61bee04811)"/>
   </g>
   <g id="patch_37">
    <path d="M 315.257355 109309.318398 
L 320.189062 109309.318398 
L 320.189062 247.313696 
L 315.257355 247.313696 
z
" clip-path="url(#p3ded3e7484)" style="fill: url(#h61bee04811)"/>
   </g>
   <g id="patch_38">
    <path d="M 364.574422 109309.318398 
L 369.506128 109309.318398 
L 369.506128 275.673413 
L 364.574422 275.673413 
z
" clip-path="url(#p3ded3e7484)" style="fill: url(#h61bee04811)"/>
   </g>
   <g id="patch_39">
    <path d="M 413.891488 109309.318398 
L 418.823195 109309.318398 
L 418.823195 321.652824 
L 413.891488 321.652824 
z
" clip-path="url(#p3ded3e7484)" style="fill: url(#h61bee04811)"/>
   </g>
   <g id="patch_40">
    <path d="M 463.208555 109309.318398 
L 468.140261 109309.318398 
L 468.140261 334.084037 
L 463.208555 334.084037 
z
" clip-path="url(#p3ded3e7484)" style="fill: url(#h61bee04811)"/>
   </g>
   <g id="patch_41">
    <path d="M 512.525621 109309.318398 
L 517.457328 109309.318398 
L 517.457328 348.548771 
L 512.525621 348.548771 
z
" clip-path="url(#p3ded3e7484)" style="fill: url(#h61bee04811)"/>
   </g>
   <g id="patch_42">
    <path d="M 561.842688 109309.318398 
L 566.774395 109309.318398 
L 566.774395 400.689058 
L 561.842688 400.689058 
z
" clip-path="url(#p3ded3e7484)" style="fill: url(#h61bee04811)"/>
   </g>
   <g id="patch_43">
    <path d="M 122.920795 109309.318398 
L 127.852502 109309.318398 
L 127.852502 34.210949 
L 122.920795 34.210949 
z
" clip-path="url(#p3ded3e7484)" style="fill: #4682b4"/>
   </g>
   <g id="patch_44">
    <path d="M 172.237862 109309.318398 
L 177.169569 109309.318398 
L 177.169569 145.826509 
L 172.237862 145.826509 
z
" clip-path="url(#p3ded3e7484)" style="fill: #4682b4"/>
   </g>
   <g id="patch_45">
    <path d="M 221.554928 109309.318398 
L 226.486635 109309.318398 
L 226.486635 211.498154 
L 221.554928 211.498154 
z
" clip-path="url(#p3ded3e7484)" style="fill: #4682b4"/>
   </g>
   <g id="patch_46">
    <path d="M 270.871995 109309.318398 
L 275.803702 109309.318398 
L 275.803702 263.733192 
L 270.871995 263.733192 
z
" clip-path="url(#p3ded3e7484)" style="fill: #4682b4"/>
   </g>
   <g id="patch_47">
    <path d="M 320.189062 109309.318398 
L 325.120768 109309.318398 
L 325.120768 308.542548 
L 320.189062 308.542548 
z
" clip-path="url(#p3ded3e7484)" style="fill: #4682b4"/>
   </g>
   <g id="patch_48">
    <path d="M 369.506128 109309.318398 
L 374.437835 109309.318398 
L 374.437835 346.888419 
L 369.506128 346.888419 
z
" clip-path="url(#p3ded3e7484)" style="fill: #4682b4"/>
   </g>
   <g id="patch_49">
    <path d="M 418.823195 109309.318398 
L 423.754902 109309.318398 
L 423.754902 393.932835 
L 418.823195 393.932835 
z
" clip-path="url(#p3ded3e7484)" style="fill: #4682b4"/>
   </g>
   <g id="patch_50">
    <path d="M 468.140261 109309.318398 
L 473.071968 109309.318398 
L 473.071968 457.753329 
L 468.140261 457.753329 
z
" clip-path="url(#p3ded3e7484)" style="fill: #4682b4"/>
   </g>
   <g id="patch_51">
    <path d="M 517.457328 109309.318398 
L 522.389035 109309.318398 
L 522.389035 505.979284 
L 517.457328 505.979284 
z
" clip-path="url(#p3ded3e7484)" style="fill: #4682b4"/>
   </g>
   <g id="patch_52">
    <path d="M 566.774395 109309.318398 
L 571.706101 109309.318398 
L 571.706101 713.950857 
L 566.774395 713.950857 
z
" clip-path="url(#p3ded3e7484)" style="fill: #4682b4"/>
   </g>
   <g id="patch_53">
    <path d="M 127.852502 109309.318398 
L 132.784209 109309.318398 
L 132.784209 33.404895 
L 127.852502 33.404895 
z
" clip-path="url(#p3ded3e7484)" style="fill: url(#h5f4fe4478e)"/>
   </g>
   <g id="patch_54">
    <path d="M 177.169569 109309.318398 
L 182.101275 109309.318398 
L 182.101275 154.495335 
L 177.169569 154.495335 
z
" clip-path="url(#p3ded3e7484)" style="fill: url(#h5f4fe4478e)"/>
   </g>
   <g id="patch_55">
    <path d="M 226.486635 109309.318398 
L 231.418342 109309.318398 
L 231.418342 218.920981 
L 226.486635 218.920981 
z
" clip-path="url(#p3ded3e7484)" style="fill: url(#h5f4fe4478e)"/>
   </g>
   <g id="patch_56">
    <path d="M 275.803702 109309.318398 
L 280.735408 109309.318398 
L 280.735408 259.108983 
L 275.803702 259.108983 
z
" clip-path="url(#p3ded3e7484)" style="fill: url(#h5f4fe4478e)"/>
   </g>
   <g id="patch_57">
    <path d="M 325.120768 109309.318398 
L 330.052475 109309.318398 
L 330.052475 307.132131 
L 325.120768 307.132131 
z
" clip-path="url(#p3ded3e7484)" style="fill: url(#h5f4fe4478e)"/>
   </g>
   <g id="patch_58">
    <path d="M 374.437835 109309.318398 
L 379.369542 109309.318398 
L 379.369542 328.975803 
L 374.437835 328.975803 
z
" clip-path="url(#p3ded3e7484)" style="fill: url(#h5f4fe4478e)"/>
   </g>
   <g id="patch_59">
    <path d="M 423.754902 109309.318398 
L 428.686608 109309.318398 
L 428.686608 378.89347 
L 423.754902 378.89347 
z
" clip-path="url(#p3ded3e7484)" style="fill: url(#h5f4fe4478e)"/>
   </g>
   <g id="patch_60">
    <path d="M 473.071968 109309.318398 
L 478.003675 109309.318398 
L 478.003675 415.33137 
L 473.071968 415.33137 
z
" clip-path="url(#p3ded3e7484)" style="fill: url(#h5f4fe4478e)"/>
   </g>
   <g id="patch_61">
    <path d="M 522.389035 109309.318398 
L 527.320741 109309.318398 
L 527.320741 423.320587 
L 522.389035 423.320587 
z
" clip-path="url(#p3ded3e7484)" style="fill: url(#h5f4fe4478e)"/>
   </g>
   <g id="patch_62">
    <path d="M 571.706101 109309.318398 
L 576.637808 109309.318398 
L 576.637808 486.051297 
L 571.706101 486.051297 
z
" clip-path="url(#p3ded3e7484)" style="fill: url(#h5f4fe4478e)"/>
   </g>
   <g id="matplotlib.axis_1">
    <g id="xtick_1">
     <g id="line2d_1">
      <defs>
       <path id="m863d507572" d="M 0 0 
L 0 3.5 
" style="stroke: #000000; stroke-width: 0.8"/>
      </defs>
      <g>
       <use xlink:href="#m863d507572" x="113.057382" y="465.443994" style="stroke: #000000; stroke-width: 0.8"/>
      </g>
     </g>
     <g id="text_1">
      <!-- 0.0-0.1 -->
      <g transform="translate(91.918204 533.272854) rotate(-45) scale(0.2 -0.2)">
       <defs>
        <path id="DejaVuSans-30" d="M 2034 4250 
Q 1547 4250 1301 3770 
Q 1056 3291 1056 2328 
Q 1056 1369 1301 889 
Q 1547 409 2034 409 
Q 2525 409 2770 889 
Q 3016 1369 3016 2328 
Q 3016 3291 2770 3770 
Q 2525 4250 2034 4250 
z
M 2034 4750 
Q 2819 4750 3233 4129 
Q 3647 3509 3647 2328 
Q 3647 1150 3233 529 
Q 2819 -91 2034 -91 
Q 1250 -91 836 529 
Q 422 1150 422 2328 
Q 422 3509 836 4129 
Q 1250 4750 2034 4750 
z
" transform="scale(0.015625)"/>
        <path id="DejaVuSans-2e" d="M 684 794 
L 1344 794 
L 1344 0 
L 684 0 
L 684 794 
z
" transform="scale(0.015625)"/>
        <path id="DejaVuSans-2d" d="M 313 2009 
L 1997 2009 
L 1997 1497 
L 313 1497 
L 313 2009 
z
" transform="scale(0.015625)"/>
        <path id="DejaVuSans-31" d="M 794 531 
L 1825 531 
L 1825 4091 
L 703 3866 
L 703 4441 
L 1819 4666 
L 2450 4666 
L 2450 531 
L 3481 531 
L 3481 0 
L 794 0 
L 794 531 
z
" transform="scale(0.015625)"/>
       </defs>
       <use xlink:href="#DejaVuSans-30"/>
       <use xlink:href="#DejaVuSans-2e" x="63.623047"/>
       <use xlink:href="#DejaVuSans-30" x="95.410156"/>
       <use xlink:href="#DejaVuSans-2d" x="159.033203"/>
       <use xlink:href="#DejaVuSans-30" x="195.117188"/>
       <use xlink:href="#DejaVuSans-2e" x="258.740234"/>
       <use xlink:href="#DejaVuSans-31" x="290.527344"/>
      </g>
     </g>
    </g>
    <g id="xtick_2">
     <g id="line2d_2">
      <g>
       <use xlink:href="#m863d507572" x="162.374449" y="465.443994" style="stroke: #000000; stroke-width: 0.8"/>
      </g>
     </g>
     <g id="text_2">
      <!-- 0.1-0.2 -->
      <g transform="translate(141.23527 533.272854) rotate(-45) scale(0.2 -0.2)">
       <defs>
        <path id="DejaVuSans-32" d="M 1228 531 
L 3431 531 
L 3431 0 
L 469 0 
L 469 531 
Q 828 903 1448 1529 
Q 2069 2156 2228 2338 
Q 2531 2678 2651 2914 
Q 2772 3150 2772 3378 
Q 2772 3750 2511 3984 
Q 2250 4219 1831 4219 
Q 1534 4219 1204 4116 
Q 875 4013 500 3803 
L 500 4441 
Q 881 4594 1212 4672 
Q 1544 4750 1819 4750 
Q 2544 4750 2975 4387 
Q 3406 4025 3406 3419 
Q 3406 3131 3298 2873 
Q 3191 2616 2906 2266 
Q 2828 2175 2409 1742 
Q 1991 1309 1228 531 
z
" transform="scale(0.015625)"/>
       </defs>
       <use xlink:href="#DejaVuSans-30"/>
       <use xlink:href="#DejaVuSans-2e" x="63.623047"/>
       <use xlink:href="#DejaVuSans-31" x="95.410156"/>
       <use xlink:href="#DejaVuSans-2d" x="159.033203"/>
       <use xlink:href="#DejaVuSans-30" x="195.117188"/>
       <use xlink:href="#DejaVuSans-2e" x="258.740234"/>
       <use xlink:href="#DejaVuSans-32" x="290.527344"/>
      </g>
     </g>
    </g>
    <g id="xtick_3">
     <g id="line2d_3">
      <g>
       <use xlink:href="#m863d507572" x="211.691515" y="465.443994" style="stroke: #000000; stroke-width: 0.8"/>
      </g>
     </g>
     <g id="text_3">
      <!-- 0.2-0.3 -->
      <g transform="translate(190.552337 533.272854) rotate(-45) scale(0.2 -0.2)">
       <defs>
        <path id="DejaVuSans-33" d="M 2597 2516 
Q 3050 2419 3304 2112 
Q 3559 1806 3559 1356 
Q 3559 666 3084 287 
Q 2609 -91 1734 -91 
Q 1441 -91 1130 -33 
Q 819 25 488 141 
L 488 750 
Q 750 597 1062 519 
Q 1375 441 1716 441 
Q 2309 441 2620 675 
Q 2931 909 2931 1356 
Q 2931 1769 2642 2001 
Q 2353 2234 1838 2234 
L 1294 2234 
L 1294 2753 
L 1863 2753 
Q 2328 2753 2575 2939 
Q 2822 3125 2822 3475 
Q 2822 3834 2567 4026 
Q 2313 4219 1838 4219 
Q 1578 4219 1281 4162 
Q 984 4106 628 3988 
L 628 4550 
Q 988 4650 1302 4700 
Q 1616 4750 1894 4750 
Q 2613 4750 3031 4423 
Q 3450 4097 3450 3541 
Q 3450 3153 3228 2886 
Q 3006 2619 2597 2516 
z
" transform="scale(0.015625)"/>
       </defs>
       <use xlink:href="#DejaVuSans-30"/>
       <use xlink:href="#DejaVuSans-2e" x="63.623047"/>
       <use xlink:href="#DejaVuSans-32" x="95.410156"/>
       <use xlink:href="#DejaVuSans-2d" x="159.033203"/>
       <use xlink:href="#DejaVuSans-30" x="195.117188"/>
       <use xlink:href="#DejaVuSans-2e" x="258.740234"/>
       <use xlink:href="#DejaVuSans-33" x="290.527344"/>
      </g>
     </g>
    </g>
    <g id="xtick_4">
     <g id="line2d_4">
      <g>
       <use xlink:href="#m863d507572" x="261.008582" y="465.443994" style="stroke: #000000; stroke-width: 0.8"/>
      </g>
     </g>
     <g id="text_4">
      <!-- 0.3-0.4 -->
      <g transform="translate(239.869404 533.272854) rotate(-45) scale(0.2 -0.2)">
       <defs>
        <path id="DejaVuSans-34" d="M 2419 4116 
L 825 1625 
L 2419 1625 
L 2419 4116 
z
M 2253 4666 
L 3047 4666 
L 3047 1625 
L 3713 1625 
L 3713 1100 
L 3047 1100 
L 3047 0 
L 2419 0 
L 2419 1100 
L 313 1100 
L 313 1709 
L 2253 4666 
z
" transform="scale(0.015625)"/>
       </defs>
       <use xlink:href="#DejaVuSans-30"/>
       <use xlink:href="#DejaVuSans-2e" x="63.623047"/>
       <use xlink:href="#DejaVuSans-33" x="95.410156"/>
       <use xlink:href="#DejaVuSans-2d" x="159.033203"/>
       <use xlink:href="#DejaVuSans-30" x="195.117188"/>
       <use xlink:href="#DejaVuSans-2e" x="258.740234"/>
       <use xlink:href="#DejaVuSans-34" x="290.527344"/>
      </g>
     </g>
    </g>
    <g id="xtick_5">
     <g id="line2d_5">
      <g>
       <use xlink:href="#m863d507572" x="310.325648" y="465.443994" style="stroke: #000000; stroke-width: 0.8"/>
      </g>
     </g>
     <g id="text_5">
      <!-- 0.4-0.5 -->
      <g transform="translate(289.18647 533.272854) rotate(-45) scale(0.2 -0.2)">
       <defs>
        <path id="DejaVuSans-35" d="M 691 4666 
L 3169 4666 
L 3169 4134 
L 1269 4134 
L 1269 2991 
Q 1406 3038 1543 3061 
Q 1681 3084 1819 3084 
Q 2600 3084 3056 2656 
Q 3513 2228 3513 1497 
Q 3513 744 3044 326 
Q 2575 -91 1722 -91 
Q 1428 -91 1123 -41 
Q 819 9 494 109 
L 494 744 
Q 775 591 1075 516 
Q 1375 441 1709 441 
Q 2250 441 2565 725 
Q 2881 1009 2881 1497 
Q 2881 1984 2565 2268 
Q 2250 2553 1709 2553 
Q 1456 2553 1204 2497 
Q 953 2441 691 2322 
L 691 4666 
z
" transform="scale(0.015625)"/>
       </defs>
       <use xlink:href="#DejaVuSans-30"/>
       <use xlink:href="#DejaVuSans-2e" x="63.623047"/>
       <use xlink:href="#DejaVuSans-34" x="95.410156"/>
       <use xlink:href="#DejaVuSans-2d" x="159.033203"/>
       <use xlink:href="#DejaVuSans-30" x="195.117188"/>
       <use xlink:href="#DejaVuSans-2e" x="258.740234"/>
       <use xlink:href="#DejaVuSans-35" x="290.527344"/>
      </g>
     </g>
    </g>
    <g id="xtick_6">
     <g id="line2d_6">
      <g>
       <use xlink:href="#m863d507572" x="359.642715" y="465.443994" style="stroke: #000000; stroke-width: 0.8"/>
      </g>
     </g>
     <g id="text_6">
      <!-- 0.5-0.6 -->
      <g transform="translate(338.503537 533.272854) rotate(-45) scale(0.2 -0.2)">
       <defs>
        <path id="DejaVuSans-36" d="M 2113 2584 
Q 1688 2584 1439 2293 
Q 1191 2003 1191 1497 
Q 1191 994 1439 701 
Q 1688 409 2113 409 
Q 2538 409 2786 701 
Q 3034 994 3034 1497 
Q 3034 2003 2786 2293 
Q 2538 2584 2113 2584 
z
M 3366 4563 
L 3366 3988 
Q 3128 4100 2886 4159 
Q 2644 4219 2406 4219 
Q 1781 4219 1451 3797 
Q 1122 3375 1075 2522 
Q 1259 2794 1537 2939 
Q 1816 3084 2150 3084 
Q 2853 3084 3261 2657 
Q 3669 2231 3669 1497 
Q 3669 778 3244 343 
Q 2819 -91 2113 -91 
Q 1303 -91 875 529 
Q 447 1150 447 2328 
Q 447 3434 972 4092 
Q 1497 4750 2381 4750 
Q 2619 4750 2861 4703 
Q 3103 4656 3366 4563 
z
" transform="scale(0.015625)"/>
       </defs>
       <use xlink:href="#DejaVuSans-30"/>
       <use xlink:href="#DejaVuSans-2e" x="63.623047"/>
       <use xlink:href="#DejaVuSans-35" x="95.410156"/>
       <use xlink:href="#DejaVuSans-2d" x="159.033203"/>
       <use xlink:href="#DejaVuSans-30" x="195.117188"/>
       <use xlink:href="#DejaVuSans-2e" x="258.740234"/>
       <use xlink:href="#DejaVuSans-36" x="290.527344"/>
      </g>
     </g>
    </g>
    <g id="xtick_7">
     <g id="line2d_7">
      <g>
       <use xlink:href="#m863d507572" x="408.959782" y="465.443994" style="stroke: #000000; stroke-width: 0.8"/>
      </g>
     </g>
     <g id="text_7">
      <!-- 0.6-0.7 -->
      <g transform="translate(387.820603 533.272854) rotate(-45) scale(0.2 -0.2)">
       <defs>
        <path id="DejaVuSans-37" d="M 525 4666 
L 3525 4666 
L 3525 4397 
L 1831 0 
L 1172 0 
L 2766 4134 
L 525 4134 
L 525 4666 
z
" transform="scale(0.015625)"/>
       </defs>
       <use xlink:href="#DejaVuSans-30"/>
       <use xlink:href="#DejaVuSans-2e" x="63.623047"/>
       <use xlink:href="#DejaVuSans-36" x="95.410156"/>
       <use xlink:href="#DejaVuSans-2d" x="159.033203"/>
       <use xlink:href="#DejaVuSans-30" x="195.117188"/>
       <use xlink:href="#DejaVuSans-2e" x="258.740234"/>
       <use xlink:href="#DejaVuSans-37" x="290.527344"/>
      </g>
     </g>
    </g>
    <g id="xtick_8">
     <g id="line2d_8">
      <g>
       <use xlink:href="#m863d507572" x="458.276848" y="465.443994" style="stroke: #000000; stroke-width: 0.8"/>
      </g>
     </g>
     <g id="text_8">
      <!-- 0.7-0.8 -->
      <g transform="translate(437.13767 533.272854) rotate(-45) scale(0.2 -0.2)">
       <defs>
        <path id="DejaVuSans-38" d="M 2034 2216 
Q 1584 2216 1326 1975 
Q 1069 1734 1069 1313 
Q 1069 891 1326 650 
Q 1584 409 2034 409 
Q 2484 409 2743 651 
Q 3003 894 3003 1313 
Q 3003 1734 2745 1975 
Q 2488 2216 2034 2216 
z
M 1403 2484 
Q 997 2584 770 2862 
Q 544 3141 544 3541 
Q 544 4100 942 4425 
Q 1341 4750 2034 4750 
Q 2731 4750 3128 4425 
Q 3525 4100 3525 3541 
Q 3525 3141 3298 2862 
Q 3072 2584 2669 2484 
Q 3125 2378 3379 2068 
Q 3634 1759 3634 1313 
Q 3634 634 3220 271 
Q 2806 -91 2034 -91 
Q 1263 -91 848 271 
Q 434 634 434 1313 
Q 434 1759 690 2068 
Q 947 2378 1403 2484 
z
M 1172 3481 
Q 1172 3119 1398 2916 
Q 1625 2713 2034 2713 
Q 2441 2713 2670 2916 
Q 2900 3119 2900 3481 
Q 2900 3844 2670 4047 
Q 2441 4250 2034 4250 
Q 1625 4250 1398 4047 
Q 1172 3844 1172 3481 
z
" transform="scale(0.015625)"/>
       </defs>
       <use xlink:href="#DejaVuSans-30"/>
       <use xlink:href="#DejaVuSans-2e" x="63.623047"/>
       <use xlink:href="#DejaVuSans-37" x="95.410156"/>
       <use xlink:href="#DejaVuSans-2d" x="159.033203"/>
       <use xlink:href="#DejaVuSans-30" x="195.117188"/>
       <use xlink:href="#DejaVuSans-2e" x="258.740234"/>
       <use xlink:href="#DejaVuSans-38" x="290.527344"/>
      </g>
     </g>
    </g>
    <g id="xtick_9">
     <g id="line2d_9">
      <g>
       <use xlink:href="#m863d507572" x="507.593915" y="465.443994" style="stroke: #000000; stroke-width: 0.8"/>
      </g>
     </g>
     <g id="text_9">
      <!-- 0.8-0.9 -->
      <g transform="translate(486.454737 533.272854) rotate(-45) scale(0.2 -0.2)">
       <defs>
        <path id="DejaVuSans-39" d="M 703 97 
L 703 672 
Q 941 559 1184 500 
Q 1428 441 1663 441 
Q 2288 441 2617 861 
Q 2947 1281 2994 2138 
Q 2813 1869 2534 1725 
Q 2256 1581 1919 1581 
Q 1219 1581 811 2004 
Q 403 2428 403 3163 
Q 403 3881 828 4315 
Q 1253 4750 1959 4750 
Q 2769 4750 3195 4129 
Q 3622 3509 3622 2328 
Q 3622 1225 3098 567 
Q 2575 -91 1691 -91 
Q 1453 -91 1209 -44 
Q 966 3 703 97 
z
M 1959 2075 
Q 2384 2075 2632 2365 
Q 2881 2656 2881 3163 
Q 2881 3666 2632 3958 
Q 2384 4250 1959 4250 
Q 1534 4250 1286 3958 
Q 1038 3666 1038 3163 
Q 1038 2656 1286 2365 
Q 1534 2075 1959 2075 
z
" transform="scale(0.015625)"/>
       </defs>
       <use xlink:href="#DejaVuSans-30"/>
       <use xlink:href="#DejaVuSans-2e" x="63.623047"/>
       <use xlink:href="#DejaVuSans-38" x="95.410156"/>
       <use xlink:href="#DejaVuSans-2d" x="159.033203"/>
       <use xlink:href="#DejaVuSans-30" x="195.117188"/>
       <use xlink:href="#DejaVuSans-2e" x="258.740234"/>
       <use xlink:href="#DejaVuSans-39" x="290.527344"/>
      </g>
     </g>
    </g>
    <g id="xtick_10">
     <g id="line2d_10">
      <g>
       <use xlink:href="#m863d507572" x="556.910981" y="465.443994" style="stroke: #000000; stroke-width: 0.8"/>
      </g>
     </g>
     <g id="text_10">
      <!-- 0.9-1.0 -->
      <g transform="translate(535.771803 533.272854) rotate(-45) scale(0.2 -0.2)">
       <use xlink:href="#DejaVuSans-30"/>
       <use xlink:href="#DejaVuSans-2e" x="63.623047"/>
       <use xlink:href="#DejaVuSans-39" x="95.410156"/>
       <use xlink:href="#DejaVuSans-2d" x="159.033203"/>
       <use xlink:href="#DejaVuSans-31" x="195.117188"/>
       <use xlink:href="#DejaVuSans-2e" x="258.740234"/>
       <use xlink:href="#DejaVuSans-30" x="290.527344"/>
      </g>
     </g>
    </g>
    <g id="text_11">
     <!-- FST Bins -->
     <g transform="translate(286.919795 559.21007) scale(0.25 -0.25)">
      <defs>
       <path id="DejaVuSans-46" d="M 628 4666 
L 3309 4666 
L 3309 4134 
L 1259 4134 
L 1259 2759 
L 3109 2759 
L 3109 2228 
L 1259 2228 
L 1259 0 
L 628 0 
L 628 4666 
z
" transform="scale(0.015625)"/>
       <path id="DejaVuSans-53" d="M 3425 4513 
L 3425 3897 
Q 3066 4069 2747 4153 
Q 2428 4238 2131 4238 
Q 1616 4238 1336 4038 
Q 1056 3838 1056 3469 
Q 1056 3159 1242 3001 
Q 1428 2844 1947 2747 
L 2328 2669 
Q 3034 2534 3370 2195 
Q 3706 1856 3706 1288 
Q 3706 609 3251 259 
Q 2797 -91 1919 -91 
Q 1588 -91 1214 -16 
Q 841 59 441 206 
L 441 856 
Q 825 641 1194 531 
Q 1563 422 1919 422 
Q 2459 422 2753 634 
Q 3047 847 3047 1241 
Q 3047 1584 2836 1778 
Q 2625 1972 2144 2069 
L 1759 2144 
Q 1053 2284 737 2584 
Q 422 2884 422 3419 
Q 422 4038 858 4394 
Q 1294 4750 2059 4750 
Q 2388 4750 2728 4690 
Q 3069 4631 3425 4513 
z
" transform="scale(0.015625)"/>
       <path id="DejaVuSans-54" d="M -19 4666 
L 3928 4666 
L 3928 4134 
L 2272 4134 
L 2272 0 
L 1638 0 
L 1638 4134 
L -19 4134 
L -19 4666 
z
" transform="scale(0.015625)"/>
       <path id="DejaVuSans-20" transform="scale(0.015625)"/>
       <path id="DejaVuSans-42" d="M 1259 2228 
L 1259 519 
L 2272 519 
Q 2781 519 3026 730 
Q 3272 941 3272 1375 
Q 3272 1813 3026 2020 
Q 2781 2228 2272 2228 
L 1259 2228 
z
M 1259 4147 
L 1259 2741 
L 2194 2741 
Q 2656 2741 2882 2914 
Q 3109 3088 3109 3444 
Q 3109 3797 2882 3972 
Q 2656 4147 2194 4147 
L 1259 4147 
z
M 628 4666 
L 2241 4666 
Q 2963 4666 3353 4366 
Q 3744 4066 3744 3513 
Q 3744 3084 3544 2831 
Q 3344 2578 2956 2516 
Q 3422 2416 3680 2098 
Q 3938 1781 3938 1306 
Q 3938 681 3513 340 
Q 3088 0 2303 0 
L 628 0 
L 628 4666 
z
" transform="scale(0.015625)"/>
       <path id="DejaVuSans-69" d="M 603 3500 
L 1178 3500 
L 1178 0 
L 603 0 
L 603 3500 
z
M 603 4863 
L 1178 4863 
L 1178 4134 
L 603 4134 
L 603 4863 
z
" transform="scale(0.015625)"/>
       <path id="DejaVuSans-6e" d="M 3513 2113 
L 3513 0 
L 2938 0 
L 2938 2094 
Q 2938 2591 2744 2837 
Q 2550 3084 2163 3084 
Q 1697 3084 1428 2787 
Q 1159 2491 1159 1978 
L 1159 0 
L 581 0 
L 581 3500 
L 1159 3500 
L 1159 2956 
Q 1366 3272 1645 3428 
Q 1925 3584 2291 3584 
Q 2894 3584 3203 3211 
Q 3513 2838 3513 2113 
z
" transform="scale(0.015625)"/>
       <path id="DejaVuSans-73" d="M 2834 3397 
L 2834 2853 
Q 2591 2978 2328 3040 
Q 2066 3103 1784 3103 
Q 1356 3103 1142 2972 
Q 928 2841 928 2578 
Q 928 2378 1081 2264 
Q 1234 2150 1697 2047 
L 1894 2003 
Q 2506 1872 2764 1633 
Q 3022 1394 3022 966 
Q 3022 478 2636 193 
Q 2250 -91 1575 -91 
Q 1294 -91 989 -36 
Q 684 19 347 128 
L 347 722 
Q 666 556 975 473 
Q 1284 391 1588 391 
Q 1994 391 2212 530 
Q 2431 669 2431 922 
Q 2431 1156 2273 1281 
Q 2116 1406 1581 1522 
L 1381 1569 
Q 847 1681 609 1914 
Q 372 2147 372 2553 
Q 372 3047 722 3315 
Q 1072 3584 1716 3584 
Q 2034 3584 2315 3537 
Q 2597 3491 2834 3397 
z
" transform="scale(0.015625)"/>
      </defs>
      <use xlink:href="#DejaVuSans-46"/>
      <use xlink:href="#DejaVuSans-53" x="55.769531"/>
      <use xlink:href="#DejaVuSans-54" x="119.246094"/>
      <use xlink:href="#DejaVuSans-20" x="180.330078"/>
      <use xlink:href="#DejaVuSans-42" x="212.117188"/>
      <use xlink:href="#DejaVuSans-69" x="280.720703"/>
      <use xlink:href="#DejaVuSans-6e" x="308.503906"/>
      <use xlink:href="#DejaVuSans-73" x="371.882812"/>
     </g>
    </g>
   </g>
   <g id="matplotlib.axis_2">
    <g id="ytick_1">
     <g id="line2d_11">
      <defs>
       <path id="m0094838292" d="M 0 0 
L -3.5 0 
" style="stroke: #000000; stroke-width: 0.8"/>
      </defs>
      <g>
       <use xlink:href="#m0094838292" x="79.521777" y="465.443994" style="stroke: #000000; stroke-width: 0.8"/>
      </g>
     </g>
     <g id="text_12">
      <!-- $\mathdefault{10^{-4}}$ -->
      <g transform="translate(39.621777 470.7629) scale(0.14 -0.14)">
       <defs>
        <path id="DejaVuSans-2212" d="M 678 2272 
L 4684 2272 
L 4684 1741 
L 678 1741 
L 678 2272 
z
" transform="scale(0.015625)"/>
       </defs>
       <use xlink:href="#DejaVuSans-31" transform="translate(0 0.684375)"/>
       <use xlink:href="#DejaVuSans-30" transform="translate(63.623047 0.684375)"/>
       <use xlink:href="#DejaVuSans-2212" transform="translate(128.203125 38.965625) scale(0.7)"/>
       <use xlink:href="#DejaVuSans-34" transform="translate(186.855469 38.965625) scale(0.7)"/>
      </g>
     </g>
    </g>
    <g id="ytick_2">
     <g id="line2d_12">
      <g>
       <use xlink:href="#m0094838292" x="79.521777" y="356.162995" style="stroke: #000000; stroke-width: 0.8"/>
      </g>
     </g>
     <g id="text_13">
      <!-- $\mathdefault{10^{-3}}$ -->
      <g transform="translate(39.621777 361.481901) scale(0.14 -0.14)">
       <use xlink:href="#DejaVuSans-31" transform="translate(0 0.765625)"/>
       <use xlink:href="#DejaVuSans-30" transform="translate(63.623047 0.765625)"/>
       <use xlink:href="#DejaVuSans-2212" transform="translate(128.203125 39.046875) scale(0.7)"/>
       <use xlink:href="#DejaVuSans-33" transform="translate(186.855469 39.046875) scale(0.7)"/>
      </g>
     </g>
    </g>
    <g id="ytick_3">
     <g id="line2d_13">
      <g>
       <use xlink:href="#m0094838292" x="79.521777" y="246.881997" style="stroke: #000000; stroke-width: 0.8"/>
      </g>
     </g>
     <g id="text_14">
      <!-- $\mathdefault{10^{-2}}$ -->
      <g transform="translate(39.621777 252.200903) scale(0.14 -0.14)">
       <use xlink:href="#DejaVuSans-31" transform="translate(0 0.765625)"/>
       <use xlink:href="#DejaVuSans-30" transform="translate(63.623047 0.765625)"/>
       <use xlink:href="#DejaVuSans-2212" transform="translate(128.203125 39.046875) scale(0.7)"/>
       <use xlink:href="#DejaVuSans-32" transform="translate(186.855469 39.046875) scale(0.7)"/>
      </g>
     </g>
    </g>
    <g id="ytick_4">
     <g id="line2d_14">
      <g>
       <use xlink:href="#m0094838292" x="79.521777" y="137.600998" style="stroke: #000000; stroke-width: 0.8"/>
      </g>
     </g>
     <g id="text_15">
      <!-- $\mathdefault{10^{-1}}$ -->
      <g transform="translate(39.621777 142.919905) scale(0.14 -0.14)">
       <use xlink:href="#DejaVuSans-31" transform="translate(0 0.684375)"/>
       <use xlink:href="#DejaVuSans-30" transform="translate(63.623047 0.684375)"/>
       <use xlink:href="#DejaVuSans-2212" transform="translate(128.203125 38.965625) scale(0.7)"/>
       <use xlink:href="#DejaVuSans-31" transform="translate(186.855469 38.965625) scale(0.7)"/>
      </g>
     </g>
    </g>
    <g id="ytick_5">
     <g id="line2d_15">
      <g>
       <use xlink:href="#m0094838292" x="79.521777" y="28.32" style="stroke: #000000; stroke-width: 0.8"/>
      </g>
     </g>
     <g id="text_16">
      <!-- $\mathdefault{10^{0}}$ -->
      <g transform="translate(47.881777 33.638906) scale(0.14 -0.14)">
       <use xlink:href="#DejaVuSans-31" transform="translate(0 0.765625)"/>
       <use xlink:href="#DejaVuSans-30" transform="translate(63.623047 0.765625)"/>
       <use xlink:href="#DejaVuSans-30" transform="translate(128.203125 39.046875) scale(0.7)"/>
      </g>
     </g>
    </g>
    <g id="ytick_6">
     <g id="line2d_16">
      <defs>
       <path id="m2f20f7b3d7" d="M 0 0 
L -2 0 
" style="stroke: #000000; stroke-width: 0.6"/>
      </defs>
      <g>
       <use xlink:href="#m2f20f7b3d7" x="79.521777" y="432.547135" style="stroke: #000000; stroke-width: 0.6"/>
      </g>
     </g>
    </g>
    <g id="ytick_7">
     <g id="line2d_17">
      <g>
       <use xlink:href="#m2f20f7b3d7" x="79.521777" y="413.303707" style="stroke: #000000; stroke-width: 0.6"/>
      </g>
     </g>
    </g>
    <g id="ytick_8">
     <g id="line2d_18">
      <g>
       <use xlink:href="#m2f20f7b3d7" x="79.521777" y="399.650277" style="stroke: #000000; stroke-width: 0.6"/>
      </g>
     </g>
    </g>
    <g id="ytick_9">
     <g id="line2d_19">
      <g>
       <use xlink:href="#m2f20f7b3d7" x="79.521777" y="389.059854" style="stroke: #000000; stroke-width: 0.6"/>
      </g>
     </g>
    </g>
    <g id="ytick_10">
     <g id="line2d_20">
      <g>
       <use xlink:href="#m2f20f7b3d7" x="79.521777" y="380.406848" style="stroke: #000000; stroke-width: 0.6"/>
      </g>
     </g>
    </g>
    <g id="ytick_11">
     <g id="line2d_21">
      <g>
       <use xlink:href="#m2f20f7b3d7" x="79.521777" y="373.090836" style="stroke: #000000; stroke-width: 0.6"/>
      </g>
     </g>
    </g>
    <g id="ytick_12">
     <g id="line2d_22">
      <g>
       <use xlink:href="#m2f20f7b3d7" x="79.521777" y="366.753418" style="stroke: #000000; stroke-width: 0.6"/>
      </g>
     </g>
    </g>
    <g id="ytick_13">
     <g id="line2d_23">
      <g>
       <use xlink:href="#m2f20f7b3d7" x="79.521777" y="361.163419" style="stroke: #000000; stroke-width: 0.6"/>
      </g>
     </g>
    </g>
    <g id="ytick_14">
     <g id="line2d_24">
      <g>
       <use xlink:href="#m2f20f7b3d7" x="79.521777" y="323.266137" style="stroke: #000000; stroke-width: 0.6"/>
      </g>
     </g>
    </g>
    <g id="ytick_15">
     <g id="line2d_25">
      <g>
       <use xlink:href="#m2f20f7b3d7" x="79.521777" y="304.022708" style="stroke: #000000; stroke-width: 0.6"/>
      </g>
     </g>
    </g>
    <g id="ytick_16">
     <g id="line2d_26">
      <g>
       <use xlink:href="#m2f20f7b3d7" x="79.521777" y="290.369278" style="stroke: #000000; stroke-width: 0.6"/>
      </g>
     </g>
    </g>
    <g id="ytick_17">
     <g id="line2d_27">
      <g>
       <use xlink:href="#m2f20f7b3d7" x="79.521777" y="279.778855" style="stroke: #000000; stroke-width: 0.6"/>
      </g>
     </g>
    </g>
    <g id="ytick_18">
     <g id="line2d_28">
      <g>
       <use xlink:href="#m2f20f7b3d7" x="79.521777" y="271.12585" style="stroke: #000000; stroke-width: 0.6"/>
      </g>
     </g>
    </g>
    <g id="ytick_19">
     <g id="line2d_29">
      <g>
       <use xlink:href="#m2f20f7b3d7" x="79.521777" y="263.809838" style="stroke: #000000; stroke-width: 0.6"/>
      </g>
     </g>
    </g>
    <g id="ytick_20">
     <g id="line2d_30">
      <g>
       <use xlink:href="#m2f20f7b3d7" x="79.521777" y="257.47242" style="stroke: #000000; stroke-width: 0.6"/>
      </g>
     </g>
    </g>
    <g id="ytick_21">
     <g id="line2d_31">
      <g>
       <use xlink:href="#m2f20f7b3d7" x="79.521777" y="251.882421" style="stroke: #000000; stroke-width: 0.6"/>
      </g>
     </g>
    </g>
    <g id="ytick_22">
     <g id="line2d_32">
      <g>
       <use xlink:href="#m2f20f7b3d7" x="79.521777" y="213.985138" style="stroke: #000000; stroke-width: 0.6"/>
      </g>
     </g>
    </g>
    <g id="ytick_23">
     <g id="line2d_33">
      <g>
       <use xlink:href="#m2f20f7b3d7" x="79.521777" y="194.74171" style="stroke: #000000; stroke-width: 0.6"/>
      </g>
     </g>
    </g>
    <g id="ytick_24">
     <g id="line2d_34">
      <g>
       <use xlink:href="#m2f20f7b3d7" x="79.521777" y="181.08828" style="stroke: #000000; stroke-width: 0.6"/>
      </g>
     </g>
    </g>
    <g id="ytick_25">
     <g id="line2d_35">
      <g>
       <use xlink:href="#m2f20f7b3d7" x="79.521777" y="170.497857" style="stroke: #000000; stroke-width: 0.6"/>
      </g>
     </g>
    </g>
    <g id="ytick_26">
     <g id="line2d_36">
      <g>
       <use xlink:href="#m2f20f7b3d7" x="79.521777" y="161.844851" style="stroke: #000000; stroke-width: 0.6"/>
      </g>
     </g>
    </g>
    <g id="ytick_27">
     <g id="line2d_37">
      <g>
       <use xlink:href="#m2f20f7b3d7" x="79.521777" y="154.528839" style="stroke: #000000; stroke-width: 0.6"/>
      </g>
     </g>
    </g>
    <g id="ytick_28">
     <g id="line2d_38">
      <g>
       <use xlink:href="#m2f20f7b3d7" x="79.521777" y="148.191421" style="stroke: #000000; stroke-width: 0.6"/>
      </g>
     </g>
    </g>
    <g id="ytick_29">
     <g id="line2d_39">
      <g>
       <use xlink:href="#m2f20f7b3d7" x="79.521777" y="142.601423" style="stroke: #000000; stroke-width: 0.6"/>
      </g>
     </g>
    </g>
    <g id="ytick_30">
     <g id="line2d_40">
      <g>
       <use xlink:href="#m2f20f7b3d7" x="79.521777" y="104.70414" style="stroke: #000000; stroke-width: 0.6"/>
      </g>
     </g>
    </g>
    <g id="ytick_31">
     <g id="line2d_41">
      <g>
       <use xlink:href="#m2f20f7b3d7" x="79.521777" y="85.460711" style="stroke: #000000; stroke-width: 0.6"/>
      </g>
     </g>
    </g>
    <g id="ytick_32">
     <g id="line2d_42">
      <g>
       <use xlink:href="#m2f20f7b3d7" x="79.521777" y="71.807281" style="stroke: #000000; stroke-width: 0.6"/>
      </g>
     </g>
    </g>
    <g id="ytick_33">
     <g id="line2d_43">
      <g>
       <use xlink:href="#m2f20f7b3d7" x="79.521777" y="61.216858" style="stroke: #000000; stroke-width: 0.6"/>
      </g>
     </g>
    </g>
    <g id="ytick_34">
     <g id="line2d_44">
      <g>
       <use xlink:href="#m2f20f7b3d7" x="79.521777" y="52.563853" style="stroke: #000000; stroke-width: 0.6"/>
      </g>
     </g>
    </g>
    <g id="ytick_35">
     <g id="line2d_45">
      <g>
       <use xlink:href="#m2f20f7b3d7" x="79.521777" y="45.247841" style="stroke: #000000; stroke-width: 0.6"/>
      </g>
     </g>
    </g>
    <g id="ytick_36">
     <g id="line2d_46">
      <g>
       <use xlink:href="#m2f20f7b3d7" x="79.521777" y="38.910423" style="stroke: #000000; stroke-width: 0.6"/>
      </g>
     </g>
    </g>
    <g id="ytick_37">
     <g id="line2d_47">
      <g>
       <use xlink:href="#m2f20f7b3d7" x="79.521777" y="33.320424" style="stroke: #000000; stroke-width: 0.6"/>
      </g>
     </g>
    </g>
    <g id="text_17">
     <!-- Log₁₀(Proportion) -->
     <g transform="translate(30.422558 353.479653) rotate(-90) scale(0.25 -0.25)">
      <defs>
       <path id="DejaVuSans-4c" d="M 628 4666 
L 1259 4666 
L 1259 531 
L 3531 531 
L 3531 0 
L 628 0 
L 628 4666 
z
" transform="scale(0.015625)"/>
       <path id="DejaVuSans-6f" d="M 1959 3097 
Q 1497 3097 1228 2736 
Q 959 2375 959 1747 
Q 959 1119 1226 758 
Q 1494 397 1959 397 
Q 2419 397 2687 759 
Q 2956 1122 2956 1747 
Q 2956 2369 2687 2733 
Q 2419 3097 1959 3097 
z
M 1959 3584 
Q 2709 3584 3137 3096 
Q 3566 2609 3566 1747 
Q 3566 888 3137 398 
Q 2709 -91 1959 -91 
Q 1206 -91 779 398 
Q 353 888 353 1747 
Q 353 2609 779 3096 
Q 1206 3584 1959 3584 
z
" transform="scale(0.015625)"/>
       <path id="DejaVuSans-67" d="M 2906 1791 
Q 2906 2416 2648 2759 
Q 2391 3103 1925 3103 
Q 1463 3103 1205 2759 
Q 947 2416 947 1791 
Q 947 1169 1205 825 
Q 1463 481 1925 481 
Q 2391 481 2648 825 
Q 2906 1169 2906 1791 
z
M 3481 434 
Q 3481 -459 3084 -895 
Q 2688 -1331 1869 -1331 
Q 1566 -1331 1297 -1286 
Q 1028 -1241 775 -1147 
L 775 -588 
Q 1028 -725 1275 -790 
Q 1522 -856 1778 -856 
Q 2344 -856 2625 -561 
Q 2906 -266 2906 331 
L 2906 616 
Q 2728 306 2450 153 
Q 2172 0 1784 0 
Q 1141 0 747 490 
Q 353 981 353 1791 
Q 353 2603 747 3093 
Q 1141 3584 1784 3584 
Q 2172 3584 2450 3431 
Q 2728 3278 2906 2969 
L 2906 3500 
L 3481 3500 
L 3481 434 
z
" transform="scale(0.015625)"/>
       <path id="DejaVuSans-2081" d="M 488 343 
L 1125 343 
L 1125 2253 
L 428 2125 
L 428 2487 
L 1147 2609 
L 1575 2609 
L 1575 343 
L 2216 343 
L 2216 0 
L 488 0 
L 488 343 
z
" transform="scale(0.015625)"/>
       <path id="DejaVuSans-2080" d="M 1781 2115 
Q 1625 2384 1309 2384 
Q 994 2384 838 2115 
Q 678 1846 678 1309 
Q 678 768 838 500 
Q 994 231 1309 231 
Q 1625 231 1781 500 
Q 1941 768 1941 1309 
Q 1941 1846 1781 2115 
z
M 1309 2662 
Q 1813 2662 2078 2315 
Q 2344 1968 2344 1309 
Q 2344 646 2078 299 
Q 1813 -47 1309 -47 
Q 803 -47 537 299 
Q 272 646 272 1309 
Q 272 1968 537 2315 
Q 803 2662 1309 2662 
z
" transform="scale(0.015625)"/>
       <path id="DejaVuSans-28" d="M 1984 4856 
Q 1566 4138 1362 3434 
Q 1159 2731 1159 2009 
Q 1159 1288 1364 580 
Q 1569 -128 1984 -844 
L 1484 -844 
Q 1016 -109 783 600 
Q 550 1309 550 2009 
Q 550 2706 781 3412 
Q 1013 4119 1484 4856 
L 1984 4856 
z
" transform="scale(0.015625)"/>
       <path id="DejaVuSans-50" d="M 1259 4147 
L 1259 2394 
L 2053 2394 
Q 2494 2394 2734 2622 
Q 2975 2850 2975 3272 
Q 2975 3691 2734 3919 
Q 2494 4147 2053 4147 
L 1259 4147 
z
M 628 4666 
L 2053 4666 
Q 2838 4666 3239 4311 
Q 3641 3956 3641 3272 
Q 3641 2581 3239 2228 
Q 2838 1875 2053 1875 
L 1259 1875 
L 1259 0 
L 628 0 
L 628 4666 
z
" transform="scale(0.015625)"/>
       <path id="DejaVuSans-72" d="M 2631 2963 
Q 2534 3019 2420 3045 
Q 2306 3072 2169 3072 
Q 1681 3072 1420 2755 
Q 1159 2438 1159 1844 
L 1159 0 
L 581 0 
L 581 3500 
L 1159 3500 
L 1159 2956 
Q 1341 3275 1631 3429 
Q 1922 3584 2338 3584 
Q 2397 3584 2469 3576 
Q 2541 3569 2628 3553 
L 2631 2963 
z
" transform="scale(0.015625)"/>
       <path id="DejaVuSans-70" d="M 1159 525 
L 1159 -1331 
L 581 -1331 
L 581 3500 
L 1159 3500 
L 1159 2969 
Q 1341 3281 1617 3432 
Q 1894 3584 2278 3584 
Q 2916 3584 3314 3078 
Q 3713 2572 3713 1747 
Q 3713 922 3314 415 
Q 2916 -91 2278 -91 
Q 1894 -91 1617 61 
Q 1341 213 1159 525 
z
M 3116 1747 
Q 3116 2381 2855 2742 
Q 2594 3103 2138 3103 
Q 1681 3103 1420 2742 
Q 1159 2381 1159 1747 
Q 1159 1113 1420 752 
Q 1681 391 2138 391 
Q 2594 391 2855 752 
Q 3116 1113 3116 1747 
z
" transform="scale(0.015625)"/>
       <path id="DejaVuSans-74" d="M 1172 4494 
L 1172 3500 
L 2356 3500 
L 2356 3053 
L 1172 3053 
L 1172 1153 
Q 1172 725 1289 603 
Q 1406 481 1766 481 
L 2356 481 
L 2356 0 
L 1766 0 
Q 1100 0 847 248 
Q 594 497 594 1153 
L 594 3053 
L 172 3053 
L 172 3500 
L 594 3500 
L 594 4494 
L 1172 4494 
z
" transform="scale(0.015625)"/>
       <path id="DejaVuSans-29" d="M 513 4856 
L 1013 4856 
Q 1481 4119 1714 3412 
Q 1947 2706 1947 2009 
Q 1947 1309 1714 600 
Q 1481 -109 1013 -844 
L 513 -844 
Q 928 -128 1133 580 
Q 1338 1288 1338 2009 
Q 1338 2731 1133 3434 
Q 928 4138 513 4856 
z
" transform="scale(0.015625)"/>
      </defs>
      <use xlink:href="#DejaVuSans-4c"/>
      <use xlink:href="#DejaVuSans-6f" x="53.962891"/>
      <use xlink:href="#DejaVuSans-67" x="115.144531"/>
      <use xlink:href="#DejaVuSans-2081" x="178.621094"/>
      <use xlink:href="#DejaVuSans-2080" x="218.708984"/>
      <use xlink:href="#DejaVuSans-28" x="258.796875"/>
      <use xlink:href="#DejaVuSans-50" x="297.810547"/>
      <use xlink:href="#DejaVuSans-72" x="356.363281"/>
      <use xlink:href="#DejaVuSans-6f" x="395.226562"/>
      <use xlink:href="#DejaVuSans-70" x="456.408203"/>
      <use xlink:href="#DejaVuSans-6f" x="519.884766"/>
      <use xlink:href="#DejaVuSans-72" x="581.066406"/>
      <use xlink:href="#DejaVuSans-74" x="622.179688"/>
      <use xlink:href="#DejaVuSans-69" x="661.388672"/>
      <use xlink:href="#DejaVuSans-6f" x="689.171875"/>
      <use xlink:href="#DejaVuSans-6e" x="750.353516"/>
      <use xlink:href="#DejaVuSans-29" x="813.732422"/>
     </g>
    </g>
   </g>
   <g id="patch_63">
    <path d="M 79.521777 465.443994 
L 79.521777 28.32 
" style="fill: none; stroke: #000000; stroke-width: 0.8; stroke-linejoin: miter; stroke-linecap: square"/>
   </g>
   <g id="patch_64">
    <path d="M 600.31 465.443994 
L 600.31 28.32 
" style="fill: none; stroke: #000000; stroke-width: 0.8; stroke-linejoin: miter; stroke-linecap: square"/>
   </g>
   <g id="patch_65">
    <path d="M 79.521777 465.443994 
L 600.31 465.443994 
" style="fill: none; stroke: #000000; stroke-width: 0.8; stroke-linejoin: miter; stroke-linecap: square"/>
   </g>
   <g id="patch_66">
    <path d="M 79.521777 28.32 
L 600.31 28.32 
" style="fill: none; stroke: #000000; stroke-width: 0.8; stroke-linejoin: miter; stroke-linecap: square"/>
   </g>
   <g id="text_18">
    <!-- Proportion of FST Values for TEs and SNPs -->
    <g transform="translate(182.958466 22.32) scale(0.15 -0.15)">
     <defs>
      <path id="DejaVuSans-66" d="M 2375 4863 
L 2375 4384 
L 1825 4384 
Q 1516 4384 1395 4259 
Q 1275 4134 1275 3809 
L 1275 3500 
L 2222 3500 
L 2222 3053 
L 1275 3053 
L 1275 0 
L 697 0 
L 697 3053 
L 147 3053 
L 147 3500 
L 697 3500 
L 697 3744 
Q 697 4328 969 4595 
Q 1241 4863 1831 4863 
L 2375 4863 
z
" transform="scale(0.015625)"/>
      <path id="DejaVuSans-56" d="M 1831 0 
L 50 4666 
L 709 4666 
L 2188 738 
L 3669 4666 
L 4325 4666 
L 2547 0 
L 1831 0 
z
" transform="scale(0.015625)"/>
      <path id="DejaVuSans-61" d="M 2194 1759 
Q 1497 1759 1228 1600 
Q 959 1441 959 1056 
Q 959 750 1161 570 
Q 1363 391 1709 391 
Q 2188 391 2477 730 
Q 2766 1069 2766 1631 
L 2766 1759 
L 2194 1759 
z
M 3341 1997 
L 3341 0 
L 2766 0 
L 2766 531 
Q 2569 213 2275 61 
Q 1981 -91 1556 -91 
Q 1019 -91 701 211 
Q 384 513 384 1019 
Q 384 1609 779 1909 
Q 1175 2209 1959 2209 
L 2766 2209 
L 2766 2266 
Q 2766 2663 2505 2880 
Q 2244 3097 1772 3097 
Q 1472 3097 1187 3025 
Q 903 2953 641 2809 
L 641 3341 
Q 956 3463 1253 3523 
Q 1550 3584 1831 3584 
Q 2591 3584 2966 3190 
Q 3341 2797 3341 1997 
z
" transform="scale(0.015625)"/>
      <path id="DejaVuSans-6c" d="M 603 4863 
L 1178 4863 
L 1178 0 
L 603 0 
L 603 4863 
z
" transform="scale(0.015625)"/>
      <path id="DejaVuSans-75" d="M 544 1381 
L 544 3500 
L 1119 3500 
L 1119 1403 
Q 1119 906 1312 657 
Q 1506 409 1894 409 
Q 2359 409 2629 706 
Q 2900 1003 2900 1516 
L 2900 3500 
L 3475 3500 
L 3475 0 
L 2900 0 
L 2900 538 
Q 2691 219 2414 64 
Q 2138 -91 1772 -91 
Q 1169 -91 856 284 
Q 544 659 544 1381 
z
M 1991 3584 
L 1991 3584 
z
" transform="scale(0.015625)"/>
      <path id="DejaVuSans-65" d="M 3597 1894 
L 3597 1613 
L 953 1613 
Q 991 1019 1311 708 
Q 1631 397 2203 397 
Q 2534 397 2845 478 
Q 3156 559 3463 722 
L 3463 178 
Q 3153 47 2828 -22 
Q 2503 -91 2169 -91 
Q 1331 -91 842 396 
Q 353 884 353 1716 
Q 353 2575 817 3079 
Q 1281 3584 2069 3584 
Q 2775 3584 3186 3129 
Q 3597 2675 3597 1894 
z
M 3022 2063 
Q 3016 2534 2758 2815 
Q 2500 3097 2075 3097 
Q 1594 3097 1305 2825 
Q 1016 2553 972 2059 
L 3022 2063 
z
" transform="scale(0.015625)"/>
      <path id="DejaVuSans-45" d="M 628 4666 
L 3578 4666 
L 3578 4134 
L 1259 4134 
L 1259 2753 
L 3481 2753 
L 3481 2222 
L 1259 2222 
L 1259 531 
L 3634 531 
L 3634 0 
L 628 0 
L 628 4666 
z
" transform="scale(0.015625)"/>
      <path id="DejaVuSans-64" d="M 2906 2969 
L 2906 4863 
L 3481 4863 
L 3481 0 
L 2906 0 
L 2906 525 
Q 2725 213 2448 61 
Q 2172 -91 1784 -91 
Q 1150 -91 751 415 
Q 353 922 353 1747 
Q 353 2572 751 3078 
Q 1150 3584 1784 3584 
Q 2172 3584 2448 3432 
Q 2725 3281 2906 2969 
z
M 947 1747 
Q 947 1113 1208 752 
Q 1469 391 1925 391 
Q 2381 391 2643 752 
Q 2906 1113 2906 1747 
Q 2906 2381 2643 2742 
Q 2381 3103 1925 3103 
Q 1469 3103 1208 2742 
Q 947 2381 947 1747 
z
" transform="scale(0.015625)"/>
      <path id="DejaVuSans-4e" d="M 628 4666 
L 1478 4666 
L 3547 763 
L 3547 4666 
L 4159 4666 
L 4159 0 
L 3309 0 
L 1241 3903 
L 1241 0 
L 628 0 
L 628 4666 
z
" transform="scale(0.015625)"/>
     </defs>
     <use xlink:href="#DejaVuSans-50"/>
     <use xlink:href="#DejaVuSans-72" x="58.552734"/>
     <use xlink:href="#DejaVuSans-6f" x="97.416016"/>
     <use xlink:href="#DejaVuSans-70" x="158.597656"/>
     <use xlink:href="#DejaVuSans-6f" x="222.074219"/>
     <use xlink:href="#DejaVuSans-72" x="283.255859"/>
     <use xlink:href="#DejaVuSans-74" x="324.369141"/>
     <use xlink:href="#DejaVuSans-69" x="363.578125"/>
     <use xlink:href="#DejaVuSans-6f" x="391.361328"/>
     <use xlink:href="#DejaVuSans-6e" x="452.542969"/>
     <use xlink:href="#DejaVuSans-20" x="515.921875"/>
     <use xlink:href="#DejaVuSans-6f" x="547.708984"/>
     <use xlink:href="#DejaVuSans-66" x="608.890625"/>
     <use xlink:href="#DejaVuSans-20" x="644.095703"/>
     <use xlink:href="#DejaVuSans-46" x="675.882812"/>
     <use xlink:href="#DejaVuSans-53" x="731.652344"/>
     <use xlink:href="#DejaVuSans-54" x="795.128906"/>
     <use xlink:href="#DejaVuSans-20" x="856.212891"/>
     <use xlink:href="#DejaVuSans-56" x="888"/>
     <use xlink:href="#DejaVuSans-61" x="948.658203"/>
     <use xlink:href="#DejaVuSans-6c" x="1009.9375"/>
     <use xlink:href="#DejaVuSans-75" x="1037.720703"/>
     <use xlink:href="#DejaVuSans-65" x="1101.099609"/>
     <use xlink:href="#DejaVuSans-73" x="1162.623047"/>
     <use xlink:href="#DejaVuSans-20" x="1214.722656"/>
     <use xlink:href="#DejaVuSans-66" x="1246.509766"/>
     <use xlink:href="#DejaVuSans-6f" x="1281.714844"/>
     <use xlink:href="#DejaVuSans-72" x="1342.896484"/>
     <use xlink:href="#DejaVuSans-20" x="1384.009766"/>
     <use xlink:href="#DejaVuSans-54" x="1415.796875"/>
     <use xlink:href="#DejaVuSans-45" x="1476.880859"/>
     <use xlink:href="#DejaVuSans-73" x="1540.064453"/>
     <use xlink:href="#DejaVuSans-20" x="1592.164062"/>
     <use xlink:href="#DejaVuSans-61" x="1623.951172"/>
     <use xlink:href="#DejaVuSans-6e" x="1685.230469"/>
     <use xlink:href="#DejaVuSans-64" x="1748.609375"/>
     <use xlink:href="#DejaVuSans-20" x="1812.085938"/>
     <use xlink:href="#DejaVuSans-53" x="1843.873047"/>
     <use xlink:href="#DejaVuSans-4e" x="1907.349609"/>
     <use xlink:href="#DejaVuSans-50" x="1982.154297"/>
     <use xlink:href="#DejaVuSans-73" x="2040.707031"/>
    </g>
   </g>
   <g id="legend_1">
    <g id="patch_67">
     <path d="M 611.51 182.03 
L 850.025 182.03 
Q 853.225 182.03 853.225 178.83 
L 853.225 39.52 
Q 853.225 36.32 850.025 36.32 
L 611.51 36.32 
Q 608.31 36.32 608.31 39.52 
L 608.31 178.83 
Q 608.31 182.03 611.51 182.03 
z
" style="fill: #ffffff; opacity: 0.8; stroke: #cccccc; stroke-linejoin: miter"/>
    </g>
    <g id="patch_68">
     <path d="M 614.71 54.8775 
L 646.71 54.8775 
L 646.71 43.6775 
L 614.71 43.6775 
z
" style="fill: #8a2be2"/>
    </g>
    <g id="text_19">
     <!-- SNPs (Brazil-Kenya) -->
     <g transform="translate(659.51 54.8775) scale(0.16 -0.16)">
      <defs>
       <path id="DejaVuSans-7a" d="M 353 3500 
L 3084 3500 
L 3084 2975 
L 922 459 
L 3084 459 
L 3084 0 
L 275 0 
L 275 525 
L 2438 3041 
L 353 3041 
L 353 3500 
z
" transform="scale(0.015625)"/>
       <path id="DejaVuSans-4b" d="M 628 4666 
L 1259 4666 
L 1259 2694 
L 3353 4666 
L 4166 4666 
L 1850 2491 
L 4331 0 
L 3500 0 
L 1259 2247 
L 1259 0 
L 628 0 
L 628 4666 
z
" transform="scale(0.015625)"/>
       <path id="DejaVuSans-79" d="M 2059 -325 
Q 1816 -950 1584 -1140 
Q 1353 -1331 966 -1331 
L 506 -1331 
L 506 -850 
L 844 -850 
Q 1081 -850 1212 -737 
Q 1344 -625 1503 -206 
L 1606 56 
L 191 3500 
L 800 3500 
L 1894 763 
L 2988 3500 
L 3597 3500 
L 2059 -325 
z
" transform="scale(0.015625)"/>
      </defs>
      <use xlink:href="#DejaVuSans-53"/>
      <use xlink:href="#DejaVuSans-4e" x="63.476562"/>
      <use xlink:href="#DejaVuSans-50" x="138.28125"/>
      <use xlink:href="#DejaVuSans-73" x="196.833984"/>
      <use xlink:href="#DejaVuSans-20" x="248.933594"/>
      <use xlink:href="#DejaVuSans-28" x="280.720703"/>
      <use xlink:href="#DejaVuSans-42" x="319.734375"/>
      <use xlink:href="#DejaVuSans-72" x="388.337891"/>
      <use xlink:href="#DejaVuSans-61" x="429.451172"/>
      <use xlink:href="#DejaVuSans-7a" x="490.730469"/>
      <use xlink:href="#DejaVuSans-69" x="543.220703"/>
      <use xlink:href="#DejaVuSans-6c" x="571.003906"/>
      <use xlink:href="#DejaVuSans-2d" x="598.787109"/>
      <use xlink:href="#DejaVuSans-4b" x="634.871094"/>
      <use xlink:href="#DejaVuSans-65" x="695.447266"/>
      <use xlink:href="#DejaVuSans-6e" x="756.970703"/>
      <use xlink:href="#DejaVuSans-79" x="820.349609"/>
      <use xlink:href="#DejaVuSans-61" x="879.529297"/>
      <use xlink:href="#DejaVuSans-29" x="940.808594"/>
     </g>
    </g>
    <g id="patch_69">
     <path d="M 614.71 78.3625 
L 646.71 78.3625 
L 646.71 67.1625 
L 614.71 67.1625 
z
" style="fill: url(#hd2f84fb321)"/>
    </g>
    <g id="text_20">
     <!-- TEs (Brazil-Kenya) -->
     <g transform="translate(659.51 78.3625) scale(0.16 -0.16)">
      <use xlink:href="#DejaVuSans-54"/>
      <use xlink:href="#DejaVuSans-45" x="61.083984"/>
      <use xlink:href="#DejaVuSans-73" x="124.267578"/>
      <use xlink:href="#DejaVuSans-20" x="176.367188"/>
      <use xlink:href="#DejaVuSans-28" x="208.154297"/>
      <use xlink:href="#DejaVuSans-42" x="247.167969"/>
      <use xlink:href="#DejaVuSans-72" x="315.771484"/>
      <use xlink:href="#DejaVuSans-61" x="356.884766"/>
      <use xlink:href="#DejaVuSans-7a" x="418.164062"/>
      <use xlink:href="#DejaVuSans-69" x="470.654297"/>
      <use xlink:href="#DejaVuSans-6c" x="498.4375"/>
      <use xlink:href="#DejaVuSans-2d" x="526.220703"/>
      <use xlink:href="#DejaVuSans-4b" x="562.304688"/>
      <use xlink:href="#DejaVuSans-65" x="622.880859"/>
      <use xlink:href="#DejaVuSans-6e" x="684.404297"/>
      <use xlink:href="#DejaVuSans-79" x="747.783203"/>
      <use xlink:href="#DejaVuSans-61" x="806.962891"/>
      <use xlink:href="#DejaVuSans-29" x="868.242188"/>
     </g>
    </g>
    <g id="patch_70">
     <path d="M 614.71 101.8475 
L 646.71 101.8475 
L 646.71 90.6475 
L 614.71 90.6475 
z
" style="fill: #005f73"/>
    </g>
    <g id="text_21">
     <!-- SNPs (Colombia-Kenya) -->
     <g transform="translate(659.51 101.8475) scale(0.16 -0.16)">
      <defs>
       <path id="DejaVuSans-43" d="M 4122 4306 
L 4122 3641 
Q 3803 3938 3442 4084 
Q 3081 4231 2675 4231 
Q 1875 4231 1450 3742 
Q 1025 3253 1025 2328 
Q 1025 1406 1450 917 
Q 1875 428 2675 428 
Q 3081 428 3442 575 
Q 3803 722 4122 1019 
L 4122 359 
Q 3791 134 3420 21 
Q 3050 -91 2638 -91 
Q 1578 -91 968 557 
Q 359 1206 359 2328 
Q 359 3453 968 4101 
Q 1578 4750 2638 4750 
Q 3056 4750 3426 4639 
Q 3797 4528 4122 4306 
z
" transform="scale(0.015625)"/>
       <path id="DejaVuSans-6d" d="M 3328 2828 
Q 3544 3216 3844 3400 
Q 4144 3584 4550 3584 
Q 5097 3584 5394 3201 
Q 5691 2819 5691 2113 
L 5691 0 
L 5113 0 
L 5113 2094 
Q 5113 2597 4934 2840 
Q 4756 3084 4391 3084 
Q 3944 3084 3684 2787 
Q 3425 2491 3425 1978 
L 3425 0 
L 2847 0 
L 2847 2094 
Q 2847 2600 2669 2842 
Q 2491 3084 2119 3084 
Q 1678 3084 1418 2786 
Q 1159 2488 1159 1978 
L 1159 0 
L 581 0 
L 581 3500 
L 1159 3500 
L 1159 2956 
Q 1356 3278 1631 3431 
Q 1906 3584 2284 3584 
Q 2666 3584 2933 3390 
Q 3200 3197 3328 2828 
z
" transform="scale(0.015625)"/>
       <path id="DejaVuSans-62" d="M 3116 1747 
Q 3116 2381 2855 2742 
Q 2594 3103 2138 3103 
Q 1681 3103 1420 2742 
Q 1159 2381 1159 1747 
Q 1159 1113 1420 752 
Q 1681 391 2138 391 
Q 2594 391 2855 752 
Q 3116 1113 3116 1747 
z
M 1159 2969 
Q 1341 3281 1617 3432 
Q 1894 3584 2278 3584 
Q 2916 3584 3314 3078 
Q 3713 2572 3713 1747 
Q 3713 922 3314 415 
Q 2916 -91 2278 -91 
Q 1894 -91 1617 61 
Q 1341 213 1159 525 
L 1159 0 
L 581 0 
L 581 4863 
L 1159 4863 
L 1159 2969 
z
" transform="scale(0.015625)"/>
      </defs>
      <use xlink:href="#DejaVuSans-53"/>
      <use xlink:href="#DejaVuSans-4e" x="63.476562"/>
      <use xlink:href="#DejaVuSans-50" x="138.28125"/>
      <use xlink:href="#DejaVuSans-73" x="196.833984"/>
      <use xlink:href="#DejaVuSans-20" x="248.933594"/>
      <use xlink:href="#DejaVuSans-28" x="280.720703"/>
      <use xlink:href="#DejaVuSans-43" x="319.734375"/>
      <use xlink:href="#DejaVuSans-6f" x="389.558594"/>
      <use xlink:href="#DejaVuSans-6c" x="450.740234"/>
      <use xlink:href="#DejaVuSans-6f" x="478.523438"/>
      <use xlink:href="#DejaVuSans-6d" x="539.705078"/>
      <use xlink:href="#DejaVuSans-62" x="637.117188"/>
      <use xlink:href="#DejaVuSans-69" x="700.59375"/>
      <use xlink:href="#DejaVuSans-61" x="728.376953"/>
      <use xlink:href="#DejaVuSans-2d" x="789.65625"/>
      <use xlink:href="#DejaVuSans-4b" x="825.740234"/>
      <use xlink:href="#DejaVuSans-65" x="886.316406"/>
      <use xlink:href="#DejaVuSans-6e" x="947.839844"/>
      <use xlink:href="#DejaVuSans-79" x="1011.21875"/>
      <use xlink:href="#DejaVuSans-61" x="1070.398438"/>
      <use xlink:href="#DejaVuSans-29" x="1131.677734"/>
     </g>
    </g>
    <g id="patch_71">
     <path d="M 614.71 125.3325 
L 646.71 125.3325 
L 646.71 114.1325 
L 614.71 114.1325 
z
" style="fill: url(#h61bee04811)"/>
    </g>
    <g id="text_22">
     <!-- TEs (Colombia-Kenya) -->
     <g transform="translate(659.51 125.3325) scale(0.16 -0.16)">
      <use xlink:href="#DejaVuSans-54"/>
      <use xlink:href="#DejaVuSans-45" x="61.083984"/>
      <use xlink:href="#DejaVuSans-73" x="124.267578"/>
      <use xlink:href="#DejaVuSans-20" x="176.367188"/>
      <use xlink:href="#DejaVuSans-28" x="208.154297"/>
      <use xlink:href="#DejaVuSans-43" x="247.167969"/>
      <use xlink:href="#DejaVuSans-6f" x="316.992188"/>
      <use xlink:href="#DejaVuSans-6c" x="378.173828"/>
      <use xlink:href="#DejaVuSans-6f" x="405.957031"/>
      <use xlink:href="#DejaVuSans-6d" x="467.138672"/>
      <use xlink:href="#DejaVuSans-62" x="564.550781"/>
      <use xlink:href="#DejaVuSans-69" x="628.027344"/>
      <use xlink:href="#DejaVuSans-61" x="655.810547"/>
      <use xlink:href="#DejaVuSans-2d" x="717.089844"/>
      <use xlink:href="#DejaVuSans-4b" x="753.173828"/>
      <use xlink:href="#DejaVuSans-65" x="813.75"/>
      <use xlink:href="#DejaVuSans-6e" x="875.273438"/>
      <use xlink:href="#DejaVuSans-79" x="938.652344"/>
      <use xlink:href="#DejaVuSans-61" x="997.832031"/>
      <use xlink:href="#DejaVuSans-29" x="1059.111328"/>
     </g>
    </g>
    <g id="patch_72">
     <path d="M 614.71 148.8175 
L 646.71 148.8175 
L 646.71 137.6175 
L 614.71 137.6175 
z
" style="fill: #4682b4"/>
    </g>
    <g id="text_23">
     <!-- SNPs (Kenya-USA) -->
     <g transform="translate(659.51 148.8175) scale(0.16 -0.16)">
      <defs>
       <path id="DejaVuSans-55" d="M 556 4666 
L 1191 4666 
L 1191 1831 
Q 1191 1081 1462 751 
Q 1734 422 2344 422 
Q 2950 422 3222 751 
Q 3494 1081 3494 1831 
L 3494 4666 
L 4128 4666 
L 4128 1753 
Q 4128 841 3676 375 
Q 3225 -91 2344 -91 
Q 1459 -91 1007 375 
Q 556 841 556 1753 
L 556 4666 
z
" transform="scale(0.015625)"/>
       <path id="DejaVuSans-41" d="M 2188 4044 
L 1331 1722 
L 3047 1722 
L 2188 4044 
z
M 1831 4666 
L 2547 4666 
L 4325 0 
L 3669 0 
L 3244 1197 
L 1141 1197 
L 716 0 
L 50 0 
L 1831 4666 
z
" transform="scale(0.015625)"/>
      </defs>
      <use xlink:href="#DejaVuSans-53"/>
      <use xlink:href="#DejaVuSans-4e" x="63.476562"/>
      <use xlink:href="#DejaVuSans-50" x="138.28125"/>
      <use xlink:href="#DejaVuSans-73" x="196.833984"/>
      <use xlink:href="#DejaVuSans-20" x="248.933594"/>
      <use xlink:href="#DejaVuSans-28" x="280.720703"/>
      <use xlink:href="#DejaVuSans-4b" x="319.734375"/>
      <use xlink:href="#DejaVuSans-65" x="380.310547"/>
      <use xlink:href="#DejaVuSans-6e" x="441.833984"/>
      <use xlink:href="#DejaVuSans-79" x="505.212891"/>
      <use xlink:href="#DejaVuSans-61" x="564.392578"/>
      <use xlink:href="#DejaVuSans-2d" x="625.671875"/>
      <use xlink:href="#DejaVuSans-55" x="661.755859"/>
      <use xlink:href="#DejaVuSans-53" x="734.949219"/>
      <use xlink:href="#DejaVuSans-41" x="800.300781"/>
      <use xlink:href="#DejaVuSans-29" x="868.708984"/>
     </g>
    </g>
    <g id="patch_73">
     <path d="M 614.71 172.3025 
L 646.71 172.3025 
L 646.71 161.1025 
L 614.71 161.1025 
z
" style="fill: url(#h5f4fe4478e)"/>
    </g>
    <g id="text_24">
     <!-- TEs (Kenya-USA) -->
     <g transform="translate(659.51 172.3025) scale(0.16 -0.16)">
      <use xlink:href="#DejaVuSans-54"/>
      <use xlink:href="#DejaVuSans-45" x="61.083984"/>
      <use xlink:href="#DejaVuSans-73" x="124.267578"/>
      <use xlink:href="#DejaVuSans-20" x="176.367188"/>
      <use xlink:href="#DejaVuSans-28" x="208.154297"/>
      <use xlink:href="#DejaVuSans-4b" x="247.167969"/>
      <use xlink:href="#DejaVuSans-65" x="307.744141"/>
      <use xlink:href="#DejaVuSans-6e" x="369.267578"/>
      <use xlink:href="#DejaVuSans-79" x="432.646484"/>
      <use xlink:href="#DejaVuSans-61" x="491.826172"/>
      <use xlink:href="#DejaVuSans-2d" x="553.105469"/>
      <use xlink:href="#DejaVuSans-55" x="589.189453"/>
      <use xlink:href="#DejaVuSans-53" x="662.382812"/>
      <use xlink:href="#DejaVuSans-41" x="727.734375"/>
      <use xlink:href="#DejaVuSans-29" x="796.142578"/>
     </g>
    </g>
   </g>
  </g>
 </g>
 <defs>
  <clipPath id="p3ded3e7484">
   <rect x="79.521777" y="28.32" width="520.788223" height="437.123994"/>
  </clipPath>
 </defs>
 <defs>
  <pattern id="hd2f84fb321" patternUnits="userSpaceOnUse" x="0" y="0" width="72" height="72">
   <rect x="0" y="0" width="73" height="73" fill="#8a2be2"/>
   <path d="M -36 36 
L 36 -36 
M -30 42 
L 42 -30 
M -24 48 
L 48 -24 
M -18 54 
L 54 -18 
M -12 60 
L 60 -12 
M -6 66 
L 66 -6 
M 0 72 
L 72 0 
M 6 78 
L 78 6 
M 12 84 
L 84 12 
M 18 90 
L 90 18 
M 24 96 
L 96 24 
M 30 102 
L 102 30 
M 36 108 
L 108 36 
" style="fill: #000000; stroke: #000000; stroke-width: 1.0; stroke-linecap: butt; stroke-linejoin: miter"/>
  </pattern>
  <pattern id="h61bee04811" patternUnits="userSpaceOnUse" x="0" y="0" width="72" height="72">
   <rect x="0" y="0" width="73" height="73" fill="#005f73"/>
   <path d="M -36 36 
L 36 -36 
M -30 42 
L 42 -30 
M -24 48 
L 48 -24 
M -18 54 
L 54 -18 
M -12 60 
L 60 -12 
M -6 66 
L 66 -6 
M 0 72 
L 72 0 
M 6 78 
L 78 6 
M 12 84 
L 84 12 
M 18 90 
L 90 18 
M 24 96 
L 96 24 
M 30 102 
L 102 30 
M 36 108 
L 108 36 
" style="fill: #000000; stroke: #000000; stroke-width: 1.0; stroke-linecap: butt; stroke-linejoin: miter"/>
  </pattern>
  <pattern id="h5f4fe4478e" patternUnits="userSpaceOnUse" x="0" y="0" width="72" height="72">
   <rect x="0" y="0" width="73" height="73" fill="#4682b4"/>
   <path d="M -36 36 
L 36 -36 
M -30 42 
L 42 -30 
M -24 48 
L 48 -24 
M -18 54 
L 54 -18 
M -12 60 
L 60 -12 
M -6 66 
L 66 -6 
M 0 72 
L 72 0 
M 6 78 
L 78 6 
M 12 84 
L 84 12 
M 18 90 
L 90 18 
M 24 96 
L 96 24 
M 30 102 
L 102 30 
M 36 108 
L 108 36 
" style="fill: #000000; stroke: #000000; stroke-width: 1.0; stroke-linecap: butt; stroke-linejoin: miter"/>
  </pattern>
 </defs>
</svg>
